<?xml version="1.0" encoding="us-ascii" standalone="no"?><svg xmlns="http://www.w3.org/2000/svg" xmlns:xlink="http://www.w3.org/1999/xlink" contentStyleType="text/css" height="680px" preserveAspectRatio="none" style="width:1572px;height:680px;background:#FFFFFF;" version="1.1" viewBox="0 0 1572 680" width="1572px" zoomAndPan="magnify"><defs/><g><!--class JobRunStatus--><g id="elem_JobRunStatus"><rect codeLine="2" fill="#F1F1F1" height="143.3396" id="JobRunStatus" rx="2.5" ry="2.5" style="stroke:#181818;stroke-width:0.5;" width="122" x="964" y="472.86"/><ellipse cx="979" cy="488.86" fill="#EB937F" rx="11" ry="11" style="stroke:#181818;stroke-width:1.0;"/><path d="M982.4688,495.36 L975.1563,495.36 L975.1563,482.6881 L982.4688,482.6881 L982.4688,484.5631 L977.2031,484.5631 L977.2031,487.8288 L982.1563,487.8288 L982.1563,489.6881 L977.2031,489.6881 L977.2031,493.485 L982.4688,493.485 L982.4688,495.36 Z " fill="#000000"/><text fill="#000000" font-family="sans-serif" font-size="14" lengthAdjust="spacing" textLength="90" x="993" y="494.292">JobRunStatus</text><line style="stroke:#181818;stroke-width:0.5;" x1="965" x2="1085" y1="504.86" y2="504.86"/><text fill="#000000" font-family="sans-serif" font-size="14" lengthAdjust="spacing" textLength="63" x="970" y="523.8259">PENDING</text><text fill="#000000" font-family="sans-serif" font-size="14" lengthAdjust="spacing" textLength="87" x="970" y="542.8939">PROCESSING</text><text fill="#000000" font-family="sans-serif" font-size="14" lengthAdjust="spacing" textLength="46" x="970" y="561.9618">FAILED</text><text fill="#000000" font-family="sans-serif" font-size="14" lengthAdjust="spacing" textLength="78" x="970" y="581.0297">CANCELLED</text><text fill="#000000" font-family="sans-serif" font-size="14" lengthAdjust="spacing" textLength="40" x="970" y="600.0976">DONE</text><line style="stroke:#181818;stroke-width:0.5;" x1="965" x2="1085" y1="608.1996" y2="608.1996"/></g><!--class JobStatus--><g id="elem_JobStatus"><rect codeLine="10" fill="#F1F1F1" height="105.2038" id="JobStatus" rx="2.5" ry="2.5" style="stroke:#181818;stroke-width:0.5;" width="99" x="95.5" y="491.92"/><ellipse cx="112.3" cy="507.92" fill="#EB937F" rx="11" ry="11" style="stroke:#181818;stroke-width:1.0;"/><path d="M115.7688,514.42 L108.4563,514.42 L108.4563,501.7481 L115.7688,501.7481 L115.7688,503.6231 L110.5031,503.6231 L110.5031,506.8887 L115.4563,506.8887 L115.4563,508.7481 L110.5031,508.7481 L110.5031,512.545 L115.7688,512.545 L115.7688,514.42 Z " fill="#000000"/><text fill="#000000" font-family="sans-serif" font-size="14" lengthAdjust="spacing" textLength="63" x="126.7" y="513.352">JobStatus</text><line style="stroke:#181818;stroke-width:0.5;" x1="96.5" x2="193.5" y1="523.92" y2="523.92"/><text fill="#000000" font-family="sans-serif" font-size="14" lengthAdjust="spacing" textLength="79" x="101.5" y="542.8859">SUBMITTED</text><text fill="#000000" font-family="sans-serif" font-size="14" lengthAdjust="spacing" textLength="87" x="101.5" y="561.9539">PROCESSING</text><text fill="#000000" font-family="sans-serif" font-size="14" lengthAdjust="spacing" textLength="79" x="101.5" y="581.0218">PROCESSED</text><line style="stroke:#181818;stroke-width:0.5;" x1="96.5" x2="193.5" y1="589.1238" y2="589.1238"/></g><!--class SourceType--><g id="elem_SourceType"><rect codeLine="16" fill="#F1F1F1" height="105.2038" id="SourceType" rx="2.5" ry="2.5" style="stroke:#181818;stroke-width:0.5;" width="124" x="350" y="491.92"/><ellipse cx="371.3" cy="507.92" fill="#EB937F" rx="11" ry="11" style="stroke:#181818;stroke-width:1.0;"/><path d="M374.7688,514.42 L367.4563,514.42 L367.4563,501.7481 L374.7688,501.7481 L374.7688,503.6231 L369.5031,503.6231 L369.5031,506.8887 L374.4563,506.8887 L374.4563,508.7481 L369.5031,508.7481 L369.5031,512.545 L374.7688,512.545 L374.7688,514.42 Z " fill="#000000"/><text fill="#000000" font-family="sans-serif" font-size="14" lengthAdjust="spacing" textLength="78" x="386.7" y="513.352">SourceType</text><line style="stroke:#181818;stroke-width:0.5;" x1="351" x2="473" y1="523.92" y2="523.92"/><text fill="#000000" font-family="sans-serif" font-size="14" lengthAdjust="spacing" textLength="67" x="356" y="542.8859">INFLUXDB</text><text fill="#000000" font-family="sans-serif" font-size="14" lengthAdjust="spacing" textLength="112" x="356" y="561.9539">PYDASE_SERVICE</text><text fill="#000000" font-family="sans-serif" font-size="14" lengthAdjust="spacing" textLength="86" x="356" y="581.0218">TIQI_PLUGIN</text><line style="stroke:#181818;stroke-width:0.5;" x1="351" x2="473" y1="589.1238" y2="589.1238"/></g><!--class JobProxy--><g id="elem_JobProxy"><rect codeLine="23" fill="#F1F1F1" height="86.1358" id="JobProxy" rx="2.5" ry="2.5" style="stroke:#181818;stroke-width:0.5;" width="141" x="1192.5" y="174.18"/><ellipse cx="1230.9" cy="190.18" fill="#ADD1B2" rx="11" ry="11" style="stroke:#181818;stroke-width:1.0;"/><path d="M1231.0094,185.7112 Q1230.0875,185.7112 1229.3531,186.0237 Q1228.6344,186.3362 1228.1344,186.93 Q1227.6344,187.5081 1227.3531,188.3831 Q1227.0875,189.2581 1227.0875,190.3519 Q1227.0875,191.7894 1227.525,192.8362 Q1227.9781,193.8831 1228.8219,194.43 Q1229.6813,194.9769 1230.9938,194.9769 Q1231.775,194.9769 1232.4625,194.8519 Q1233.1656,194.7112 1234.1656,194.3987 L1234.1656,196.2737 Q1233.3063,196.6019 1232.5406,196.7269 Q1231.7906,196.8519 1230.775,196.8519 Q1228.8531,196.8519 1227.5406,196.055 Q1226.2438,195.2425 1225.5875,193.7737 Q1224.9313,192.2894 1224.9313,190.3206 Q1224.9313,188.8987 1225.3219,187.7269 Q1225.7281,186.5394 1226.5094,185.6644 Q1227.2906,184.7894 1228.4313,184.3206 Q1229.5719,183.8362 1231.0406,183.8362 Q1231.9938,183.8362 1232.8844,184.0394 Q1233.7906,184.2269 1234.7281,184.6956 L1233.9,186.4769 Q1233.1188,186.1019 1232.4625,185.9144 Q1231.8063,185.7112 1231.0094,185.7112 Z " fill="#000000"/><text fill="#000000" font-family="sans-serif" font-size="14" lengthAdjust="spacing" textLength="57" x="1250.1" y="195.612">JobProxy</text><line style="stroke:#181818;stroke-width:0.5;" x1="1193.5" x2="1332.5" y1="206.18" y2="206.18"/><ellipse cx="1203.5" cy="221.214" fill="none" rx="3" ry="3" style="stroke:#038048;stroke-width:1.0;"/><text fill="#000000" font-family="sans-serif" font-size="14" lengthAdjust="spacing" textLength="62" x="1212.5" y="225.1459">int job_id</text><line style="stroke:#181818;stroke-width:0.5;" x1="1193.5" x2="1332.5" y1="233.2479" y2="233.2479"/><ellipse cx="1203.5" cy="248.2819" fill="#84BE84" rx="3" ry="3" style="stroke:#038048;stroke-width:1.0;"/><text fill="#000000" font-family="sans-serif" font-size="14" lengthAdjust="spacing" textLength="115" x="1212.5" y="252.2139">void toggle_plot()</text></g><!--class ScanParameterModel--><g id="elem_ScanParameterModel"><rect codeLine="29" fill="#F1F1F1" height="162.4075" id="ScanParameterModel" rx="2.5" ry="2.5" style="stroke:#181818;stroke-width:0.5;" width="176" x="541" y="136.04"/><ellipse cx="556" cy="152.04" fill="#ADD1B2" rx="11" ry="11" style="stroke:#181818;stroke-width:1.0;"/><path d="M556.1094,147.5712 Q555.1875,147.5712 554.4531,147.8837 Q553.7344,148.1962 553.2344,148.79 Q552.7344,149.3681 552.4531,150.2431 Q552.1875,151.1181 552.1875,152.2119 Q552.1875,153.6494 552.625,154.6962 Q553.0781,155.7431 553.9219,156.29 Q554.7813,156.8369 556.0938,156.8369 Q556.875,156.8369 557.5625,156.7119 Q558.2656,156.5712 559.2656,156.2587 L559.2656,158.1337 Q558.4063,158.4619 557.6406,158.5869 Q556.8906,158.7119 555.875,158.7119 Q553.9531,158.7119 552.6406,157.915 Q551.3438,157.1025 550.6875,155.6337 Q550.0313,154.1494 550.0313,152.1806 Q550.0313,150.7587 550.4219,149.5869 Q550.8281,148.3994 551.6094,147.5244 Q552.3906,146.6494 553.5313,146.1806 Q554.6719,145.6962 556.1406,145.6962 Q557.0938,145.6962 557.9844,145.8994 Q558.8906,146.0869 559.8281,146.5556 L559,148.3369 Q558.2188,147.9619 557.5625,147.7744 Q556.9063,147.5712 556.1094,147.5712 Z " fill="#000000"/><text fill="#000000" font-family="sans-serif" font-size="14" lengthAdjust="spacing" textLength="144" x="570" y="157.472">ScanParameterModel</text><line style="stroke:#181818;stroke-width:0.5;" x1="542" x2="716" y1="168.04" y2="168.04"/><ellipse cx="552" cy="183.074" fill="none" rx="3" ry="3" style="stroke:#038048;stroke-width:1.0;"/><text fill="#000000" font-family="sans-serif" font-size="14" lengthAdjust="spacing" textLength="149" x="561" y="187.0059">int scan_parameter_id</text><ellipse cx="552" cy="202.1419" fill="none" rx="3" ry="3" style="stroke:#038048;stroke-width:1.0;"/><text fill="#000000" font-family="sans-serif" font-size="14" lengthAdjust="spacing" textLength="62" x="561" y="206.0739">int job_id</text><ellipse cx="552" cy="221.2098" fill="none" rx="3" ry="3" style="stroke:#038048;stroke-width:1.0;"/><text fill="#000000" font-family="sans-serif" font-size="14" lengthAdjust="spacing" textLength="140" x="561" y="225.1418">int remote_source_id</text><ellipse cx="552" cy="240.2777" fill="none" rx="3" ry="3" style="stroke:#038048;stroke-width:1.0;"/><text fill="#000000" font-family="sans-serif" font-size="14" lengthAdjust="spacing" textLength="120" x="561" y="244.2097">str variable_name</text><ellipse cx="552" cy="259.3456" fill="none" rx="3" ry="3" style="stroke:#038048;stroke-width:1.0;"/><text fill="#000000" font-family="sans-serif" font-size="14" lengthAdjust="spacing" textLength="98" x="561" y="263.2776">str description</text><ellipse cx="552" cy="278.4135" fill="none" rx="3" ry="3" style="stroke:#038048;stroke-width:1.0;"/><text fill="#000000" font-family="sans-serif" font-size="14" lengthAdjust="spacing" textLength="148" x="561" y="282.3455">number[] scan_values</text><line style="stroke:#181818;stroke-width:0.5;" x1="542" x2="716" y1="290.4475" y2="290.4475"/></g><!--class RemoteSourceModel--><g id="elem_RemoteSourceModel"><rect codeLine="38" fill="#F1F1F1" height="181.4754" id="RemoteSourceModel" rx="2.5" ry="2.5" style="stroke:#181818;stroke-width:0.5;" width="188" x="318" y="126.51"/><ellipse cx="340.65" cy="142.51" fill="#ADD1B2" rx="11" ry="11" style="stroke:#181818;stroke-width:1.0;"/><path d="M340.7594,138.0413 Q339.8375,138.0413 339.1031,138.3538 Q338.3844,138.6663 337.8844,139.26 Q337.3844,139.8381 337.1031,140.7131 Q336.8375,141.5881 336.8375,142.6819 Q336.8375,144.1194 337.275,145.1663 Q337.7281,146.2131 338.5719,146.76 Q339.4313,147.3069 340.7438,147.3069 Q341.525,147.3069 342.2125,147.1819 Q342.9156,147.0413 343.9156,146.7288 L343.9156,148.6038 Q343.0563,148.9319 342.2906,149.0569 Q341.5406,149.1819 340.525,149.1819 Q338.6031,149.1819 337.2906,148.385 Q335.9938,147.5725 335.3375,146.1038 Q334.6813,144.6194 334.6813,142.6506 Q334.6813,141.2288 335.0719,140.0569 Q335.4781,138.8694 336.2594,137.9944 Q337.0406,137.1194 338.1813,136.6506 Q339.3219,136.1663 340.7906,136.1663 Q341.7438,136.1663 342.6344,136.3694 Q343.5406,136.5569 344.4781,137.0256 L343.65,138.8069 Q342.8688,138.4319 342.2125,138.2444 Q341.5563,138.0413 340.7594,138.0413 Z " fill="#000000"/><text fill="#000000" font-family="sans-serif" font-size="14" lengthAdjust="spacing" textLength="139" x="356.35" y="147.942">RemoteSourceModel</text><line style="stroke:#181818;stroke-width:0.5;" x1="319" x2="505" y1="158.51" y2="158.51"/><ellipse cx="329" cy="173.544" fill="none" rx="3" ry="3" style="stroke:#038048;stroke-width:1.0;"/><text fill="#000000" font-family="sans-serif" font-size="14" lengthAdjust="spacing" textLength="140" x="338" y="177.4759">int remote_source_id</text><ellipse cx="329" cy="192.6119" fill="none" rx="3" ry="3" style="stroke:#038048;stroke-width:1.0;"/><text fill="#000000" font-family="sans-serif" font-size="14" lengthAdjust="spacing" textLength="60" x="338" y="196.5439">str name</text><ellipse cx="329" cy="211.6798" fill="none" rx="3" ry="3" style="stroke:#038048;stroke-width:1.0;"/><text fill="#000000" font-family="sans-serif" font-size="14" lengthAdjust="spacing" textLength="89" x="338" y="215.6118">str hostname</text><ellipse cx="329" cy="230.7477" fill="none" rx="3" ry="3" style="stroke:#038048;stroke-width:1.0;"/><text fill="#000000" font-family="sans-serif" font-size="14" lengthAdjust="spacing" textLength="50" x="338" y="234.6797">int port</text><ellipse cx="329" cy="249.8156" fill="none" rx="3" ry="3" style="stroke:#038048;stroke-width:1.0;"/><text fill="#000000" font-family="sans-serif" font-size="14" lengthAdjust="spacing" textLength="72" x="338" y="253.7476">active bool</text><ellipse cx="329" cy="268.8835" fill="none" rx="3" ry="3" style="stroke:#038048;stroke-width:1.0;"/><text fill="#000000" font-family="sans-serif" font-size="14" lengthAdjust="spacing" textLength="98" x="338" y="272.8155">str description</text><ellipse cx="329" cy="287.9515" fill="none" rx="3" ry="3" style="stroke:#038048;stroke-width:1.0;"/><text fill="#000000" font-family="sans-serif" font-size="14" lengthAdjust="spacing" textLength="162" x="338" y="291.8834">SourceType source_type</text><line style="stroke:#181818;stroke-width:0.5;" x1="319" x2="505" y1="299.9854" y2="299.9854"/></g><!--class ExperimentSourceModel--><g id="elem_ExperimentSourceModel"><rect codeLine="48" fill="#F1F1F1" height="105.2038" id="ExperimentSourceModel" rx="2.5" ry="2.5" style="stroke:#181818;stroke-width:0.5;" width="197" x="1368.5" y="164.64"/><ellipse cx="1383.5" cy="180.64" fill="#ADD1B2" rx="11" ry="11" style="stroke:#181818;stroke-width:1.0;"/><path d="M1383.6094,176.1713 Q1382.6875,176.1713 1381.9531,176.4838 Q1381.2344,176.7963 1380.7344,177.39 Q1380.2344,177.9681 1379.9531,178.8431 Q1379.6875,179.7181 1379.6875,180.8119 Q1379.6875,182.2494 1380.125,183.2963 Q1380.5781,184.3431 1381.4219,184.89 Q1382.2813,185.4369 1383.5938,185.4369 Q1384.375,185.4369 1385.0625,185.3119 Q1385.7656,185.1713 1386.7656,184.8588 L1386.7656,186.7338 Q1385.9063,187.0619 1385.1406,187.1869 Q1384.3906,187.3119 1383.375,187.3119 Q1381.4531,187.3119 1380.1406,186.515 Q1378.8438,185.7025 1378.1875,184.2338 Q1377.5313,182.7494 1377.5313,180.7806 Q1377.5313,179.3588 1377.9219,178.1869 Q1378.3281,176.9994 1379.1094,176.1244 Q1379.8906,175.2494 1381.0313,174.7806 Q1382.1719,174.2963 1383.6406,174.2963 Q1384.5938,174.2963 1385.4844,174.4994 Q1386.3906,174.6869 1387.3281,175.1556 L1386.5,176.9369 Q1385.7188,176.5619 1385.0625,176.3744 Q1384.4063,176.1713 1383.6094,176.1713 Z " fill="#000000"/><text fill="#000000" font-family="sans-serif" font-size="14" lengthAdjust="spacing" textLength="165" x="1397.5" y="186.072">ExperimentSourceModel</text><line style="stroke:#181818;stroke-width:0.5;" x1="1369.5" x2="1564.5" y1="196.64" y2="196.64"/><ellipse cx="1379.5" cy="211.674" fill="none" rx="3" ry="3" style="stroke:#038048;stroke-width:1.0;"/><text fill="#000000" font-family="sans-serif" font-size="14" lengthAdjust="spacing" textLength="169" x="1388.5" y="215.6059">int experiment_source_id</text><ellipse cx="1379.5" cy="230.7419" fill="none" rx="3" ry="3" style="stroke:#038048;stroke-width:1.0;"/><text fill="#000000" font-family="sans-serif" font-size="14" lengthAdjust="spacing" textLength="60" x="1388.5" y="234.6739">str name</text><ellipse cx="1379.5" cy="249.8098" fill="none" rx="3" ry="3" style="stroke:#038048;stroke-width:1.0;"/><text fill="#000000" font-family="sans-serif" font-size="14" lengthAdjust="spacing" textLength="80" x="1388.5" y="253.7418">str file_path</text><line style="stroke:#181818;stroke-width:0.5;" x1="1369.5" x2="1564.5" y1="261.8438" y2="261.8438"/></g><!--class JobModel--><g id="elem_JobModel"><rect codeLine="54" fill="#F1F1F1" height="276.815" id="JobModel" rx="2.5" ry="2.5" style="stroke:#181818;stroke-width:0.5;" width="276" x="7" y="78.84"/><ellipse cx="109.25" cy="94.84" fill="#ADD1B2" rx="11" ry="11" style="stroke:#181818;stroke-width:1.0;"/><path d="M109.3594,90.3713 Q108.4375,90.3713 107.7031,90.6838 Q106.9844,90.9963 106.4844,91.59 Q105.9844,92.1681 105.7031,93.0431 Q105.4375,93.9181 105.4375,95.0119 Q105.4375,96.4494 105.875,97.4963 Q106.3281,98.5431 107.1719,99.09 Q108.0313,99.6369 109.3438,99.6369 Q110.125,99.6369 110.8125,99.5119 Q111.5156,99.3713 112.5156,99.0588 L112.5156,100.9338 Q111.6563,101.2619 110.8906,101.3869 Q110.1406,101.5119 109.125,101.5119 Q107.2031,101.5119 105.8906,100.715 Q104.5938,99.9025 103.9375,98.4338 Q103.2813,96.9494 103.2813,94.9806 Q103.2813,93.5588 103.6719,92.3869 Q104.0781,91.1994 104.8594,90.3244 Q105.6406,89.4494 106.7813,88.9806 Q107.9219,88.4963 109.3906,88.4963 Q110.3438,88.4963 111.2344,88.6994 Q112.1406,88.8869 113.0781,89.3556 L112.25,91.1369 Q111.4688,90.7619 110.8125,90.5744 Q110.1563,90.3713 109.3594,90.3713 Z " fill="#000000"/><text fill="#000000" font-family="sans-serif" font-size="14" lengthAdjust="spacing" textLength="63" x="129.75" y="100.272">JobModel</text><line style="stroke:#181818;stroke-width:0.5;" x1="8" x2="282" y1="110.84" y2="110.84"/><ellipse cx="18" cy="125.874" fill="none" rx="3" ry="3" style="stroke:#038048;stroke-width:1.0;"/><text fill="#000000" font-family="sans-serif" font-size="14" lengthAdjust="spacing" textLength="62" x="27" y="129.8059">int job_id</text><ellipse cx="18" cy="144.9419" fill="none" rx="3" ry="3" style="stroke:#038048;stroke-width:1.0;"/><text fill="#000000" font-family="sans-serif" font-size="14" lengthAdjust="spacing" textLength="115" x="27" y="148.8739">datetime created</text><ellipse cx="18" cy="164.0098" fill="none" rx="3" ry="3" style="stroke:#038048;stroke-width:1.0;"/><text fill="#000000" font-family="sans-serif" font-size="14" lengthAdjust="spacing" textLength="71" x="27" y="167.9418">int user_id</text><ellipse cx="18" cy="183.0777" fill="none" rx="3" ry="3" style="stroke:#038048;stroke-width:1.0;"/><text fill="#000000" font-family="sans-serif" font-size="14" lengthAdjust="spacing" textLength="169" x="27" y="187.0097">int experiment_source_id</text><ellipse cx="18" cy="202.1456" fill="none" rx="3" ry="3" style="stroke:#038048;stroke-width:1.0;"/><text fill="#000000" font-family="sans-serif" font-size="14" lengthAdjust="spacing" textLength="108" x="27" y="206.0776">JobStatus status</text><ellipse cx="18" cy="221.2135" fill="none" rx="3" ry="3" style="stroke:#038048;stroke-width:1.0;"/><text fill="#000000" font-family="sans-serif" font-size="14" lengthAdjust="spacing" textLength="135" x="27" y="225.1455">str git_commit_hash</text><ellipse cx="18" cy="240.2815" fill="none" rx="3" ry="3" style="stroke:#038048;stroke-width:1.0;"/><text fill="#000000" font-family="sans-serif" font-size="14" lengthAdjust="spacing" textLength="71" x="27" y="244.2134">int priority</text><ellipse cx="18" cy="259.3494" fill="none" rx="3" ry="3" style="stroke:#038048;stroke-width:1.0;"/><text fill="#000000" font-family="sans-serif" font-size="14" lengthAdjust="spacing" textLength="95" x="27" y="263.2814">int repetitions</text><ellipse cx="18" cy="278.4173" fill="none" rx="3" ry="3" style="stroke:#038048;stroke-width:1.0;"/><text fill="#000000" font-family="sans-serif" font-size="14" lengthAdjust="spacing" textLength="250" x="27" y="282.3493">datetime local_parameter_timestamp</text><ellipse cx="18" cy="297.4852" fill="none" rx="3" ry="3" style="stroke:#038048;stroke-width:1.0;"/><text fill="#000000" font-family="sans-serif" font-size="14" lengthAdjust="spacing" textLength="141" x="27" y="301.4172">bool auto_calibration</text><ellipse cx="18" cy="316.5531" fill="none" rx="3" ry="3" style="stroke:#038048;stroke-width:1.0;"/><text fill="#000000" font-family="sans-serif" font-size="14" lengthAdjust="spacing" textLength="121" x="27" y="320.4851">bool debug_mode</text><ellipse cx="18" cy="335.621" fill="none" rx="3" ry="3" style="stroke:#038048;stroke-width:1.0;"/><text fill="#000000" font-family="sans-serif" font-size="14" lengthAdjust="spacing" textLength="113" x="27" y="339.553">int parent_job_id</text><line style="stroke:#181818;stroke-width:0.5;" x1="8" x2="282" y1="347.655" y2="347.655"/></g><!--class UserModel--><g id="elem_UserModel"><rect codeLine="69" fill="#F1F1F1" height="105.2038" id="UserModel" rx="2.5" ry="2.5" style="stroke:#181818;stroke-width:0.5;" width="141" x="751.5" y="164.64"/><ellipse cx="782.7" cy="180.64" fill="#ADD1B2" rx="11" ry="11" style="stroke:#181818;stroke-width:1.0;"/><path d="M782.8094,176.1713 Q781.8875,176.1713 781.1531,176.4838 Q780.4344,176.7963 779.9344,177.39 Q779.4344,177.9681 779.1531,178.8431 Q778.8875,179.7181 778.8875,180.8119 Q778.8875,182.2494 779.325,183.2963 Q779.7781,184.3431 780.6219,184.89 Q781.4813,185.4369 782.7938,185.4369 Q783.575,185.4369 784.2625,185.3119 Q784.9656,185.1713 785.9656,184.8588 L785.9656,186.7338 Q785.1063,187.0619 784.3406,187.1869 Q783.5906,187.3119 782.575,187.3119 Q780.6531,187.3119 779.3406,186.515 Q778.0438,185.7025 777.3875,184.2338 Q776.7313,182.7494 776.7313,180.7806 Q776.7313,179.3588 777.1219,178.1869 Q777.5281,176.9994 778.3094,176.1244 Q779.0906,175.2494 780.2313,174.7806 Q781.3719,174.2963 782.8406,174.2963 Q783.7938,174.2963 784.6844,174.4994 Q785.5906,174.6869 786.5281,175.1556 L785.7,176.9369 Q784.9188,176.5619 784.2625,176.3744 Q783.6063,176.1713 782.8094,176.1713 Z " fill="#000000"/><text fill="#000000" font-family="sans-serif" font-size="14" lengthAdjust="spacing" textLength="73" x="800.3" y="186.072">UserModel</text><line style="stroke:#181818;stroke-width:0.5;" x1="752.5" x2="891.5" y1="196.64" y2="196.64"/><ellipse cx="762.5" cy="211.674" fill="none" rx="3" ry="3" style="stroke:#038048;stroke-width:1.0;"/><text fill="#000000" font-family="sans-serif" font-size="14" lengthAdjust="spacing" textLength="71" x="771.5" y="215.6059">int user_id</text><ellipse cx="762.5" cy="230.7419" fill="none" rx="3" ry="3" style="stroke:#038048;stroke-width:1.0;"/><text fill="#000000" font-family="sans-serif" font-size="14" lengthAdjust="spacing" textLength="60" x="771.5" y="234.6739">str name</text><ellipse cx="762.5" cy="249.8098" fill="none" rx="3" ry="3" style="stroke:#038048;stroke-width:1.0;"/><text fill="#000000" font-family="sans-serif" font-size="14" lengthAdjust="spacing" textLength="115" x="771.5" y="253.7418">datetime created</text><line style="stroke:#181818;stroke-width:0.5;" x1="752.5" x2="891.5" y1="261.8438" y2="261.8438"/></g><!--class JobRunModel--><g id="elem_JobRunModel"><rect codeLine="75" fill="#F1F1F1" height="143.3396" id="JobRunModel" rx="2.5" ry="2.5" style="stroke:#181818;stroke-width:0.5;" width="196" x="927" y="145.58"/><ellipse cx="975.75" cy="161.58" fill="#ADD1B2" rx="11" ry="11" style="stroke:#181818;stroke-width:1.0;"/><path d="M975.8594,157.1112 Q974.9375,157.1112 974.2031,157.4237 Q973.4844,157.7362 972.9844,158.33 Q972.4844,158.9081 972.2031,159.7831 Q971.9375,160.6581 971.9375,161.7519 Q971.9375,163.1894 972.375,164.2362 Q972.8281,165.2831 973.6719,165.83 Q974.5313,166.3769 975.8438,166.3769 Q976.625,166.3769 977.3125,166.2519 Q978.0156,166.1112 979.0156,165.7987 L979.0156,167.6737 Q978.1563,168.0019 977.3906,168.1269 Q976.6406,168.2519 975.625,168.2519 Q973.7031,168.2519 972.3906,167.455 Q971.0938,166.6425 970.4375,165.1737 Q969.7813,163.6894 969.7813,161.7206 Q969.7813,160.2987 970.1719,159.1269 Q970.5781,157.9394 971.3594,157.0644 Q972.1406,156.1894 973.2813,155.7206 Q974.4219,155.2362 975.8906,155.2362 Q976.8438,155.2362 977.7344,155.4394 Q978.6406,155.6269 979.5781,156.0956 L978.75,157.8769 Q977.9688,157.5019 977.3125,157.3144 Q976.6563,157.1112 975.8594,157.1112 Z " fill="#000000"/><text fill="#000000" font-family="sans-serif" font-size="14" lengthAdjust="spacing" textLength="90" x="996.25" y="167.012">JobRunModel</text><line style="stroke:#181818;stroke-width:0.5;" x1="928" x2="1122" y1="177.58" y2="177.58"/><ellipse cx="938" cy="192.614" fill="none" rx="3" ry="3" style="stroke:#038048;stroke-width:1.0;"/><text fill="#000000" font-family="sans-serif" font-size="14" lengthAdjust="spacing" textLength="92" x="947" y="196.5459">int job_run_id</text><ellipse cx="938" cy="211.6819" fill="none" rx="3" ry="3" style="stroke:#038048;stroke-width:1.0;"/><text fill="#000000" font-family="sans-serif" font-size="14" lengthAdjust="spacing" textLength="170" x="947" y="215.6139">datetime scheduled_time</text><ellipse cx="938" cy="230.7498" fill="none" rx="3" ry="3" style="stroke:#038048;stroke-width:1.0;"/><text fill="#000000" font-family="sans-serif" font-size="14" lengthAdjust="spacing" textLength="62" x="947" y="234.6818">int job_id</text><ellipse cx="938" cy="249.8177" fill="none" rx="3" ry="3" style="stroke:#038048;stroke-width:1.0;"/><text fill="#000000" font-family="sans-serif" font-size="14" lengthAdjust="spacing" textLength="135" x="947" y="253.7497">JobRunStatus status</text><ellipse cx="938" cy="268.8856" fill="none" rx="3" ry="3" style="stroke:#038048;stroke-width:1.0;"/><text fill="#000000" font-family="sans-serif" font-size="14" lengthAdjust="spacing" textLength="168" x="947" y="272.8176">str log  # job information</text><line style="stroke:#181818;stroke-width:0.5;" x1="928" x2="1122" y1="280.9196" y2="280.9196"/></g><!--class PreProcessingTask--><g id="elem_PreProcessingTask"><rect codeLine="93" fill="#F1F1F1" height="257.7471" id="PreProcessingTask" rx="2.5" ry="2.5" style="stroke:#181818;stroke-width:0.5;" width="283" x="1121.5" y="415.65"/><ellipse cx="1196.25" cy="431.65" fill="#ADD1B2" rx="11" ry="11" style="stroke:#181818;stroke-width:1.0;"/><path d="M1196.3594,427.1813 Q1195.4375,427.1813 1194.7031,427.4938 Q1193.9844,427.8063 1193.4844,428.4 Q1192.9844,428.9781 1192.7031,429.8531 Q1192.4375,430.7281 1192.4375,431.8219 Q1192.4375,433.2594 1192.875,434.3063 Q1193.3281,435.3531 1194.1719,435.9 Q1195.0313,436.4469 1196.3438,436.4469 Q1197.125,436.4469 1197.8125,436.3219 Q1198.5156,436.1813 1199.5156,435.8688 L1199.5156,437.7438 Q1198.6563,438.0719 1197.8906,438.1969 Q1197.1406,438.3219 1196.125,438.3219 Q1194.2031,438.3219 1192.8906,437.525 Q1191.5938,436.7125 1190.9375,435.2438 Q1190.2813,433.7594 1190.2813,431.7906 Q1190.2813,430.3688 1190.6719,429.1969 Q1191.0781,428.0094 1191.8594,427.1344 Q1192.6406,426.2594 1193.7813,425.7906 Q1194.9219,425.3063 1196.3906,425.3063 Q1197.3438,425.3063 1198.2344,425.5094 Q1199.1406,425.6969 1200.0781,426.1656 L1199.25,427.9469 Q1198.4688,427.5719 1197.8125,427.3844 Q1197.1563,427.1813 1196.3594,427.1813 Z " fill="#000000"/><text fill="#000000" font-family="sans-serif" font-size="14" lengthAdjust="spacing" textLength="125" x="1216.75" y="437.082">PreProcessingTask</text><line style="stroke:#181818;stroke-width:0.5;" x1="1122.5" x2="1403.5" y1="447.65" y2="447.65"/><ellipse cx="1132.5" cy="462.684" fill="none" rx="3" ry="3" style="stroke:#038048;stroke-width:1.0;"/><text fill="#000000" font-family="sans-serif" font-size="14" lengthAdjust="spacing" textLength="62" x="1141.5" y="466.6159">int job_id</text><ellipse cx="1132.5" cy="481.7519" fill="none" rx="3" ry="3" style="stroke:#038048;stroke-width:1.0;"/><text fill="#000000" font-family="sans-serif" font-size="14" lengthAdjust="spacing" textLength="92" x="1141.5" y="485.6839">int job_run_id</text><ellipse cx="1132.5" cy="500.8198" fill="none" rx="3" ry="3" style="stroke:#038048;stroke-width:1.0;"/><text fill="#000000" font-family="sans-serif" font-size="14" lengthAdjust="spacing" textLength="163" x="1141.5" y="504.7518">str experiment_file_path</text><ellipse cx="1132.5" cy="519.8877" fill="none" rx="3" ry="3" style="stroke:#038048;stroke-width:1.0;"/><text fill="#000000" font-family="sans-serif" font-size="14" lengthAdjust="spacing" textLength="143" x="1141.5" y="523.8197">str experiment_name</text><ellipse cx="1132.5" cy="538.9556" fill="none" rx="3" ry="3" style="stroke:#038048;stroke-width:1.0;"/><text fill="#000000" font-family="sans-serif" font-size="14" lengthAdjust="spacing" textLength="187" x="1141.5" y="542.8876">str | None git_commit_hash</text><ellipse cx="1132.5" cy="558.0235" fill="none" rx="3" ry="3" style="stroke:#038048;stroke-width:1.0;"/><text fill="#000000" font-family="sans-serif" font-size="14" lengthAdjust="spacing" textLength="71" x="1141.5" y="561.9555">int priority</text><ellipse cx="1132.5" cy="577.0915" fill="none" rx="3" ry="3" style="stroke:#038048;stroke-width:1.0;"/><text fill="#000000" font-family="sans-serif" font-size="14" lengthAdjust="spacing" textLength="257" x="1141.5" y="581.0234">datetime local_parameters_timestamp</text><ellipse cx="1132.5" cy="596.1594" fill="none" rx="3" ry="3" style="stroke:#038048;stroke-width:1.0;"/><text fill="#000000" font-family="sans-serif" font-size="14" lengthAdjust="spacing" textLength="141" x="1141.5" y="600.0914">bool auto_calibration</text><ellipse cx="1132.5" cy="615.2273" fill="none" rx="3" ry="3" style="stroke:#038048;stroke-width:1.0;"/><text fill="#000000" font-family="sans-serif" font-size="14" lengthAdjust="spacing" textLength="121" x="1141.5" y="619.1593">bool debug_mode</text><ellipse cx="1132.5" cy="634.2952" fill="none" rx="3" ry="3" style="stroke:#038048;stroke-width:1.0;"/><text fill="#000000" font-family="sans-serif" font-size="14" lengthAdjust="spacing" textLength="95" x="1141.5" y="638.2272">int repetitions</text><ellipse cx="1132.5" cy="653.3631" fill="none" rx="3" ry="3" style="stroke:#038048;stroke-width:1.0;"/><text fill="#000000" font-family="sans-serif" font-size="14" lengthAdjust="spacing" textLength="183" x="1141.5" y="657.2951">number[] scan_parameters</text><line style="stroke:#181818;stroke-width:0.5;" x1="1122.5" x2="1403.5" y1="665.3971" y2="665.3971"/></g><!--link JobModel to RemoteSourceModel--><!--reverse link RemoteSourceModel to ScanParameterModel--><!--link ScanParameterModel to UserModel--><!--reverse link JobModel to UserModel--><!--link UserModel to JobRunModel--><!--reverse link JobRunModel to JobRunStatus--><g id="link_JobRunModel_JobRunStatus"><path codeLine="89" d="M1025,301.23 C1025,355.53 1025,418.08 1025,472.42 " fill="none" id="JobRunModel-backto-JobRunStatus" style="stroke:#181818;stroke-width:1.0;"/><polygon fill="#181818" points="1025,289.23,1021,295.23,1025,301.23,1029,295.23,1025,289.23" style="stroke:#181818;stroke-width:1.0;"/></g><!--reverse link RemoteSourceModel to SourceType--><g id="link_RemoteSourceModel_SourceType"><path codeLine="90" d="M412,320.42 C412,379.46 412,442.51 412,491.73 " fill="none" id="RemoteSourceModel-backto-SourceType" style="stroke:#181818;stroke-width:1.0;"/><polygon fill="#181818" points="412,308.42,408,314.42,412,320.42,416,314.42,412,308.42" style="stroke:#181818;stroke-width:1.0;"/></g><!--reverse link JobModel to JobStatus--><g id="link_JobModel_JobStatus"><path codeLine="91" d="M145,367.72 C145,415.75 145,454.78 145,491.51 " fill="none" id="JobModel-backto-JobStatus" style="stroke:#181818;stroke-width:1.0;"/><polygon fill="#181818" points="145,355.72,141,361.72,145,367.72,149,361.72,145,355.72" style="stroke:#181818;stroke-width:1.0;"/></g><!--SRC=[hLHjRvim4FxEhx2qBtjH_aAaDA4LKqgpa4oRgWePk89Ri95jeaRR_ljiS6BpagYJnXViEz_Tu-UvCz2cGbzPicre9B5i1Fhb8VLj_70LX7VTUlkmzAFejBrT16j_rIwNYt3fhq-xrKFeUtyy3qpENi9eVtCVx7Rcw22bsIhdAJnY3KzXTwp1n0VXxNh_OtNJdV-vMaH-7FdRxy7IRqsxu5iGRzRxko3KIRoqn49e51lEteucoHT4g4GlB8b9PWm7HZ8aMPwN4DSbany_EU5HYka6Sro117xFCYXxYOHon_N9RtEEYcW3Xuf9Y4LxCUiIagC3vWGd2W1LcHnx1YBbf9Q4KMDLr2J07v-wqWTSDY0qtWxkjYtHKJT6UmN0e6x1X7HCEhXcN9ejJYKv04eOAwzYTIGqDQLQMxJ-MmsSL43b9SHmFl4UrCz4IuXbOKie-STPUyfaM89K9L3AGIrTmHenrFGA7jlkelqvk78YuvHLbVeLM1GkgPmmJkIn9rAjy6WMnH1XoL9SEkscZQfOLPk3MX246ybYTOua73jQjBuCaYQFAqM8Ym5pVHz3ofcvlPXg-3ub0mr6LBeogFTbMWdUq0arH5f0rfIGjRUy95xltHhnNh8SeGywGaK-CrvrXEZfFlV5xB4WMGRqYS_cu_7n9kR_757-SyJSikfPVct2-RbVfznyxlBekPn-dirwN7ZZXq0ViGDf2J2X9ixejU6WNiqKX20qts7nUdb-9cNKx3kpOWTpqZqOuzyeP1JUFpMNvaFyfm4PJsJ_4RO5LMlz1G00]--></g></svg>