<?xml version="1.0" encoding="us-ascii" standalone="no"?><svg xmlns="http://www.w3.org/2000/svg" xmlns:xlink="http://www.w3.org/1999/xlink" contentStyleType="text/css" height="665px" preserveAspectRatio="none" style="width:602px;height:665px;background:#FFFFFF;" version="1.1" viewBox="0 0 602 665" width="602px" zoomAndPan="magnify"><defs/><g><ellipse cx="224.375" cy="20" fill="#222222" rx="10" ry="10" style="stroke:#222222;stroke-width:1.0;"/><path d="M284.375,96.3441 L284.375,159.4622 L487.375,159.4622 L487.375,106.3441 L477.375,96.3441 L284.375,96.3441 " fill="#FEFFDD" style="stroke:#181818;stroke-width:0.5;"/><path d="M477.375,96.3441 L477.375,106.3441 L487.375,106.3441 L477.375,96.3441 " fill="#FEFFDD" style="stroke:#181818;stroke-width:0.5;"/><text fill="#000000" font-family="sans-serif" font-size="13" lengthAdjust="spacing" textLength="181" x="290.375" y="115.2411">Check if the global parameters</text><text fill="#000000" font-family="sans-serif" font-size="13" lengthAdjust="spacing" textLength="172" x="290.375" y="132.9471">and the local parameters (for</text><text fill="#000000" font-family="sans-serif" font-size="13" lengthAdjust="spacing" textLength="182" x="290.375" y="150.6532">real-time scans) are up-to-date</text><polygon fill="#F1F1F1" points="176.375,159.4622,272.375,159.4622,284.375,171.4622,272.375,183.4622,176.375,183.4622,164.375,171.4622,176.375,159.4622" style="stroke:#181818;stroke-width:0.5;"/><text fill="#000000" font-family="sans-serif" font-size="11" lengthAdjust="spacing" textLength="96" x="176.375" y="175.7301">Job was cancelled?</text><text fill="#000000" font-family="sans-serif" font-size="11" lengthAdjust="spacing" textLength="17" x="147.375" y="168.2392">yes</text><text fill="#000000" font-family="sans-serif" font-size="11" lengthAdjust="spacing" textLength="14" x="284.375" y="168.2392">no</text><rect fill="#F1F1F1" height="52.6882" rx="12.5" ry="12.5" style="stroke:#181818;stroke-width:0.5;" width="108" x="11" y="193.4622"/><text fill="#000000" font-family="sans-serif" font-size="12" lengthAdjust="spacing" textLength="88" x="21" y="216.2903">Mark data point</text><text fill="#000000" font-family="sans-serif" font-size="12" lengthAdjust="spacing" textLength="69" x="21" y="232.6344">as cancelled</text><polygon fill="#F1F1F1" points="321.75,193.4622,445.75,193.4622,457.75,205.4622,445.75,217.4622,321.75,217.4622,309.75,205.4622,321.75,193.4622" style="stroke:#181818;stroke-width:0.5;"/><text fill="#000000" font-family="sans-serif" font-size="11" lengthAdjust="spacing" textLength="124" x="321.75" y="209.7301">Parameters up-to-date?</text><text fill="#000000" font-family="sans-serif" font-size="11" lengthAdjust="spacing" textLength="17" x="292.75" y="202.2392">yes</text><text fill="#000000" font-family="sans-serif" font-size="11" lengthAdjust="spacing" textLength="14" x="457.75" y="202.2392">no</text><rect fill="#F1F1F1" height="36.3441" rx="12.5" ry="12.5" style="stroke:#181818;stroke-width:0.5;" width="123" x="208" y="299.4622"/><text fill="#000000" font-family="sans-serif" font-size="12" lengthAdjust="spacing" textLength="103" x="218" y="322.2903">Process data point</text><polygon fill="#F1F1F1" points="269.5,227.4622,281.5,239.4622,269.5,251.4622,257.5,239.4622,269.5,227.4622" style="stroke:#181818;stroke-width:0.5;"/><polygon fill="#F1F1F1" points="161,371.4604,378,371.4604,390,383.4604,378,395.4604,161,395.4604,149,383.4604,161,371.4604" style="stroke:#181818;stroke-width:0.5;"/><text fill="#000000" font-family="sans-serif" font-size="11" lengthAdjust="spacing" textLength="217" x="161" y="387.7284">Succeded or number of retries exceeded?</text><text fill="#000000" font-family="sans-serif" font-size="11" lengthAdjust="spacing" textLength="14" x="390" y="380.2374">no</text><rect fill="#F1F1F1" height="36.3441" rx="12.5" ry="12.5" style="stroke:#181818;stroke-width:0.5;" width="143" x="198" y="464.9513"/><text fill="#000000" font-family="sans-serif" font-size="12" lengthAdjust="spacing" textLength="123" x="208" y="487.7794">Log error to Database</text><polygon fill="#F1F1F1" points="222.5,415.4604,316.5,415.4604,328.5,427.4604,316.5,439.4604,222.5,439.4604,210.5,427.4604,222.5,415.4604" style="stroke:#181818;stroke-width:0.5;"/><text fill="#000000" font-family="sans-serif" font-size="11" lengthAdjust="spacing" textLength="17" x="273.5" y="451.2193">yes</text><text fill="#000000" font-family="sans-serif" font-size="11" lengthAdjust="spacing" textLength="94" x="222.5" y="431.7284">Processing failed?</text><polygon fill="#F1F1F1" points="269.5,521.2954,281.5,533.2954,269.5,545.2954,257.5,533.2954,269.5,521.2954" style="stroke:#181818;stroke-width:0.5;"/><rect fill="#F1F1F1" height="69.0323" rx="12.5" ry="12.5" style="stroke:#181818;stroke-width:0.5;" width="128" x="434" y="227.4622"/><text fill="#000000" font-family="sans-serif" font-size="12" lengthAdjust="spacing" textLength="108" x="444" y="250.2903">Requeue data point</text><text fill="#000000" font-family="sans-serif" font-size="12" lengthAdjust="spacing" textLength="98" x="444" y="266.6344">to pre-processing</text><text fill="#000000" font-family="sans-serif" font-size="12" lengthAdjust="spacing" textLength="55" x="444" y="282.9785">job queue</text><polygon fill="#F1F1F1" points="383.75,551.2954,395.75,563.2954,383.75,575.2954,371.75,563.2954,383.75,551.2954" style="stroke:#181818;stroke-width:0.5;"/><polygon fill="#F1F1F1" points="224.375,581.2954,236.375,593.2954,224.375,605.2954,212.375,593.2954,224.375,581.2954" style="stroke:#181818;stroke-width:0.5;"/><rect fill="#F1F1F1" height="36.3441" rx="12.5" ry="12.5" style="stroke:#181818;stroke-width:0.5;" width="275" x="86.875" y="50"/><text fill="#000000" font-family="sans-serif" font-size="12" lengthAdjust="spacing" textLength="255" x="96.875" y="72.8281">Get data point from priority 'hardware_queue'</text><line style="stroke:#181818;stroke-width:1.0;" x1="269.5" x2="269.5" y1="251.4622" y2="299.4622"/><polygon fill="#181818" points="265.5,289.4622,269.5,299.4622,273.5,289.4622,269.5,293.4622" style="stroke:#181818;stroke-width:1.0;"/><line style="stroke:#181818;stroke-width:1.0;" x1="390" x2="402" y1="383.4604" y2="383.4604"/><polygon fill="#181818" points="398,327.6342,402,317.6342,406,327.6342,402,323.6342" style="stroke:#181818;stroke-width:1.0;"/><line style="stroke:#181818;stroke-width:1.0;" x1="402" x2="402" y1="239.4622" y2="383.4604"/><line style="stroke:#181818;stroke-width:1.0;" x1="402" x2="281.5" y1="239.4622" y2="239.4622"/><polygon fill="#181818" points="291.5,235.4622,281.5,239.4622,291.5,243.4622,287.5,239.4622" style="stroke:#181818;stroke-width:1.0;"/><line style="stroke:#181818;stroke-width:1.0;" x1="269.5" x2="269.5" y1="335.8063" y2="371.4604"/><polygon fill="#181818" points="265.5,361.4604,269.5,371.4604,273.5,361.4604,269.5,365.4604" style="stroke:#181818;stroke-width:1.0;"/><line style="stroke:#181818;stroke-width:1.0;" x1="269.5" x2="269.5" y1="439.4604" y2="464.9513"/><polygon fill="#181818" points="265.5,454.9513,269.5,464.9513,273.5,454.9513,269.5,458.9513" style="stroke:#181818;stroke-width:1.0;"/><line style="stroke:#181818;stroke-width:1.0;" x1="328.5" x2="351" y1="427.4604" y2="427.4604"/><polygon fill="#181818" points="347,473.1234,351,483.1234,355,473.1234,351,477.1234" style="stroke:#181818;stroke-width:1.0;"/><line style="stroke:#181818;stroke-width:1.0;" x1="351" x2="351" y1="427.4604" y2="533.2954"/><line style="stroke:#181818;stroke-width:1.0;" x1="351" x2="281.5" y1="533.2954" y2="533.2954"/><polygon fill="#181818" points="291.5,529.2954,281.5,533.2954,291.5,537.2954,287.5,533.2954" style="stroke:#181818;stroke-width:1.0;"/><line style="stroke:#181818;stroke-width:1.0;" x1="269.5" x2="269.5" y1="501.2954" y2="521.2954"/><polygon fill="#181818" points="265.5,511.2954,269.5,521.2954,273.5,511.2954,269.5,515.2954" style="stroke:#181818;stroke-width:1.0;"/><line style="stroke:#181818;stroke-width:1.0;" x1="269.5" x2="269.5" y1="395.4604" y2="415.4604"/><polygon fill="#181818" points="265.5,405.4604,269.5,415.4604,273.5,405.4604,269.5,409.4604" style="stroke:#181818;stroke-width:1.0;"/><line style="stroke:#181818;stroke-width:1.0;" x1="309.75" x2="269.5" y1="205.4622" y2="205.4622"/><line style="stroke:#181818;stroke-width:1.0;" x1="269.5" x2="269.5" y1="205.4622" y2="227.4622"/><polygon fill="#181818" points="265.5,217.4622,269.5,227.4622,273.5,217.4622,269.5,221.4622" style="stroke:#181818;stroke-width:1.0;"/><line style="stroke:#181818;stroke-width:1.0;" x1="457.75" x2="498" y1="205.4622" y2="205.4622"/><line style="stroke:#181818;stroke-width:1.0;" x1="498" x2="498" y1="205.4622" y2="227.4622"/><polygon fill="#181818" points="494,217.4622,498,227.4622,502,217.4622,498,221.4622" style="stroke:#181818;stroke-width:1.0;"/><line style="stroke:#181818;stroke-width:1.0;" x1="269.5" x2="269.5" y1="545.2954" y2="563.2954"/><line style="stroke:#181818;stroke-width:1.0;" x1="269.5" x2="371.75" y1="563.2954" y2="563.2954"/><polygon fill="#181818" points="361.75,559.2954,371.75,563.2954,361.75,567.2954,365.75,563.2954" style="stroke:#181818;stroke-width:1.0;"/><line style="stroke:#181818;stroke-width:1.0;" x1="498" x2="498" y1="296.4945" y2="563.2954"/><line style="stroke:#181818;stroke-width:1.0;" x1="498" x2="395.75" y1="563.2954" y2="563.2954"/><polygon fill="#181818" points="405.75,559.2954,395.75,563.2954,405.75,567.2954,401.75,563.2954" style="stroke:#181818;stroke-width:1.0;"/><line style="stroke:#181818;stroke-width:1.0;" x1="164.375" x2="65" y1="171.4622" y2="171.4622"/><line style="stroke:#181818;stroke-width:1.0;" x1="65" x2="65" y1="171.4622" y2="193.4622"/><polygon fill="#181818" points="61,183.4622,65,193.4622,69,183.4622,65,187.4622" style="stroke:#181818;stroke-width:1.0;"/><line style="stroke:#181818;stroke-width:1.0;" x1="284.375" x2="383.75" y1="171.4622" y2="171.4622"/><line style="stroke:#181818;stroke-width:1.0;" x1="383.75" x2="383.75" y1="171.4622" y2="193.4622"/><polygon fill="#181818" points="379.75,183.4622,383.75,193.4622,387.75,183.4622,383.75,187.4622" style="stroke:#181818;stroke-width:1.0;"/><line style="stroke:#181818;stroke-width:1.0;" x1="65" x2="65" y1="246.1504" y2="593.2954"/><line style="stroke:#181818;stroke-width:1.0;" x1="65" x2="212.375" y1="593.2954" y2="593.2954"/><polygon fill="#181818" points="202.375,589.2954,212.375,593.2954,202.375,597.2954,206.375,593.2954" style="stroke:#181818;stroke-width:1.0;"/><line style="stroke:#181818;stroke-width:1.0;" x1="383.75" x2="383.75" y1="575.2954" y2="593.2954"/><line style="stroke:#181818;stroke-width:1.0;" x1="383.75" x2="236.375" y1="593.2954" y2="593.2954"/><polygon fill="#181818" points="246.375,589.2954,236.375,593.2954,246.375,597.2954,242.375,593.2954" style="stroke:#181818;stroke-width:1.0;"/><line style="stroke:#181818;stroke-width:1.0;" x1="224.375" x2="224.375" y1="86.3441" y2="159.4622"/><polygon fill="#181818" points="220.375,149.4622,224.375,159.4622,228.375,149.4622,224.375,153.4622" style="stroke:#181818;stroke-width:1.0;"/><line style="stroke:#181818;stroke-width:1.0;" x1="224.375" x2="224.375" y1="605.2954" y2="653.2954"/><line style="stroke:#181818;stroke-width:1.0;" x1="224.375" x2="576" y1="653.2954" y2="653.2954"/><polygon fill="#181818" points="572,355.8063,576,345.8063,580,355.8063,576,351.8063" style="stroke:#181818;stroke-width:1.0;"/><line style="stroke:#181818;stroke-width:1.0;" x1="576" x2="576" y1="68.1721" y2="653.2954"/><line style="stroke:#181818;stroke-width:1.0;" x1="576" x2="361.875" y1="68.1721" y2="68.1721"/><polygon fill="#181818" points="371.875,64.1721,361.875,68.1721,371.875,72.1721,367.875,68.1721" style="stroke:#181818;stroke-width:1.0;"/><line style="stroke:#181818;stroke-width:1.0;" x1="224.375" x2="224.375" y1="30" y2="50"/><polygon fill="#181818" points="220.375,40,224.375,50,228.375,40,224.375,44" style="stroke:#181818;stroke-width:1.0;"/><!--SRC=[TL91JiCm4Bpt5NjhUiW7w843I4W8f0eUW3RE935rl67jgFJtsAcKD6hPa-MTcHsFDqJMk54Cu4WFBuXKSsGQnFf8ZKfFWrfH6y-qxLZh4ok-VaQCsEutbCesLBnAHISEPDWRE8VwSKUnWwVYZB2ROBaUtbcFL_fpuvfwKOKBeCBBGlOIGMhRRg7bUkfWZjb4caUjaueT3QpS8qB32ig-db1Ep0f4HIEwGYhObT7se91yXHsbHzCub57Av1up5aan-velSXY7HNYXt0_aCYj7lxgQiZge68Hm5TV-3ezEdNKfgS_H6DIeIPJys5TGaYPXebe4mgz1xYONDgnZdLrVnbdVKiFsto-SxRr9Ir1DuwBGS_9OSS3QOKh7DajMDpywwNnWMgPxMv4hYG-ASfZThRhVQUyc-dvpEtGw_G40]--></g></svg>