<?xml version="1.0" encoding="us-ascii" standalone="no"?><svg xmlns="http://www.w3.org/2000/svg" xmlns:xlink="http://www.w3.org/1999/xlink" contentStyleType="text/css" height="829px" preserveAspectRatio="none" style="width:771px;height:829px;background:#FFFFFF;" version="1.1" viewBox="0 0 771 829" width="771px" zoomAndPan="magnify"><defs/><g><ellipse cx="292.875" cy="20" fill="#222222" rx="10" ry="10" style="stroke:#222222;stroke-width:1.0;"/><path d="M352.875,96.3441 L352.875,159.4622 L555.875,159.4622 L555.875,106.3441 L545.875,96.3441 L352.875,96.3441 " fill="#FEFFDD" style="stroke:#181818;stroke-width:0.5;"/><path d="M545.875,96.3441 L545.875,106.3441 L555.875,106.3441 L545.875,96.3441 " fill="#FEFFDD" style="stroke:#181818;stroke-width:0.5;"/><text fill="#000000" font-family="sans-serif" font-size="13" lengthAdjust="spacing" textLength="181" x="358.875" y="115.2411">Check if the global parameters</text><text fill="#000000" font-family="sans-serif" font-size="13" lengthAdjust="spacing" textLength="172" x="358.875" y="132.9471">and the local parameters (for</text><text fill="#000000" font-family="sans-serif" font-size="13" lengthAdjust="spacing" textLength="182" x="358.875" y="150.6532">real-time scans) are up-to-date</text><polygon fill="#F1F1F1" points="244.875,159.4622,340.875,159.4622,352.875,171.4622,340.875,183.4622,244.875,183.4622,232.875,171.4622,244.875,159.4622" style="stroke:#181818;stroke-width:0.5;"/><text fill="#000000" font-family="sans-serif" font-size="11" lengthAdjust="spacing" textLength="96" x="244.875" y="175.7301">Job was cancelled?</text><text fill="#000000" font-family="sans-serif" font-size="11" lengthAdjust="spacing" textLength="17" x="215.875" y="168.2392">yes</text><text fill="#000000" font-family="sans-serif" font-size="11" lengthAdjust="spacing" textLength="14" x="352.875" y="168.2392">no</text><rect fill="#F1F1F1" height="52.6882" rx="12.5" ry="12.5" style="stroke:#181818;stroke-width:0.5;" width="108" x="11" y="193.4622"/><text fill="#000000" font-family="sans-serif" font-size="12" lengthAdjust="spacing" textLength="88" x="21" y="216.2903">Mark data point</text><text fill="#000000" font-family="sans-serif" font-size="12" lengthAdjust="spacing" textLength="69" x="21" y="232.6344">as cancelled</text><polygon fill="#F1F1F1" points="478.75,193.4622,602.75,193.4622,614.75,205.4622,602.75,217.4622,478.75,217.4622,466.75,205.4622,478.75,193.4622" style="stroke:#181818;stroke-width:0.5;"/><text fill="#000000" font-family="sans-serif" font-size="11" lengthAdjust="spacing" textLength="124" x="478.75" y="209.7301">Parameters up-to-date?</text><text fill="#000000" font-family="sans-serif" font-size="11" lengthAdjust="spacing" textLength="17" x="449.75" y="202.2392">yes</text><text fill="#000000" font-family="sans-serif" font-size="11" lengthAdjust="spacing" textLength="14" x="614.75" y="202.2392">no</text><path d="M129,338.2473 L129,401.3653 A0,0 0 0 0 129,401.3653 L321,401.3653 A0,0 0 0 0 321,401.3653 L321,373.8063 L341,369.8063 L321,365.8063 L321,348.2473 L311,338.2473 L129,338.2473 A0,0 0 0 0 129,338.2473 " fill="#FEFFDD" style="stroke:#181818;stroke-width:0.5;"/><path d="M311,338.2473 L311,348.2473 L321,348.2473 L311,338.2473 " fill="#FEFFDD" style="stroke:#181818;stroke-width:0.5;"/><text fill="#000000" font-family="sans-serif" font-size="13" lengthAdjust="spacing" textLength="171" x="135" y="357.1443">Set the parameter and check</text><text fill="#000000" font-family="sans-serif" font-size="13" lengthAdjust="spacing" textLength="123" x="135" y="374.8503">if it was set correctly.</text><text fill="#000000" font-family="sans-serif" font-size="13" lengthAdjust="spacing" textLength="169" x="135" y="392.5563">Optional delay before check.</text><rect fill="#F1F1F1" height="52.6882" rx="12.5" ry="12.5" style="stroke:#181818;stroke-width:0.5;" width="147" x="341" y="343.4622"/><text fill="#000000" font-family="sans-serif" font-size="12" lengthAdjust="spacing" textLength="104" x="351" y="366.2903">Set parameters on</text><text fill="#000000" font-family="sans-serif" font-size="12" lengthAdjust="spacing" textLength="127" x="351" y="382.6344">remote devices (if any)</text><polygon fill="#F1F1F1" points="414.5,299.4622,426.5,311.4622,414.5,323.4622,402.5,311.4622,414.5,299.4622" style="stroke:#181818;stroke-width:0.5;"/><polygon fill="#F1F1F1" points="306,435.4783,523,435.4783,535,447.4783,523,459.4783,306,459.4783,294,447.4783,306,435.4783" style="stroke:#181818;stroke-width:0.5;"/><text fill="#000000" font-family="sans-serif" font-size="11" lengthAdjust="spacing" textLength="217" x="306" y="451.7463">Succeded or number of retries exceeded?</text><text fill="#000000" font-family="sans-serif" font-size="11" lengthAdjust="spacing" textLength="14" x="535" y="444.2554">no</text><rect fill="#F1F1F1" height="36.3441" rx="12.5" ry="12.5" style="stroke:#181818;stroke-width:0.5;" width="123" x="353" y="479.4783"/><text fill="#000000" font-family="sans-serif" font-size="12" lengthAdjust="spacing" textLength="103" x="363" y="502.3064">Process data point</text><polygon fill="#F1F1F1" points="414.5,227.4622,426.5,239.4622,414.5,251.4622,402.5,239.4622,414.5,227.4622" style="stroke:#181818;stroke-width:0.5;"/><polygon fill="#F1F1F1" points="306,535.8224,523,535.8224,535,547.8224,523,559.8224,306,559.8224,294,547.8224,306,535.8224" style="stroke:#181818;stroke-width:0.5;"/><text fill="#000000" font-family="sans-serif" font-size="11" lengthAdjust="spacing" textLength="217" x="306" y="552.0904">Succeded or number of retries exceeded?</text><text fill="#000000" font-family="sans-serif" font-size="11" lengthAdjust="spacing" textLength="14" x="535" y="544.5995">no</text><rect fill="#F1F1F1" height="36.3441" rx="12.5" ry="12.5" style="stroke:#181818;stroke-width:0.5;" width="143" x="343" y="629.3134"/><text fill="#000000" font-family="sans-serif" font-size="12" lengthAdjust="spacing" textLength="123" x="353" y="652.1415">Log error to Database</text><polygon fill="#F1F1F1" points="367.5,579.8224,461.5,579.8224,473.5,591.8224,461.5,603.8224,367.5,603.8224,355.5,591.8224,367.5,579.8224" style="stroke:#181818;stroke-width:0.5;"/><text fill="#000000" font-family="sans-serif" font-size="11" lengthAdjust="spacing" textLength="17" x="418.5" y="615.5814">yes</text><text fill="#000000" font-family="sans-serif" font-size="11" lengthAdjust="spacing" textLength="94" x="367.5" y="596.0904">Processing failed?</text><polygon fill="#F1F1F1" points="414.5,685.6575,426.5,697.6575,414.5,709.6575,402.5,697.6575,414.5,685.6575" style="stroke:#181818;stroke-width:0.5;"/><rect fill="#F1F1F1" height="69.0323" rx="12.5" ry="12.5" style="stroke:#181818;stroke-width:0.5;" width="128" x="603" y="227.4622"/><text fill="#000000" font-family="sans-serif" font-size="12" lengthAdjust="spacing" textLength="108" x="613" y="250.2903">Requeue data point</text><text fill="#000000" font-family="sans-serif" font-size="12" lengthAdjust="spacing" textLength="98" x="613" y="266.6344">to pre-processing</text><text fill="#000000" font-family="sans-serif" font-size="12" lengthAdjust="spacing" textLength="55" x="613" y="282.9785">job queue</text><polygon fill="#F1F1F1" points="540.75,715.6575,552.75,727.6575,540.75,739.6575,528.75,727.6575,540.75,715.6575" style="stroke:#181818;stroke-width:0.5;"/><polygon fill="#F1F1F1" points="292.875,745.6575,304.875,757.6575,292.875,769.6575,280.875,757.6575,292.875,745.6575" style="stroke:#181818;stroke-width:0.5;"/><rect fill="#F1F1F1" height="36.3441" rx="12.5" ry="12.5" style="stroke:#181818;stroke-width:0.5;" width="275" x="155.375" y="50"/><text fill="#000000" font-family="sans-serif" font-size="12" lengthAdjust="spacing" textLength="255" x="165.375" y="72.8281">Get data point from priority 'hardware_queue'</text><line style="stroke:#181818;stroke-width:1.0;" x1="414.5" x2="414.5" y1="323.4622" y2="343.4622"/><polygon fill="#181818" points="410.5,333.4622,414.5,343.4622,418.5,333.4622,414.5,337.4622" style="stroke:#181818;stroke-width:1.0;"/><line style="stroke:#181818;stroke-width:1.0;" x1="535" x2="547" y1="447.4783" y2="447.4783"/><polygon fill="#181818" points="543,379.8063,547,369.8063,551,379.8063,547,375.8063" style="stroke:#181818;stroke-width:1.0;"/><line style="stroke:#181818;stroke-width:1.0;" x1="547" x2="547" y1="311.4622" y2="447.4783"/><line style="stroke:#181818;stroke-width:1.0;" x1="547" x2="426.5" y1="311.4622" y2="311.4622"/><polygon fill="#181818" points="436.5,307.4622,426.5,311.4622,436.5,315.4622,432.5,311.4622" style="stroke:#181818;stroke-width:1.0;"/><line style="stroke:#181818;stroke-width:1.0;" x1="414.5" x2="414.5" y1="396.1504" y2="435.4783"/><polygon fill="#181818" points="410.5,425.4783,414.5,435.4783,418.5,425.4783,414.5,429.4783" style="stroke:#181818;stroke-width:1.0;"/><line style="stroke:#181818;stroke-width:1.0;" x1="414.5" x2="414.5" y1="459.4783" y2="479.4783"/><polygon fill="#181818" points="410.5,469.4783,414.5,479.4783,418.5,469.4783,414.5,473.4783" style="stroke:#181818;stroke-width:1.0;"/><line style="stroke:#181818;stroke-width:1.0;" x1="414.5" x2="414.5" y1="251.4622" y2="299.4622"/><polygon fill="#181818" points="410.5,289.4622,414.5,299.4622,418.5,289.4622,414.5,293.4622" style="stroke:#181818;stroke-width:1.0;"/><line style="stroke:#181818;stroke-width:1.0;" x1="535" x2="571" y1="547.8224" y2="547.8224"/><polygon fill="#181818" points="567,415.4783,571,405.4783,575,415.4783,571,411.4783" style="stroke:#181818;stroke-width:1.0;"/><line style="stroke:#181818;stroke-width:1.0;" x1="571" x2="571" y1="239.4622" y2="547.8224"/><line style="stroke:#181818;stroke-width:1.0;" x1="571" x2="426.5" y1="239.4622" y2="239.4622"/><polygon fill="#181818" points="436.5,235.4622,426.5,239.4622,436.5,243.4622,432.5,239.4622" style="stroke:#181818;stroke-width:1.0;"/><line style="stroke:#181818;stroke-width:1.0;" x1="414.5" x2="414.5" y1="515.8224" y2="535.8224"/><polygon fill="#181818" points="410.5,525.8224,414.5,535.8224,418.5,525.8224,414.5,529.8224" style="stroke:#181818;stroke-width:1.0;"/><line style="stroke:#181818;stroke-width:1.0;" x1="414.5" x2="414.5" y1="603.8224" y2="629.3134"/><polygon fill="#181818" points="410.5,619.3134,414.5,629.3134,418.5,619.3134,414.5,623.3134" style="stroke:#181818;stroke-width:1.0;"/><line style="stroke:#181818;stroke-width:1.0;" x1="473.5" x2="496" y1="591.8224" y2="591.8224"/><polygon fill="#181818" points="492,637.4855,496,647.4855,500,637.4855,496,641.4855" style="stroke:#181818;stroke-width:1.0;"/><line style="stroke:#181818;stroke-width:1.0;" x1="496" x2="496" y1="591.8224" y2="697.6575"/><line style="stroke:#181818;stroke-width:1.0;" x1="496" x2="426.5" y1="697.6575" y2="697.6575"/><polygon fill="#181818" points="436.5,693.6575,426.5,697.6575,436.5,701.6575,432.5,697.6575" style="stroke:#181818;stroke-width:1.0;"/><line style="stroke:#181818;stroke-width:1.0;" x1="414.5" x2="414.5" y1="665.6575" y2="685.6575"/><polygon fill="#181818" points="410.5,675.6575,414.5,685.6575,418.5,675.6575,414.5,679.6575" style="stroke:#181818;stroke-width:1.0;"/><line style="stroke:#181818;stroke-width:1.0;" x1="414.5" x2="414.5" y1="559.8224" y2="579.8224"/><polygon fill="#181818" points="410.5,569.8224,414.5,579.8224,418.5,569.8224,414.5,573.8224" style="stroke:#181818;stroke-width:1.0;"/><line style="stroke:#181818;stroke-width:1.0;" x1="466.75" x2="414.5" y1="205.4622" y2="205.4622"/><line style="stroke:#181818;stroke-width:1.0;" x1="414.5" x2="414.5" y1="205.4622" y2="227.4622"/><polygon fill="#181818" points="410.5,217.4622,414.5,227.4622,418.5,217.4622,414.5,221.4622" style="stroke:#181818;stroke-width:1.0;"/><line style="stroke:#181818;stroke-width:1.0;" x1="614.75" x2="667" y1="205.4622" y2="205.4622"/><line style="stroke:#181818;stroke-width:1.0;" x1="667" x2="667" y1="205.4622" y2="227.4622"/><polygon fill="#181818" points="663,217.4622,667,227.4622,671,217.4622,667,221.4622" style="stroke:#181818;stroke-width:1.0;"/><line style="stroke:#181818;stroke-width:1.0;" x1="414.5" x2="414.5" y1="709.6575" y2="727.6575"/><line style="stroke:#181818;stroke-width:1.0;" x1="414.5" x2="528.75" y1="727.6575" y2="727.6575"/><polygon fill="#181818" points="518.75,723.6575,528.75,727.6575,518.75,731.6575,522.75,727.6575" style="stroke:#181818;stroke-width:1.0;"/><line style="stroke:#181818;stroke-width:1.0;" x1="667" x2="667" y1="296.4945" y2="727.6575"/><line style="stroke:#181818;stroke-width:1.0;" x1="667" x2="552.75" y1="727.6575" y2="727.6575"/><polygon fill="#181818" points="562.75,723.6575,552.75,727.6575,562.75,731.6575,558.75,727.6575" style="stroke:#181818;stroke-width:1.0;"/><line style="stroke:#181818;stroke-width:1.0;" x1="232.875" x2="65" y1="171.4622" y2="171.4622"/><line style="stroke:#181818;stroke-width:1.0;" x1="65" x2="65" y1="171.4622" y2="193.4622"/><polygon fill="#181818" points="61,183.4622,65,193.4622,69,183.4622,65,187.4622" style="stroke:#181818;stroke-width:1.0;"/><line style="stroke:#181818;stroke-width:1.0;" x1="352.875" x2="540.75" y1="171.4622" y2="171.4622"/><line style="stroke:#181818;stroke-width:1.0;" x1="540.75" x2="540.75" y1="171.4622" y2="193.4622"/><polygon fill="#181818" points="536.75,183.4622,540.75,193.4622,544.75,183.4622,540.75,187.4622" style="stroke:#181818;stroke-width:1.0;"/><line style="stroke:#181818;stroke-width:1.0;" x1="65" x2="65" y1="246.1504" y2="757.6575"/><line style="stroke:#181818;stroke-width:1.0;" x1="65" x2="280.875" y1="757.6575" y2="757.6575"/><polygon fill="#181818" points="270.875,753.6575,280.875,757.6575,270.875,761.6575,274.875,757.6575" style="stroke:#181818;stroke-width:1.0;"/><line style="stroke:#181818;stroke-width:1.0;" x1="540.75" x2="540.75" y1="739.6575" y2="757.6575"/><line style="stroke:#181818;stroke-width:1.0;" x1="540.75" x2="304.875" y1="757.6575" y2="757.6575"/><polygon fill="#181818" points="314.875,753.6575,304.875,757.6575,314.875,761.6575,310.875,757.6575" style="stroke:#181818;stroke-width:1.0;"/><line style="stroke:#181818;stroke-width:1.0;" x1="292.875" x2="292.875" y1="86.3441" y2="159.4622"/><polygon fill="#181818" points="288.875,149.4622,292.875,159.4622,296.875,149.4622,292.875,153.4622" style="stroke:#181818;stroke-width:1.0;"/><line style="stroke:#181818;stroke-width:1.0;" x1="292.875" x2="292.875" y1="769.6575" y2="817.6575"/><line style="stroke:#181818;stroke-width:1.0;" x1="292.875" x2="745" y1="817.6575" y2="817.6575"/><polygon fill="#181818" points="741,442.1093,745,432.1093,749,442.1093,745,438.1093" style="stroke:#181818;stroke-width:1.0;"/><line style="stroke:#181818;stroke-width:1.0;" x1="745" x2="745" y1="68.1721" y2="817.6575"/><line style="stroke:#181818;stroke-width:1.0;" x1="745" x2="430.375" y1="68.1721" y2="68.1721"/><polygon fill="#181818" points="440.375,64.1721,430.375,68.1721,440.375,72.1721,436.375,68.1721" style="stroke:#181818;stroke-width:1.0;"/><line style="stroke:#181818;stroke-width:1.0;" x1="292.875" x2="292.875" y1="30" y2="50"/><polygon fill="#181818" points="288.875,40,292.875,50,296.875,40,292.875,44" style="stroke:#181818;stroke-width:1.0;"/><!--SRC=[jLJ1Jkim4BptA_P6U-Zx07hW0DAJq4CW-02qSJQDmV66jKF9txDsfQH-JRcnfyYUsHcFrmaH9Qw4Ui88rtyfGeqHeMVh8pJ27VHYMMmSuQf5gGyezFenq41NknLesGRMzrp10GCOz8QSe_fc0x4b3-kHmYR3Kbq_eBoVz9ysJgd7hkG2mThpJFOS2SJksvcMwhObyvvCg1xi7LVee4V1ZY99AA3ewunoR0eGh1kM0Yc4RXjjHn3KLzY07Xg6VXjvg-vfmf9sJBwcXHJ6qznufYm7SjHAqHTBFopd65_qbaxiir-42NKfife-hI4zf7f3FsvsY-3Y5FzNqal1JPevIfEIlyXHDHlpK0Hb6nOX4ztuvoBXiO-MlLvCJGv7g4WlXOuYowIpyCleuD1QfpFqCXX3DTN00dxeAdNFZMAYM4s5lWobNRqV6yg1c-9-4jO0mydWxbQ_f9VdvoXd_HuQj1SVqsJl7- -1H5GkCjofnme3bGurAjlCKtlsjdAVPyhFUkbzfjBclT2sdzmLks_w1yZqtUfSD7zz0m00]--></g></svg>