<?xml version="1.0" encoding="us-ascii" standalone="no"?><svg xmlns="http://www.w3.org/2000/svg" xmlns:xlink="http://www.w3.org/1999/xlink" contentStyleType="text/css" height="1623px" preserveAspectRatio="none" style="width:1227px;height:1623px;background:#FFFFFF;" version="1.1" viewBox="0 0 1227 1623" width="1227px" zoomAndPan="magnify"><defs/><g><ellipse cx="454.875" cy="20" fill="#222222" rx="10" ry="10" style="stroke:#222222;stroke-width:1.0;"/><rect fill="#F1F1F1" height="36.3441" rx="12.5" ry="12.5" style="stroke:#181818;stroke-width:0.5;" width="178" x="365.875" y="50"/><text fill="#000000" font-family="sans-serif" font-size="12" lengthAdjust="spacing" textLength="158" x="375.875" y="72.8281">Create Temporary Directory</text><rect fill="#F1F1F1" height="52.6882" rx="12.5" ry="12.5" style="stroke:#181818;stroke-width:0.5;" width="242" x="333.875" y="150.3441"/><text fill="#000000" font-family="sans-serif" font-size="12" lengthAdjust="spacing" textLength="222" x="343.875" y="173.1722">Get highest priority 'PreProcessingTask'</text><text fill="#000000" font-family="sans-serif" font-size="12" lengthAdjust="spacing" textLength="152" x="343.875" y="189.5163">from pre-processing queue</text><rect fill="#F1F1F1" height="52.6882" rx="12.5" ry="12.5" style="stroke:#181818;stroke-width:0.5;" width="165" x="372.375" y="223.0323"/><text fill="#000000" font-family="sans-serif" font-size="12" lengthAdjust="spacing" textLength="133" x="382.375" y="245.8604">Change process priority</text><text fill="#000000" font-family="sans-serif" font-size="12" lengthAdjust="spacing" textLength="145" x="382.375" y="262.2045">depending on task priority</text><polygon fill="#F1F1F1" points="403.875,295.7206,505.875,295.7206,517.875,307.7206,505.875,319.7206,403.875,319.7206,391.875,307.7206,403.875,295.7206" style="stroke:#181818;stroke-width:0.5;"/><text fill="#000000" font-family="sans-serif" font-size="11" lengthAdjust="spacing" textLength="102" x="403.875" y="311.9885">debug_mode is on?</text><text fill="#000000" font-family="sans-serif" font-size="11" lengthAdjust="spacing" textLength="17" x="374.875" y="304.4976">yes</text><text fill="#000000" font-family="sans-serif" font-size="11" lengthAdjust="spacing" textLength="14" x="517.875" y="304.4976">no</text><rect fill="#F1F1F1" height="36.3441" rx="12.5" ry="12.5" style="stroke:#181818;stroke-width:0.5;" width="189" x="263.875" y="329.7206"/><text fill="#000000" font-family="sans-serif" font-size="12" lengthAdjust="spacing" textLength="169" x="273.875" y="352.5487">Use dev source code directory</text><rect fill="#F1F1F1" height="36.3441" rx="12.5" ry="12.5" style="stroke:#181818;stroke-width:0.5;" width="157" x="472.875" y="329.7206"/><text fill="#000000" font-family="sans-serif" font-size="12" lengthAdjust="spacing" textLength="137" x="482.875" y="352.5487">Use temporary directory</text><path d="M621.875,376.0647 L621.875,412.4767 L601.875,416.4767 L621.875,420.4767 L621.875,456.8888 A0,0 0 0 0 621.875,456.8888 L845.875,456.8888 A0,0 0 0 0 845.875,456.8888 L845.875,386.0647 L835.875,376.0647 L621.875,376.0647 A0,0 0 0 0 621.875,376.0647 " fill="#FEFFDD" style="stroke:#181818;stroke-width:0.5;"/><path d="M835.875,376.0647 L835.875,386.0647 L845.875,386.0647 L835.875,376.0647 " fill="#FEFFDD" style="stroke:#181818;stroke-width:0.5;"/><text fill="#000000" font-family="sans-serif" font-size="13" lengthAdjust="spacing" textLength="187" x="627.875" y="394.9617">Checks if local repository exists,</text><text fill="#000000" font-family="sans-serif" font-size="13" lengthAdjust="spacing" textLength="156" x="627.875" y="412.6677">clones if necessary, checks</text><text fill="#000000" font-family="sans-serif" font-size="13" lengthAdjust="spacing" textLength="177" x="627.875" y="430.3737">out the specified commit, and</text><text fill="#000000" font-family="sans-serif" font-size="13" lengthAdjust="spacing" textLength="203" x="627.875" y="448.0797">updates the python environment.</text><rect fill="#F1F1F1" height="36.3441" rx="12.5" ry="12.5" style="stroke:#181818;stroke-width:0.5;" width="101" x="500.875" y="398.3047"/><text fill="#000000" font-family="sans-serif" font-size="12" lengthAdjust="spacing" textLength="81" x="510.875" y="421.1328">Prepare folder</text><polygon fill="#F1F1F1" points="454.875,462.8888,466.875,474.8888,454.875,486.8888,442.875,474.8888,454.875,462.8888" style="stroke:#181818;stroke-width:0.5;"/><rect fill="#F1F1F1" height="69.0323" rx="12.5" ry="12.5" style="stroke:#181818;stroke-width:0.5;" width="153" x="378.375" y="556.3797"/><text fill="#000000" font-family="sans-serif" font-size="12" lengthAdjust="spacing" textLength="133" x="388.375" y="579.2078">Cache local parameters</text><text fill="#000000" font-family="sans-serif" font-size="12" lengthAdjust="spacing" textLength="117" x="388.375" y="595.5519">in valkey cache given</text><text fill="#000000" font-family="sans-serif" font-size="12" lengthAdjust="spacing" textLength="126" x="388.375" y="611.896">submission timestamp</text><path d="M192.875,654.74 L192.875,717.858 A0,0 0 0 0 192.875,717.858 L369.875,717.858 A0,0 0 0 0 369.875,717.858 L369.875,690.299 L389.875,686.299 L369.875,682.299 L369.875,664.74 L359.875,654.74 L192.875,654.74 A0,0 0 0 0 192.875,654.74 " fill="#FEFFDD" style="stroke:#181818;stroke-width:0.5;"/><path d="M359.875,654.74 L359.875,664.74 L369.875,664.74 L359.875,654.74 " fill="#FEFFDD" style="stroke:#181818;stroke-width:0.5;"/><text fill="#000000" font-family="sans-serif" font-size="13" lengthAdjust="spacing" textLength="142" x="198.875" y="673.637">Prefix will be used when</text><text fill="#000000" font-family="sans-serif" font-size="13" lengthAdjust="spacing" textLength="155" x="198.875" y="691.343">querying the local params</text><text fill="#000000" font-family="sans-serif" font-size="13" lengthAdjust="spacing" textLength="156" x="198.875" y="709.049">when generating JSON file</text><rect fill="#F1F1F1" height="52.6882" rx="12.5" ry="12.5" style="stroke:#181818;stroke-width:0.5;" width="130" x="389.875" y="659.9549"/><text fill="#000000" font-family="sans-serif" font-size="12" lengthAdjust="spacing" textLength="110" x="399.875" y="682.783">Set local parameter</text><text fill="#000000" font-family="sans-serif" font-size="12" lengthAdjust="spacing" textLength="102" x="399.875" y="699.1271">prefix to worker-id</text><polygon fill="#F1F1F1" points="385.375,506.8888,524.375,506.8888,536.375,518.8888,524.375,530.8888,385.375,530.8888,373.375,518.8888,385.375,506.8888" style="stroke:#181818;stroke-width:0.5;"/><text fill="#000000" font-family="sans-serif" font-size="11" lengthAdjust="spacing" textLength="17" x="458.875" y="542.6477">yes</text><text fill="#000000" font-family="sans-serif" font-size="11" lengthAdjust="spacing" textLength="139" x="385.375" y="523.1567">cache local params locally?</text><polygon fill="#F1F1F1" points="454.875,737.858,466.875,749.858,454.875,761.858,442.875,749.858,454.875,737.858" style="stroke:#181818;stroke-width:0.5;"/><path d="M67.875,771.858 L67.875,834.9761 A0,0 0 0 0 67.875,834.9761 L369.875,834.9761 A0,0 0 0 0 369.875,834.9761 L369.875,807.4171 L389.875,803.4171 L369.875,799.4171 L369.875,781.858 L359.875,771.858 L67.875,771.858 A0,0 0 0 0 67.875,771.858 " fill="#FEFFDD" style="stroke:#181818;stroke-width:0.5;"/><path d="M359.875,771.858 L359.875,781.858 L369.875,781.858 L359.875,771.858 " fill="#FEFFDD" style="stroke:#181818;stroke-width:0.5;"/><text fill="#000000" font-family="sans-serif" font-size="13" lengthAdjust="spacing" textLength="268" x="73.875" y="790.755">Create queues for data points to process and</text><text fill="#000000" font-family="sans-serif" font-size="13" lengthAdjust="spacing" textLength="281" x="73.875" y="808.4611">already processed data points. Take repetitions</text><text fill="#000000" font-family="sans-serif" font-size="13" lengthAdjust="spacing" textLength="78" x="73.875" y="826.1671">into account.</text><rect fill="#F1F1F1" height="36.3441" rx="12.5" ry="12.5" style="stroke:#181818;stroke-width:0.5;" width="130" x="389.875" y="785.245"/><text fill="#000000" font-family="sans-serif" font-size="12" lengthAdjust="spacing" textLength="110" x="399.875" y="808.0731">Prepare data points</text><rect fill="#F1F1F1" height="36.3441" rx="12.5" ry="12.5" style="stroke:#181818;stroke-width:0.5;" width="207" x="351.375" y="927.235"/><text fill="#000000" font-family="sans-serif" font-size="12" lengthAdjust="spacing" textLength="187" x="361.375" y="950.0631">Attempt to get the next data point</text><polygon fill="#F1F1F1" points="382.375,983.5791,527.375,983.5791,539.375,995.5791,527.375,1007.5791,382.375,1007.5791,370.375,995.5791,382.375,983.5791" style="stroke:#181818;stroke-width:0.5;"/><text fill="#000000" font-family="sans-serif" font-size="11" lengthAdjust="spacing" textLength="145" x="382.375" y="999.8471">Data Point Queue is Empty?</text><text fill="#000000" font-family="sans-serif" font-size="11" lengthAdjust="spacing" textLength="17" x="353.375" y="992.3561">yes</text><text fill="#000000" font-family="sans-serif" font-size="11" lengthAdjust="spacing" textLength="14" x="539.375" y="992.3561">no</text><path d="M38,1017.5791 L38,1080.6972 A0,0 0 0 0 38,1080.6972 L242,1080.6972 A0,0 0 0 0 242,1080.6972 L242,1053.1381 L262,1049.1381 L242,1045.1381 L242,1027.5791 L232,1017.5791 L38,1017.5791 A0,0 0 0 0 38,1017.5791 " fill="#FEFFDD" style="stroke:#181818;stroke-width:0.5;"/><path d="M232,1017.5791 L232,1027.5791 L242,1027.5791 L232,1017.5791 " fill="#FEFFDD" style="stroke:#181818;stroke-width:0.5;"/><text fill="#000000" font-family="sans-serif" font-size="13" lengthAdjust="spacing" textLength="183" x="44" y="1036.4761">The hardware/post-processing</text><text fill="#000000" font-family="sans-serif" font-size="13" lengthAdjust="spacing" textLength="157" x="44" y="1054.1821">worker might still requeue</text><text fill="#000000" font-family="sans-serif" font-size="13" lengthAdjust="spacing" textLength="140" x="44" y="1071.8882">data points if necessary</text><rect fill="#F1F1F1" height="36.3441" rx="12.5" ry="12.5" style="stroke:#181818;stroke-width:0.5;" width="129" x="262" y="1030.9661"/><text fill="#000000" font-family="sans-serif" font-size="12" lengthAdjust="spacing" textLength="109" x="272" y="1053.7942">Continue inner loop</text><rect fill="#000000" fill-opacity="0.06275" height="267.2361" style="stroke:#000000;stroke-width:1.5;" width="764" x="411" y="1017.5791"/><path d="M573,1017.5791 L573,1029.647 L563,1039.647 L411,1039.647 " fill="none" style="stroke:#000000;stroke-width:1.5;"/><text fill="#000000" font-family="sans-serif" font-size="14" lengthAdjust="spacing" textLength="152" x="414" y="1033.545">Pre-process data point</text><path d="M967,1124.3191 L967,1205.1431 L1155,1205.1431 L1155,1134.3191 L1145,1124.3191 L967,1124.3191 " fill="#FEFFDD" style="stroke:#181818;stroke-width:0.5;"/><path d="M1145,1124.3191 L1145,1134.3191 L1155,1134.3191 L1145,1124.3191 " fill="#FEFFDD" style="stroke:#181818;stroke-width:0.5;"/><text fill="#000000" font-family="sans-serif" font-size="13" lengthAdjust="spacing" textLength="139" x="973" y="1143.2161">This could also be done</text><text fill="#000000" font-family="sans-serif" font-size="13" lengthAdjust="spacing" textLength="131" x="973" y="1160.9221">in separate processes.</text><text fill="#000000" font-family="sans-serif" font-size="13" lengthAdjust="spacing" textLength="167" x="973" y="1178.6281">The order of the data points</text><text fill="#000000" font-family="sans-serif" font-size="13" lengthAdjust="spacing" textLength="139" x="973" y="1196.3341">has to be kept, though.</text><polygon fill="#F1F1F1" points="535.25,1056.647,631.25,1056.647,643.25,1068.647,631.25,1080.647,535.25,1080.647,523.25,1068.647,535.25,1056.647" style="stroke:#181818;stroke-width:0.5;"/><text fill="#000000" font-family="sans-serif" font-size="11" lengthAdjust="spacing" textLength="96" x="535.25" y="1072.915">Job was cancelled?</text><text fill="#000000" font-family="sans-serif" font-size="11" lengthAdjust="spacing" textLength="17" x="506.25" y="1065.424">yes</text><text fill="#000000" font-family="sans-serif" font-size="11" lengthAdjust="spacing" textLength="14" x="643.25" y="1065.424">no</text><rect fill="#F1F1F1" height="52.6882" rx="12.5" ry="12.5" style="stroke:#181818;stroke-width:0.5;" width="108" x="431" y="1090.647"/><text fill="#000000" font-family="sans-serif" font-size="12" lengthAdjust="spacing" textLength="88" x="441" y="1113.4751">Mark data point</text><text fill="#000000" font-family="sans-serif" font-size="12" lengthAdjust="spacing" textLength="69" x="441" y="1129.8192">as cancelled</text><path d="M776,1090.647 L776,1127.0591 L756,1131.0591 L776,1135.0591 L776,1171.4711 A0,0 0 0 0 776,1171.4711 L947,1171.4711 A0,0 0 0 0 947,1171.4711 L947,1100.647 L937,1090.647 L776,1090.647 A0,0 0 0 0 776,1090.647 " fill="#FEFFDD" style="stroke:#181818;stroke-width:0.5;"/><path d="M937,1090.647 L937,1100.647 L947,1100.647 L937,1090.647 " fill="#FEFFDD" style="stroke:#181818;stroke-width:0.5;"/><text fill="#000000" font-family="sans-serif" font-size="13" lengthAdjust="spacing" textLength="150" x="782" y="1109.544">Generating the json file,...</text><text fill="#000000" font-family="sans-serif" font-size="13" lengthAdjust="spacing" textLength="138" x="782" y="1127.2501">Use locally cached local</text><text fill="#000000" font-family="sans-serif" font-size="13" lengthAdjust="spacing" textLength="129" x="782" y="1144.9561">parameters when not</text><text fill="#000000" font-family="sans-serif" font-size="13" lengthAdjust="spacing" textLength="113" x="782" y="1162.6621">scanning real-time.</text><rect fill="#F1F1F1" height="36.3441" rx="12.5" ry="12.5" style="stroke:#181818;stroke-width:0.5;" width="149" x="607" y="1112.887"/><text fill="#000000" font-family="sans-serif" font-size="12" lengthAdjust="spacing" textLength="129" x="617" y="1135.7151">Create 'HardwareTask'</text><rect fill="#F1F1F1" height="36.3441" rx="12.5" ry="12.5" style="stroke:#181818;stroke-width:0.5;" width="245" x="559" y="1206.4711"/><text fill="#000000" font-family="sans-serif" font-size="12" lengthAdjust="spacing" textLength="225" x="569" y="1229.2992">Put 'HardwareTask' in 'hardware_queue'</text><polygon fill="#F1F1F1" points="583.25,1248.8152,595.25,1260.8152,583.25,1272.8152,571.25,1260.8152,583.25,1248.8152" style="stroke:#181818;stroke-width:0.5;"/><polygon fill="#F1F1F1" points="454.875,1290.8152,466.875,1302.8152,454.875,1314.8152,442.875,1302.8152,454.875,1290.8152" style="stroke:#181818;stroke-width:0.5;"/><polygon fill="#F1F1F1" points="386.875,869.9761,522.875,869.9761,534.875,881.9761,522.875,893.9761,386.875,893.9761,374.875,881.9761,386.875,869.9761" style="stroke:#181818;stroke-width:0.5;"/><text fill="#000000" font-family="sans-serif" font-size="11" lengthAdjust="spacing" textLength="14" x="458.875" y="905.735">no</text><text fill="#000000" font-family="sans-serif" font-size="11" lengthAdjust="spacing" textLength="136" x="386.875" y="886.244">All data points processed?</text><text fill="#000000" font-family="sans-serif" font-size="11" lengthAdjust="spacing" textLength="17" x="357.875" y="878.7531">yes</text><rect fill="#000000" fill-opacity="0.06275" height="143.7561" style="stroke:#000000;stroke-width:1.5;" width="341" x="284.375" y="1346.8152"/><path d="M539.375,1346.8152 L539.375,1358.8831 L529.375,1368.8831 L284.375,1368.8831 " fill="none" style="stroke:#000000;stroke-width:1.5;"/><text fill="#000000" font-family="sans-serif" font-size="14" lengthAdjust="spacing" textLength="245" x="287.375" y="1362.7811">Submit Fitting and Database Update</text><rect fill="#F1F1F1" height="36.3441" rx="12.5" ry="12.5" style="stroke:#181818;stroke-width:0.5;" width="178" x="365.875" y="1385.8831"/><text fill="#000000" font-family="sans-serif" font-size="12" lengthAdjust="spacing" textLength="158" x="375.875" y="1408.7112">Create 'PostProcessingTask'</text><rect fill="#F1F1F1" height="36.3441" rx="12.5" ry="12.5" style="stroke:#181818;stroke-width:0.5;" width="321" x="294.375" y="1442.2272"/><text fill="#000000" font-family="sans-serif" font-size="12" lengthAdjust="spacing" textLength="301" x="304.375" y="1465.0553">Put 'PostProcessingTask' into 'post_processing_queue'</text><path d="M534.375,1514.2094 L534.375,1532.9155 L514.375,1536.9155 L534.375,1540.9155 L534.375,1559.6215 A0,0 0 0 0 534.375,1559.6215 L739.375,1559.6215 A0,0 0 0 0 739.375,1559.6215 L739.375,1524.2094 L729.375,1514.2094 L534.375,1514.2094 A0,0 0 0 0 534.375,1514.2094 " fill="#FEFFDD" style="stroke:#181818;stroke-width:0.5;"/><path d="M729.375,1514.2094 L729.375,1524.2094 L739.375,1524.2094 L729.375,1514.2094 " fill="#FEFFDD" style="stroke:#181818;stroke-width:0.5;"/><text fill="#000000" font-family="sans-serif" font-size="13" lengthAdjust="spacing" textLength="180" x="540.375" y="1533.1065">Should I update the job status</text><text fill="#000000" font-family="sans-serif" font-size="13" lengthAdjust="spacing" textLength="184" x="540.375" y="1550.8125">in the post-processing worker?</text><rect fill="#F1F1F1" height="52.6882" rx="12.5" ry="12.5" style="stroke:#181818;stroke-width:0.5;" width="119" x="395.375" y="1510.5713"/><text fill="#000000" font-family="sans-serif" font-size="12" lengthAdjust="spacing" textLength="99" x="405.375" y="1533.3994">Update Job Status</text><text fill="#000000" font-family="sans-serif" font-size="12" lengthAdjust="spacing" textLength="58" x="405.375" y="1549.7436">to "DONE"</text><polygon fill="#F1F1F1" points="454.875,106.3441,466.875,118.3441,454.875,130.3441,442.875,118.3441,454.875,106.3441" style="stroke:#181818;stroke-width:0.5;"/><line style="stroke:#181818;stroke-width:1.0;" x1="454.875" x2="454.875" y1="30" y2="50"/><polygon fill="#181818" points="450.875,40,454.875,50,458.875,40,454.875,44" style="stroke:#181818;stroke-width:1.0;"/><line style="stroke:#181818;stroke-width:1.0;" x1="454.875" x2="454.875" y1="203.0323" y2="223.0323"/><polygon fill="#181818" points="450.875,213.0323,454.875,223.0323,458.875,213.0323,454.875,217.0323" style="stroke:#181818;stroke-width:1.0;"/><line style="stroke:#181818;stroke-width:1.0;" x1="551.375" x2="551.375" y1="366.0647" y2="398.3047"/><polygon fill="#181818" points="547.375,388.3047,551.375,398.3047,555.375,388.3047,551.375,392.3047" style="stroke:#181818;stroke-width:1.0;"/><line style="stroke:#181818;stroke-width:1.0;" x1="391.875" x2="358.375" y1="307.7206" y2="307.7206"/><line style="stroke:#181818;stroke-width:1.0;" x1="358.375" x2="358.375" y1="307.7206" y2="329.7206"/><polygon fill="#181818" points="354.375,319.7206,358.375,329.7206,362.375,319.7206,358.375,323.7206" style="stroke:#181818;stroke-width:1.0;"/><line style="stroke:#181818;stroke-width:1.0;" x1="517.875" x2="551.375" y1="307.7206" y2="307.7206"/><line style="stroke:#181818;stroke-width:1.0;" x1="551.375" x2="551.375" y1="307.7206" y2="329.7206"/><polygon fill="#181818" points="547.375,319.7206,551.375,329.7206,555.375,319.7206,551.375,323.7206" style="stroke:#181818;stroke-width:1.0;"/><line style="stroke:#181818;stroke-width:1.0;" x1="358.375" x2="358.375" y1="366.0647" y2="474.8888"/><line style="stroke:#181818;stroke-width:1.0;" x1="358.375" x2="442.875" y1="474.8888" y2="474.8888"/><polygon fill="#181818" points="432.875,470.8888,442.875,474.8888,432.875,478.8888,436.875,474.8888" style="stroke:#181818;stroke-width:1.0;"/><line style="stroke:#181818;stroke-width:1.0;" x1="551.375" x2="551.375" y1="434.6488" y2="474.8888"/><line style="stroke:#181818;stroke-width:1.0;" x1="551.375" x2="466.875" y1="474.8888" y2="474.8888"/><polygon fill="#181818" points="476.875,470.8888,466.875,474.8888,476.875,478.8888,472.875,474.8888" style="stroke:#181818;stroke-width:1.0;"/><line style="stroke:#181818;stroke-width:1.0;" x1="454.875" x2="454.875" y1="275.7206" y2="295.7206"/><polygon fill="#181818" points="450.875,285.7206,454.875,295.7206,458.875,285.7206,454.875,289.7206" style="stroke:#181818;stroke-width:1.0;"/><line style="stroke:#181818;stroke-width:1.0;" x1="454.875" x2="454.875" y1="625.412" y2="659.9549"/><polygon fill="#181818" points="450.875,649.9549,454.875,659.9549,458.875,649.9549,454.875,653.9549" style="stroke:#181818;stroke-width:1.0;"/><line style="stroke:#181818;stroke-width:1.0;" x1="454.875" x2="454.875" y1="530.8888" y2="556.3797"/><polygon fill="#181818" points="450.875,546.3797,454.875,556.3797,458.875,546.3797,454.875,550.3797" style="stroke:#181818;stroke-width:1.0;"/><line style="stroke:#181818;stroke-width:1.0;" x1="536.375" x2="548.375" y1="518.8888" y2="518.8888"/><polygon fill="#181818" points="544.375,629.9549,548.375,639.9549,552.375,629.9549,548.375,633.9549" style="stroke:#181818;stroke-width:1.0;"/><line style="stroke:#181818;stroke-width:1.0;" x1="548.375" x2="548.375" y1="518.8888" y2="749.858"/><line style="stroke:#181818;stroke-width:1.0;" x1="548.375" x2="466.875" y1="749.858" y2="749.858"/><polygon fill="#181818" points="476.875,745.858,466.875,749.858,476.875,753.858,472.875,749.858" style="stroke:#181818;stroke-width:1.0;"/><line style="stroke:#181818;stroke-width:1.0;" x1="454.875" x2="454.875" y1="712.6431" y2="737.858"/><polygon fill="#181818" points="450.875,727.858,454.875,737.858,458.875,727.858,454.875,731.858" style="stroke:#181818;stroke-width:1.0;"/><line style="stroke:#181818;stroke-width:1.0;" x1="454.875" x2="454.875" y1="486.8888" y2="506.8888"/><polygon fill="#181818" points="450.875,496.8888,454.875,506.8888,458.875,496.8888,454.875,500.8888" style="stroke:#181818;stroke-width:1.0;"/><line style="stroke:#181818;stroke-width:1.0;" x1="454.875" x2="454.875" y1="761.858" y2="785.245"/><polygon fill="#181818" points="450.875,775.245,454.875,785.245,458.875,775.245,454.875,779.245" style="stroke:#181818;stroke-width:1.0;"/><line style="stroke:#181818;stroke-width:1.0;" x1="681.5" x2="681.5" y1="1149.2311" y2="1206.4711"/><polygon fill="#181818" points="677.5,1196.4711,681.5,1206.4711,685.5,1196.4711,681.5,1200.4711" style="stroke:#181818;stroke-width:1.0;"/><line style="stroke:#181818;stroke-width:1.0;" x1="523.25" x2="485" y1="1068.647" y2="1068.647"/><line style="stroke:#181818;stroke-width:1.0;" x1="485" x2="485" y1="1068.647" y2="1090.647"/><polygon fill="#181818" points="481,1080.647,485,1090.647,489,1080.647,485,1084.647" style="stroke:#181818;stroke-width:1.0;"/><line style="stroke:#181818;stroke-width:1.0;" x1="643.25" x2="681.5" y1="1068.647" y2="1068.647"/><line style="stroke:#181818;stroke-width:1.0;" x1="681.5" x2="681.5" y1="1068.647" y2="1112.887"/><polygon fill="#181818" points="677.5,1102.887,681.5,1112.887,685.5,1102.887,681.5,1106.887" style="stroke:#181818;stroke-width:1.0;"/><line style="stroke:#181818;stroke-width:1.0;" x1="485" x2="485" y1="1143.3353" y2="1260.8152"/><line style="stroke:#181818;stroke-width:1.0;" x1="485" x2="571.25" y1="1260.8152" y2="1260.8152"/><polygon fill="#181818" points="561.25,1256.8152,571.25,1260.8152,561.25,1264.8152,565.25,1260.8152" style="stroke:#181818;stroke-width:1.0;"/><line style="stroke:#181818;stroke-width:1.0;" x1="681.5" x2="681.5" y1="1242.8152" y2="1260.8152"/><line style="stroke:#181818;stroke-width:1.0;" x1="681.5" x2="595.25" y1="1260.8152" y2="1260.8152"/><polygon fill="#181818" points="605.25,1256.8152,595.25,1260.8152,605.25,1264.8152,601.25,1260.8152" style="stroke:#181818;stroke-width:1.0;"/><line style="stroke:#181818;stroke-width:1.0;" x1="370.375" x2="326.5" y1="995.5791" y2="995.5791"/><line style="stroke:#181818;stroke-width:1.0;" x1="326.5" x2="326.5" y1="995.5791" y2="1030.9661"/><polygon fill="#181818" points="322.5,1020.9661,326.5,1030.9661,330.5,1020.9661,326.5,1024.9661" style="stroke:#181818;stroke-width:1.0;"/><line style="stroke:#181818;stroke-width:1.0;" x1="539.375" x2="583.25" y1="995.5791" y2="995.5791"/><line style="stroke:#181818;stroke-width:1.0;" x1="583.25" x2="583.25" y1="995.5791" y2="1056.647"/><polygon fill="#181818" points="579.25,1046.647,583.25,1056.647,587.25,1046.647,583.25,1050.647" style="stroke:#181818;stroke-width:1.0;"/><line style="stroke:#181818;stroke-width:1.0;" x1="326.5" x2="326.5" y1="1067.3102" y2="1302.8152"/><line style="stroke:#181818;stroke-width:1.0;" x1="326.5" x2="442.875" y1="1302.8152" y2="1302.8152"/><polygon fill="#181818" points="432.875,1298.8152,442.875,1302.8152,432.875,1306.8152,436.875,1302.8152" style="stroke:#181818;stroke-width:1.0;"/><line style="stroke:#181818;stroke-width:1.0;" x1="583.25" x2="583.25" y1="1272.8152" y2="1302.8152"/><line style="stroke:#181818;stroke-width:1.0;" x1="583.25" x2="466.875" y1="1302.8152" y2="1302.8152"/><polygon fill="#181818" points="476.875,1298.8152,466.875,1302.8152,476.875,1306.8152,472.875,1302.8152" style="stroke:#181818;stroke-width:1.0;"/><line style="stroke:#181818;stroke-width:1.0;" x1="454.875" x2="454.875" y1="963.5791" y2="983.5791"/><polygon fill="#181818" points="450.875,973.5791,454.875,983.5791,458.875,973.5791,454.875,977.5791" style="stroke:#181818;stroke-width:1.0;"/><line style="stroke:#181818;stroke-width:1.0;" x1="454.875" x2="454.875" y1="893.9761" y2="927.235"/><polygon fill="#181818" points="450.875,917.235,454.875,927.235,458.875,917.235,454.875,921.235" style="stroke:#181818;stroke-width:1.0;"/><line style="stroke:#181818;stroke-width:1.0;" x1="454.875" x2="454.875" y1="1314.8152" y2="1324.8152"/><line style="stroke:#181818;stroke-width:1.0;" x1="454.875" x2="1189" y1="1324.8152" y2="1324.8152"/><polygon fill="#181818" points="1185,1108.0342,1189,1098.0342,1193,1108.0342,1189,1104.0342" style="stroke:#181818;stroke-width:1.0;"/><line style="stroke:#181818;stroke-width:1.0;" x1="1189" x2="1189" y1="881.9761" y2="1324.8152"/><line style="stroke:#181818;stroke-width:1.0;" x1="1189" x2="534.875" y1="881.9761" y2="881.9761"/><polygon fill="#181818" points="544.875,877.9761,534.875,881.9761,544.875,885.9761,540.875,881.9761" style="stroke:#181818;stroke-width:1.0;"/><line style="stroke:#181818;stroke-width:1.0;" x1="374.875" x2="24" y1="881.9761" y2="881.9761"/><polygon fill="#181818" points="20,1094.0342,24,1104.0342,28,1094.0342,24,1098.0342" style="stroke:#181818;stroke-width:1.0;"/><line style="stroke:#181818;stroke-width:1.0;" x1="24" x2="24" y1="881.9761" y2="1336.8152"/><line style="stroke:#181818;stroke-width:1.0;" x1="24" x2="454.875" y1="1336.8152" y2="1336.8152"/><line style="stroke:#181818;stroke-width:1.0;" x1="454.875" x2="454.875" y1="1336.8152" y2="1385.8831"/><polygon fill="#181818" points="450.875,1375.8831,454.875,1385.8831,458.875,1375.8831,454.875,1379.8831" style="stroke:#181818;stroke-width:1.0;"/><line style="stroke:#181818;stroke-width:1.0;" x1="454.875" x2="454.875" y1="821.5891" y2="869.9761"/><polygon fill="#181818" points="450.875,859.9761,454.875,869.9761,458.875,859.9761,454.875,863.9761" style="stroke:#181818;stroke-width:1.0;"/><line style="stroke:#181818;stroke-width:1.0;" x1="454.875" x2="454.875" y1="1422.2272" y2="1442.2272"/><polygon fill="#181818" points="450.875,1432.2272,454.875,1442.2272,458.875,1432.2272,454.875,1436.2272" style="stroke:#181818;stroke-width:1.0;"/><line style="stroke:#181818;stroke-width:1.0;" x1="454.875" x2="454.875" y1="1478.5713" y2="1510.5713"/><polygon fill="#181818" points="450.875,1500.5713,454.875,1510.5713,458.875,1500.5713,454.875,1504.5713" style="stroke:#181818;stroke-width:1.0;"/><line style="stroke:#181818;stroke-width:1.0;" x1="454.875" x2="454.875" y1="130.3441" y2="150.3441"/><polygon fill="#181818" points="450.875,140.3441,454.875,150.3441,458.875,140.3441,454.875,144.3441" style="stroke:#181818;stroke-width:1.0;"/><line style="stroke:#181818;stroke-width:1.0;" x1="454.875" x2="454.875" y1="1563.2596" y2="1611.2596"/><line style="stroke:#181818;stroke-width:1.0;" x1="454.875" x2="1201" y1="1611.2596" y2="1611.2596"/><polygon fill="#181818" points="1197,854.5818,1201,844.5818,1205,854.5818,1201,850.5818" style="stroke:#181818;stroke-width:1.0;"/><line style="stroke:#181818;stroke-width:1.0;" x1="1201" x2="1201" y1="118.3441" y2="1611.2596"/><line style="stroke:#181818;stroke-width:1.0;" x1="1201" x2="466.875" y1="118.3441" y2="118.3441"/><polygon fill="#181818" points="476.875,114.3441,466.875,118.3441,476.875,122.3441,472.875,118.3441" style="stroke:#181818;stroke-width:1.0;"/><line style="stroke:#181818;stroke-width:1.0;" x1="454.875" x2="454.875" y1="86.3441" y2="106.3441"/><polygon fill="#181818" points="450.875,96.3441,454.875,106.3441,458.875,96.3441,454.875,100.3441" style="stroke:#181818;stroke-width:1.0;"/><!--SRC=[XLR1Rjim3BtdAuZja0vei-tQ7egYxReLs9eXxRbGR3hMOakU93SrYltxICcnvSH6TKgi9vfyV7ooTSAusVcrGU4G7h6ij16cWHjfC77QD1SpWnLjpe3M-HqwoEKcH-kWCb8RwHgOBmqkZKxGMgasZy9kvnwT6LqI2i-gRXF-rbZZHGXsdGkrGMXtktX-CwMNgfHFQ0MEGdRRuR3Cu2J5TRrvBdMA82tXBZ-1or71IOFsaqVvrpnPf70lO7Lj4eI4yMbV7cEm8Co9qWUdN4V70TuZgEfA68HC5ocQVaDfOj8GIQvxnEiwnsHhEV529w80Egsjv9Y0hz8wUpg09uLMwE4AcHxAuXGI7sE0qxNZgi5McCXCOae5bgLqfo1KEa3MLKezjXvTDIudOb6zIADLYSejEYpnxckOjNzarZ6U2CgWpPzg5wKDVufcWllhmmFeqFG5I0KlejXY0o7oHhwWwdPjlIuboOOL84kId2YhYFyLQV4WShT9gilaApWDEsssQCvaEcpGW9bbGEzaKS0QeRR4uYwFCk55oZKD2z8TK310yJ7Oe48Z78FlLm-_89C5laTl9oTgae1AI-LiI7cGRZkeVemiIS_4UAvtFqrnzqL1fz9clqVLHOSMy2Yso7949nsH7RU70eeaqVLU7uFaTpdL1ITNn5gSHFSMqWJDvN2ihXmFbUDCDnYKg_3LHG7wFh7YRlZvaf_3RwwP8zvIW0d11T5fHTmpLb4Vg5SwaaqteGLcmm7bzKZvvCAaE-h4PvfF5tdN4JX82qeUTR2ErMFGT-O86lCJZ_G0E21tt9QyjicnVQFWunU_ldvX1UypZTxrTfJ7X3VrvHEzrEuY9SrOpSEGaWsDOcbsBIkMvRXlkLrCX4NGXamITEPR7j4nUY0NNilq-YrMP6LaLlKcFmv-n5WidNkzXXq5IeHAi2Yy7YSaqqddfp3RABjHK1pouZYbqPxrsWppE__UYipVbXUZs7TwnUkkDngczOybKR3Pd2uMYyb3VBErhXriDmr_9m_qnXtiZHARn5gYHd4-L6TnnhOzdiXavu8NqgKsf8ZbDjzFvhCViX7QUZlTht-puptwrLgN5y9iQgXMVFyu-2QTPvWS5TYEre88VFANARpDZZgx9DSu-1gAFnguiX58yDevMyvpRpc3GaCfv-sRMTqh9rmT9eWEVxXv-7NxeRyp3hIpolrS_sY_0u9WA8ZjWxHZxJyGXjxNUjtbu1Bu3m00]--></g></svg>