<?xml version="1.0" encoding="us-ascii" standalone="no"?><svg xmlns="http://www.w3.org/2000/svg" xmlns:xlink="http://www.w3.org/1999/xlink" contentStyleType="text/css" height="1544px" preserveAspectRatio="none" style="width:1227px;height:1544px;background:#FFFFFF;" version="1.1" viewBox="0 0 1227 1544" width="1227px" zoomAndPan="magnify"><defs/><g><ellipse cx="454.875" cy="20" fill="#222222" rx="10" ry="10" style="stroke:#222222;stroke-width:1.0;"/><rect fill="#F1F1F1" height="36.3441" rx="12.5" ry="12.5" style="stroke:#181818;stroke-width:0.5;" width="178" x="365.875" y="50"/><text fill="#000000" font-family="sans-serif" font-size="12" lengthAdjust="spacing" textLength="158" x="375.875" y="72.8281">Create Temporary Directory</text><rect fill="#F1F1F1" height="52.6882" rx="12.5" ry="12.5" style="stroke:#181818;stroke-width:0.5;" width="242" x="333.875" y="150.3441"/><text fill="#000000" font-family="sans-serif" font-size="12" lengthAdjust="spacing" textLength="222" x="343.875" y="173.1722">Get highest priority 'PreProcessingTask'</text><text fill="#000000" font-family="sans-serif" font-size="12" lengthAdjust="spacing" textLength="152" x="343.875" y="189.5163">from pre-processing queue</text><rect fill="#F1F1F1" height="52.6882" rx="12.5" ry="12.5" style="stroke:#181818;stroke-width:0.5;" width="165" x="372.375" y="223.0323"/><text fill="#000000" font-family="sans-serif" font-size="12" lengthAdjust="spacing" textLength="133" x="382.375" y="245.8604">Change process priority</text><text fill="#000000" font-family="sans-serif" font-size="12" lengthAdjust="spacing" textLength="145" x="382.375" y="262.2045">depending on task priority</text><polygon fill="#F1F1F1" points="415.875,295.7206,493.875,295.7206,505.875,307.7206,493.875,319.7206,415.875,319.7206,403.875,307.7206,415.875,295.7206" style="stroke:#181818;stroke-width:0.5;"/><text fill="#000000" font-family="sans-serif" font-size="11" lengthAdjust="spacing" textLength="78" x="415.875" y="311.9885">src_dir is given</text><text fill="#000000" font-family="sans-serif" font-size="11" lengthAdjust="spacing" textLength="17" x="386.875" y="304.4976">yes</text><text fill="#000000" font-family="sans-serif" font-size="11" lengthAdjust="spacing" textLength="14" x="505.875" y="304.4976">no</text><path d="M71.125,329.7206 L71.125,375.1326 A0,0 0 0 0 71.125,375.1326 L271.125,375.1326 A0,0 0 0 0 271.125,375.1326 L271.125,356.4266 L291.125,352.4266 L271.125,348.4266 L271.125,339.7206 L261.125,329.7206 L71.125,329.7206 A0,0 0 0 0 71.125,329.7206 " fill="#FEFFDD" style="stroke:#181818;stroke-width:0.5;"/><path d="M261.125,329.7206 L261.125,339.7206 L271.125,339.7206 L261.125,329.7206 " fill="#FEFFDD" style="stroke:#181818;stroke-width:0.5;"/><text fill="#000000" font-family="sans-serif" font-size="13" lengthAdjust="spacing" textLength="179" x="77.125" y="348.6176">Useful for development mode</text><text fill="#000000" font-family="sans-serif" font-size="13" lengthAdjust="spacing" textLength="162" x="77.125" y="366.3236">(dev source code directory)</text><rect fill="#F1F1F1" height="36.3441" rx="12.5" ry="12.5" style="stroke:#181818;stroke-width:0.5;" width="132" x="291.125" y="334.2545"/><text fill="#000000" font-family="sans-serif" font-size="12" lengthAdjust="spacing" textLength="112" x="301.125" y="357.0826">Use custom 'src_dir'</text><rect fill="#F1F1F1" height="36.3441" rx="12.5" ry="12.5" style="stroke:#181818;stroke-width:0.5;" width="219" x="443.125" y="329.7206"/><text fill="#000000" font-family="sans-serif" font-size="12" lengthAdjust="spacing" textLength="199" x="453.125" y="352.5487">Use temporary directory as 'src_dir'</text><path d="M646.125,385.1326 L646.125,421.5446 L626.125,425.5446 L646.125,429.5446 L646.125,465.9567 A0,0 0 0 0 646.125,465.9567 L870.125,465.9567 A0,0 0 0 0 870.125,465.9567 L870.125,395.1326 L860.125,385.1326 L646.125,385.1326 A0,0 0 0 0 646.125,385.1326 " fill="#FEFFDD" style="stroke:#181818;stroke-width:0.5;"/><path d="M860.125,385.1326 L860.125,395.1326 L870.125,395.1326 L860.125,385.1326 " fill="#FEFFDD" style="stroke:#181818;stroke-width:0.5;"/><text fill="#000000" font-family="sans-serif" font-size="13" lengthAdjust="spacing" textLength="187" x="652.125" y="404.0296">Checks if local repository exists,</text><text fill="#000000" font-family="sans-serif" font-size="13" lengthAdjust="spacing" textLength="156" x="652.125" y="421.7356">clones if necessary, checks</text><text fill="#000000" font-family="sans-serif" font-size="13" lengthAdjust="spacing" textLength="177" x="652.125" y="439.4417">out the specified commit, and</text><text fill="#000000" font-family="sans-serif" font-size="13" lengthAdjust="spacing" textLength="203" x="652.125" y="457.1477">updates the python environment.</text><rect fill="#F1F1F1" height="36.3441" rx="12.5" ry="12.5" style="stroke:#181818;stroke-width:0.5;" width="147" x="479.125" y="407.3726"/><text fill="#000000" font-family="sans-serif" font-size="12" lengthAdjust="spacing" textLength="127" x="489.125" y="430.2007">Prepare 'src_dir' folder</text><polygon fill="#F1F1F1" points="454.875,471.9567,466.875,483.9567,454.875,495.9567,442.875,483.9567,454.875,471.9567" style="stroke:#181818;stroke-width:0.5;"/><rect fill="#F1F1F1" height="69.0323" rx="12.5" ry="12.5" style="stroke:#181818;stroke-width:0.5;" width="153" x="378.375" y="565.4476"/><text fill="#000000" font-family="sans-serif" font-size="12" lengthAdjust="spacing" textLength="133" x="388.375" y="588.2757">Cache local parameters</text><text fill="#000000" font-family="sans-serif" font-size="12" lengthAdjust="spacing" textLength="117" x="388.375" y="604.6198">in valkey cache given</text><text fill="#000000" font-family="sans-serif" font-size="12" lengthAdjust="spacing" textLength="126" x="388.375" y="620.9639">submission timestamp</text><path d="M192.875,663.8079 L192.875,726.926 A0,0 0 0 0 192.875,726.926 L369.875,726.926 A0,0 0 0 0 369.875,726.926 L369.875,699.3669 L389.875,695.3669 L369.875,691.3669 L369.875,673.8079 L359.875,663.8079 L192.875,663.8079 A0,0 0 0 0 192.875,663.8079 " fill="#FEFFDD" style="stroke:#181818;stroke-width:0.5;"/><path d="M359.875,663.8079 L359.875,673.8079 L369.875,673.8079 L359.875,663.8079 " fill="#FEFFDD" style="stroke:#181818;stroke-width:0.5;"/><text fill="#000000" font-family="sans-serif" font-size="13" lengthAdjust="spacing" textLength="142" x="198.875" y="682.7049">Prefix will be used when</text><text fill="#000000" font-family="sans-serif" font-size="13" lengthAdjust="spacing" textLength="155" x="198.875" y="700.4109">querying the local params</text><text fill="#000000" font-family="sans-serif" font-size="13" lengthAdjust="spacing" textLength="156" x="198.875" y="718.1169">when generating JSON file</text><rect fill="#F1F1F1" height="52.6882" rx="12.5" ry="12.5" style="stroke:#181818;stroke-width:0.5;" width="130" x="389.875" y="669.0228"/><text fill="#000000" font-family="sans-serif" font-size="12" lengthAdjust="spacing" textLength="110" x="399.875" y="691.8509">Set local parameter</text><text fill="#000000" font-family="sans-serif" font-size="12" lengthAdjust="spacing" textLength="102" x="399.875" y="708.195">prefix to worker-id</text><polygon fill="#F1F1F1" points="385.375,515.9567,524.375,515.9567,536.375,527.9567,524.375,539.9567,385.375,539.9567,373.375,527.9567,385.375,515.9567" style="stroke:#181818;stroke-width:0.5;"/><text fill="#000000" font-family="sans-serif" font-size="11" lengthAdjust="spacing" textLength="17" x="458.875" y="551.7156">yes</text><text fill="#000000" font-family="sans-serif" font-size="11" lengthAdjust="spacing" textLength="139" x="385.375" y="532.2246">cache local params locally?</text><polygon fill="#F1F1F1" points="454.875,746.926,466.875,758.926,454.875,770.926,442.875,758.926,454.875,746.926" style="stroke:#181818;stroke-width:0.5;"/><rect fill="#F1F1F1" height="36.3441" rx="12.5" ry="12.5" style="stroke:#181818;stroke-width:0.5;" width="207" x="351.375" y="848.1849"/><text fill="#000000" font-family="sans-serif" font-size="12" lengthAdjust="spacing" textLength="187" x="361.375" y="871.013">Attempt to get the next data point</text><polygon fill="#F1F1F1" points="382.375,904.529,527.375,904.529,539.375,916.529,527.375,928.529,382.375,928.529,370.375,916.529,382.375,904.529" style="stroke:#181818;stroke-width:0.5;"/><text fill="#000000" font-family="sans-serif" font-size="11" lengthAdjust="spacing" textLength="145" x="382.375" y="920.7969">Data Point Queue is Empty?</text><text fill="#000000" font-family="sans-serif" font-size="11" lengthAdjust="spacing" textLength="17" x="353.375" y="913.306">yes</text><text fill="#000000" font-family="sans-serif" font-size="11" lengthAdjust="spacing" textLength="14" x="539.375" y="913.306">no</text><path d="M38,938.529 L38,1001.647 A0,0 0 0 0 38,1001.647 L242,1001.647 A0,0 0 0 0 242,1001.647 L242,974.088 L262,970.088 L242,966.088 L242,948.529 L232,938.529 L38,938.529 A0,0 0 0 0 38,938.529 " fill="#FEFFDD" style="stroke:#181818;stroke-width:0.5;"/><path d="M232,938.529 L232,948.529 L242,948.529 L232,938.529 " fill="#FEFFDD" style="stroke:#181818;stroke-width:0.5;"/><text fill="#000000" font-family="sans-serif" font-size="13" lengthAdjust="spacing" textLength="183" x="44" y="957.426">The hardware/post-processing</text><text fill="#000000" font-family="sans-serif" font-size="13" lengthAdjust="spacing" textLength="157" x="44" y="975.132">worker might still requeue</text><text fill="#000000" font-family="sans-serif" font-size="13" lengthAdjust="spacing" textLength="140" x="44" y="992.838">data points if necessary</text><rect fill="#F1F1F1" height="36.3441" rx="12.5" ry="12.5" style="stroke:#181818;stroke-width:0.5;" width="129" x="262" y="951.9159"/><text fill="#000000" font-family="sans-serif" font-size="12" lengthAdjust="spacing" textLength="109" x="272" y="974.744">Continue inner loop</text><rect fill="#000000" fill-opacity="0.06275" height="267.2361" style="stroke:#000000;stroke-width:1.5;" width="764" x="411" y="938.529"/><path d="M573,938.529 L573,950.5969 L563,960.5969 L411,960.5969 " fill="none" style="stroke:#000000;stroke-width:1.5;"/><text fill="#000000" font-family="sans-serif" font-size="14" lengthAdjust="spacing" textLength="152" x="414" y="954.4949">Pre-process data point</text><path d="M967,1045.269 L967,1126.093 L1155,1126.093 L1155,1055.269 L1145,1045.269 L967,1045.269 " fill="#FEFFDD" style="stroke:#181818;stroke-width:0.5;"/><path d="M1145,1045.269 L1145,1055.269 L1155,1055.269 L1145,1045.269 " fill="#FEFFDD" style="stroke:#181818;stroke-width:0.5;"/><text fill="#000000" font-family="sans-serif" font-size="13" lengthAdjust="spacing" textLength="139" x="973" y="1064.166">This could also be done</text><text fill="#000000" font-family="sans-serif" font-size="13" lengthAdjust="spacing" textLength="131" x="973" y="1081.872">in separate processes.</text><text fill="#000000" font-family="sans-serif" font-size="13" lengthAdjust="spacing" textLength="167" x="973" y="1099.578">The order of the data points</text><text fill="#000000" font-family="sans-serif" font-size="13" lengthAdjust="spacing" textLength="139" x="973" y="1117.284">has to be kept, though.</text><polygon fill="#F1F1F1" points="535.25,977.5969,631.25,977.5969,643.25,989.5969,631.25,1001.5969,535.25,1001.5969,523.25,989.5969,535.25,977.5969" style="stroke:#181818;stroke-width:0.5;"/><text fill="#000000" font-family="sans-serif" font-size="11" lengthAdjust="spacing" textLength="96" x="535.25" y="993.8649">Job was cancelled?</text><text fill="#000000" font-family="sans-serif" font-size="11" lengthAdjust="spacing" textLength="17" x="506.25" y="986.3739">yes</text><text fill="#000000" font-family="sans-serif" font-size="11" lengthAdjust="spacing" textLength="14" x="643.25" y="986.3739">no</text><rect fill="#F1F1F1" height="52.6882" rx="12.5" ry="12.5" style="stroke:#181818;stroke-width:0.5;" width="108" x="431" y="1011.5969"/><text fill="#000000" font-family="sans-serif" font-size="12" lengthAdjust="spacing" textLength="88" x="441" y="1034.425">Mark data point</text><text fill="#000000" font-family="sans-serif" font-size="12" lengthAdjust="spacing" textLength="69" x="441" y="1050.7691">as cancelled</text><path d="M776,1011.5969 L776,1048.0089 L756,1052.0089 L776,1056.0089 L776,1092.421 A0,0 0 0 0 776,1092.421 L947,1092.421 A0,0 0 0 0 947,1092.421 L947,1021.5969 L937,1011.5969 L776,1011.5969 A0,0 0 0 0 776,1011.5969 " fill="#FEFFDD" style="stroke:#181818;stroke-width:0.5;"/><path d="M937,1011.5969 L937,1021.5969 L947,1021.5969 L937,1011.5969 " fill="#FEFFDD" style="stroke:#181818;stroke-width:0.5;"/><text fill="#000000" font-family="sans-serif" font-size="13" lengthAdjust="spacing" textLength="150" x="782" y="1030.4939">Generating the json file,...</text><text fill="#000000" font-family="sans-serif" font-size="13" lengthAdjust="spacing" textLength="138" x="782" y="1048.1999">Use locally cached local</text><text fill="#000000" font-family="sans-serif" font-size="13" lengthAdjust="spacing" textLength="129" x="782" y="1065.9059">parameters when not</text><text fill="#000000" font-family="sans-serif" font-size="13" lengthAdjust="spacing" textLength="113" x="782" y="1083.612">scanning real-time.</text><rect fill="#F1F1F1" height="36.3441" rx="12.5" ry="12.5" style="stroke:#181818;stroke-width:0.5;" width="149" x="607" y="1033.8369"/><text fill="#000000" font-family="sans-serif" font-size="12" lengthAdjust="spacing" textLength="129" x="617" y="1056.665">Create 'HardwareTask'</text><rect fill="#F1F1F1" height="36.3441" rx="12.5" ry="12.5" style="stroke:#181818;stroke-width:0.5;" width="245" x="559" y="1127.421"/><text fill="#000000" font-family="sans-serif" font-size="12" lengthAdjust="spacing" textLength="225" x="569" y="1150.249">Put 'HardwareTask' in 'hardware_queue'</text><polygon fill="#F1F1F1" points="583.25,1169.7651,595.25,1181.7651,583.25,1193.7651,571.25,1181.7651,583.25,1169.7651" style="stroke:#181818;stroke-width:0.5;"/><polygon fill="#F1F1F1" points="454.875,1211.7651,466.875,1223.7651,454.875,1235.7651,442.875,1223.7651,454.875,1211.7651" style="stroke:#181818;stroke-width:0.5;"/><polygon fill="#F1F1F1" points="386.875,790.926,522.875,790.926,534.875,802.926,522.875,814.926,386.875,814.926,374.875,802.926,386.875,790.926" style="stroke:#181818;stroke-width:0.5;"/><text fill="#000000" font-family="sans-serif" font-size="11" lengthAdjust="spacing" textLength="14" x="458.875" y="826.6849">no</text><text fill="#000000" font-family="sans-serif" font-size="11" lengthAdjust="spacing" textLength="136" x="386.875" y="807.1939">All data points processed?</text><text fill="#000000" font-family="sans-serif" font-size="11" lengthAdjust="spacing" textLength="17" x="357.875" y="799.703">yes</text><rect fill="#000000" fill-opacity="0.06275" height="143.7561" style="stroke:#000000;stroke-width:1.5;" width="341" x="284.375" y="1267.7651"/><path d="M539.375,1267.7651 L539.375,1279.833 L529.375,1289.833 L284.375,1289.833 " fill="none" style="stroke:#000000;stroke-width:1.5;"/><text fill="#000000" font-family="sans-serif" font-size="14" lengthAdjust="spacing" textLength="245" x="287.375" y="1283.731">Submit Fitting and Database Update</text><rect fill="#F1F1F1" height="36.3441" rx="12.5" ry="12.5" style="stroke:#181818;stroke-width:0.5;" width="178" x="365.875" y="1306.833"/><text fill="#000000" font-family="sans-serif" font-size="12" lengthAdjust="spacing" textLength="158" x="375.875" y="1329.6611">Create 'PostProcessingTask'</text><rect fill="#F1F1F1" height="36.3441" rx="12.5" ry="12.5" style="stroke:#181818;stroke-width:0.5;" width="321" x="294.375" y="1363.1771"/><text fill="#000000" font-family="sans-serif" font-size="12" lengthAdjust="spacing" textLength="301" x="304.375" y="1386.0052">Put 'PostProcessingTask' into 'post_processing_queue'</text><path d="M534.375,1435.1593 L534.375,1453.8653 L514.375,1457.8653 L534.375,1461.8653 L534.375,1480.5713 A0,0 0 0 0 534.375,1480.5713 L739.375,1480.5713 A0,0 0 0 0 739.375,1480.5713 L739.375,1445.1593 L729.375,1435.1593 L534.375,1435.1593 A0,0 0 0 0 534.375,1435.1593 " fill="#FEFFDD" style="stroke:#181818;stroke-width:0.5;"/><path d="M729.375,1435.1593 L729.375,1445.1593 L739.375,1445.1593 L729.375,1435.1593 " fill="#FEFFDD" style="stroke:#181818;stroke-width:0.5;"/><text fill="#000000" font-family="sans-serif" font-size="13" lengthAdjust="spacing" textLength="180" x="540.375" y="1454.0563">Should I update the job status</text><text fill="#000000" font-family="sans-serif" font-size="13" lengthAdjust="spacing" textLength="184" x="540.375" y="1471.7623">in the post-processing worker?</text><rect fill="#F1F1F1" height="52.6882" rx="12.5" ry="12.5" style="stroke:#181818;stroke-width:0.5;" width="119" x="395.375" y="1431.5212"/><text fill="#000000" font-family="sans-serif" font-size="12" lengthAdjust="spacing" textLength="99" x="405.375" y="1454.3493">Update Job Status</text><text fill="#000000" font-family="sans-serif" font-size="12" lengthAdjust="spacing" textLength="58" x="405.375" y="1470.6934">to "DONE"</text><polygon fill="#F1F1F1" points="454.875,106.3441,466.875,118.3441,454.875,130.3441,442.875,118.3441,454.875,106.3441" style="stroke:#181818;stroke-width:0.5;"/><line style="stroke:#181818;stroke-width:1.0;" x1="454.875" x2="454.875" y1="30" y2="50"/><polygon fill="#181818" points="450.875,40,454.875,50,458.875,40,454.875,44" style="stroke:#181818;stroke-width:1.0;"/><line style="stroke:#181818;stroke-width:1.0;" x1="454.875" x2="454.875" y1="203.0323" y2="223.0323"/><polygon fill="#181818" points="450.875,213.0323,454.875,223.0323,458.875,213.0323,454.875,217.0323" style="stroke:#181818;stroke-width:1.0;"/><line style="stroke:#181818;stroke-width:1.0;" x1="552.625" x2="552.625" y1="366.0647" y2="407.3726"/><polygon fill="#181818" points="548.625,397.3726,552.625,407.3726,556.625,397.3726,552.625,401.3726" style="stroke:#181818;stroke-width:1.0;"/><line style="stroke:#181818;stroke-width:1.0;" x1="403.875" x2="357.125" y1="307.7206" y2="307.7206"/><line style="stroke:#181818;stroke-width:1.0;" x1="357.125" x2="357.125" y1="307.7206" y2="334.2545"/><polygon fill="#181818" points="353.125,324.2545,357.125,334.2545,361.125,324.2545,357.125,328.2545" style="stroke:#181818;stroke-width:1.0;"/><line style="stroke:#181818;stroke-width:1.0;" x1="505.875" x2="552.625" y1="307.7206" y2="307.7206"/><line style="stroke:#181818;stroke-width:1.0;" x1="552.625" x2="552.625" y1="307.7206" y2="329.7206"/><polygon fill="#181818" points="548.625,319.7206,552.625,329.7206,556.625,319.7206,552.625,323.7206" style="stroke:#181818;stroke-width:1.0;"/><line style="stroke:#181818;stroke-width:1.0;" x1="357.125" x2="357.125" y1="370.5986" y2="483.9567"/><line style="stroke:#181818;stroke-width:1.0;" x1="357.125" x2="442.875" y1="483.9567" y2="483.9567"/><polygon fill="#181818" points="432.875,479.9567,442.875,483.9567,432.875,487.9567,436.875,483.9567" style="stroke:#181818;stroke-width:1.0;"/><line style="stroke:#181818;stroke-width:1.0;" x1="552.625" x2="552.625" y1="443.7167" y2="483.9567"/><line style="stroke:#181818;stroke-width:1.0;" x1="552.625" x2="466.875" y1="483.9567" y2="483.9567"/><polygon fill="#181818" points="476.875,479.9567,466.875,483.9567,476.875,487.9567,472.875,483.9567" style="stroke:#181818;stroke-width:1.0;"/><line style="stroke:#181818;stroke-width:1.0;" x1="454.875" x2="454.875" y1="275.7206" y2="295.7206"/><polygon fill="#181818" points="450.875,285.7206,454.875,295.7206,458.875,285.7206,454.875,289.7206" style="stroke:#181818;stroke-width:1.0;"/><line style="stroke:#181818;stroke-width:1.0;" x1="454.875" x2="454.875" y1="634.48" y2="669.0228"/><polygon fill="#181818" points="450.875,659.0228,454.875,669.0228,458.875,659.0228,454.875,663.0228" style="stroke:#181818;stroke-width:1.0;"/><line style="stroke:#181818;stroke-width:1.0;" x1="454.875" x2="454.875" y1="539.9567" y2="565.4476"/><polygon fill="#181818" points="450.875,555.4476,454.875,565.4476,458.875,555.4476,454.875,559.4476" style="stroke:#181818;stroke-width:1.0;"/><line style="stroke:#181818;stroke-width:1.0;" x1="536.375" x2="548.375" y1="527.9567" y2="527.9567"/><polygon fill="#181818" points="544.375,639.0228,548.375,649.0228,552.375,639.0228,548.375,643.0228" style="stroke:#181818;stroke-width:1.0;"/><line style="stroke:#181818;stroke-width:1.0;" x1="548.375" x2="548.375" y1="527.9567" y2="758.926"/><line style="stroke:#181818;stroke-width:1.0;" x1="548.375" x2="466.875" y1="758.926" y2="758.926"/><polygon fill="#181818" points="476.875,754.926,466.875,758.926,476.875,762.926,472.875,758.926" style="stroke:#181818;stroke-width:1.0;"/><line style="stroke:#181818;stroke-width:1.0;" x1="454.875" x2="454.875" y1="721.711" y2="746.926"/><polygon fill="#181818" points="450.875,736.926,454.875,746.926,458.875,736.926,454.875,740.926" style="stroke:#181818;stroke-width:1.0;"/><line style="stroke:#181818;stroke-width:1.0;" x1="454.875" x2="454.875" y1="495.9567" y2="515.9567"/><polygon fill="#181818" points="450.875,505.9567,454.875,515.9567,458.875,505.9567,454.875,509.9567" style="stroke:#181818;stroke-width:1.0;"/><line style="stroke:#181818;stroke-width:1.0;" x1="681.5" x2="681.5" y1="1070.181" y2="1127.421"/><polygon fill="#181818" points="677.5,1117.421,681.5,1127.421,685.5,1117.421,681.5,1121.421" style="stroke:#181818;stroke-width:1.0;"/><line style="stroke:#181818;stroke-width:1.0;" x1="523.25" x2="485" y1="989.5969" y2="989.5969"/><line style="stroke:#181818;stroke-width:1.0;" x1="485" x2="485" y1="989.5969" y2="1011.5969"/><polygon fill="#181818" points="481,1001.5969,485,1011.5969,489,1001.5969,485,1005.5969" style="stroke:#181818;stroke-width:1.0;"/><line style="stroke:#181818;stroke-width:1.0;" x1="643.25" x2="681.5" y1="989.5969" y2="989.5969"/><line style="stroke:#181818;stroke-width:1.0;" x1="681.5" x2="681.5" y1="989.5969" y2="1033.8369"/><polygon fill="#181818" points="677.5,1023.8369,681.5,1033.8369,685.5,1023.8369,681.5,1027.8369" style="stroke:#181818;stroke-width:1.0;"/><line style="stroke:#181818;stroke-width:1.0;" x1="485" x2="485" y1="1064.2851" y2="1181.7651"/><line style="stroke:#181818;stroke-width:1.0;" x1="485" x2="571.25" y1="1181.7651" y2="1181.7651"/><polygon fill="#181818" points="561.25,1177.7651,571.25,1181.7651,561.25,1185.7651,565.25,1181.7651" style="stroke:#181818;stroke-width:1.0;"/><line style="stroke:#181818;stroke-width:1.0;" x1="681.5" x2="681.5" y1="1163.7651" y2="1181.7651"/><line style="stroke:#181818;stroke-width:1.0;" x1="681.5" x2="595.25" y1="1181.7651" y2="1181.7651"/><polygon fill="#181818" points="605.25,1177.7651,595.25,1181.7651,605.25,1185.7651,601.25,1181.7651" style="stroke:#181818;stroke-width:1.0;"/><line style="stroke:#181818;stroke-width:1.0;" x1="370.375" x2="326.5" y1="916.529" y2="916.529"/><line style="stroke:#181818;stroke-width:1.0;" x1="326.5" x2="326.5" y1="916.529" y2="951.9159"/><polygon fill="#181818" points="322.5,941.9159,326.5,951.9159,330.5,941.9159,326.5,945.9159" style="stroke:#181818;stroke-width:1.0;"/><line style="stroke:#181818;stroke-width:1.0;" x1="539.375" x2="583.25" y1="916.529" y2="916.529"/><line style="stroke:#181818;stroke-width:1.0;" x1="583.25" x2="583.25" y1="916.529" y2="977.5969"/><polygon fill="#181818" points="579.25,967.5969,583.25,977.5969,587.25,967.5969,583.25,971.5969" style="stroke:#181818;stroke-width:1.0;"/><line style="stroke:#181818;stroke-width:1.0;" x1="326.5" x2="326.5" y1="988.2601" y2="1223.7651"/><line style="stroke:#181818;stroke-width:1.0;" x1="326.5" x2="442.875" y1="1223.7651" y2="1223.7651"/><polygon fill="#181818" points="432.875,1219.7651,442.875,1223.7651,432.875,1227.7651,436.875,1223.7651" style="stroke:#181818;stroke-width:1.0;"/><line style="stroke:#181818;stroke-width:1.0;" x1="583.25" x2="583.25" y1="1193.7651" y2="1223.7651"/><line style="stroke:#181818;stroke-width:1.0;" x1="583.25" x2="466.875" y1="1223.7651" y2="1223.7651"/><polygon fill="#181818" points="476.875,1219.7651,466.875,1223.7651,476.875,1227.7651,472.875,1223.7651" style="stroke:#181818;stroke-width:1.0;"/><line style="stroke:#181818;stroke-width:1.0;" x1="454.875" x2="454.875" y1="884.529" y2="904.529"/><polygon fill="#181818" points="450.875,894.529,454.875,904.529,458.875,894.529,454.875,898.529" style="stroke:#181818;stroke-width:1.0;"/><line style="stroke:#181818;stroke-width:1.0;" x1="454.875" x2="454.875" y1="814.926" y2="848.1849"/><polygon fill="#181818" points="450.875,838.1849,454.875,848.1849,458.875,838.1849,454.875,842.1849" style="stroke:#181818;stroke-width:1.0;"/><line style="stroke:#181818;stroke-width:1.0;" x1="454.875" x2="454.875" y1="1235.7651" y2="1245.7651"/><line style="stroke:#181818;stroke-width:1.0;" x1="454.875" x2="1189" y1="1245.7651" y2="1245.7651"/><polygon fill="#181818" points="1185,1028.984,1189,1018.984,1193,1028.984,1189,1024.984" style="stroke:#181818;stroke-width:1.0;"/><line style="stroke:#181818;stroke-width:1.0;" x1="1189" x2="1189" y1="802.926" y2="1245.7651"/><line style="stroke:#181818;stroke-width:1.0;" x1="1189" x2="534.875" y1="802.926" y2="802.926"/><polygon fill="#181818" points="544.875,798.926,534.875,802.926,544.875,806.926,540.875,802.926" style="stroke:#181818;stroke-width:1.0;"/><line style="stroke:#181818;stroke-width:1.0;" x1="374.875" x2="24" y1="802.926" y2="802.926"/><polygon fill="#181818" points="20,1014.984,24,1024.984,28,1014.984,24,1018.984" style="stroke:#181818;stroke-width:1.0;"/><line style="stroke:#181818;stroke-width:1.0;" x1="24" x2="24" y1="802.926" y2="1257.7651"/><line style="stroke:#181818;stroke-width:1.0;" x1="24" x2="454.875" y1="1257.7651" y2="1257.7651"/><line style="stroke:#181818;stroke-width:1.0;" x1="454.875" x2="454.875" y1="1257.7651" y2="1306.833"/><polygon fill="#181818" points="450.875,1296.833,454.875,1306.833,458.875,1296.833,454.875,1300.833" style="stroke:#181818;stroke-width:1.0;"/><line style="stroke:#181818;stroke-width:1.0;" x1="454.875" x2="454.875" y1="770.926" y2="790.926"/><polygon fill="#181818" points="450.875,780.926,454.875,790.926,458.875,780.926,454.875,784.926" style="stroke:#181818;stroke-width:1.0;"/><line style="stroke:#181818;stroke-width:1.0;" x1="454.875" x2="454.875" y1="1343.1771" y2="1363.1771"/><polygon fill="#181818" points="450.875,1353.1771,454.875,1363.1771,458.875,1353.1771,454.875,1357.1771" style="stroke:#181818;stroke-width:1.0;"/><line style="stroke:#181818;stroke-width:1.0;" x1="454.875" x2="454.875" y1="1399.5212" y2="1431.5212"/><polygon fill="#181818" points="450.875,1421.5212,454.875,1431.5212,458.875,1421.5212,454.875,1425.5212" style="stroke:#181818;stroke-width:1.0;"/><line style="stroke:#181818;stroke-width:1.0;" x1="454.875" x2="454.875" y1="130.3441" y2="150.3441"/><polygon fill="#181818" points="450.875,140.3441,454.875,150.3441,458.875,140.3441,454.875,144.3441" style="stroke:#181818;stroke-width:1.0;"/><line style="stroke:#181818;stroke-width:1.0;" x1="454.875" x2="454.875" y1="1484.2094" y2="1532.2094"/><line style="stroke:#181818;stroke-width:1.0;" x1="454.875" x2="1201" y1="1532.2094" y2="1532.2094"/><polygon fill="#181818" points="1197,824.5907,1201,814.5907,1205,824.5907,1201,820.5907" style="stroke:#181818;stroke-width:1.0;"/><line style="stroke:#181818;stroke-width:1.0;" x1="1201" x2="1201" y1="118.3441" y2="1532.2094"/><line style="stroke:#181818;stroke-width:1.0;" x1="1201" x2="466.875" y1="118.3441" y2="118.3441"/><polygon fill="#181818" points="476.875,114.3441,466.875,118.3441,476.875,122.3441,472.875,118.3441" style="stroke:#181818;stroke-width:1.0;"/><line style="stroke:#181818;stroke-width:1.0;" x1="454.875" x2="454.875" y1="86.3441" y2="106.3441"/><polygon fill="#181818" points="450.875,96.3441,454.875,106.3441,458.875,96.3441,454.875,100.3441" style="stroke:#181818;stroke-width:1.0;"/><!--SRC=[XLPDRzj83BtxLn3TWrqWyNQlyQ4eacwx1RRrmkavc4YKDVLeHZj3nJ6A_UzBpiZwi2LqJh7uXaC-Ff89f3mjxkuzAa9unAfsNlaJF6YF6Jb_sYmyrcnS09-xJqXGwds9WQ3ssdbD9rXkFMwzop04RVUFAXoM4LruLp4AR-lE2FyssE0cERilbTqZjDRENpJc_AZDvOQpGEooCwVBke1LyDbJhZte07lzWlOjK8aMLYSCRoCell8z86HD88vbsTvORZgpTPosmOAwBtBuJj4OA9pdG5xGkBf2Ir2v74Uu5LiXkCPd_0OR8J_JrWV0QSHNuWSq7CtAkelugEEzSm0gJCLxnrpNocDluoXDZluY9Sz56kTqNs9s24ASSPaom7vSqF4fVDM1miq8dXbdCS8jIdauk1l8eeyHpZKaj4EeCTE5nfo9g2fDDw1iFa8sTSuQ2n5TdwZamg9zqTvP8NSzGnYBeEWgdYcEe8sVML1LI3_CwVrqyUylBo2XxnFG5bwKEU09akSeeyuQckTAisn5WRfYoQkg7bHYnxrmuRapikeB_GhauEZy0VsjpiS56Z6pJUYZDWQU4Ph0B1xBGIHok7FyIHg2BYWOeUGQxD6YLoJWBxjlNw7G1dz5xx5a4Am-S0XS9WMrqvR2kJanPuAvpyRI_K0YN98qzvXaOF6L1WxwfALy3_9zAz_X7va3ul4ZEvYfNggWivo8O2qdnOcxGGtcErZE8yTJAfyVkLz-Px7JO11TWLETe9A-WK1I2eznMbr1X_mC-sC47D4ytVfHA3n-DOd4VdiNpn_lH0xdI0Tl_RoAOwRH-_IPtimr9WTbWXDbvTpJarXkX21pHPR0kUHXFUCMmNcUEE2AMF817PCNIfva59y_OCrpWJk_sPVNpgyO6qhdYtk68plAbCtGcAZ76SbqqlbR-SCWkadGqENcEgJ9clNQJ5jp-RaLMLnzcqdiBsebvrFVjKBhZy2YaCwzMQ_NivTaUxGZCCsmFFsSlT1FmJGhEB1PR61ghCJ3UPfRcO7JWSnMBcqitX1ZYaHkotDdFiKccw2jdqtdyz_YsiP_jQCh2c4nrrGx6UO4VsgA3FDo0Xb7pue9_1ut4_nSN5LsorFZub-RuIwMp2OWd1yBVYaZvwaVEQD4KoftxSkYxXqfQb87yUKt3z- -VdoJi1FQsPMnh_zgbseI33i9lPEshUEs7S- -TjQzNmnhzpy0]--></g></svg>