<?xml version="1.0" encoding="us-ascii" standalone="no"?><svg xmlns="http://www.w3.org/2000/svg" xmlns:xlink="http://www.w3.org/1999/xlink" contentStyleType="text/css" height="862px" preserveAspectRatio="none" style="width:572px;height:862px;background:#FFFFFF;" version="1.1" viewBox="0 0 572 862" width="572px" zoomAndPan="magnify"><defs/><g><ellipse cx="337" cy="20" fill="#222222" rx="10" ry="10" style="stroke:#222222;stroke-width:1.0;"/><rect fill="#000000" fill-opacity="0.06275" height="151.2901" style="stroke:#000000;stroke-width:1.5;" width="442" x="11" y="40"/><path d="M105,40 L105,52.0679 L95,62.0679 L11,62.0679 " fill="none" style="stroke:#000000;stroke-width:1.5;"/><text fill="#000000" font-family="sans-serif" font-size="14" lengthAdjust="spacing" textLength="84" x="14" y="55.9659">Initialization</text><path d="M21,77.534 L21,122.946 A0,0 0 0 0 21,122.946 L211,122.946 A0,0 0 0 0 211,122.946 L211,104.24 L231,100.24 L211,96.24 L211,87.534 L201,77.534 L21,77.534 A0,0 0 0 0 21,77.534 " fill="#FEFFDD" style="stroke:#181818;stroke-width:0.5;"/><path d="M201,77.534 L201,87.534 L211,87.534 L201,77.534 " fill="#FEFFDD" style="stroke:#181818;stroke-width:0.5;"/><text fill="#000000" font-family="sans-serif" font-size="13" lengthAdjust="spacing" textLength="169" x="27" y="96.431">Mark experiments that have</text><text fill="#000000" font-family="sans-serif" font-size="13" lengthAdjust="spacing" textLength="148" x="27" y="114.137">not finished as cancelled.</text><rect fill="#F1F1F1" height="36.3441" rx="12.5" ry="12.5" style="stroke:#181818;stroke-width:0.5;" width="212" x="231" y="82.0679"/><text fill="#000000" font-family="sans-serif" font-size="12" lengthAdjust="spacing" textLength="192" x="241" y="104.896">Update Job Execution History table</text><path d="M30,147.265 L30,174.9711 A0,0 0 0 0 30,174.9711 L261,174.9711 A0,0 0 0 0 261,174.9711 L261,165.265 L281,161.118 L261,157.265 L261,157.265 L251,147.265 L30,147.265 A0,0 0 0 0 30,147.265 " fill="#FEFFDD" style="stroke:#181818;stroke-width:0.5;"/><path d="M251,147.265 L251,157.265 L261,157.265 L251,147.265 " fill="#FEFFDD" style="stroke:#181818;stroke-width:0.5;"/><text fill="#000000" font-family="sans-serif" font-size="13" lengthAdjust="spacing" textLength="210" x="36" y="166.1621">Mark processing jobs as processed.</text><rect fill="#F1F1F1" height="36.3441" rx="12.5" ry="12.5" style="stroke:#181818;stroke-width:0.5;" width="112" x="281" y="142.946"/><text fill="#000000" font-family="sans-serif" font-size="12" lengthAdjust="spacing" textLength="92" x="291" y="165.7741">Update Job table</text><polygon fill="#F1F1F1" points="226.5,255.2901,447.5,255.2901,459.5,267.2901,447.5,279.2901,226.5,279.2901,214.5,267.2901,226.5,255.2901" style="stroke:#181818;stroke-width:0.5;"/><text fill="#000000" font-family="sans-serif" font-size="11" lengthAdjust="spacing" textLength="221" x="226.5" y="271.5581">Jobs with status "SUBMITTED" in job table?</text><text fill="#000000" font-family="sans-serif" font-size="11" lengthAdjust="spacing" textLength="17" x="197.5" y="264.0671">yes</text><text fill="#000000" font-family="sans-serif" font-size="11" lengthAdjust="spacing" textLength="14" x="459.5" y="264.0671">no</text><rect fill="#000000" fill-opacity="0.06275" height="305.4767" style="stroke:#000000;stroke-width:1.5;" width="197" x="106" y="351.9783"/><path d="M214,351.9783 L214,364.0463 L204,374.0463 L106,374.0463 " fill="none" style="stroke:#000000;stroke-width:1.5;"/><text fill="#000000" font-family="sans-serif" font-size="14" lengthAdjust="spacing" textLength="98" x="109" y="367.9443">Job Processing</text><rect fill="#F1F1F1" height="52.6882" rx="12.5" ry="12.5" style="stroke:#181818;stroke-width:0.5;" width="119" x="145" y="391.0463"/><text fill="#000000" font-family="sans-serif" font-size="12" lengthAdjust="spacing" textLength="99" x="155" y="413.8743">Update Job Status</text><text fill="#000000" font-family="sans-serif" font-size="12" lengthAdjust="spacing" textLength="98" x="155" y="430.2185">to "PROCESSING"</text><rect fill="#F1F1F1" height="52.6882" rx="12.5" ry="12.5" style="stroke:#181818;stroke-width:0.5;" width="104" x="152.5" y="463.7345"/><text fill="#000000" font-family="sans-serif" font-size="12" lengthAdjust="spacing" textLength="84" x="162.5" y="486.5626">Write job to Job</text><text fill="#000000" font-family="sans-serif" font-size="12" lengthAdjust="spacing" textLength="79" x="162.5" y="502.9067">Iteration table</text><rect fill="#F1F1F1" height="36.3441" rx="12.5" ry="12.5" style="stroke:#181818;stroke-width:0.5;" width="177" x="116" y="536.4227"/><text fill="#000000" font-family="sans-serif" font-size="12" lengthAdjust="spacing" textLength="157" x="126" y="559.2508">Create "PreProcessingTask"</text><rect fill="#F1F1F1" height="52.6882" rx="12.5" ry="12.5" style="stroke:#181818;stroke-width:0.5;" width="160" x="124.5" y="592.7668"/><text fill="#000000" font-family="sans-serif" font-size="12" lengthAdjust="spacing" textLength="140" x="134.5" y="615.5949">Put PreProcessingTask in</text><text fill="#000000" font-family="sans-serif" font-size="12" lengthAdjust="spacing" textLength="122" x="134.5" y="631.939">pre-processing queue</text><polygon fill="#F1F1F1" points="162.5,289.2901,246.5,289.2901,258.5,301.2901,246.5,313.2901,162.5,313.2901,150.5,301.2901,162.5,289.2901" style="stroke:#181818;stroke-width:0.5;"/><text fill="#000000" font-family="sans-serif" font-size="11" lengthAdjust="spacing" textLength="17" x="208.5" y="325.049">yes</text><text fill="#000000" font-family="sans-serif" font-size="11" lengthAdjust="spacing" textLength="84" x="162.5" y="305.5581">Jobs to process?</text><text fill="#000000" font-family="sans-serif" font-size="11" lengthAdjust="spacing" textLength="14" x="136.5" y="298.0671">no</text><rect fill="#F1F1F1" height="52.6882" rx="12.5" ry="12.5" style="stroke:#181818;stroke-width:0.5;" width="126" x="406.5" y="289.2901"/><text fill="#000000" font-family="sans-serif" font-size="12" lengthAdjust="spacing" textLength="54" x="416.5" y="312.1182">Wait for a</text><text fill="#000000" font-family="sans-serif" font-size="12" lengthAdjust="spacing" textLength="106" x="416.5" y="328.4623">predefined interval</text><polygon fill="#F1F1F1" points="337,685.4551,349,697.4551,337,709.4551,325,697.4551,337,685.4551" style="stroke:#181818;stroke-width:0.5;"/><polygon fill="#F1F1F1" points="337,211.2901,349,223.2901,337,235.2901,325,223.2901,337,211.2901" style="stroke:#181818;stroke-width:0.5;"/><polygon fill="#F1F1F1" points="307.5,729.4551,366.5,729.4551,378.5,741.4551,366.5,753.4551,307.5,753.4551,295.5,741.4551,307.5,729.4551" style="stroke:#181818;stroke-width:0.5;"/><text fill="#000000" font-family="sans-serif" font-size="11" lengthAdjust="spacing" textLength="59" x="307.5" y="745.723">Should exit</text><text fill="#000000" font-family="sans-serif" font-size="11" lengthAdjust="spacing" textLength="14" x="378.5" y="738.2321">no</text><rect fill="#F1F1F1" height="36.3441" rx="12.5" ry="12.5" style="stroke:#181818;stroke-width:0.5;" width="134" x="270" y="773.4551"/><text fill="#000000" font-family="sans-serif" font-size="12" lengthAdjust="spacing" textLength="114" x="280" y="796.2831">Shutdown Scheduler</text><ellipse cx="337" cy="840.7992" fill="none" rx="11" ry="11" style="stroke:#222222;stroke-width:1.0;"/><ellipse cx="337" cy="840.7992" fill="#222222" rx="6" ry="6" style="stroke:#222222;stroke-width:1.0;"/><line style="stroke:#181818;stroke-width:1.0;" x1="337" x2="337" y1="118.412" y2="142.946"/><polygon fill="#181818" points="333,132.946,337,142.946,341,132.946,337,136.946" style="stroke:#181818;stroke-width:1.0;"/><line style="stroke:#181818;stroke-width:1.0;" x1="337" x2="337" y1="30" y2="82.0679"/><polygon fill="#181818" points="333,72.0679,337,82.0679,341,72.0679,337,76.0679" style="stroke:#181818;stroke-width:1.0;"/><line style="stroke:#181818;stroke-width:1.0;" x1="204.5" x2="204.5" y1="443.7345" y2="463.7345"/><polygon fill="#181818" points="200.5,453.7345,204.5,463.7345,208.5,453.7345,204.5,457.7345" style="stroke:#181818;stroke-width:1.0;"/><line style="stroke:#181818;stroke-width:1.0;" x1="204.5" x2="204.5" y1="516.4227" y2="536.4227"/><polygon fill="#181818" points="200.5,526.4227,204.5,536.4227,208.5,526.4227,204.5,530.4227" style="stroke:#181818;stroke-width:1.0;"/><line style="stroke:#181818;stroke-width:1.0;" x1="204.5" x2="204.5" y1="572.7668" y2="592.7668"/><polygon fill="#181818" points="200.5,582.7668,204.5,592.7668,208.5,582.7668,204.5,586.7668" style="stroke:#181818;stroke-width:1.0;"/><line style="stroke:#181818;stroke-width:1.0;" x1="204.5" x2="204.5" y1="313.2901" y2="391.0463"/><polygon fill="#181818" points="200.5,381.0463,204.5,391.0463,208.5,381.0463,204.5,385.0463" style="stroke:#181818;stroke-width:1.0;"/><line style="stroke:#181818;stroke-width:1.0;" x1="204.5" x2="204.5" y1="645.4551" y2="667.4551"/><line style="stroke:#181818;stroke-width:1.0;" x1="204.5" x2="315" y1="667.4551" y2="667.4551"/><polygon fill="#181818" points="311,506.7257,315,496.7257,319,506.7257,315,502.7257" style="stroke:#181818;stroke-width:1.0;"/><line style="stroke:#181818;stroke-width:1.0;" x1="315" x2="315" y1="301.2901" y2="667.4551"/><line style="stroke:#181818;stroke-width:1.0;" x1="315" x2="258.5" y1="301.2901" y2="301.2901"/><polygon fill="#181818" points="268.5,297.2901,258.5,301.2901,268.5,305.2901,264.5,301.2901" style="stroke:#181818;stroke-width:1.0;"/><line style="stroke:#181818;stroke-width:1.0;" x1="150.5" x2="94" y1="301.2901" y2="301.2901"/><polygon fill="#181818" points="90,501.7257,94,511.7257,98,501.7257,94,505.7257" style="stroke:#181818;stroke-width:1.0;"/><line style="stroke:#181818;stroke-width:1.0;" x1="94" x2="94" y1="301.2901" y2="697.4551"/><line style="stroke:#181818;stroke-width:1.0;" x1="94" x2="325" y1="697.4551" y2="697.4551"/><polygon fill="#181818" points="315,693.4551,325,697.4551,315,701.4551,319,697.4551" style="stroke:#181818;stroke-width:1.0;"/><line style="stroke:#181818;stroke-width:1.0;" x1="214.5" x2="204.5" y1="267.2901" y2="267.2901"/><line style="stroke:#181818;stroke-width:1.0;" x1="204.5" x2="204.5" y1="267.2901" y2="289.2901"/><polygon fill="#181818" points="200.5,279.2901,204.5,289.2901,208.5,279.2901,204.5,283.2901" style="stroke:#181818;stroke-width:1.0;"/><line style="stroke:#181818;stroke-width:1.0;" x1="459.5" x2="469.5" y1="267.2901" y2="267.2901"/><line style="stroke:#181818;stroke-width:1.0;" x1="469.5" x2="469.5" y1="267.2901" y2="289.2901"/><polygon fill="#181818" points="465.5,279.2901,469.5,289.2901,473.5,279.2901,469.5,283.2901" style="stroke:#181818;stroke-width:1.0;"/><line style="stroke:#181818;stroke-width:1.0;" x1="469.5" x2="469.5" y1="341.9783" y2="697.4551"/><line style="stroke:#181818;stroke-width:1.0;" x1="469.5" x2="349" y1="697.4551" y2="697.4551"/><polygon fill="#181818" points="359,693.4551,349,697.4551,359,701.4551,355,697.4551" style="stroke:#181818;stroke-width:1.0;"/><line style="stroke:#181818;stroke-width:1.0;" x1="337" x2="337" y1="235.2901" y2="255.2901"/><polygon fill="#181818" points="333,245.2901,337,255.2901,341,245.2901,337,249.2901" style="stroke:#181818;stroke-width:1.0;"/><line style="stroke:#181818;stroke-width:1.0;" x1="378.5" x2="546.5" y1="741.4551" y2="741.4551"/><polygon fill="#181818" points="542.5,504.7257,546.5,494.7257,550.5,504.7257,546.5,500.7257" style="stroke:#181818;stroke-width:1.0;"/><line style="stroke:#181818;stroke-width:1.0;" x1="546.5" x2="546.5" y1="223.2901" y2="741.4551"/><line style="stroke:#181818;stroke-width:1.0;" x1="546.5" x2="349" y1="223.2901" y2="223.2901"/><polygon fill="#181818" points="359,219.2901,349,223.2901,359,227.2901,355,223.2901" style="stroke:#181818;stroke-width:1.0;"/><line style="stroke:#181818;stroke-width:1.0;" x1="337" x2="337" y1="709.4551" y2="729.4551"/><polygon fill="#181818" points="333,719.4551,337,729.4551,341,719.4551,337,723.4551" style="stroke:#181818;stroke-width:1.0;"/><line style="stroke:#181818;stroke-width:1.0;" x1="337" x2="337" y1="179.2901" y2="211.2901"/><polygon fill="#181818" points="333,201.2901,337,211.2901,341,201.2901,337,205.2901" style="stroke:#181818;stroke-width:1.0;"/><line style="stroke:#181818;stroke-width:1.0;" x1="337" x2="337" y1="753.4551" y2="773.4551"/><polygon fill="#181818" points="333,763.4551,337,773.4551,341,763.4551,337,767.4551" style="stroke:#181818;stroke-width:1.0;"/><line style="stroke:#181818;stroke-width:1.0;" x1="337" x2="337" y1="809.7992" y2="829.7992"/><polygon fill="#181818" points="333,819.7992,337,829.7992,341,819.7992,337,823.7992" style="stroke:#181818;stroke-width:1.0;"/><!--SRC=[XLFBJiCm4BpdArRXGWyWkD834gM2LW8gKiJPJRPagR63lQ4j5V_EskcBfX9xY6HxTcOV4qWyAyT99HzYiWPEBc9SNi30o8tIzAtYmoe1YQkNgb2CCBGJw2ymh-FRFNcsRWci9Xgx4MYie3HEEPv2F2Wt0rnKwEW33NlWKZ6KwWkt44c2AHdo9HQWFEJAvAWr5kSHWgQ8lArA_jUjdCtHUp9ly6udFf2lhrhaFud32bL3G5Cu7OQ4EN49CYokFQJPoyt3O3pktwP09X0s5Lntf2SqSBf4tzdgpqlIk6PXkv4LBFa3P8XZcmWjZdODhFua7CuYYpMs8AASZfwVUlqi6ppUfTqsnwiZeOZDsC3KGWmONUE5lNd_eUWv36Ma8uUxUiVApuxfZMg65b3csK9M3i_szlTPOtqW_hCzoHRNypQs6IngltTgEbKaFhCELBAdKQ1OJtn7HlhyKhgxiGLDruxOh38hRQqByJ9niyN0dbnbPSs5dHl8Sl5lhT5r4_c_RFKB]--></g></svg>