<?xml version="1.0" encoding="us-ascii" standalone="no"?><svg xmlns="http://www.w3.org/2000/svg" xmlns:xlink="http://www.w3.org/1999/xlink" contentStyleType="text/css" height="941px" preserveAspectRatio="none" style="width:829px;height:941px;background:#FFFFFF;" version="1.1" viewBox="0 0 829 941" width="829px" zoomAndPan="magnify"><defs/><g><ellipse cx="523.5" cy="20" fill="#222222" rx="10" ry="10" style="stroke:#222222;stroke-width:1.0;"/><rect fill="#000000" fill-opacity="0.06275" height="151.2901" style="stroke:#000000;stroke-width:1.5;" width="442" x="197.5" y="40"/><path d="M291.5,40 L291.5,52.0679 L281.5,62.0679 L197.5,62.0679 " fill="none" style="stroke:#000000;stroke-width:1.5;"/><text fill="#000000" font-family="sans-serif" font-size="14" lengthAdjust="spacing" textLength="84" x="200.5" y="55.9659">Initialization</text><path d="M207.5,77.534 L207.5,122.946 A0,0 0 0 0 207.5,122.946 L397.5,122.946 A0,0 0 0 0 397.5,122.946 L397.5,104.24 L417.5,100.24 L397.5,96.24 L397.5,87.534 L387.5,77.534 L207.5,77.534 A0,0 0 0 0 207.5,77.534 " fill="#FEFFDD" style="stroke:#181818;stroke-width:0.5;"/><path d="M387.5,77.534 L387.5,87.534 L397.5,87.534 L387.5,77.534 " fill="#FEFFDD" style="stroke:#181818;stroke-width:0.5;"/><text fill="#000000" font-family="sans-serif" font-size="13" lengthAdjust="spacing" textLength="169" x="213.5" y="96.431">Mark experiments that have</text><text fill="#000000" font-family="sans-serif" font-size="13" lengthAdjust="spacing" textLength="125" x="213.5" y="114.137">not finished as failed.</text><rect fill="#F1F1F1" height="36.3441" rx="12.5" ry="12.5" style="stroke:#181818;stroke-width:0.5;" width="212" x="417.5" y="82.0679"/><text fill="#000000" font-family="sans-serif" font-size="12" lengthAdjust="spacing" textLength="192" x="427.5" y="104.896">Update Job Execution History table</text><path d="M246.5,147.265 L246.5,174.9711 A0,0 0 0 0 246.5,174.9711 L447.5,174.9711 A0,0 0 0 0 447.5,174.9711 L447.5,165.265 L467.5,161.118 L447.5,157.265 L447.5,157.265 L437.5,147.265 L246.5,147.265 A0,0 0 0 0 246.5,147.265 " fill="#FEFFDD" style="stroke:#181818;stroke-width:0.5;"/><path d="M437.5,147.265 L437.5,157.265 L447.5,157.265 L437.5,147.265 " fill="#FEFFDD" style="stroke:#181818;stroke-width:0.5;"/><text fill="#000000" font-family="sans-serif" font-size="13" lengthAdjust="spacing" textLength="180" x="252.5" y="166.1621">Mark processing jobs as done.</text><rect fill="#F1F1F1" height="36.3441" rx="12.5" ry="12.5" style="stroke:#181818;stroke-width:0.5;" width="112" x="467.5" y="142.946"/><text fill="#000000" font-family="sans-serif" font-size="12" lengthAdjust="spacing" textLength="92" x="477.5" y="165.7741">Update Job table</text><polygon fill="#F1F1F1" points="413,255.2901,634,255.2901,646,267.2901,634,279.2901,413,279.2901,401,267.2901,413,255.2901" style="stroke:#181818;stroke-width:0.5;"/><text fill="#000000" font-family="sans-serif" font-size="11" lengthAdjust="spacing" textLength="221" x="413" y="271.5581">Jobs with status "SUBMITTED" in job table?</text><text fill="#000000" font-family="sans-serif" font-size="11" lengthAdjust="spacing" textLength="17" x="384" y="264.0671">yes</text><text fill="#000000" font-family="sans-serif" font-size="11" lengthAdjust="spacing" textLength="14" x="646" y="264.0671">no</text><rect fill="#000000" fill-opacity="0.06275" height="384.4137" style="stroke:#000000;stroke-width:1.5;" width="595" x="36" y="351.9783"/><path d="M144,351.9783 L144,364.0463 L134,374.0463 L36,374.0463 " fill="none" style="stroke:#000000;stroke-width:1.5;"/><text fill="#000000" font-family="sans-serif" font-size="14" lengthAdjust="spacing" textLength="98" x="39" y="367.9443">Job Processing</text><rect fill="#F1F1F1" height="52.6882" rx="12.5" ry="12.5" style="stroke:#181818;stroke-width:0.5;" width="119" x="261.5" y="391.0463"/><text fill="#000000" font-family="sans-serif" font-size="12" lengthAdjust="spacing" textLength="99" x="271.5" y="413.8743">Update Job Status</text><text fill="#000000" font-family="sans-serif" font-size="12" lengthAdjust="spacing" textLength="98" x="271.5" y="430.2185">to "PROCESSING"</text><rect fill="#F1F1F1" height="52.6882" rx="12.5" ry="12.5" style="stroke:#181818;stroke-width:0.5;" width="148" x="247" y="463.7345"/><text fill="#000000" font-family="sans-serif" font-size="12" lengthAdjust="spacing" textLength="84" x="257" y="486.5626">Write job to Job</text><text fill="#000000" font-family="sans-serif" font-size="12" lengthAdjust="spacing" textLength="128" x="257" y="502.9067">Execution History table</text><path d="M56,569.7327 L56,632.8507 L227,632.8507 L227,579.7327 L217,569.7327 L56,569.7327 " fill="#FEFFDD" style="stroke:#181818;stroke-width:0.5;"/><path d="M217,569.7327 L217,579.7327 L227,579.7327 L217,569.7327 " fill="#FEFFDD" style="stroke:#181818;stroke-width:0.5;"/><text fill="#000000" font-family="sans-serif" font-size="13" lengthAdjust="spacing" textLength="146" x="62" y="588.6297">If in development mode,</text><text fill="#000000" font-family="sans-serif" font-size="13" lengthAdjust="spacing" textLength="150" x="62" y="606.3357">pass the dev source code</text><text fill="#000000" font-family="sans-serif" font-size="13" lengthAdjust="spacing" textLength="115" x="62" y="624.0417">directory as src_dir.</text><path d="M415,560.8797 L415,641.7038 L611,641.7038 L611,570.8797 L601,560.8797 L415,560.8797 " fill="#FEFFDD" style="stroke:#181818;stroke-width:0.5;"/><path d="M601,560.8797 L601,570.8797 L611,570.8797 L601,560.8797 " fill="#FEFFDD" style="stroke:#181818;stroke-width:0.5;"/><text fill="#000000" font-family="sans-serif" font-size="13" lengthAdjust="spacing" textLength="139" x="421" y="579.7767">No distinction between</text><text fill="#000000" font-family="sans-serif" font-size="13" lengthAdjust="spacing" textLength="175" x="421" y="597.4827">real-time scan and parameter</text><text fill="#000000" font-family="sans-serif" font-size="13" lengthAdjust="spacing" textLength="167" x="421" y="615.1887">scan. Pre-processing worker</text><text fill="#000000" font-family="sans-serif" font-size="13" lengthAdjust="spacing" textLength="104" x="421" y="632.8948">will create src_dir.</text><rect fill="#F1F1F1" height="36.3441" rx="12.5" ry="12.5" style="stroke:#181818;stroke-width:0.5;" width="168" x="237" y="583.1197"/><text fill="#000000" font-family="sans-serif" font-size="12" lengthAdjust="spacing" textLength="148" x="247" y="605.9478">Create "PreProcessingJob"</text><rect fill="#F1F1F1" height="52.6882" rx="12.5" ry="12.5" style="stroke:#181818;stroke-width:0.5;" width="151" x="245.5" y="671.7038"/><text fill="#000000" font-family="sans-serif" font-size="12" lengthAdjust="spacing" textLength="131" x="255.5" y="694.5318">Put PreProcessingJob in</text><text fill="#000000" font-family="sans-serif" font-size="12" lengthAdjust="spacing" textLength="122" x="255.5" y="710.876">pre-processing queue</text><polygon fill="#F1F1F1" points="279,289.2901,363,289.2901,375,301.2901,363,313.2901,279,313.2901,267,301.2901,279,289.2901" style="stroke:#181818;stroke-width:0.5;"/><text fill="#000000" font-family="sans-serif" font-size="11" lengthAdjust="spacing" textLength="17" x="325" y="325.049">yes</text><text fill="#000000" font-family="sans-serif" font-size="11" lengthAdjust="spacing" textLength="84" x="279" y="305.5581">Jobs to process?</text><text fill="#000000" font-family="sans-serif" font-size="11" lengthAdjust="spacing" textLength="14" x="253" y="298.0671">no</text><rect fill="#F1F1F1" height="52.6882" rx="12.5" ry="12.5" style="stroke:#181818;stroke-width:0.5;" width="126" x="663" y="289.2901"/><text fill="#000000" font-family="sans-serif" font-size="12" lengthAdjust="spacing" textLength="54" x="673" y="312.1182">Wait for a</text><text fill="#000000" font-family="sans-serif" font-size="12" lengthAdjust="spacing" textLength="106" x="673" y="328.4623">predefined interval</text><polygon fill="#F1F1F1" points="523.5,764.392,535.5,776.392,523.5,788.392,511.5,776.392,523.5,764.392" style="stroke:#181818;stroke-width:0.5;"/><polygon fill="#F1F1F1" points="523.5,211.2901,535.5,223.2901,523.5,235.2901,511.5,223.2901,523.5,211.2901" style="stroke:#181818;stroke-width:0.5;"/><polygon fill="#F1F1F1" points="494,808.392,553,808.392,565,820.392,553,832.392,494,832.392,482,820.392,494,808.392" style="stroke:#181818;stroke-width:0.5;"/><text fill="#000000" font-family="sans-serif" font-size="11" lengthAdjust="spacing" textLength="59" x="494" y="824.66">Should exit</text><text fill="#000000" font-family="sans-serif" font-size="11" lengthAdjust="spacing" textLength="14" x="565" y="817.169">no</text><rect fill="#F1F1F1" height="36.3441" rx="12.5" ry="12.5" style="stroke:#181818;stroke-width:0.5;" width="134" x="456.5" y="852.392"/><text fill="#000000" font-family="sans-serif" font-size="12" lengthAdjust="spacing" textLength="114" x="466.5" y="875.2201">Shutdown Scheduler</text><ellipse cx="523.5" cy="919.7361" fill="none" rx="11" ry="11" style="stroke:#222222;stroke-width:1.0;"/><ellipse cx="523.5" cy="919.7361" fill="#222222" rx="6" ry="6" style="stroke:#222222;stroke-width:1.0;"/><line style="stroke:#181818;stroke-width:1.0;" x1="523.5" x2="523.5" y1="118.412" y2="142.946"/><polygon fill="#181818" points="519.5,132.946,523.5,142.946,527.5,132.946,523.5,136.946" style="stroke:#181818;stroke-width:1.0;"/><line style="stroke:#181818;stroke-width:1.0;" x1="523.5" x2="523.5" y1="30" y2="82.0679"/><polygon fill="#181818" points="519.5,72.0679,523.5,82.0679,527.5,72.0679,523.5,76.0679" style="stroke:#181818;stroke-width:1.0;"/><line style="stroke:#181818;stroke-width:1.0;" x1="321" x2="321" y1="443.7345" y2="463.7345"/><polygon fill="#181818" points="317,453.7345,321,463.7345,325,453.7345,321,457.7345" style="stroke:#181818;stroke-width:1.0;"/><line style="stroke:#181818;stroke-width:1.0;" x1="321" x2="321" y1="516.4227" y2="583.1197"/><polygon fill="#181818" points="317,573.1197,321,583.1197,325,573.1197,321,577.1197" style="stroke:#181818;stroke-width:1.0;"/><line style="stroke:#181818;stroke-width:1.0;" x1="321" x2="321" y1="619.4638" y2="671.7038"/><polygon fill="#181818" points="317,661.7038,321,671.7038,325,661.7038,321,665.7038" style="stroke:#181818;stroke-width:1.0;"/><line style="stroke:#181818;stroke-width:1.0;" x1="321" x2="321" y1="313.2901" y2="391.0463"/><polygon fill="#181818" points="317,381.0463,321,391.0463,325,381.0463,321,385.0463" style="stroke:#181818;stroke-width:1.0;"/><line style="stroke:#181818;stroke-width:1.0;" x1="321" x2="321" y1="724.392" y2="746.392"/><line style="stroke:#181818;stroke-width:1.0;" x1="321" x2="643" y1="746.392" y2="746.392"/><polygon fill="#181818" points="639,538.4227,643,528.4227,647,538.4227,643,534.4227" style="stroke:#181818;stroke-width:1.0;"/><line style="stroke:#181818;stroke-width:1.0;" x1="643" x2="643" y1="301.2901" y2="746.392"/><line style="stroke:#181818;stroke-width:1.0;" x1="643" x2="375" y1="301.2901" y2="301.2901"/><polygon fill="#181818" points="385,297.2901,375,301.2901,385,305.2901,381,301.2901" style="stroke:#181818;stroke-width:1.0;"/><line style="stroke:#181818;stroke-width:1.0;" x1="267" x2="24" y1="301.2901" y2="301.2901"/><polygon fill="#181818" points="20,533.4227,24,543.4227,28,533.4227,24,537.4227" style="stroke:#181818;stroke-width:1.0;"/><line style="stroke:#181818;stroke-width:1.0;" x1="24" x2="24" y1="301.2901" y2="776.392"/><line style="stroke:#181818;stroke-width:1.0;" x1="24" x2="511.5" y1="776.392" y2="776.392"/><polygon fill="#181818" points="501.5,772.392,511.5,776.392,501.5,780.392,505.5,776.392" style="stroke:#181818;stroke-width:1.0;"/><line style="stroke:#181818;stroke-width:1.0;" x1="401" x2="321" y1="267.2901" y2="267.2901"/><line style="stroke:#181818;stroke-width:1.0;" x1="321" x2="321" y1="267.2901" y2="289.2901"/><polygon fill="#181818" points="317,279.2901,321,289.2901,325,279.2901,321,283.2901" style="stroke:#181818;stroke-width:1.0;"/><line style="stroke:#181818;stroke-width:1.0;" x1="646" x2="726" y1="267.2901" y2="267.2901"/><line style="stroke:#181818;stroke-width:1.0;" x1="726" x2="726" y1="267.2901" y2="289.2901"/><polygon fill="#181818" points="722,279.2901,726,289.2901,730,279.2901,726,283.2901" style="stroke:#181818;stroke-width:1.0;"/><line style="stroke:#181818;stroke-width:1.0;" x1="726" x2="726" y1="341.9783" y2="776.392"/><line style="stroke:#181818;stroke-width:1.0;" x1="726" x2="535.5" y1="776.392" y2="776.392"/><polygon fill="#181818" points="545.5,772.392,535.5,776.392,545.5,780.392,541.5,776.392" style="stroke:#181818;stroke-width:1.0;"/><line style="stroke:#181818;stroke-width:1.0;" x1="523.5" x2="523.5" y1="235.2901" y2="255.2901"/><polygon fill="#181818" points="519.5,245.2901,523.5,255.2901,527.5,245.2901,523.5,249.2901" style="stroke:#181818;stroke-width:1.0;"/><line style="stroke:#181818;stroke-width:1.0;" x1="565" x2="803" y1="820.392" y2="820.392"/><polygon fill="#181818" points="799,536.4227,803,526.4227,807,536.4227,803,532.4227" style="stroke:#181818;stroke-width:1.0;"/><line style="stroke:#181818;stroke-width:1.0;" x1="803" x2="803" y1="223.2901" y2="820.392"/><line style="stroke:#181818;stroke-width:1.0;" x1="803" x2="535.5" y1="223.2901" y2="223.2901"/><polygon fill="#181818" points="545.5,219.2901,535.5,223.2901,545.5,227.2901,541.5,223.2901" style="stroke:#181818;stroke-width:1.0;"/><line style="stroke:#181818;stroke-width:1.0;" x1="523.5" x2="523.5" y1="788.392" y2="808.392"/><polygon fill="#181818" points="519.5,798.392,523.5,808.392,527.5,798.392,523.5,802.392" style="stroke:#181818;stroke-width:1.0;"/><line style="stroke:#181818;stroke-width:1.0;" x1="523.5" x2="523.5" y1="179.2901" y2="211.2901"/><polygon fill="#181818" points="519.5,201.2901,523.5,211.2901,527.5,201.2901,523.5,205.2901" style="stroke:#181818;stroke-width:1.0;"/><line style="stroke:#181818;stroke-width:1.0;" x1="523.5" x2="523.5" y1="832.392" y2="852.392"/><polygon fill="#181818" points="519.5,842.392,523.5,852.392,527.5,842.392,523.5,846.392" style="stroke:#181818;stroke-width:1.0;"/><line style="stroke:#181818;stroke-width:1.0;" x1="523.5" x2="523.5" y1="888.7361" y2="908.7361"/><polygon fill="#181818" points="519.5,898.7361,523.5,908.7361,527.5,898.7361,523.5,902.7361" style="stroke:#181818;stroke-width:1.0;"/><!--SRC=[bLHDRzim3BtxLn3UfGNMeBicXm7hWYq5sWLpYnq7HQ9hhehaINBShkX_7oKdhMDx6yQ30KjFZr-FXCm7uK9MyuS2MGDlpfEzEuULuHEXwPT85qyPiCrlQoK2mgNTmF81PPFkFfCFrZr241kDYmGqbb4Qov3-ebq9Tm_uKAEZBPhW8LGYG2Ls-0BXHr2I8L-X0k6X5AHHpT8z6fL8Hs7yssdjh4JloTp13xlnaLbPWmFUvynXZQ9xIoMSN4PiIw42Bb9eFEJ5xOUhrStDycCEP29Nv_pzAUU21auUqP- -k6uh3dxF4kmX2CQI7o2ZJNKWPhT-ZVtfwC6m34MASGHXp_dwwvUBPL6ihZ_bYp77DqTCaPAnaMc4-6kVZwWk7CPmyhN3rxYPSiBjk5LzMvMnm0ftg6qTrG9Rg_3j9BOMFce98noyRPn4a8oU12joA5CEB0Blv7S-c8sGHreRHUtehfeE-zgo0n_8o5Ik3OOMMHUJM2wLFWiy2k2bC23O9Mj0R36WctmGOJFM0vxrzDnQT_y7V4jQW-mwyl-PpjTDW64VkIaZO7qSqCy6cu4qdhEUj_rK6Dl97xNl_NLw5CHRm3eGMS-7GbuCl1N8S7rsGYyEmqlbVcuF0rTKjj6ADms5RjOYUpOlgYOesnee96-NHgDRPBpzRFqR]--></g></svg>