<?xml version="1.0" encoding="us-ascii" standalone="no"?><svg xmlns="http://www.w3.org/2000/svg" xmlns:xlink="http://www.w3.org/1999/xlink" contentStyleType="text/css" height="475px" preserveAspectRatio="none" style="width:1087px;height:475px;background:#FFFFFF;" version="1.1" viewBox="0 0 1087 475" width="1087px" zoomAndPan="magnify"><defs/><g><!--class experiment--><g id="elem_experiment"><rect codeLine="3" fill="#F1F1F1" height="86.1358" id="experiment" rx="2.5" ry="2.5" style="stroke:#181818;stroke-width:0.5;" width="323" x="65" y="92.81"/><ellipse cx="160.75" cy="108.81" fill="#ADD1B2" rx="11" ry="11" style="stroke:#181818;stroke-width:1.0;"/><path d="M164.2188,115.31 L156.9063,115.31 L156.9063,102.6381 L164.2188,102.6381 L164.2188,104.5131 L158.9531,104.5131 L158.9531,107.7788 L163.9063,107.7788 L163.9063,109.6381 L158.9531,109.6381 L158.9531,113.435 L164.2188,113.435 L164.2188,115.31 Z " fill="#000000"/><text fill="#000000" font-family="sans-serif" font-size="14" lengthAdjust="spacing" textLength="123" x="181.25" y="114.242">ExperimentSource</text><line style="stroke:#181818;stroke-width:0.5;" x1="66" x2="387" y1="124.81" y2="124.81"/><ellipse cx="76" cy="139.844" fill="#000000" rx="3" ry="3" style="stroke:#000000;stroke-width:1.0;"/><text fill="#000000" font-family="sans-serif" font-size="14" lengthAdjust="spacing" textLength="297" x="85" y="143.7759">experiment_source_id: number &#171;generated&#187;</text><line style="stroke:#181818;stroke-width:1.0;" x1="66" x2="387" y1="151.8779" y2="151.8779"/><ellipse cx="76" cy="166.9119" fill="#000000" rx="3" ry="3" style="stroke:#000000;stroke-width:1.0;"/><text fill="#000000" font-family="sans-serif" font-size="14" lengthAdjust="spacing" textLength="129" x="85" y="170.8439">experiment_id: text</text></g><!--class job--><g id="elem_job"><rect codeLine="9" fill="#F1F1F1" height="257.7471" id="job" rx="2.5" ry="2.5" style="stroke:#181818;stroke-width:0.5;" width="329" x="423" y="7"/><ellipse cx="572.75" cy="23" fill="#ADD1B2" rx="11" ry="11" style="stroke:#181818;stroke-width:1.0;"/><path d="M576.2188,29.5 L568.9063,29.5 L568.9063,16.8281 L576.2188,16.8281 L576.2188,18.7031 L570.9531,18.7031 L570.9531,21.9688 L575.9063,21.9688 L575.9063,23.8281 L570.9531,23.8281 L570.9531,27.625 L576.2188,27.625 L576.2188,29.5 Z " fill="#000000"/><text fill="#000000" font-family="sans-serif" font-size="14" lengthAdjust="spacing" textLength="21" x="593.25" y="28.432">Job</text><line style="stroke:#181818;stroke-width:0.5;" x1="424" x2="751" y1="39" y2="39"/><ellipse cx="434" cy="54.034" fill="#000000" rx="3" ry="3" style="stroke:#000000;stroke-width:1.0;"/><text fill="#000000" font-family="sans-serif" font-size="14" lengthAdjust="spacing" textLength="190" x="443" y="57.9659">job_id: number &#171;generated&#187;</text><ellipse cx="434" cy="73.1019" fill="#000000" rx="3" ry="3" style="stroke:#000000;stroke-width:1.0;"/><text fill="#000000" font-family="sans-serif" font-size="14" lengthAdjust="spacing" textLength="131" x="443" y="77.0339">created: timestamp</text><line style="stroke:#181818;stroke-width:1.0;" x1="424" x2="751" y1="85.1358" y2="85.1358"/><ellipse cx="434" cy="100.1698" fill="#000000" rx="3" ry="3" style="stroke:#000000;stroke-width:1.0;"/><text fill="#000000" font-family="sans-serif" font-size="14" lengthAdjust="spacing" textLength="145" x="443" y="104.1018">user_id: number &#171;FK&#187;</text><ellipse cx="434" cy="119.2377" fill="#000000" rx="3" ry="3" style="stroke:#000000;stroke-width:1.0;"/><text fill="#000000" font-family="sans-serif" font-size="14" lengthAdjust="spacing" textLength="243" x="443" y="123.1697">experiment_source_id: number &#171;FK&#187;</text><ellipse cx="434" cy="138.3056" fill="#000000" rx="3" ry="3" style="stroke:#000000;stroke-width:1.0;"/><text fill="#000000" font-family="sans-serif" font-size="14" lengthAdjust="spacing" textLength="303" x="443" y="142.2376">status: Enum (submitted / processing / done)</text><ellipse cx="434" cy="157.3735" fill="#000000" rx="3" ry="3" style="stroke:#000000;stroke-width:1.0;"/><text fill="#000000" font-family="sans-serif" font-size="14" lengthAdjust="spacing" textLength="146" x="443" y="161.3055">git_commit_hash: text</text><ellipse cx="434" cy="176.4415" fill="#000000" rx="3" ry="3" style="stroke:#000000;stroke-width:1.0;"/><text fill="#000000" font-family="sans-serif" font-size="14" lengthAdjust="spacing" textLength="235" x="443" y="180.3734">priority: number between 0 and 20</text><ellipse cx="434" cy="195.5094" fill="#000000" rx="3" ry="3" style="stroke:#000000;stroke-width:1.0;"/><text fill="#000000" font-family="sans-serif" font-size="14" lengthAdjust="spacing" textLength="273" x="443" y="199.4414">local_parameters_timestamp: timestamp</text><ellipse cx="434" cy="214.5773" fill="#000000" rx="3" ry="3" style="stroke:#000000;stroke-width:1.0;"/><text fill="#000000" font-family="sans-serif" font-size="14" lengthAdjust="spacing" textLength="145" x="443" y="218.5093">auto_calibration: bool</text><ellipse cx="434" cy="233.6452" fill="#000000" rx="3" ry="3" style="stroke:#000000;stroke-width:1.0;"/><text fill="#000000" font-family="sans-serif" font-size="14" lengthAdjust="spacing" textLength="125" x="443" y="237.5772">debug_mode: bool</text><text fill="#000000" font-family="sans-serif" font-size="14" lengthAdjust="spacing" textLength="187" x="443" y="256.6451">parent_job_id: number &#171;FK&#187;</text></g><!--class job_run--><g id="elem_job_run"><rect codeLine="24" fill="#F1F1F1" height="143.3396" id="job_run" rx="2.5" ry="2.5" style="stroke:#181818;stroke-width:0.5;" width="445" x="7" y="324.75"/><ellipse cx="201.25" cy="340.75" fill="#ADD1B2" rx="11" ry="11" style="stroke:#181818;stroke-width:1.0;"/><path d="M204.7188,347.25 L197.4063,347.25 L197.4063,334.5781 L204.7188,334.5781 L204.7188,336.4531 L199.4531,336.4531 L199.4531,339.7187 L204.4063,339.7187 L204.4063,341.5781 L199.4531,341.5781 L199.4531,345.375 L204.7188,345.375 L204.7188,347.25 Z " fill="#000000"/><text fill="#000000" font-family="sans-serif" font-size="14" lengthAdjust="spacing" textLength="48" x="221.75" y="346.182">JobRun</text><line style="stroke:#181818;stroke-width:0.5;" x1="8" x2="451" y1="356.75" y2="356.75"/><ellipse cx="18" cy="371.784" fill="#000000" rx="3" ry="3" style="stroke:#000000;stroke-width:1.0;"/><text fill="#000000" font-family="sans-serif" font-size="14" lengthAdjust="spacing" textLength="220" x="27" y="375.7159">job_run_id: number &#171;generated&#187;</text><ellipse cx="18" cy="390.8519" fill="#000000" rx="3" ry="3" style="stroke:#000000;stroke-width:1.0;"/><text fill="#000000" font-family="sans-serif" font-size="14" lengthAdjust="spacing" textLength="186" x="27" y="394.7839">scheduled_time: timestamp</text><line style="stroke:#181818;stroke-width:1.0;" x1="8" x2="451" y1="402.8858" y2="402.8858"/><ellipse cx="18" cy="417.9198" fill="#000000" rx="3" ry="3" style="stroke:#000000;stroke-width:1.0;"/><text fill="#000000" font-family="sans-serif" font-size="14" lengthAdjust="spacing" textLength="136" x="27" y="421.8518">job_id: number &#171;FK&#187;</text><ellipse cx="18" cy="436.9877" fill="#000000" rx="3" ry="3" style="stroke:#000000;stroke-width:1.0;"/><text fill="#000000" font-family="sans-serif" font-size="14" lengthAdjust="spacing" textLength="419" x="27" y="440.9197">status: Enum (pending / processing / failed / cancelled / done)</text><text fill="#000000" font-family="sans-serif" font-size="14" lengthAdjust="spacing" textLength="170" x="27" y="459.9876">log: text (job information)</text></g><!--class user--><g id="elem_user"><rect codeLine="33" fill="#F1F1F1" height="124.2717" id="user" rx="2.5" ry="2.5" style="stroke:#181818;stroke-width:0.5;" width="225" x="487" y="334.28"/><ellipse cx="579.75" cy="350.28" fill="#ADD1B2" rx="11" ry="11" style="stroke:#181818;stroke-width:1.0;"/><path d="M583.2188,356.78 L575.9063,356.78 L575.9063,344.1081 L583.2188,344.1081 L583.2188,345.9831 L577.9531,345.9831 L577.9531,349.2488 L582.9063,349.2488 L582.9063,351.1081 L577.9531,351.1081 L577.9531,354.905 L583.2188,354.905 L583.2188,356.78 Z " fill="#000000"/><text fill="#000000" font-family="sans-serif" font-size="14" lengthAdjust="spacing" textLength="31" x="600.25" y="355.712">User</text><line style="stroke:#181818;stroke-width:0.5;" x1="488" x2="711" y1="366.28" y2="366.28"/><ellipse cx="498" cy="381.314" fill="#000000" rx="3" ry="3" style="stroke:#000000;stroke-width:1.0;"/><text fill="#000000" font-family="sans-serif" font-size="14" lengthAdjust="spacing" textLength="199" x="507" y="385.2459">user_id: number &#171;generated&#187;</text><line style="stroke:#181818;stroke-width:1.0;" x1="488" x2="711" y1="393.3479" y2="393.3479"/><ellipse cx="498" cy="408.3819" fill="#000000" rx="3" ry="3" style="stroke:#000000;stroke-width:1.0;"/><text fill="#000000" font-family="sans-serif" font-size="14" lengthAdjust="spacing" textLength="71" x="507" y="412.3139">name: text</text><ellipse cx="498" cy="427.4498" fill="#000000" rx="3" ry="3" style="stroke:#000000;stroke-width:1.0;"/><text fill="#000000" font-family="sans-serif" font-size="14" lengthAdjust="spacing" textLength="131" x="507" y="431.3818">created: timestamp</text><text fill="#000000" font-family="sans-serif" font-size="14" lengthAdjust="spacing" textLength="55" x="507" y="450.4497">priority?</text></g><!--class scan_param--><g id="elem_scan_param"><rect codeLine="41" fill="#F1F1F1" height="143.3396" id="scan_param" rx="2.5" ry="2.5" style="stroke:#181818;stroke-width:0.5;" width="303" x="770" y="324.75"/><ellipse cx="864.25" cy="340.75" fill="#ADD1B2" rx="11" ry="11" style="stroke:#181818;stroke-width:1.0;"/><path d="M867.7188,347.25 L860.4063,347.25 L860.4063,334.5781 L867.7188,334.5781 L867.7188,336.4531 L862.4531,336.4531 L862.4531,339.7187 L867.4063,339.7187 L867.4063,341.5781 L862.4531,341.5781 L862.4531,345.375 L867.7188,345.375 L867.7188,347.25 Z " fill="#000000"/><text fill="#000000" font-family="sans-serif" font-size="14" lengthAdjust="spacing" textLength="106" x="884.75" y="346.182">Scan Parameter</text><line style="stroke:#181818;stroke-width:0.5;" x1="771" x2="1072" y1="356.75" y2="356.75"/><ellipse cx="781" cy="371.784" fill="#000000" rx="3" ry="3" style="stroke:#000000;stroke-width:1.0;"/><text fill="#000000" font-family="sans-serif" font-size="14" lengthAdjust="spacing" textLength="277" x="790" y="375.7159">scan_parameter_id: number &#171;generated&#187;</text><line style="stroke:#181818;stroke-width:1.0;" x1="771" x2="1072" y1="383.8179" y2="383.8179"/><ellipse cx="781" cy="398.8519" fill="#000000" rx="3" ry="3" style="stroke:#000000;stroke-width:1.0;"/><text fill="#000000" font-family="sans-serif" font-size="14" lengthAdjust="spacing" textLength="136" x="790" y="402.7839">job_id: number &#171;FK&#187;</text><ellipse cx="781" cy="417.9198" fill="#000000" rx="3" ry="3" style="stroke:#000000;stroke-width:1.0;"/><text fill="#000000" font-family="sans-serif" font-size="14" lengthAdjust="spacing" textLength="106" x="790" y="421.8518">variable_id: text</text><ellipse cx="781" cy="436.9877" fill="#000000" rx="3" ry="3" style="stroke:#000000;stroke-width:1.0;"/><text fill="#000000" font-family="sans-serif" font-size="14" lengthAdjust="spacing" textLength="190" x="790" y="440.9197">scan_values: list of numbers</text><ellipse cx="781" cy="456.0556" fill="#000000" rx="3" ry="3" style="stroke:#000000;stroke-width:1.0;"/><text fill="#000000" font-family="sans-serif" font-size="14" lengthAdjust="spacing" textLength="214" x="790" y="459.9876">remote_source_id: number &#171;FK&#187;</text></g><!--class remote--><g id="elem_remote"><rect codeLine="50" fill="#F1F1F1" height="162.4075" id="remote" rx="2.5" ry="2.5" style="stroke:#181818;stroke-width:0.5;" width="294" x="786.5" y="54.67"/><ellipse cx="828.5" cy="70.67" fill="#ADD1B2" rx="11" ry="11" style="stroke:#181818;stroke-width:1.0;"/><path d="M831.9688,77.17 L824.6563,77.17 L824.6563,64.4981 L831.9688,64.4981 L831.9688,66.3731 L826.7031,66.3731 L826.7031,69.6387 L831.6563,69.6387 L831.6563,71.4981 L826.7031,71.4981 L826.7031,75.295 L831.9688,75.295 L831.9688,77.17 Z " fill="#000000"/><text fill="#000000" font-family="sans-serif" font-size="14" lengthAdjust="spacing" textLength="202" x="848.5" y="76.102">Remote Source (Service or DB)</text><line style="stroke:#181818;stroke-width:0.5;" x1="787.5" x2="1079.5" y1="86.67" y2="86.67"/><ellipse cx="797.5" cy="101.704" fill="#000000" rx="3" ry="3" style="stroke:#000000;stroke-width:1.0;"/><text fill="#000000" font-family="sans-serif" font-size="14" lengthAdjust="spacing" textLength="268" x="806.5" y="105.6359">remote_source_id: number &#171;generated&#187;</text><ellipse cx="797.5" cy="120.7719" fill="#000000" rx="3" ry="3" style="stroke:#000000;stroke-width:1.0;"/><text fill="#000000" font-family="sans-serif" font-size="14" lengthAdjust="spacing" textLength="141" x="806.5" y="124.7039">name: text  &#171;unique&#187;</text><line style="stroke:#181818;stroke-width:1.0;" x1="787.5" x2="1079.5" y1="132.8058" y2="132.8058"/><ellipse cx="797.5" cy="147.8398" fill="#000000" rx="3" ry="3" style="stroke:#000000;stroke-width:1.0;"/><text fill="#000000" font-family="sans-serif" font-size="14" lengthAdjust="spacing" textLength="100" x="806.5" y="151.7718">hostname: text</text><ellipse cx="797.5" cy="166.9077" fill="#000000" rx="3" ry="3" style="stroke:#000000;stroke-width:1.0;"/><text fill="#000000" font-family="sans-serif" font-size="14" lengthAdjust="spacing" textLength="90" x="806.5" y="170.8397">port: number</text><ellipse cx="797.5" cy="185.9756" fill="#000000" rx="3" ry="3" style="stroke:#000000;stroke-width:1.0;"/><text fill="#000000" font-family="sans-serif" font-size="14" lengthAdjust="spacing" textLength="76" x="806.5" y="189.9076">active: bool</text><text fill="#000000" font-family="sans-serif" font-size="14" lengthAdjust="spacing" textLength="109" x="806.5" y="208.9755">description: text</text></g><!--link job to user--><g id="link_job_user"><path codeLine="61" d="M599.5,283 C599.5,307.06 599.5,305.17 599.5,326.05 " fill="none" id="job-user" style="stroke:#181818;stroke-width:1.0;stroke-dasharray:7.0,7.0;"/><line style="stroke:#181818;stroke-width:1.0;" x1="599.5" x2="593.5" y1="273" y2="265"/><line style="stroke:#181818;stroke-width:1.0;" x1="599.5" x2="605.5" y1="273" y2="265"/><line style="stroke:#181818;stroke-width:1.0;" x1="599.5" x2="599.5" y1="273" y2="265"/><ellipse cx="599.5" cy="279" fill="none" rx="4" ry="4" style="stroke:#181818;stroke-width:1.0;"/><line style="stroke:#181818;stroke-width:1.0;" x1="603.5" x2="595.5" y1="330.05" y2="330.05"/><line style="stroke:#181818;stroke-width:1.0;" x1="603.5" x2="595.5" y1="327.05" y2="327.05"/><line style="stroke:#181818;stroke-width:1.0;" x1="599.5" x2="599.5" y1="326.05" y2="334.05"/></g><!--link job to scan_param--><g id="link_job_scan_param"><path codeLine="62" d="M732,273.15 C732,308.9 732,330.09 732,330.09 C732,330.09 729.62,330.09 751.89,330.09 " fill="none" id="job-scan_param" style="stroke:#181818;stroke-width:1.0;stroke-dasharray:7.0,7.0;"/><line style="stroke:#181818;stroke-width:1.0;" x1="728" x2="736" y1="269.15" y2="269.15"/><line style="stroke:#181818;stroke-width:1.0;" x1="728" x2="736" y1="272.15" y2="272.15"/><line style="stroke:#181818;stroke-width:1.0;" x1="732" x2="732" y1="273.15" y2="265.15"/><line style="stroke:#181818;stroke-width:1.0;" x1="761.89" x2="769.89" y1="330.09" y2="324.09"/><line style="stroke:#181818;stroke-width:1.0;" x1="761.89" x2="769.89" y1="330.09" y2="336.09"/><line style="stroke:#181818;stroke-width:1.0;" x1="761.89" x2="769.89" y1="330.09" y2="330.09"/><ellipse cx="755.89" cy="330.09" fill="none" rx="4" ry="4" style="stroke:#181818;stroke-width:1.0;"/></g><!--link experiment to job--><g id="link_experiment_job"><path codeLine="63" d="M396.26,136.09 C407.7,136.09 393.24,136.09 404.7,136.09 " fill="none" id="experiment-job" style="stroke:#181818;stroke-width:1.0;stroke-dasharray:7.0,7.0;"/><line style="stroke:#181818;stroke-width:1.0;" x1="392.26" x2="392.26" y1="140.09" y2="132.09"/><line style="stroke:#181818;stroke-width:1.0;" x1="395.26" x2="395.26" y1="140.09" y2="132.09"/><line style="stroke:#181818;stroke-width:1.0;" x1="396.26" x2="388.26" y1="136.09" y2="136.09"/><line style="stroke:#181818;stroke-width:1.0;" x1="414.7" x2="422.7" y1="136.09" y2="130.09"/><line style="stroke:#181818;stroke-width:1.0;" x1="414.7" x2="422.7" y1="136.09" y2="142.09"/><line style="stroke:#181818;stroke-width:1.0;" x1="414.7" x2="422.7" y1="136.09" y2="136.09"/><ellipse cx="408.7" cy="136.09" fill="none" rx="4" ry="4" style="stroke:#181818;stroke-width:1.0;"/></g><!--link job to job_run--><g id="link_job_job_run"><path codeLine="64" d="M437.5,273 C437.5,293.48 437.5,287.99 437.5,306.51 " fill="none" id="job-job_run" style="stroke:#181818;stroke-width:1.0;stroke-dasharray:7.0,7.0;"/><line style="stroke:#181818;stroke-width:1.0;" x1="433.5" x2="441.5" y1="269" y2="269"/><line style="stroke:#181818;stroke-width:1.0;" x1="433.5" x2="441.5" y1="272" y2="272"/><line style="stroke:#181818;stroke-width:1.0;" x1="437.5" x2="437.5" y1="273" y2="265"/><line style="stroke:#181818;stroke-width:1.0;" x1="437.5" x2="443.5" y1="316.51" y2="324.51"/><line style="stroke:#181818;stroke-width:1.0;" x1="437.5" x2="431.5" y1="316.51" y2="324.51"/><line style="stroke:#181818;stroke-width:1.0;" x1="437.5" x2="437.5" y1="316.51" y2="324.51"/><ellipse cx="437.5" cy="310.51" fill="none" rx="4" ry="4" style="stroke:#181818;stroke-width:1.0;"/></g><!--link remote to scan_param--><g id="link_remote_scan_param"><path codeLine="65" d="M929.75,225.24 C929.75,259.58 929.75,273.23 929.75,306.48 " fill="none" id="remote-scan_param" style="stroke:#181818;stroke-width:1.0;stroke-dasharray:7.0,7.0;"/><line style="stroke:#181818;stroke-width:1.0;" x1="925.75" x2="933.75" y1="221.24" y2="221.24"/><line style="stroke:#181818;stroke-width:1.0;" x1="925.75" x2="933.75" y1="224.24" y2="224.24"/><line style="stroke:#181818;stroke-width:1.0;" x1="929.75" x2="929.75" y1="225.24" y2="217.24"/><line style="stroke:#181818;stroke-width:1.0;" x1="929.75" x2="935.75" y1="316.48" y2="324.48"/><line style="stroke:#181818;stroke-width:1.0;" x1="929.75" x2="923.75" y1="316.48" y2="324.48"/><line style="stroke:#181818;stroke-width:1.0;" x1="929.75" x2="929.75" y1="316.48" y2="324.48"/><ellipse cx="929.75" cy="310.48" fill="none" rx="4" ry="4" style="stroke:#181818;stroke-width:1.0;"/></g><!--SRC=[ZLHDRzim3BtxLn0z9G6I5Ji6HGSCwmxRPMYmio7BZArD5ZrzP2sQ_lVHKXmxSPFE9qjy8lduIBhVohJ2YWQqCkYVMmIolgOiG-ELVuQRXwSMhMhukA5W9Tw0S837ItZ9WB_5S9ExYCjLkGOJcW8jtDrLQD0AZ-NzVSGlbyl9k-w1noUVlGxHlr4H0_wYee_4lzTzBwJ5xiZUsB7pecbFOmQ7zjJ5r-_zstTu343swuDRmmFROEP2qIZFGU43j9OaEgTCnOUI3CxJYqhvN5B3kBmMhZwGZQRMAh9C-1YfGFyNqS0j25F2nzi4qoI5pgDUwD6w_4ZmdEj214yverN1fL5arb0GwMGhiGXLtb29erlssf6UL3SoFbNaCPXUbDm6CnQ6Z- -8usIDPT1OnkGlQlHs7czKlaLJfbAVr7qhb8vgI64awlG_YA6fIlM7MTTQocp9Dh5Gyp7PdzmfaMhNCZtFQVjCkpiXZOWCZp9VQCnU_K_Zq1jE77xqKiSa75ybzVjKXfiEz7z9NQdiJbWb2et3A0vHTa87vAfhvJpGzl3S9OJ5XZnUdfWHhyS8XRHCOBP1krEosphmvVCyqapEUefNN4zwQwWti3aOzIVW6VkQd3-NfUMLrxizJ8_qQZUUZXATjAfDazGlgQnhdLTQhVRxs23nlD-lLlGoqYeRBKisierXO-XXRh83xwc3Vm00]--></g></svg>