<?xml version="1.0" encoding="us-ascii" standalone="no"?><svg xmlns="http://www.w3.org/2000/svg" xmlns:xlink="http://www.w3.org/1999/xlink" contentStyleType="text/css" height="436px" preserveAspectRatio="none" style="width:1068px;height:436px;background:#FFFFFF;" version="1.1" viewBox="0 0 1068 436" width="1068px" zoomAndPan="magnify"><defs/><g><!--class experiment--><g id="elem_experiment"><rect codeLine="3" fill="#F1F1F1" height="105.2038" id="experiment" rx="2.5" ry="2.5" style="stroke:#181818;stroke-width:0.5;" width="297" x="86" y="64.2"/><ellipse cx="191.75" cy="80.2" fill="#ADD1B2" rx="11" ry="11" style="stroke:#181818;stroke-width:1.0;"/><path d="M195.2188,86.7 L187.9063,86.7 L187.9063,74.0281 L195.2188,74.0281 L195.2188,75.9031 L189.9531,75.9031 L189.9531,79.1687 L194.9063,79.1687 L194.9063,81.0281 L189.9531,81.0281 L189.9531,84.825 L195.2188,84.825 L195.2188,86.7 Z " fill="#000000"/><text fill="#000000" font-family="sans-serif" font-size="14" lengthAdjust="spacing" textLength="77" x="212.25" y="85.632">Experiment</text><line style="stroke:#181818;stroke-width:0.5;" x1="87" x2="382" y1="96.2" y2="96.2"/><ellipse cx="97" cy="111.234" fill="#000000" rx="3" ry="3" style="stroke:#000000;stroke-width:1.0;"/><text fill="#000000" font-family="sans-serif" font-size="14" lengthAdjust="spacing" textLength="246" x="106" y="115.1659">experiment_id: number &#171;generated&#187;</text><line style="stroke:#181818;stroke-width:1.0;" x1="87" x2="382" y1="123.2679" y2="123.2679"/><ellipse cx="97" cy="138.3019" fill="#000000" rx="3" ry="3" style="stroke:#000000;stroke-width:1.0;"/><text fill="#000000" font-family="sans-serif" font-size="14" lengthAdjust="spacing" textLength="271" x="106" y="142.2339">file_path: text (relative within repository)</text><ellipse cx="97" cy="157.3698" fill="#000000" rx="3" ry="3" style="stroke:#000000;stroke-width:1.0;"/><text fill="#000000" font-family="sans-serif" font-size="14" lengthAdjust="spacing" textLength="158" x="106" y="161.3018">name: text (class name)</text></g><!--class job--><g id="elem_job"><rect codeLine="10" fill="#F1F1F1" height="219.6113" id="job" rx="2.5" ry="2.5" style="stroke:#181818;stroke-width:0.5;" width="315" x="418" y="7"/><ellipse cx="520.25" cy="23" fill="#ADD1B2" rx="11" ry="11" style="stroke:#181818;stroke-width:1.0;"/><path d="M523.7188,29.5 L516.4063,29.5 L516.4063,16.8281 L523.7188,16.8281 L523.7188,18.7031 L518.4531,18.7031 L518.4531,21.9688 L523.4063,21.9688 L523.4063,23.8281 L518.4531,23.8281 L518.4531,27.625 L523.7188,27.625 L523.7188,29.5 Z " fill="#000000"/><text fill="#000000" font-family="sans-serif" font-size="14" lengthAdjust="spacing" textLength="102" x="540.75" y="28.432">Experiment Job</text><line style="stroke:#181818;stroke-width:0.5;" x1="419" x2="732" y1="39" y2="39"/><ellipse cx="429" cy="54.034" fill="#000000" rx="3" ry="3" style="stroke:#000000;stroke-width:1.0;"/><text fill="#000000" font-family="sans-serif" font-size="14" lengthAdjust="spacing" textLength="190" x="438" y="57.9659">job_id: number &#171;generated&#187;</text><ellipse cx="429" cy="73.1019" fill="#000000" rx="3" ry="3" style="stroke:#000000;stroke-width:1.0;"/><text fill="#000000" font-family="sans-serif" font-size="14" lengthAdjust="spacing" textLength="131" x="438" y="77.0339">created: timestamp</text><line style="stroke:#181818;stroke-width:1.0;" x1="419" x2="732" y1="85.1358" y2="85.1358"/><ellipse cx="429" cy="100.1698" fill="#000000" rx="3" ry="3" style="stroke:#000000;stroke-width:1.0;"/><text fill="#000000" font-family="sans-serif" font-size="14" lengthAdjust="spacing" textLength="145" x="438" y="104.1018">user_id: number &#171;FK&#187;</text><ellipse cx="429" cy="119.2377" fill="#000000" rx="3" ry="3" style="stroke:#000000;stroke-width:1.0;"/><text fill="#000000" font-family="sans-serif" font-size="14" lengthAdjust="spacing" textLength="192" x="438" y="123.1697">experiment_id: number &#171;FK&#187;</text><ellipse cx="429" cy="138.3056" fill="#000000" rx="3" ry="3" style="stroke:#000000;stroke-width:1.0;"/><text fill="#000000" font-family="sans-serif" font-size="14" lengthAdjust="spacing" textLength="289" x="438" y="142.2376">status: text (submitted / processing / done)</text><ellipse cx="429" cy="157.3735" fill="#000000" rx="3" ry="3" style="stroke:#000000;stroke-width:1.0;"/><text fill="#000000" font-family="sans-serif" font-size="14" lengthAdjust="spacing" textLength="146" x="438" y="161.3055">git_commit_hash: text</text><ellipse cx="429" cy="176.4415" fill="#000000" rx="3" ry="3" style="stroke:#000000;stroke-width:1.0;"/><text fill="#000000" font-family="sans-serif" font-size="14" lengthAdjust="spacing" textLength="199" x="438" y="180.3734">priority: int between 0 and 20</text><ellipse cx="429" cy="195.5094" fill="#000000" rx="3" ry="3" style="stroke:#000000;stroke-width:1.0;"/><text fill="#000000" font-family="sans-serif" font-size="14" lengthAdjust="spacing" textLength="273" x="438" y="199.4414">local_parameters_timestamp: timestamp</text><ellipse cx="429" cy="214.5773" fill="#000000" rx="3" ry="3" style="stroke:#000000;stroke-width:1.0;"/><text fill="#000000" font-family="sans-serif" font-size="14" lengthAdjust="spacing" textLength="145" x="438" y="218.5093">auto_calibration: bool</text></g><!--class history--><g id="elem_history"><rect codeLine="23" fill="#F1F1F1" height="143.3396" id="history" rx="2.5" ry="2.5" style="stroke:#181818;stroke-width:0.5;" width="431" x="7" y="286.61"/><ellipse cx="107.25" cy="302.61" fill="#ADD1B2" rx="11" ry="11" style="stroke:#181818;stroke-width:1.0;"/><path d="M110.7188,309.11 L103.4063,309.11 L103.4063,296.4381 L110.7188,296.4381 L110.7188,298.3131 L105.4531,298.3131 L105.4531,301.5787 L110.4063,301.5787 L110.4063,303.4381 L105.4531,303.4381 L105.4531,307.235 L110.7188,307.235 L110.7188,309.11 Z " fill="#000000"/><text fill="#000000" font-family="sans-serif" font-size="14" lengthAdjust="spacing" textLength="222" x="127.75" y="308.042">Experiment Job Execution History</text><line style="stroke:#181818;stroke-width:0.5;" x1="8" x2="437" y1="318.61" y2="318.61"/><ellipse cx="18" cy="333.644" fill="#000000" rx="3" ry="3" style="stroke:#000000;stroke-width:1.0;"/><text fill="#000000" font-family="sans-serif" font-size="14" lengthAdjust="spacing" textLength="261" x="27" y="337.5759">job_execution_id: number &#171;generated&#187;</text><ellipse cx="18" cy="352.7119" fill="#000000" rx="3" ry="3" style="stroke:#000000;stroke-width:1.0;"/><text fill="#000000" font-family="sans-serif" font-size="14" lengthAdjust="spacing" textLength="186" x="27" y="356.6439">scheduled_time: timestamp</text><line style="stroke:#181818;stroke-width:1.0;" x1="8" x2="437" y1="364.7458" y2="364.7458"/><ellipse cx="18" cy="379.7798" fill="#000000" rx="3" ry="3" style="stroke:#000000;stroke-width:1.0;"/><text fill="#000000" font-family="sans-serif" font-size="14" lengthAdjust="spacing" textLength="100" x="27" y="383.7118">job_id: int &#171;FK&#187;</text><ellipse cx="18" cy="398.8477" fill="#000000" rx="3" ry="3" style="stroke:#000000;stroke-width:1.0;"/><text fill="#000000" font-family="sans-serif" font-size="14" lengthAdjust="spacing" textLength="405" x="27" y="402.7797">status: text (pending / processing / failed / cancelled / done)</text><text fill="#000000" font-family="sans-serif" font-size="14" lengthAdjust="spacing" textLength="170" x="27" y="421.8476">log: text (job information)</text></g><!--class user--><g id="elem_user"><rect codeLine="32" fill="#F1F1F1" height="124.2717" id="user" rx="2.5" ry="2.5" style="stroke:#181818;stroke-width:0.5;" width="225" x="473" y="296.14"/><ellipse cx="565.75" cy="312.14" fill="#ADD1B2" rx="11" ry="11" style="stroke:#181818;stroke-width:1.0;"/><path d="M569.2188,318.64 L561.9063,318.64 L561.9063,305.9681 L569.2188,305.9681 L569.2188,307.8431 L563.9531,307.8431 L563.9531,311.1088 L568.9063,311.1088 L568.9063,312.9681 L563.9531,312.9681 L563.9531,316.765 L569.2188,316.765 L569.2188,318.64 Z " fill="#000000"/><text fill="#000000" font-family="sans-serif" font-size="14" lengthAdjust="spacing" textLength="31" x="586.25" y="317.572">User</text><line style="stroke:#181818;stroke-width:0.5;" x1="474" x2="697" y1="328.14" y2="328.14"/><ellipse cx="484" cy="343.174" fill="#000000" rx="3" ry="3" style="stroke:#000000;stroke-width:1.0;"/><text fill="#000000" font-family="sans-serif" font-size="14" lengthAdjust="spacing" textLength="199" x="493" y="347.1059">user_id: number &#171;generated&#187;</text><line style="stroke:#181818;stroke-width:1.0;" x1="474" x2="697" y1="355.2079" y2="355.2079"/><ellipse cx="484" cy="370.2419" fill="#000000" rx="3" ry="3" style="stroke:#000000;stroke-width:1.0;"/><text fill="#000000" font-family="sans-serif" font-size="14" lengthAdjust="spacing" textLength="71" x="493" y="374.1739">name: text</text><ellipse cx="484" cy="389.3098" fill="#000000" rx="3" ry="3" style="stroke:#000000;stroke-width:1.0;"/><text fill="#000000" font-family="sans-serif" font-size="14" lengthAdjust="spacing" textLength="131" x="493" y="393.2418">created: timestamp</text><text fill="#000000" font-family="sans-serif" font-size="14" lengthAdjust="spacing" textLength="55" x="493" y="412.3097">priority?</text></g><!--class scan_param--><g id="elem_scan_param"><rect codeLine="40" fill="#F1F1F1" height="143.3396" id="scan_param" rx="2.5" ry="2.5" style="stroke:#181818;stroke-width:0.5;" width="303" x="753" y="286.61"/><ellipse cx="847.25" cy="302.61" fill="#ADD1B2" rx="11" ry="11" style="stroke:#181818;stroke-width:1.0;"/><path d="M850.7188,309.11 L843.4063,309.11 L843.4063,296.4381 L850.7188,296.4381 L850.7188,298.3131 L845.4531,298.3131 L845.4531,301.5787 L850.4063,301.5787 L850.4063,303.4381 L845.4531,303.4381 L845.4531,307.235 L850.7188,307.235 L850.7188,309.11 Z " fill="#000000"/><text fill="#000000" font-family="sans-serif" font-size="14" lengthAdjust="spacing" textLength="106" x="867.75" y="308.042">Scan Parameter</text><line style="stroke:#181818;stroke-width:0.5;" x1="754" x2="1055" y1="318.61" y2="318.61"/><ellipse cx="764" cy="333.644" fill="#000000" rx="3" ry="3" style="stroke:#000000;stroke-width:1.0;"/><text fill="#000000" font-family="sans-serif" font-size="14" lengthAdjust="spacing" textLength="277" x="773" y="337.5759">scan_parameter_id: number &#171;generated&#187;</text><line style="stroke:#181818;stroke-width:1.0;" x1="754" x2="1055" y1="345.6779" y2="345.6779"/><ellipse cx="764" cy="360.7119" fill="#000000" rx="3" ry="3" style="stroke:#000000;stroke-width:1.0;"/><text fill="#000000" font-family="sans-serif" font-size="14" lengthAdjust="spacing" textLength="100" x="773" y="364.6439">job_id: int &#171;FK&#187;</text><ellipse cx="764" cy="379.7798" fill="#000000" rx="3" ry="3" style="stroke:#000000;stroke-width:1.0;"/><text fill="#000000" font-family="sans-serif" font-size="14" lengthAdjust="spacing" textLength="131" x="773" y="383.7118">variable_name: text</text><ellipse cx="764" cy="398.8477" fill="#000000" rx="3" ry="3" style="stroke:#000000;stroke-width:1.0;"/><text fill="#000000" font-family="sans-serif" font-size="14" lengthAdjust="spacing" textLength="190" x="773" y="402.7797">scan_values: list of numbers</text><ellipse cx="764" cy="417.9156" fill="#000000" rx="3" ry="3" style="stroke:#000000;stroke-width:1.0;"/><text fill="#000000" font-family="sans-serif" font-size="14" lengthAdjust="spacing" textLength="214" x="773" y="421.8476">remote_source_id: number &#171;FK&#187;</text></g><!--class remote--><g id="elem_remote"><rect codeLine="49" fill="#F1F1F1" height="162.4075" id="remote" rx="2.5" ry="2.5" style="stroke:#181818;stroke-width:0.5;" width="294" x="767.5" y="35.6"/><ellipse cx="809.5" cy="51.6" fill="#ADD1B2" rx="11" ry="11" style="stroke:#181818;stroke-width:1.0;"/><path d="M812.9688,58.1 L805.6563,58.1 L805.6563,45.4281 L812.9688,45.4281 L812.9688,47.3031 L807.7031,47.3031 L807.7031,50.5687 L812.6563,50.5687 L812.6563,52.4281 L807.7031,52.4281 L807.7031,56.225 L812.9688,56.225 L812.9688,58.1 Z " fill="#000000"/><text fill="#000000" font-family="sans-serif" font-size="14" lengthAdjust="spacing" textLength="202" x="829.5" y="57.032">Remote Source (Service or DB)</text><line style="stroke:#181818;stroke-width:0.5;" x1="768.5" x2="1060.5" y1="67.6" y2="67.6"/><ellipse cx="778.5" cy="82.634" fill="#000000" rx="3" ry="3" style="stroke:#000000;stroke-width:1.0;"/><text fill="#000000" font-family="sans-serif" font-size="14" lengthAdjust="spacing" textLength="268" x="787.5" y="86.5659">remote_source_id: number &#171;generated&#187;</text><ellipse cx="778.5" cy="101.7019" fill="#000000" rx="3" ry="3" style="stroke:#000000;stroke-width:1.0;"/><text fill="#000000" font-family="sans-serif" font-size="14" lengthAdjust="spacing" textLength="141" x="787.5" y="105.6339">name: text  &#171;unique&#187;</text><line style="stroke:#181818;stroke-width:1.0;" x1="768.5" x2="1060.5" y1="113.7358" y2="113.7358"/><ellipse cx="778.5" cy="128.7698" fill="#000000" rx="3" ry="3" style="stroke:#000000;stroke-width:1.0;"/><text fill="#000000" font-family="sans-serif" font-size="14" lengthAdjust="spacing" textLength="100" x="787.5" y="132.7018">hostname: text</text><ellipse cx="778.5" cy="147.8377" fill="#000000" rx="3" ry="3" style="stroke:#000000;stroke-width:1.0;"/><text fill="#000000" font-family="sans-serif" font-size="14" lengthAdjust="spacing" textLength="54" x="787.5" y="151.7697">port: int</text><ellipse cx="778.5" cy="166.9056" fill="#000000" rx="3" ry="3" style="stroke:#000000;stroke-width:1.0;"/><text fill="#000000" font-family="sans-serif" font-size="14" lengthAdjust="spacing" textLength="76" x="787.5" y="170.8376">active: bool</text><text fill="#000000" font-family="sans-serif" font-size="14" lengthAdjust="spacing" textLength="109" x="787.5" y="189.9055">description: text</text></g><!--link job to user--><g id="link_job_user"><path codeLine="60" d="M585.5,244.94 C585.5,268.58 585.5,266.76 585.5,287.82 " fill="none" id="job-user" style="stroke:#181818;stroke-width:1.0;stroke-dasharray:7.0,7.0;"/><line style="stroke:#181818;stroke-width:1.0;" x1="585.5" x2="579.5" y1="234.94" y2="226.94"/><line style="stroke:#181818;stroke-width:1.0;" x1="585.5" x2="591.5" y1="234.94" y2="226.94"/><line style="stroke:#181818;stroke-width:1.0;" x1="585.5" x2="585.5" y1="234.94" y2="226.94"/><ellipse cx="585.5" cy="240.94" fill="none" rx="4" ry="4" style="stroke:#181818;stroke-width:1.0;"/><line style="stroke:#181818;stroke-width:1.0;" x1="589.5" x2="581.5" y1="291.82" y2="291.82"/><line style="stroke:#181818;stroke-width:1.0;" x1="589.5" x2="581.5" y1="288.82" y2="288.82"/><line style="stroke:#181818;stroke-width:1.0;" x1="585.5" x2="585.5" y1="287.82" y2="295.82"/></g><!--link job to scan_param--><g id="link_job_scan_param"><path codeLine="61" d="M741.39,212.95 C757.59,212.95 760.25,212.95 760.25,212.95 C760.25,212.95 760.25,231.85 760.25,268.47 " fill="none" id="job-scan_param" style="stroke:#181818;stroke-width:1.0;stroke-dasharray:7.0,7.0;"/><line style="stroke:#181818;stroke-width:1.0;" x1="737.39" x2="737.39" y1="216.95" y2="208.95"/><line style="stroke:#181818;stroke-width:1.0;" x1="740.39" x2="740.39" y1="216.95" y2="208.95"/><line style="stroke:#181818;stroke-width:1.0;" x1="741.39" x2="733.39" y1="212.95" y2="212.95"/><line style="stroke:#181818;stroke-width:1.0;" x1="760.25" x2="766.25" y1="278.47" y2="286.47"/><line style="stroke:#181818;stroke-width:1.0;" x1="760.25" x2="754.25" y1="278.47" y2="286.47"/><line style="stroke:#181818;stroke-width:1.0;" x1="760.25" x2="760.25" y1="278.47" y2="286.47"/><ellipse cx="760.25" cy="272.47" fill="none" rx="4" ry="4" style="stroke:#181818;stroke-width:1.0;"/></g><!--link experiment to job--><g id="link_experiment_job"><path codeLine="62" d="M391.08,116.95 C402.56,116.95 388.18,116.95 399.73,116.95 " fill="none" id="experiment-job" style="stroke:#181818;stroke-width:1.0;stroke-dasharray:7.0,7.0;"/><line style="stroke:#181818;stroke-width:1.0;" x1="387.08" x2="387.08" y1="120.95" y2="112.95"/><line style="stroke:#181818;stroke-width:1.0;" x1="390.08" x2="390.08" y1="120.95" y2="112.95"/><line style="stroke:#181818;stroke-width:1.0;" x1="391.08" x2="383.08" y1="116.95" y2="116.95"/><line style="stroke:#181818;stroke-width:1.0;" x1="409.73" x2="417.73" y1="116.95" y2="110.95"/><line style="stroke:#181818;stroke-width:1.0;" x1="409.73" x2="417.73" y1="116.95" y2="122.95"/><line style="stroke:#181818;stroke-width:1.0;" x1="409.73" x2="417.73" y1="116.95" y2="116.95"/><ellipse cx="403.73" cy="116.95" fill="none" rx="4" ry="4" style="stroke:#181818;stroke-width:1.0;"/></g><!--link job to history--><g id="link_job_history"><path codeLine="63" d="M428,234.94 C428,255.09 428,249.64 428,268.32 " fill="none" id="job-history" style="stroke:#181818;stroke-width:1.0;stroke-dasharray:7.0,7.0;"/><line style="stroke:#181818;stroke-width:1.0;" x1="424" x2="432" y1="230.94" y2="230.94"/><line style="stroke:#181818;stroke-width:1.0;" x1="424" x2="432" y1="233.94" y2="233.94"/><line style="stroke:#181818;stroke-width:1.0;" x1="428" x2="428" y1="234.94" y2="226.94"/><line style="stroke:#181818;stroke-width:1.0;" x1="428" x2="434" y1="278.32" y2="286.32"/><line style="stroke:#181818;stroke-width:1.0;" x1="428" x2="422" y1="278.32" y2="286.32"/><line style="stroke:#181818;stroke-width:1.0;" x1="428" x2="428" y1="278.32" y2="286.32"/><ellipse cx="428" cy="272.32" fill="none" rx="4" ry="4" style="stroke:#181818;stroke-width:1.0;"/></g><!--link remote to scan_param--><g id="link_remote_scan_param"><path codeLine="64" d="M911.75,206.22 C911.75,234.7 911.75,240.46 911.75,268.13 " fill="none" id="remote-scan_param" style="stroke:#181818;stroke-width:1.0;stroke-dasharray:7.0,7.0;"/><line style="stroke:#181818;stroke-width:1.0;" x1="907.75" x2="915.75" y1="202.22" y2="202.22"/><line style="stroke:#181818;stroke-width:1.0;" x1="907.75" x2="915.75" y1="205.22" y2="205.22"/><line style="stroke:#181818;stroke-width:1.0;" x1="911.75" x2="911.75" y1="206.22" y2="198.22"/><line style="stroke:#181818;stroke-width:1.0;" x1="911.75" x2="917.75" y1="278.13" y2="286.13"/><line style="stroke:#181818;stroke-width:1.0;" x1="911.75" x2="905.75" y1="278.13" y2="286.13"/><line style="stroke:#181818;stroke-width:1.0;" x1="911.75" x2="911.75" y1="278.13" y2="286.13"/><ellipse cx="911.75" cy="272.13" fill="none" rx="4" ry="4" style="stroke:#181818;stroke-width:1.0;"/></g><!--SRC=[ZLHDRzim3BtxLn0zDG6I5Ji6HGSCwp1ibs71peOiCx4sMVJqaIPe-jz7oLRZ94qsdopfYU9xVAJxhKmdh6X1AuD-ro6GzGqL1Hgl_0vk7hSTMjNoyWQ40tnTmdC1_4qFEwMg5s12Mw65-_ir6hJ2O_tma82psQo_i58QoqxuPW4UjnvkBMhXrGRXIVb66R3OaLEUx6xItp2YnGoMMZW7SMTIlBoL9dobAgNwYwgS8_zUJsugBSObly91d1TjTvnqS6YFGtp-bkzUKk20u80-k4p1XQfLdb-3Tz1PakYSCcjUr6HmeBnMlfJKCgviX1kaweywgyWowGKePbkXVq8qS0V2rF3-hiTeaaANgRBeqRhobTOfmwa8daf6gue5KMGMK17fozh2unPbY4ZueboiKbAxwV_7YcC6_aDx9nkiWyOwPNcn1Bc8aVLbSJiqTQ_caRGhmQwBWajX9Eh-_w2tfdKE46sZp8fic-GuSjbFTa5Y6-sGgPvRuzpwfpw-QhfSu0_ZfvUSE7pF1Kr9EDxgQvnJEUn4qFybTKdMZR1ALDogfrcdHpP21sJHDPSTQ3Kyutg4nPOybew2bVX6June_KXGM2Oet2xHRfICGmW-VPmabdsmpF1Aw3DVZSO67mUZ_WGy8T-GywVyEfw0IOwXFsISJKDNn9qQdRIgwtibNMC-HRJD2ytd-tqoHrhlz_CvFO_gL8p69n_o6SF6qA6BYe7qUO2_]--></g></svg>