<?xml version="1.0" encoding="us-ascii" standalone="no"?><svg xmlns="http://www.w3.org/2000/svg" xmlns:xlink="http://www.w3.org/1999/xlink" contentStyleType="text/css" height="494px" preserveAspectRatio="none" style="width:1096px;height:494px;background:#FFFFFF;" version="1.1" viewBox="0 0 1096 494" width="1096px" zoomAndPan="magnify"><defs/><g><!--class experiment--><g id="elem_experiment"><rect codeLine="3" fill="#F1F1F1" height="86.1358" id="experiment" rx="2.5" ry="2.5" style="stroke:#181818;stroke-width:0.5;" width="189" x="202" y="92.8"/><ellipse cx="232.3" cy="108.8" fill="#ADD1B2" rx="11" ry="11" style="stroke:#181818;stroke-width:1.0;"/><path d="M235.7688,115.3 L228.4563,115.3 L228.4563,102.6281 L235.7688,102.6281 L235.7688,104.5031 L230.5031,104.5031 L230.5031,107.7687 L235.4563,107.7687 L235.4563,109.6281 L230.5031,109.6281 L230.5031,113.425 L235.7688,113.425 L235.7688,115.3 Z " fill="#000000"/><text fill="#000000" font-family="sans-serif" font-size="14" lengthAdjust="spacing" textLength="123" x="249.7" y="114.232">ExperimentSource</text><line style="stroke:#181818;stroke-width:0.5;" x1="203" x2="390" y1="124.8" y2="124.8"/><ellipse cx="213" cy="139.834" fill="#000000" rx="3" ry="3" style="stroke:#000000;stroke-width:1.0;"/><text fill="#000000" font-family="sans-serif" font-size="14" lengthAdjust="spacing" textLength="163" x="222" y="143.7659">id: number &#171;generated&#187;</text><line style="stroke:#181818;stroke-width:1.0;" x1="203" x2="390" y1="151.8679" y2="151.8679"/><ellipse cx="213" cy="166.9019" fill="#000000" rx="3" ry="3" style="stroke:#000000;stroke-width:1.0;"/><text fill="#000000" font-family="sans-serif" font-size="14" lengthAdjust="spacing" textLength="129" x="222" y="170.8339">experiment_id: text</text></g><!--class job--><g id="elem_job"><rect codeLine="9" fill="#F1F1F1" height="257.7471" id="job" rx="2.5" ry="2.5" style="stroke:#181818;stroke-width:0.5;" width="329" x="426" y="7"/><ellipse cx="575.75" cy="23" fill="#ADD1B2" rx="11" ry="11" style="stroke:#181818;stroke-width:1.0;"/><path d="M579.2188,29.5 L571.9063,29.5 L571.9063,16.8281 L579.2188,16.8281 L579.2188,18.7031 L573.9531,18.7031 L573.9531,21.9688 L578.9063,21.9688 L578.9063,23.8281 L573.9531,23.8281 L573.9531,27.625 L579.2188,27.625 L579.2188,29.5 Z " fill="#000000"/><text fill="#000000" font-family="sans-serif" font-size="14" lengthAdjust="spacing" textLength="21" x="596.25" y="28.432">Job</text><line style="stroke:#181818;stroke-width:0.5;" x1="427" x2="754" y1="39" y2="39"/><ellipse cx="437" cy="54.034" fill="#000000" rx="3" ry="3" style="stroke:#000000;stroke-width:1.0;"/><text fill="#000000" font-family="sans-serif" font-size="14" lengthAdjust="spacing" textLength="190" x="446" y="57.9659">job_id: number &#171;generated&#187;</text><ellipse cx="437" cy="73.1019" fill="#000000" rx="3" ry="3" style="stroke:#000000;stroke-width:1.0;"/><text fill="#000000" font-family="sans-serif" font-size="14" lengthAdjust="spacing" textLength="131" x="446" y="77.0339">created: timestamp</text><line style="stroke:#181818;stroke-width:1.0;" x1="427" x2="754" y1="85.1358" y2="85.1358"/><ellipse cx="437" cy="100.1698" fill="#000000" rx="3" ry="3" style="stroke:#000000;stroke-width:1.0;"/><text fill="#000000" font-family="sans-serif" font-size="14" lengthAdjust="spacing" textLength="145" x="446" y="104.1018">user_id: number &#171;FK&#187;</text><ellipse cx="437" cy="119.2377" fill="#000000" rx="3" ry="3" style="stroke:#000000;stroke-width:1.0;"/><text fill="#000000" font-family="sans-serif" font-size="14" lengthAdjust="spacing" textLength="243" x="446" y="123.1697">experiment_source_id: number &#171;FK&#187;</text><ellipse cx="437" cy="138.3056" fill="#000000" rx="3" ry="3" style="stroke:#000000;stroke-width:1.0;"/><text fill="#000000" font-family="sans-serif" font-size="14" lengthAdjust="spacing" textLength="303" x="446" y="142.2376">status: Enum (submitted / processing / done)</text><ellipse cx="437" cy="157.3735" fill="#000000" rx="3" ry="3" style="stroke:#000000;stroke-width:1.0;"/><text fill="#000000" font-family="sans-serif" font-size="14" lengthAdjust="spacing" textLength="146" x="446" y="161.3055">git_commit_hash: text</text><ellipse cx="437" cy="176.4415" fill="#000000" rx="3" ry="3" style="stroke:#000000;stroke-width:1.0;"/><text fill="#000000" font-family="sans-serif" font-size="14" lengthAdjust="spacing" textLength="235" x="446" y="180.3734">priority: number between 0 and 20</text><ellipse cx="437" cy="195.5094" fill="#000000" rx="3" ry="3" style="stroke:#000000;stroke-width:1.0;"/><text fill="#000000" font-family="sans-serif" font-size="14" lengthAdjust="spacing" textLength="273" x="446" y="199.4414">local_parameters_timestamp: timestamp</text><ellipse cx="437" cy="214.5773" fill="#000000" rx="3" ry="3" style="stroke:#000000;stroke-width:1.0;"/><text fill="#000000" font-family="sans-serif" font-size="14" lengthAdjust="spacing" textLength="145" x="446" y="218.5093">auto_calibration: bool</text><ellipse cx="437" cy="233.6452" fill="#000000" rx="3" ry="3" style="stroke:#000000;stroke-width:1.0;"/><text fill="#000000" font-family="sans-serif" font-size="14" lengthAdjust="spacing" textLength="125" x="446" y="237.5772">debug_mode: bool</text><text fill="#000000" font-family="sans-serif" font-size="14" lengthAdjust="spacing" textLength="187" x="446" y="256.6451">parent_job_id: number &#171;FK&#187;</text></g><!--class job_run--><g id="elem_job_run"><rect codeLine="24" fill="#F1F1F1" height="143.3396" id="job_run" rx="2.5" ry="2.5" style="stroke:#181818;stroke-width:0.5;" width="445" x="7" y="334.28"/><ellipse cx="201.25" cy="350.28" fill="#ADD1B2" rx="11" ry="11" style="stroke:#181818;stroke-width:1.0;"/><path d="M204.7188,356.78 L197.4063,356.78 L197.4063,344.1081 L204.7188,344.1081 L204.7188,345.9831 L199.4531,345.9831 L199.4531,349.2488 L204.4063,349.2488 L204.4063,351.1081 L199.4531,351.1081 L199.4531,354.905 L204.7188,354.905 L204.7188,356.78 Z " fill="#000000"/><text fill="#000000" font-family="sans-serif" font-size="14" lengthAdjust="spacing" textLength="48" x="221.75" y="355.712">JobRun</text><line style="stroke:#181818;stroke-width:0.5;" x1="8" x2="451" y1="366.28" y2="366.28"/><ellipse cx="18" cy="381.314" fill="#000000" rx="3" ry="3" style="stroke:#000000;stroke-width:1.0;"/><text fill="#000000" font-family="sans-serif" font-size="14" lengthAdjust="spacing" textLength="220" x="27" y="385.2459">job_run_id: number &#171;generated&#187;</text><ellipse cx="18" cy="400.3819" fill="#000000" rx="3" ry="3" style="stroke:#000000;stroke-width:1.0;"/><text fill="#000000" font-family="sans-serif" font-size="14" lengthAdjust="spacing" textLength="186" x="27" y="404.3139">scheduled_time: timestamp</text><line style="stroke:#181818;stroke-width:1.0;" x1="8" x2="451" y1="412.4158" y2="412.4158"/><ellipse cx="18" cy="427.4498" fill="#000000" rx="3" ry="3" style="stroke:#000000;stroke-width:1.0;"/><text fill="#000000" font-family="sans-serif" font-size="14" lengthAdjust="spacing" textLength="136" x="27" y="431.3818">job_id: number &#171;FK&#187;</text><ellipse cx="18" cy="446.5177" fill="#000000" rx="3" ry="3" style="stroke:#000000;stroke-width:1.0;"/><text fill="#000000" font-family="sans-serif" font-size="14" lengthAdjust="spacing" textLength="419" x="27" y="450.4497">status: Enum (pending / processing / failed / cancelled / done)</text><text fill="#000000" font-family="sans-serif" font-size="14" lengthAdjust="spacing" textLength="170" x="27" y="469.5176">log: text (job information)</text></g><!--class user--><g id="elem_user"><rect codeLine="33" fill="#F1F1F1" height="124.2717" id="user" rx="2.5" ry="2.5" style="stroke:#181818;stroke-width:0.5;" width="225" x="487" y="343.81"/><ellipse cx="579.75" cy="359.81" fill="#ADD1B2" rx="11" ry="11" style="stroke:#181818;stroke-width:1.0;"/><path d="M583.2188,366.31 L575.9063,366.31 L575.9063,353.6381 L583.2188,353.6381 L583.2188,355.5131 L577.9531,355.5131 L577.9531,358.7787 L582.9063,358.7787 L582.9063,360.6381 L577.9531,360.6381 L577.9531,364.435 L583.2188,364.435 L583.2188,366.31 Z " fill="#000000"/><text fill="#000000" font-family="sans-serif" font-size="14" lengthAdjust="spacing" textLength="31" x="600.25" y="365.242">User</text><line style="stroke:#181818;stroke-width:0.5;" x1="488" x2="711" y1="375.81" y2="375.81"/><ellipse cx="498" cy="390.844" fill="#000000" rx="3" ry="3" style="stroke:#000000;stroke-width:1.0;"/><text fill="#000000" font-family="sans-serif" font-size="14" lengthAdjust="spacing" textLength="199" x="507" y="394.7759">user_id: number &#171;generated&#187;</text><line style="stroke:#181818;stroke-width:1.0;" x1="488" x2="711" y1="402.8779" y2="402.8779"/><ellipse cx="498" cy="417.9119" fill="#000000" rx="3" ry="3" style="stroke:#000000;stroke-width:1.0;"/><text fill="#000000" font-family="sans-serif" font-size="14" lengthAdjust="spacing" textLength="71" x="507" y="421.8439">name: text</text><ellipse cx="498" cy="436.9798" fill="#000000" rx="3" ry="3" style="stroke:#000000;stroke-width:1.0;"/><text fill="#000000" font-family="sans-serif" font-size="14" lengthAdjust="spacing" textLength="131" x="507" y="440.9118">created: timestamp</text><text fill="#000000" font-family="sans-serif" font-size="14" lengthAdjust="spacing" textLength="55" x="507" y="459.9797">priority?</text></g><!--class scan_param--><g id="elem_scan_param"><rect codeLine="41" fill="#F1F1F1" height="162.4075" id="scan_param" rx="2.5" ry="2.5" style="stroke:#181818;stroke-width:0.5;" width="324" x="765.5" y="324.74"/><ellipse cx="870.25" cy="340.74" fill="#ADD1B2" rx="11" ry="11" style="stroke:#181818;stroke-width:1.0;"/><path d="M873.7188,347.24 L866.4063,347.24 L866.4063,334.5681 L873.7188,334.5681 L873.7188,336.4431 L868.4531,336.4431 L868.4531,339.7088 L873.4063,339.7088 L873.4063,341.5681 L868.4531,341.5681 L868.4531,345.365 L873.7188,345.365 L873.7188,347.24 Z " fill="#000000"/><text fill="#000000" font-family="sans-serif" font-size="14" lengthAdjust="spacing" textLength="106" x="890.75" y="346.172">Scan Parameter</text><line style="stroke:#181818;stroke-width:0.5;" x1="766.5" x2="1088.5" y1="356.74" y2="356.74"/><ellipse cx="776.5" cy="371.774" fill="#000000" rx="3" ry="3" style="stroke:#000000;stroke-width:1.0;"/><text fill="#000000" font-family="sans-serif" font-size="14" lengthAdjust="spacing" textLength="277" x="785.5" y="375.7059">scan_parameter_id: number &#171;generated&#187;</text><line style="stroke:#181818;stroke-width:1.0;" x1="766.5" x2="1088.5" y1="383.8079" y2="383.8079"/><ellipse cx="776.5" cy="398.8419" fill="#000000" rx="3" ry="3" style="stroke:#000000;stroke-width:1.0;"/><text fill="#000000" font-family="sans-serif" font-size="14" lengthAdjust="spacing" textLength="136" x="785.5" y="402.7739">job_id: number &#171;FK&#187;</text><ellipse cx="776.5" cy="417.9098" fill="#000000" rx="3" ry="3" style="stroke:#000000;stroke-width:1.0;"/><text fill="#000000" font-family="sans-serif" font-size="14" lengthAdjust="spacing" textLength="131" x="785.5" y="421.8418">variable_name: text</text><ellipse cx="776.5" cy="436.9777" fill="#000000" rx="3" ry="3" style="stroke:#000000;stroke-width:1.0;"/><text fill="#000000" font-family="sans-serif" font-size="14" lengthAdjust="spacing" textLength="190" x="785.5" y="440.9097">scan_values: list of numbers</text><ellipse cx="776.5" cy="456.0456" fill="#000000" rx="3" ry="3" style="stroke:#000000;stroke-width:1.0;"/><text fill="#000000" font-family="sans-serif" font-size="14" lengthAdjust="spacing" textLength="214" x="785.5" y="459.9776">remote_source_id: number &#171;FK&#187;</text><ellipse cx="776.5" cy="475.1135" fill="#000000" rx="3" ry="3" style="stroke:#000000;stroke-width:1.0;"/><text fill="#000000" font-family="sans-serif" font-size="14" lengthAdjust="spacing" textLength="298" x="785.5" y="479.0455">description: text (this will appear in the plot)</text></g><!--class remote--><g id="elem_remote"><rect codeLine="51" fill="#F1F1F1" height="162.4075" id="remote" rx="2.5" ry="2.5" style="stroke:#181818;stroke-width:0.5;" width="294" x="789.5" y="54.67"/><ellipse cx="831.5" cy="70.67" fill="#ADD1B2" rx="11" ry="11" style="stroke:#181818;stroke-width:1.0;"/><path d="M834.9688,77.17 L827.6563,77.17 L827.6563,64.4981 L834.9688,64.4981 L834.9688,66.3731 L829.7031,66.3731 L829.7031,69.6387 L834.6563,69.6387 L834.6563,71.4981 L829.7031,71.4981 L829.7031,75.295 L834.9688,75.295 L834.9688,77.17 Z " fill="#000000"/><text fill="#000000" font-family="sans-serif" font-size="14" lengthAdjust="spacing" textLength="202" x="851.5" y="76.102">Remote Source (Service or DB)</text><line style="stroke:#181818;stroke-width:0.5;" x1="790.5" x2="1082.5" y1="86.67" y2="86.67"/><ellipse cx="800.5" cy="101.704" fill="#000000" rx="3" ry="3" style="stroke:#000000;stroke-width:1.0;"/><text fill="#000000" font-family="sans-serif" font-size="14" lengthAdjust="spacing" textLength="268" x="809.5" y="105.6359">remote_source_id: number &#171;generated&#187;</text><ellipse cx="800.5" cy="120.7719" fill="#000000" rx="3" ry="3" style="stroke:#000000;stroke-width:1.0;"/><text fill="#000000" font-family="sans-serif" font-size="14" lengthAdjust="spacing" textLength="141" x="809.5" y="124.7039">name: text  &#171;unique&#187;</text><line style="stroke:#181818;stroke-width:1.0;" x1="790.5" x2="1082.5" y1="132.8058" y2="132.8058"/><ellipse cx="800.5" cy="147.8398" fill="#000000" rx="3" ry="3" style="stroke:#000000;stroke-width:1.0;"/><text fill="#000000" font-family="sans-serif" font-size="14" lengthAdjust="spacing" textLength="100" x="809.5" y="151.7718">hostname: text</text><ellipse cx="800.5" cy="166.9077" fill="#000000" rx="3" ry="3" style="stroke:#000000;stroke-width:1.0;"/><text fill="#000000" font-family="sans-serif" font-size="14" lengthAdjust="spacing" textLength="90" x="809.5" y="170.8397">port: number</text><ellipse cx="800.5" cy="185.9756" fill="#000000" rx="3" ry="3" style="stroke:#000000;stroke-width:1.0;"/><text fill="#000000" font-family="sans-serif" font-size="14" lengthAdjust="spacing" textLength="76" x="809.5" y="189.9076">active: bool</text><text fill="#000000" font-family="sans-serif" font-size="14" lengthAdjust="spacing" textLength="109" x="809.5" y="208.9755">description: text</text></g><!--link job to user--><g id="link_job_user"><path codeLine="62" d="M599.5,282.97 C599.5,310.37 599.5,312.09 599.5,335.62 " fill="none" id="job-user" style="stroke:#181818;stroke-width:1.0;stroke-dasharray:7.0,7.0;"/><line style="stroke:#181818;stroke-width:1.0;" x1="599.5" x2="593.5" y1="272.97" y2="264.97"/><line style="stroke:#181818;stroke-width:1.0;" x1="599.5" x2="605.5" y1="272.97" y2="264.97"/><line style="stroke:#181818;stroke-width:1.0;" x1="599.5" x2="599.5" y1="272.97" y2="264.97"/><ellipse cx="599.5" cy="278.97" fill="none" rx="4" ry="4" style="stroke:#181818;stroke-width:1.0;"/><line style="stroke:#181818;stroke-width:1.0;" x1="603.5" x2="595.5" y1="339.62" y2="339.62"/><line style="stroke:#181818;stroke-width:1.0;" x1="603.5" x2="595.5" y1="336.62" y2="336.62"/><line style="stroke:#181818;stroke-width:1.0;" x1="599.5" x2="599.5" y1="335.62" y2="343.62"/></g><!--link job to scan_param--><g id="link_job_scan_param"><path codeLine="63" d="M733.5,273.19 C733.5,308.95 733.5,330.15 733.5,330.15 C733.5,330.15 728.2,330.15 747.1,330.15 " fill="none" id="job-scan_param" style="stroke:#181818;stroke-width:1.0;stroke-dasharray:7.0,7.0;"/><line style="stroke:#181818;stroke-width:1.0;" x1="729.5" x2="737.5" y1="269.19" y2="269.19"/><line style="stroke:#181818;stroke-width:1.0;" x1="729.5" x2="737.5" y1="272.19" y2="272.19"/><line style="stroke:#181818;stroke-width:1.0;" x1="733.5" x2="733.5" y1="273.19" y2="265.19"/><line style="stroke:#181818;stroke-width:1.0;" x1="757.1" x2="765.1" y1="330.15" y2="324.15"/><line style="stroke:#181818;stroke-width:1.0;" x1="757.1" x2="765.1" y1="330.15" y2="336.15"/><line style="stroke:#181818;stroke-width:1.0;" x1="757.1" x2="765.1" y1="330.15" y2="330.15"/><ellipse cx="751.1" cy="330.15" fill="none" rx="4" ry="4" style="stroke:#181818;stroke-width:1.0;"/></g><!--link experiment to job--><g id="link_experiment_job"><path codeLine="64" d="M399.14,136.15 C410.3,136.15 395.93,136.15 407.71,136.15 " fill="none" id="experiment-job" style="stroke:#181818;stroke-width:1.0;stroke-dasharray:7.0,7.0;"/><line style="stroke:#181818;stroke-width:1.0;" x1="395.14" x2="395.14" y1="140.15" y2="132.15"/><line style="stroke:#181818;stroke-width:1.0;" x1="398.14" x2="398.14" y1="140.15" y2="132.15"/><line style="stroke:#181818;stroke-width:1.0;" x1="399.14" x2="391.14" y1="136.15" y2="136.15"/><line style="stroke:#181818;stroke-width:1.0;" x1="417.71" x2="425.71" y1="136.15" y2="130.15"/><line style="stroke:#181818;stroke-width:1.0;" x1="417.71" x2="425.71" y1="136.15" y2="142.15"/><line style="stroke:#181818;stroke-width:1.0;" x1="417.71" x2="425.71" y1="136.15" y2="136.15"/><ellipse cx="411.71" cy="136.15" fill="none" rx="4" ry="4" style="stroke:#181818;stroke-width:1.0;"/></g><!--link job to job_run--><g id="link_job_job_run"><path codeLine="65" d="M439,272.97 C439,296.71 439,294.69 439,315.97 " fill="none" id="job-job_run" style="stroke:#181818;stroke-width:1.0;stroke-dasharray:7.0,7.0;"/><line style="stroke:#181818;stroke-width:1.0;" x1="435" x2="443" y1="268.97" y2="268.97"/><line style="stroke:#181818;stroke-width:1.0;" x1="435" x2="443" y1="271.97" y2="271.97"/><line style="stroke:#181818;stroke-width:1.0;" x1="439" x2="439" y1="272.97" y2="264.97"/><line style="stroke:#181818;stroke-width:1.0;" x1="439" x2="445" y1="325.97" y2="333.97"/><line style="stroke:#181818;stroke-width:1.0;" x1="439" x2="433" y1="325.97" y2="333.97"/><line style="stroke:#181818;stroke-width:1.0;" x1="439" x2="439" y1="325.97" y2="333.97"/><ellipse cx="439" cy="319.97" fill="none" rx="4" ry="4" style="stroke:#181818;stroke-width:1.0;"/></g><!--link remote to scan_param--><g id="link_remote_scan_param"><path codeLine="66" d="M936.5,225.27 C936.5,259.13 936.5,272.36 936.5,306.25 " fill="none" id="remote-scan_param" style="stroke:#181818;stroke-width:1.0;stroke-dasharray:7.0,7.0;"/><line style="stroke:#181818;stroke-width:1.0;" x1="932.5" x2="940.5" y1="221.27" y2="221.27"/><line style="stroke:#181818;stroke-width:1.0;" x1="932.5" x2="940.5" y1="224.27" y2="224.27"/><line style="stroke:#181818;stroke-width:1.0;" x1="936.5" x2="936.5" y1="225.27" y2="217.27"/><line style="stroke:#181818;stroke-width:1.0;" x1="936.5" x2="942.5" y1="316.25" y2="324.25"/><line style="stroke:#181818;stroke-width:1.0;" x1="936.5" x2="930.5" y1="316.25" y2="324.25"/><line style="stroke:#181818;stroke-width:1.0;" x1="936.5" x2="936.5" y1="316.25" y2="324.25"/><ellipse cx="936.5" cy="310.25" fill="none" rx="4" ry="4" style="stroke:#181818;stroke-width:1.0;"/></g><!--SRC=[ZLHDRzim3BtxLn0z9G6Q5Ji6HGSKwmxRPMYmio7BJAnD5ZLzf2sQ_lVHKfmuSPFE9qka7ldUe-J_A6E54orePJ2yM0HoeQ6YG1DKU86hXsUBJhMyN59q4gz0UC3z9hmMmDzCrGimiQtGmUtj6Wqw4R2-kqlHw-lhd7KuLtO70Zw7ukrGwpjL2VutLJqk_vONiMVIORTaD0RsGRJsk6Rqw8uXlltepmxwyOdTkKJ63T4lu85ZCF6nQbNWel09h2E9tYkpvaLD1gVvn5g5KbBBUMKZVBCZcqBMAN9CU5-fml24QE06XAdXyqrEqoI5BfCx6D3vSa_mbEjCn40bPwkAfL5a5b0HwHohiOhhigKQ1xkCsf4UgPiO7plo64rlIkcY6Hh3om_CyRB1EcgiK_DdFNg_ZtUKjsZgBFMHxYkXT7932YDHv_-36PhMMN-OTAEbp8fScuIQ3id-uab9LBkHwNcEnsSytJdJYCHmR_EPmUpT_p8ilUJ6uMTlTMh2yrPsls_biDCb_LzJ5vJT2AT4fR4yRJpLsGWTaNNNoWUWrGx0vmo7BGNyuCxKwALJDizZLZyqoiEJqXg4jIWSMm6XGR2Qmf4LZwa0v2S79ajq6oMxjmc-ta-JFBc5NfeB3Orcya0NE1oD-XlnHBM6V3XLnVB3sCFkRfqCQZEyLIF67QMY6xatci-tspHOQRtTpkVqEl2u63of7EGOfmrJT_UjsF4U0_m3]--></g></svg>