<?xml version="1.0" encoding="us-ascii" standalone="no"?><svg xmlns="http://www.w3.org/2000/svg" xmlns:xlink="http://www.w3.org/1999/xlink" contentStyleType="text/css" height="352px" preserveAspectRatio="none" style="width:761px;height:352px;background:#FFFFFF;" version="1.1" viewBox="0 0 761 352" width="761px" zoomAndPan="magnify"><defs/><g><!--cluster api_server--><g id="cluster_api_server"><polygon fill="none" points="16,16,26,6,744,6,744,325.41,734,335.41,16,335.41,16,16" style="stroke:#181818;stroke-width:1.0;"/><line style="stroke:#181818;stroke-width:1.0;" x1="734" x2="744" y1="16" y2="6"/><line style="stroke:#181818;stroke-width:1.0;" x1="16" x2="734" y1="16" y2="16"/><line style="stroke:#181818;stroke-width:1.0;" x1="734" x2="734" y1="16" y2="335.41"/><text fill="#000000" font-family="sans-serif" font-size="14" font-weight="bold" lengthAdjust="spacing" textLength="72.9375" x="339.5313" y="33.9659">API Server</text></g><!--class Scheduler--><g id="elem_Scheduler"><rect codeLine="17" fill="#F1F1F1" height="86.1358" id="Scheduler" rx="2.5" ry="2.5" style="stroke:#181818;stroke-width:0.5;" width="321" x="31.5" y="68.07"/><ellipse cx="157.25" cy="84.07" fill="#B4A7E5" rx="11" ry="11" style="stroke:#181818;stroke-width:1.0;"/><path d="M159.3438,90.57 L154.4375,90.57 L154.4375,89.195 L155.8594,88.8825 L155.8594,79.6013 L154.4375,79.2575 L154.4375,77.8981 L159.3438,77.8981 L159.3438,79.2575 L157.9219,79.6013 L157.9219,88.8825 L159.3438,89.195 L159.3438,90.57 Z " fill="#000000"/><text fill="#000000" font-family="sans-serif" font-size="14" font-style="italic" lengthAdjust="spacing" textLength="61" x="177.75" y="89.502">Scheduler</text><line style="stroke:#181818;stroke-width:0.5;" x1="32.5" x2="351.5" y1="100.07" y2="100.07"/><line style="stroke:#181818;stroke-width:0.5;" x1="32.5" x2="351.5" y1="108.07" y2="108.07"/><ellipse cx="42.5" cy="123.104" fill="#84BE84" rx="3" ry="3" style="stroke:#038048;stroke-width:1.0;"/><text fill="#000000" font-family="sans-serif" font-size="14" lengthAdjust="spacing" textLength="178" x="51.5" y="127.0359">JobProxy schedule_job(Job)</text><ellipse cx="42.5" cy="142.1719" fill="#84BE84" rx="3" ry="3" style="stroke:#038048;stroke-width:1.0;"/><text fill="#000000" font-family="sans-serif" font-size="14" lengthAdjust="spacing" textLength="295" x="51.5" y="146.1039">JobProxy[] get_scheduled_jobs(before, after)</text></g><!--class Parameters--><g id="elem_Parameters"><rect codeLine="21" fill="#F1F1F1" height="124.2717" id="Parameters" rx="2.5" ry="2.5" style="stroke:#181818;stroke-width:0.5;" width="341" x="387.5" y="49"/><ellipse cx="517.25" cy="65" fill="#B4A7E5" rx="11" ry="11" style="stroke:#181818;stroke-width:1.0;"/><path d="M519.3438,71.5 L514.4375,71.5 L514.4375,70.125 L515.8594,69.8125 L515.8594,60.5313 L514.4375,60.1875 L514.4375,58.8281 L519.3438,58.8281 L519.3438,60.1875 L517.9219,60.5313 L517.9219,69.8125 L519.3438,70.125 L519.3438,71.5 Z " fill="#000000"/><text fill="#000000" font-family="sans-serif" font-size="14" font-style="italic" lengthAdjust="spacing" textLength="73" x="537.75" y="70.432">Parameters</text><line style="stroke:#181818;stroke-width:0.5;" x1="388.5" x2="727.5" y1="81" y2="81"/><line style="stroke:#181818;stroke-width:0.5;" x1="388.5" x2="727.5" y1="89" y2="89"/><ellipse cx="398.5" cy="104.034" fill="#84BE84" rx="3" ry="3" style="stroke:#038048;stroke-width:1.0;"/><text fill="#000000" font-family="sans-serif" font-size="14" lengthAdjust="spacing" textLength="315" x="407.5" y="107.9659">void set_parameter(ParameterMetadata, value)</text><ellipse cx="398.5" cy="123.1019" fill="#84BE84" rx="3" ry="3" style="stroke:#038048;stroke-width:1.0;"/><text fill="#000000" font-family="sans-serif" font-size="14" lengthAdjust="spacing" textLength="315" x="407.5" y="127.0339">Parameter get_parameter(ParameterMetadata)</text><ellipse cx="398.5" cy="142.1698" fill="#84BE84" rx="3" ry="3" style="stroke:#038048;stroke-width:1.0;"/><text fill="#000000" font-family="sans-serif" font-size="14" lengthAdjust="spacing" textLength="220" x="407.5" y="146.1018">Parameter[] get_all_parameters()</text><ellipse cx="398.5" cy="161.2377" fill="#84BE84" rx="3" ry="3" style="stroke:#038048;stroke-width:1.0;"/><text fill="#000000" font-family="sans-serif" font-size="14" lengthAdjust="spacing" textLength="199" x="407.5" y="165.1697">RemoteSource[] get_sources()</text></g><!--class Experiment Library--><g id="elem_Experiment Library"><rect codeLine="27" fill="#F1F1F1" height="86.1358" id="Experiment Library" rx="2.5" ry="2.5" style="stroke:#181818;stroke-width:0.5;" width="353" x="32.5" y="233.27"/><ellipse cx="144.25" cy="249.27" fill="#B4A7E5" rx="11" ry="11" style="stroke:#181818;stroke-width:1.0;"/><path d="M146.3438,255.77 L141.4375,255.77 L141.4375,254.395 L142.8594,254.0825 L142.8594,244.8013 L141.4375,244.4575 L141.4375,243.0981 L146.3438,243.0981 L146.3438,244.4575 L144.9219,244.8013 L144.9219,254.0825 L146.3438,254.395 L146.3438,255.77 Z " fill="#000000"/><text fill="#000000" font-family="sans-serif" font-size="14" font-style="italic" lengthAdjust="spacing" textLength="121" x="164.75" y="254.702">Experiment Library</text><line style="stroke:#181818;stroke-width:0.5;" x1="33.5" x2="384.5" y1="265.27" y2="265.27"/><line style="stroke:#181818;stroke-width:0.5;" x1="33.5" x2="384.5" y1="273.27" y2="273.27"/><ellipse cx="43.5" cy="288.304" fill="#84BE84" rx="3" ry="3" style="stroke:#038048;stroke-width:1.0;"/><text fill="#000000" font-family="sans-serif" font-size="14" lengthAdjust="spacing" textLength="211" x="52.5" y="292.2359">Experiment[] get_experiments()</text><ellipse cx="43.5" cy="307.3719" fill="#84BE84" rx="3" ry="3" style="stroke:#038048;stroke-width:1.0;"/><text fill="#000000" font-family="sans-serif" font-size="14" lengthAdjust="spacing" textLength="327" x="52.5" y="311.3039">Experiment get_experiment(ExperimentMetdata)</text></g><!--SRC=[VPBTJiCm38Nl-nJMTh4YzWY016X3890coXr2LTfuRLYRL4xQhM9xTzB_5gRvfhBz7TjdcTu9cJ5YAIGOeUJmuu2D1MWqNSaeY5c1m60V2uCGi70NaSebhzc7FdrKYIAOh-jevn2coce3TG1MG-tKHgg88rsGcHWX4H8r16ZsYBAfD7VPMr9TyojfgFImCc96eqwEinXCP40YYeqjLN6yXUxxKMO8nwv-CryhGcsUoAwxEyA6L8XQewu8Ewaztv6A8ypkDy_W8HL8Cs0QM2PyNQVj3ocaGTgoqA9U62FFaufiUbLSmuiAx8f32Rhj-zygS6trwWpq-GKH6hz3USLgDy2jFNa9R6kNDRBJt-sRwf7Hfdgwlb22Lu_jPntWzkWR6iQPOKieM9BZ-A2UgU-ve3qhQcsm91casXsZx_Rz3Negfn0xqtNIOVyChWuPaaXH6dWL0J4gfqQ7VZiF-y9qzMZG57E7ZdKtc3lPFzel]--></g></svg>