<?xml version="1.0" encoding="us-ascii" standalone="no"?><svg xmlns="http://www.w3.org/2000/svg" xmlns:xlink="http://www.w3.org/1999/xlink" contentStyleType="text/css" height="661px" preserveAspectRatio="none" style="width:1572px;height:661px;background:#FFFFFF;" version="1.1" viewBox="0 0 1572 661" width="1572px" zoomAndPan="magnify"><defs/><g><!--class JobRunStatus--><g id="elem_JobRunStatus"><rect codeLine="2" fill="#F1F1F1" height="143.3396" id="JobRunStatus" rx="2.5" ry="2.5" style="stroke:#181818;stroke-width:0.5;" width="122" x="964" y="463.32"/><ellipse cx="979" cy="479.32" fill="#EB937F" rx="11" ry="11" style="stroke:#181818;stroke-width:1.0;"/><path d="M982.4688,485.82 L975.1563,485.82 L975.1563,473.1481 L982.4688,473.1481 L982.4688,475.0231 L977.2031,475.0231 L977.2031,478.2888 L982.1563,478.2888 L982.1563,480.1481 L977.2031,480.1481 L977.2031,483.945 L982.4688,483.945 L982.4688,485.82 Z " fill="#000000"/><text fill="#000000" font-family="sans-serif" font-size="14" lengthAdjust="spacing" textLength="90" x="993" y="484.752">JobRunStatus</text><line style="stroke:#181818;stroke-width:0.5;" x1="965" x2="1085" y1="495.32" y2="495.32"/><text fill="#000000" font-family="sans-serif" font-size="14" lengthAdjust="spacing" textLength="63" x="970" y="514.2859">PENDING</text><text fill="#000000" font-family="sans-serif" font-size="14" lengthAdjust="spacing" textLength="87" x="970" y="533.3539">PROCESSING</text><text fill="#000000" font-family="sans-serif" font-size="14" lengthAdjust="spacing" textLength="46" x="970" y="552.4218">FAILED</text><text fill="#000000" font-family="sans-serif" font-size="14" lengthAdjust="spacing" textLength="78" x="970" y="571.4897">CANCELLED</text><text fill="#000000" font-family="sans-serif" font-size="14" lengthAdjust="spacing" textLength="40" x="970" y="590.5576">DONE</text><line style="stroke:#181818;stroke-width:0.5;" x1="965" x2="1085" y1="598.6596" y2="598.6596"/></g><!--class JobStatus--><g id="elem_JobStatus"><rect codeLine="10" fill="#F1F1F1" height="105.2038" id="JobStatus" rx="2.5" ry="2.5" style="stroke:#181818;stroke-width:0.5;" width="99" x="95.5" y="482.39"/><ellipse cx="112.3" cy="498.39" fill="#EB937F" rx="11" ry="11" style="stroke:#181818;stroke-width:1.0;"/><path d="M115.7688,504.89 L108.4563,504.89 L108.4563,492.2181 L115.7688,492.2181 L115.7688,494.0931 L110.5031,494.0931 L110.5031,497.3588 L115.4563,497.3588 L115.4563,499.2181 L110.5031,499.2181 L110.5031,503.015 L115.7688,503.015 L115.7688,504.89 Z " fill="#000000"/><text fill="#000000" font-family="sans-serif" font-size="14" lengthAdjust="spacing" textLength="63" x="126.7" y="503.822">JobStatus</text><line style="stroke:#181818;stroke-width:0.5;" x1="96.5" x2="193.5" y1="514.39" y2="514.39"/><text fill="#000000" font-family="sans-serif" font-size="14" lengthAdjust="spacing" textLength="79" x="101.5" y="533.3559">SUBMITTED</text><text fill="#000000" font-family="sans-serif" font-size="14" lengthAdjust="spacing" textLength="87" x="101.5" y="552.4239">PROCESSING</text><text fill="#000000" font-family="sans-serif" font-size="14" lengthAdjust="spacing" textLength="79" x="101.5" y="571.4918">PROCESSED</text><line style="stroke:#181818;stroke-width:0.5;" x1="96.5" x2="193.5" y1="579.5938" y2="579.5938"/></g><!--class SourceType--><g id="elem_SourceType"><rect codeLine="16" fill="#F1F1F1" height="105.2038" id="SourceType" rx="2.5" ry="2.5" style="stroke:#181818;stroke-width:0.5;" width="124" x="350" y="482.39"/><ellipse cx="371.3" cy="498.39" fill="#EB937F" rx="11" ry="11" style="stroke:#181818;stroke-width:1.0;"/><path d="M374.7688,504.89 L367.4563,504.89 L367.4563,492.2181 L374.7688,492.2181 L374.7688,494.0931 L369.5031,494.0931 L369.5031,497.3588 L374.4563,497.3588 L374.4563,499.2181 L369.5031,499.2181 L369.5031,503.015 L374.7688,503.015 L374.7688,504.89 Z " fill="#000000"/><text fill="#000000" font-family="sans-serif" font-size="14" lengthAdjust="spacing" textLength="78" x="386.7" y="503.822">SourceType</text><line style="stroke:#181818;stroke-width:0.5;" x1="351" x2="473" y1="514.39" y2="514.39"/><text fill="#000000" font-family="sans-serif" font-size="14" lengthAdjust="spacing" textLength="67" x="356" y="533.3559">INFLUXDB</text><text fill="#000000" font-family="sans-serif" font-size="14" lengthAdjust="spacing" textLength="112" x="356" y="552.4239">PYDASE_SERVICE</text><text fill="#000000" font-family="sans-serif" font-size="14" lengthAdjust="spacing" textLength="86" x="356" y="571.4918">TIQI_PLUGIN</text><line style="stroke:#181818;stroke-width:0.5;" x1="351" x2="473" y1="579.5938" y2="579.5938"/></g><!--class JobProxy--><g id="elem_JobProxy"><rect codeLine="23" fill="#F1F1F1" height="86.1358" id="JobProxy" rx="2.5" ry="2.5" style="stroke:#181818;stroke-width:0.5;" width="141" x="1192.5" y="174.18"/><ellipse cx="1230.9" cy="190.18" fill="#ADD1B2" rx="11" ry="11" style="stroke:#181818;stroke-width:1.0;"/><path d="M1231.0094,185.7113 Q1230.0875,185.7113 1229.3531,186.0238 Q1228.6344,186.3363 1228.1344,186.93 Q1227.6344,187.5081 1227.3531,188.3831 Q1227.0875,189.2581 1227.0875,190.3519 Q1227.0875,191.7894 1227.525,192.8363 Q1227.9781,193.8831 1228.8219,194.43 Q1229.6813,194.9769 1230.9938,194.9769 Q1231.775,194.9769 1232.4625,194.8519 Q1233.1656,194.7113 1234.1656,194.3988 L1234.1656,196.2738 Q1233.3063,196.6019 1232.5406,196.7269 Q1231.7906,196.8519 1230.775,196.8519 Q1228.8531,196.8519 1227.5406,196.055 Q1226.2438,195.2425 1225.5875,193.7738 Q1224.9313,192.2894 1224.9313,190.3206 Q1224.9313,188.8988 1225.3219,187.7269 Q1225.7281,186.5394 1226.5094,185.6644 Q1227.2906,184.7894 1228.4313,184.3206 Q1229.5719,183.8363 1231.0406,183.8363 Q1231.9938,183.8363 1232.8844,184.0394 Q1233.7906,184.2269 1234.7281,184.6956 L1233.9,186.4769 Q1233.1188,186.1019 1232.4625,185.9144 Q1231.8063,185.7113 1231.0094,185.7113 Z " fill="#000000"/><text fill="#000000" font-family="sans-serif" font-size="14" lengthAdjust="spacing" textLength="57" x="1250.1" y="195.612">JobProxy</text><line style="stroke:#181818;stroke-width:0.5;" x1="1193.5" x2="1332.5" y1="206.18" y2="206.18"/><ellipse cx="1203.5" cy="221.214" fill="none" rx="3" ry="3" style="stroke:#038048;stroke-width:1.0;"/><text fill="#000000" font-family="sans-serif" font-size="14" lengthAdjust="spacing" textLength="62" x="1212.5" y="225.1459">int job_id</text><line style="stroke:#181818;stroke-width:0.5;" x1="1193.5" x2="1332.5" y1="233.2479" y2="233.2479"/><ellipse cx="1203.5" cy="248.2819" fill="#84BE84" rx="3" ry="3" style="stroke:#038048;stroke-width:1.0;"/><text fill="#000000" font-family="sans-serif" font-size="14" lengthAdjust="spacing" textLength="115" x="1212.5" y="252.2139">void toggle_plot()</text></g><!--class ScanParameterModel--><g id="elem_ScanParameterModel"><rect codeLine="29" fill="#F1F1F1" height="143.3396" id="ScanParameterModel" rx="2.5" ry="2.5" style="stroke:#181818;stroke-width:0.5;" width="176" x="541" y="145.57"/><ellipse cx="556" cy="161.57" fill="#ADD1B2" rx="11" ry="11" style="stroke:#181818;stroke-width:1.0;"/><path d="M556.1094,157.1013 Q555.1875,157.1013 554.4531,157.4138 Q553.7344,157.7263 553.2344,158.32 Q552.7344,158.8981 552.4531,159.7731 Q552.1875,160.6481 552.1875,161.7419 Q552.1875,163.1794 552.625,164.2263 Q553.0781,165.2731 553.9219,165.82 Q554.7813,166.3669 556.0938,166.3669 Q556.875,166.3669 557.5625,166.2419 Q558.2656,166.1013 559.2656,165.7888 L559.2656,167.6638 Q558.4063,167.9919 557.6406,168.1169 Q556.8906,168.2419 555.875,168.2419 Q553.9531,168.2419 552.6406,167.445 Q551.3438,166.6325 550.6875,165.1638 Q550.0313,163.6794 550.0313,161.7106 Q550.0313,160.2888 550.4219,159.1169 Q550.8281,157.9294 551.6094,157.0544 Q552.3906,156.1794 553.5313,155.7106 Q554.6719,155.2263 556.1406,155.2263 Q557.0938,155.2263 557.9844,155.4294 Q558.8906,155.6169 559.8281,156.0856 L559,157.8669 Q558.2188,157.4919 557.5625,157.3044 Q556.9063,157.1013 556.1094,157.1013 Z " fill="#000000"/><text fill="#000000" font-family="sans-serif" font-size="14" lengthAdjust="spacing" textLength="144" x="570" y="167.002">ScanParameterModel</text><line style="stroke:#181818;stroke-width:0.5;" x1="542" x2="716" y1="177.57" y2="177.57"/><ellipse cx="552" cy="192.604" fill="none" rx="3" ry="3" style="stroke:#038048;stroke-width:1.0;"/><text fill="#000000" font-family="sans-serif" font-size="14" lengthAdjust="spacing" textLength="149" x="561" y="196.5359">int scan_parameter_id</text><ellipse cx="552" cy="211.6719" fill="none" rx="3" ry="3" style="stroke:#038048;stroke-width:1.0;"/><text fill="#000000" font-family="sans-serif" font-size="14" lengthAdjust="spacing" textLength="62" x="561" y="215.6039">int job_id</text><ellipse cx="552" cy="230.7398" fill="none" rx="3" ry="3" style="stroke:#038048;stroke-width:1.0;"/><text fill="#000000" font-family="sans-serif" font-size="14" lengthAdjust="spacing" textLength="95" x="561" y="234.6718">str variable_id</text><ellipse cx="552" cy="249.8077" fill="none" rx="3" ry="3" style="stroke:#038048;stroke-width:1.0;"/><text fill="#000000" font-family="sans-serif" font-size="14" lengthAdjust="spacing" textLength="148" x="561" y="253.7397">number[] scan_values</text><ellipse cx="552" cy="268.8756" fill="none" rx="3" ry="3" style="stroke:#038048;stroke-width:1.0;"/><text fill="#000000" font-family="sans-serif" font-size="14" lengthAdjust="spacing" textLength="140" x="561" y="272.8076">int remote_source_id</text><line style="stroke:#181818;stroke-width:0.5;" x1="542" x2="716" y1="280.9096" y2="280.9096"/></g><!--class RemoteSourceModel--><g id="elem_RemoteSourceModel"><rect codeLine="37" fill="#F1F1F1" height="181.4754" id="RemoteSourceModel" rx="2.5" ry="2.5" style="stroke:#181818;stroke-width:0.5;" width="188" x="318" y="126.51"/><ellipse cx="340.65" cy="142.51" fill="#ADD1B2" rx="11" ry="11" style="stroke:#181818;stroke-width:1.0;"/><path d="M340.7594,138.0413 Q339.8375,138.0413 339.1031,138.3538 Q338.3844,138.6663 337.8844,139.26 Q337.3844,139.8381 337.1031,140.7131 Q336.8375,141.5881 336.8375,142.6819 Q336.8375,144.1194 337.275,145.1663 Q337.7281,146.2131 338.5719,146.76 Q339.4313,147.3069 340.7438,147.3069 Q341.525,147.3069 342.2125,147.1819 Q342.9156,147.0413 343.9156,146.7288 L343.9156,148.6038 Q343.0563,148.9319 342.2906,149.0569 Q341.5406,149.1819 340.525,149.1819 Q338.6031,149.1819 337.2906,148.385 Q335.9938,147.5725 335.3375,146.1038 Q334.6813,144.6194 334.6813,142.6506 Q334.6813,141.2288 335.0719,140.0569 Q335.4781,138.8694 336.2594,137.9944 Q337.0406,137.1194 338.1813,136.6506 Q339.3219,136.1663 340.7906,136.1663 Q341.7438,136.1663 342.6344,136.3694 Q343.5406,136.5569 344.4781,137.0256 L343.65,138.8069 Q342.8688,138.4319 342.2125,138.2444 Q341.5563,138.0413 340.7594,138.0413 Z " fill="#000000"/><text fill="#000000" font-family="sans-serif" font-size="14" lengthAdjust="spacing" textLength="139" x="356.35" y="147.942">RemoteSourceModel</text><line style="stroke:#181818;stroke-width:0.5;" x1="319" x2="505" y1="158.51" y2="158.51"/><ellipse cx="329" cy="173.544" fill="none" rx="3" ry="3" style="stroke:#038048;stroke-width:1.0;"/><text fill="#000000" font-family="sans-serif" font-size="14" lengthAdjust="spacing" textLength="140" x="338" y="177.4759">int remote_source_id</text><ellipse cx="329" cy="192.6119" fill="none" rx="3" ry="3" style="stroke:#038048;stroke-width:1.0;"/><text fill="#000000" font-family="sans-serif" font-size="14" lengthAdjust="spacing" textLength="60" x="338" y="196.5439">str name</text><ellipse cx="329" cy="211.6798" fill="none" rx="3" ry="3" style="stroke:#038048;stroke-width:1.0;"/><text fill="#000000" font-family="sans-serif" font-size="14" lengthAdjust="spacing" textLength="89" x="338" y="215.6118">str hostname</text><ellipse cx="329" cy="230.7477" fill="none" rx="3" ry="3" style="stroke:#038048;stroke-width:1.0;"/><text fill="#000000" font-family="sans-serif" font-size="14" lengthAdjust="spacing" textLength="50" x="338" y="234.6797">int port</text><ellipse cx="329" cy="249.8156" fill="none" rx="3" ry="3" style="stroke:#038048;stroke-width:1.0;"/><text fill="#000000" font-family="sans-serif" font-size="14" lengthAdjust="spacing" textLength="72" x="338" y="253.7476">active bool</text><ellipse cx="329" cy="268.8835" fill="none" rx="3" ry="3" style="stroke:#038048;stroke-width:1.0;"/><text fill="#000000" font-family="sans-serif" font-size="14" lengthAdjust="spacing" textLength="98" x="338" y="272.8155">str description</text><ellipse cx="329" cy="287.9515" fill="none" rx="3" ry="3" style="stroke:#038048;stroke-width:1.0;"/><text fill="#000000" font-family="sans-serif" font-size="14" lengthAdjust="spacing" textLength="162" x="338" y="291.8834">SourceType source_type</text><line style="stroke:#181818;stroke-width:0.5;" x1="319" x2="505" y1="299.9854" y2="299.9854"/></g><!--class ExperimentSourceModel--><g id="elem_ExperimentSourceModel"><rect codeLine="47" fill="#F1F1F1" height="86.1358" id="ExperimentSourceModel" rx="2.5" ry="2.5" style="stroke:#181818;stroke-width:0.5;" width="197" x="1368.5" y="174.18"/><ellipse cx="1383.5" cy="190.18" fill="#ADD1B2" rx="11" ry="11" style="stroke:#181818;stroke-width:1.0;"/><path d="M1383.6094,185.7113 Q1382.6875,185.7113 1381.9531,186.0238 Q1381.2344,186.3363 1380.7344,186.93 Q1380.2344,187.5081 1379.9531,188.3831 Q1379.6875,189.2581 1379.6875,190.3519 Q1379.6875,191.7894 1380.125,192.8363 Q1380.5781,193.8831 1381.4219,194.43 Q1382.2813,194.9769 1383.5938,194.9769 Q1384.375,194.9769 1385.0625,194.8519 Q1385.7656,194.7113 1386.7656,194.3988 L1386.7656,196.2738 Q1385.9063,196.6019 1385.1406,196.7269 Q1384.3906,196.8519 1383.375,196.8519 Q1381.4531,196.8519 1380.1406,196.055 Q1378.8438,195.2425 1378.1875,193.7738 Q1377.5313,192.2894 1377.5313,190.3206 Q1377.5313,188.8988 1377.9219,187.7269 Q1378.3281,186.5394 1379.1094,185.6644 Q1379.8906,184.7894 1381.0313,184.3206 Q1382.1719,183.8363 1383.6406,183.8363 Q1384.5938,183.8363 1385.4844,184.0394 Q1386.3906,184.2269 1387.3281,184.6956 L1386.5,186.4769 Q1385.7188,186.1019 1385.0625,185.9144 Q1384.4063,185.7113 1383.6094,185.7113 Z " fill="#000000"/><text fill="#000000" font-family="sans-serif" font-size="14" lengthAdjust="spacing" textLength="165" x="1397.5" y="195.612">ExperimentSourceModel</text><line style="stroke:#181818;stroke-width:0.5;" x1="1369.5" x2="1564.5" y1="206.18" y2="206.18"/><ellipse cx="1379.5" cy="221.214" fill="none" rx="3" ry="3" style="stroke:#038048;stroke-width:1.0;"/><text fill="#000000" font-family="sans-serif" font-size="14" lengthAdjust="spacing" textLength="169" x="1388.5" y="225.1459">int experiment_source_id</text><ellipse cx="1379.5" cy="240.2819" fill="none" rx="3" ry="3" style="stroke:#038048;stroke-width:1.0;"/><text fill="#000000" font-family="sans-serif" font-size="14" lengthAdjust="spacing" textLength="118" x="1388.5" y="244.2139">int experiment_id</text><line style="stroke:#181818;stroke-width:0.5;" x1="1369.5" x2="1564.5" y1="252.3158" y2="252.3158"/></g><!--class JobModel--><g id="elem_JobModel"><rect codeLine="52" fill="#F1F1F1" height="276.815" id="JobModel" rx="2.5" ry="2.5" style="stroke:#181818;stroke-width:0.5;" width="276" x="7" y="78.84"/><ellipse cx="109.25" cy="94.84" fill="#ADD1B2" rx="11" ry="11" style="stroke:#181818;stroke-width:1.0;"/><path d="M109.3594,90.3713 Q108.4375,90.3713 107.7031,90.6838 Q106.9844,90.9963 106.4844,91.59 Q105.9844,92.1681 105.7031,93.0431 Q105.4375,93.9181 105.4375,95.0119 Q105.4375,96.4494 105.875,97.4963 Q106.3281,98.5431 107.1719,99.09 Q108.0313,99.6369 109.3438,99.6369 Q110.125,99.6369 110.8125,99.5119 Q111.5156,99.3713 112.5156,99.0588 L112.5156,100.9338 Q111.6563,101.2619 110.8906,101.3869 Q110.1406,101.5119 109.125,101.5119 Q107.2031,101.5119 105.8906,100.715 Q104.5938,99.9025 103.9375,98.4338 Q103.2813,96.9494 103.2813,94.9806 Q103.2813,93.5588 103.6719,92.3869 Q104.0781,91.1994 104.8594,90.3244 Q105.6406,89.4494 106.7813,88.9806 Q107.9219,88.4963 109.3906,88.4963 Q110.3438,88.4963 111.2344,88.6994 Q112.1406,88.8869 113.0781,89.3556 L112.25,91.1369 Q111.4688,90.7619 110.8125,90.5744 Q110.1563,90.3713 109.3594,90.3713 Z " fill="#000000"/><text fill="#000000" font-family="sans-serif" font-size="14" lengthAdjust="spacing" textLength="63" x="129.75" y="100.272">JobModel</text><line style="stroke:#181818;stroke-width:0.5;" x1="8" x2="282" y1="110.84" y2="110.84"/><ellipse cx="18" cy="125.874" fill="none" rx="3" ry="3" style="stroke:#038048;stroke-width:1.0;"/><text fill="#000000" font-family="sans-serif" font-size="14" lengthAdjust="spacing" textLength="62" x="27" y="129.8059">int job_id</text><ellipse cx="18" cy="144.9419" fill="none" rx="3" ry="3" style="stroke:#038048;stroke-width:1.0;"/><text fill="#000000" font-family="sans-serif" font-size="14" lengthAdjust="spacing" textLength="115" x="27" y="148.8739">datetime created</text><ellipse cx="18" cy="164.0098" fill="none" rx="3" ry="3" style="stroke:#038048;stroke-width:1.0;"/><text fill="#000000" font-family="sans-serif" font-size="14" lengthAdjust="spacing" textLength="71" x="27" y="167.9418">int user_id</text><ellipse cx="18" cy="183.0777" fill="none" rx="3" ry="3" style="stroke:#038048;stroke-width:1.0;"/><text fill="#000000" font-family="sans-serif" font-size="14" lengthAdjust="spacing" textLength="169" x="27" y="187.0097">int experiment_source_id</text><ellipse cx="18" cy="202.1456" fill="none" rx="3" ry="3" style="stroke:#038048;stroke-width:1.0;"/><text fill="#000000" font-family="sans-serif" font-size="14" lengthAdjust="spacing" textLength="108" x="27" y="206.0776">JobStatus status</text><ellipse cx="18" cy="221.2135" fill="none" rx="3" ry="3" style="stroke:#038048;stroke-width:1.0;"/><text fill="#000000" font-family="sans-serif" font-size="14" lengthAdjust="spacing" textLength="135" x="27" y="225.1455">str git_commit_hash</text><ellipse cx="18" cy="240.2815" fill="none" rx="3" ry="3" style="stroke:#038048;stroke-width:1.0;"/><text fill="#000000" font-family="sans-serif" font-size="14" lengthAdjust="spacing" textLength="71" x="27" y="244.2134">int priority</text><ellipse cx="18" cy="259.3494" fill="none" rx="3" ry="3" style="stroke:#038048;stroke-width:1.0;"/><text fill="#000000" font-family="sans-serif" font-size="14" lengthAdjust="spacing" textLength="95" x="27" y="263.2814">int repetitions</text><ellipse cx="18" cy="278.4173" fill="none" rx="3" ry="3" style="stroke:#038048;stroke-width:1.0;"/><text fill="#000000" font-family="sans-serif" font-size="14" lengthAdjust="spacing" textLength="250" x="27" y="282.3493">datetime local_parameter_timestamp</text><ellipse cx="18" cy="297.4852" fill="none" rx="3" ry="3" style="stroke:#038048;stroke-width:1.0;"/><text fill="#000000" font-family="sans-serif" font-size="14" lengthAdjust="spacing" textLength="141" x="27" y="301.4172">bool auto_calibration</text><ellipse cx="18" cy="316.5531" fill="none" rx="3" ry="3" style="stroke:#038048;stroke-width:1.0;"/><text fill="#000000" font-family="sans-serif" font-size="14" lengthAdjust="spacing" textLength="121" x="27" y="320.4851">bool debug_mode</text><ellipse cx="18" cy="335.621" fill="none" rx="3" ry="3" style="stroke:#038048;stroke-width:1.0;"/><text fill="#000000" font-family="sans-serif" font-size="14" lengthAdjust="spacing" textLength="113" x="27" y="339.553">int parent_job_id</text><line style="stroke:#181818;stroke-width:0.5;" x1="8" x2="282" y1="347.655" y2="347.655"/></g><!--class UserModel--><g id="elem_UserModel"><rect codeLine="67" fill="#F1F1F1" height="105.2038" id="UserModel" rx="2.5" ry="2.5" style="stroke:#181818;stroke-width:0.5;" width="141" x="751.5" y="164.64"/><ellipse cx="782.7" cy="180.64" fill="#ADD1B2" rx="11" ry="11" style="stroke:#181818;stroke-width:1.0;"/><path d="M782.8094,176.1713 Q781.8875,176.1713 781.1531,176.4838 Q780.4344,176.7963 779.9344,177.39 Q779.4344,177.9681 779.1531,178.8431 Q778.8875,179.7181 778.8875,180.8119 Q778.8875,182.2494 779.325,183.2963 Q779.7781,184.3431 780.6219,184.89 Q781.4813,185.4369 782.7938,185.4369 Q783.575,185.4369 784.2625,185.3119 Q784.9656,185.1713 785.9656,184.8588 L785.9656,186.7338 Q785.1063,187.0619 784.3406,187.1869 Q783.5906,187.3119 782.575,187.3119 Q780.6531,187.3119 779.3406,186.515 Q778.0438,185.7025 777.3875,184.2338 Q776.7313,182.7494 776.7313,180.7806 Q776.7313,179.3588 777.1219,178.1869 Q777.5281,176.9994 778.3094,176.1244 Q779.0906,175.2494 780.2313,174.7806 Q781.3719,174.2963 782.8406,174.2963 Q783.7938,174.2963 784.6844,174.4994 Q785.5906,174.6869 786.5281,175.1556 L785.7,176.9369 Q784.9188,176.5619 784.2625,176.3744 Q783.6063,176.1713 782.8094,176.1713 Z " fill="#000000"/><text fill="#000000" font-family="sans-serif" font-size="14" lengthAdjust="spacing" textLength="73" x="800.3" y="186.072">UserModel</text><line style="stroke:#181818;stroke-width:0.5;" x1="752.5" x2="891.5" y1="196.64" y2="196.64"/><ellipse cx="762.5" cy="211.674" fill="none" rx="3" ry="3" style="stroke:#038048;stroke-width:1.0;"/><text fill="#000000" font-family="sans-serif" font-size="14" lengthAdjust="spacing" textLength="71" x="771.5" y="215.6059">int user_id</text><ellipse cx="762.5" cy="230.7419" fill="none" rx="3" ry="3" style="stroke:#038048;stroke-width:1.0;"/><text fill="#000000" font-family="sans-serif" font-size="14" lengthAdjust="spacing" textLength="60" x="771.5" y="234.6739">str name</text><ellipse cx="762.5" cy="249.8098" fill="none" rx="3" ry="3" style="stroke:#038048;stroke-width:1.0;"/><text fill="#000000" font-family="sans-serif" font-size="14" lengthAdjust="spacing" textLength="115" x="771.5" y="253.7418">datetime created</text><line style="stroke:#181818;stroke-width:0.5;" x1="752.5" x2="891.5" y1="261.8438" y2="261.8438"/></g><!--class JobRunModel--><g id="elem_JobRunModel"><rect codeLine="73" fill="#F1F1F1" height="143.3396" id="JobRunModel" rx="2.5" ry="2.5" style="stroke:#181818;stroke-width:0.5;" width="196" x="927" y="145.57"/><ellipse cx="975.75" cy="161.57" fill="#ADD1B2" rx="11" ry="11" style="stroke:#181818;stroke-width:1.0;"/><path d="M975.8594,157.1013 Q974.9375,157.1013 974.2031,157.4138 Q973.4844,157.7263 972.9844,158.32 Q972.4844,158.8981 972.2031,159.7731 Q971.9375,160.6481 971.9375,161.7419 Q971.9375,163.1794 972.375,164.2263 Q972.8281,165.2731 973.6719,165.82 Q974.5313,166.3669 975.8438,166.3669 Q976.625,166.3669 977.3125,166.2419 Q978.0156,166.1013 979.0156,165.7888 L979.0156,167.6638 Q978.1563,167.9919 977.3906,168.1169 Q976.6406,168.2419 975.625,168.2419 Q973.7031,168.2419 972.3906,167.445 Q971.0938,166.6325 970.4375,165.1638 Q969.7813,163.6794 969.7813,161.7106 Q969.7813,160.2888 970.1719,159.1169 Q970.5781,157.9294 971.3594,157.0544 Q972.1406,156.1794 973.2813,155.7106 Q974.4219,155.2263 975.8906,155.2263 Q976.8438,155.2263 977.7344,155.4294 Q978.6406,155.6169 979.5781,156.0856 L978.75,157.8669 Q977.9688,157.4919 977.3125,157.3044 Q976.6563,157.1013 975.8594,157.1013 Z " fill="#000000"/><text fill="#000000" font-family="sans-serif" font-size="14" lengthAdjust="spacing" textLength="90" x="996.25" y="167.002">JobRunModel</text><line style="stroke:#181818;stroke-width:0.5;" x1="928" x2="1122" y1="177.57" y2="177.57"/><ellipse cx="938" cy="192.604" fill="none" rx="3" ry="3" style="stroke:#038048;stroke-width:1.0;"/><text fill="#000000" font-family="sans-serif" font-size="14" lengthAdjust="spacing" textLength="92" x="947" y="196.5359">int job_run_id</text><ellipse cx="938" cy="211.6719" fill="none" rx="3" ry="3" style="stroke:#038048;stroke-width:1.0;"/><text fill="#000000" font-family="sans-serif" font-size="14" lengthAdjust="spacing" textLength="170" x="947" y="215.6039">datetime scheduled_time</text><ellipse cx="938" cy="230.7398" fill="none" rx="3" ry="3" style="stroke:#038048;stroke-width:1.0;"/><text fill="#000000" font-family="sans-serif" font-size="14" lengthAdjust="spacing" textLength="62" x="947" y="234.6718">int job_id</text><ellipse cx="938" cy="249.8077" fill="none" rx="3" ry="3" style="stroke:#038048;stroke-width:1.0;"/><text fill="#000000" font-family="sans-serif" font-size="14" lengthAdjust="spacing" textLength="135" x="947" y="253.7397">JobRunStatus status</text><ellipse cx="938" cy="268.8756" fill="none" rx="3" ry="3" style="stroke:#038048;stroke-width:1.0;"/><text fill="#000000" font-family="sans-serif" font-size="14" lengthAdjust="spacing" textLength="168" x="947" y="272.8076">str log  # job information</text><line style="stroke:#181818;stroke-width:0.5;" x1="928" x2="1122" y1="280.9096" y2="280.9096"/></g><!--class PreProcessingTask--><g id="elem_PreProcessingTask"><rect codeLine="91" fill="#F1F1F1" height="238.6792" id="PreProcessingTask" rx="2.5" ry="2.5" style="stroke:#181818;stroke-width:0.5;" width="283" x="1121.5" y="415.65"/><ellipse cx="1196.25" cy="431.65" fill="#ADD1B2" rx="11" ry="11" style="stroke:#181818;stroke-width:1.0;"/><path d="M1196.3594,427.1813 Q1195.4375,427.1813 1194.7031,427.4938 Q1193.9844,427.8063 1193.4844,428.4 Q1192.9844,428.9781 1192.7031,429.8531 Q1192.4375,430.7281 1192.4375,431.8219 Q1192.4375,433.2594 1192.875,434.3063 Q1193.3281,435.3531 1194.1719,435.9 Q1195.0313,436.4469 1196.3438,436.4469 Q1197.125,436.4469 1197.8125,436.3219 Q1198.5156,436.1813 1199.5156,435.8688 L1199.5156,437.7438 Q1198.6563,438.0719 1197.8906,438.1969 Q1197.1406,438.3219 1196.125,438.3219 Q1194.2031,438.3219 1192.8906,437.525 Q1191.5938,436.7125 1190.9375,435.2438 Q1190.2813,433.7594 1190.2813,431.7906 Q1190.2813,430.3688 1190.6719,429.1969 Q1191.0781,428.0094 1191.8594,427.1344 Q1192.6406,426.2594 1193.7813,425.7906 Q1194.9219,425.3063 1196.3906,425.3063 Q1197.3438,425.3063 1198.2344,425.5094 Q1199.1406,425.6969 1200.0781,426.1656 L1199.25,427.9469 Q1198.4688,427.5719 1197.8125,427.3844 Q1197.1563,427.1813 1196.3594,427.1813 Z " fill="#000000"/><text fill="#000000" font-family="sans-serif" font-size="14" lengthAdjust="spacing" textLength="125" x="1216.75" y="437.082">PreProcessingTask</text><line style="stroke:#181818;stroke-width:0.5;" x1="1122.5" x2="1403.5" y1="447.65" y2="447.65"/><ellipse cx="1132.5" cy="462.684" fill="none" rx="3" ry="3" style="stroke:#038048;stroke-width:1.0;"/><text fill="#000000" font-family="sans-serif" font-size="14" lengthAdjust="spacing" textLength="62" x="1141.5" y="466.6159">int job_id</text><ellipse cx="1132.5" cy="481.7519" fill="none" rx="3" ry="3" style="stroke:#038048;stroke-width:1.0;"/><text fill="#000000" font-family="sans-serif" font-size="14" lengthAdjust="spacing" textLength="92" x="1141.5" y="485.6839">int job_run_id</text><ellipse cx="1132.5" cy="500.8198" fill="none" rx="3" ry="3" style="stroke:#038048;stroke-width:1.0;"/><text fill="#000000" font-family="sans-serif" font-size="14" lengthAdjust="spacing" textLength="118" x="1141.5" y="504.7518">str experiment_id</text><ellipse cx="1132.5" cy="519.8877" fill="none" rx="3" ry="3" style="stroke:#038048;stroke-width:1.0;"/><text fill="#000000" font-family="sans-serif" font-size="14" lengthAdjust="spacing" textLength="187" x="1141.5" y="523.8197">str | None git_commit_hash</text><ellipse cx="1132.5" cy="538.9556" fill="none" rx="3" ry="3" style="stroke:#038048;stroke-width:1.0;"/><text fill="#000000" font-family="sans-serif" font-size="14" lengthAdjust="spacing" textLength="71" x="1141.5" y="542.8876">int priority</text><ellipse cx="1132.5" cy="558.0235" fill="none" rx="3" ry="3" style="stroke:#038048;stroke-width:1.0;"/><text fill="#000000" font-family="sans-serif" font-size="14" lengthAdjust="spacing" textLength="257" x="1141.5" y="561.9555">datetime local_parameters_timestamp</text><ellipse cx="1132.5" cy="577.0915" fill="none" rx="3" ry="3" style="stroke:#038048;stroke-width:1.0;"/><text fill="#000000" font-family="sans-serif" font-size="14" lengthAdjust="spacing" textLength="141" x="1141.5" y="581.0234">bool auto_calibration</text><ellipse cx="1132.5" cy="596.1594" fill="none" rx="3" ry="3" style="stroke:#038048;stroke-width:1.0;"/><text fill="#000000" font-family="sans-serif" font-size="14" lengthAdjust="spacing" textLength="121" x="1141.5" y="600.0914">bool debug_mode</text><ellipse cx="1132.5" cy="615.2273" fill="none" rx="3" ry="3" style="stroke:#038048;stroke-width:1.0;"/><text fill="#000000" font-family="sans-serif" font-size="14" lengthAdjust="spacing" textLength="95" x="1141.5" y="619.1593">int repetitions</text><ellipse cx="1132.5" cy="634.2952" fill="none" rx="3" ry="3" style="stroke:#038048;stroke-width:1.0;"/><text fill="#000000" font-family="sans-serif" font-size="14" lengthAdjust="spacing" textLength="183" x="1141.5" y="638.2272">number[] scan_parameters</text><line style="stroke:#181818;stroke-width:0.5;" x1="1122.5" x2="1403.5" y1="646.3292" y2="646.3292"/></g><!--link JobModel to RemoteSourceModel--><!--reverse link RemoteSourceModel to ScanParameterModel--><!--link ScanParameterModel to UserModel--><!--reverse link JobModel to UserModel--><!--link UserModel to JobRunModel--><!--reverse link JobRunModel to JobRunStatus--><g id="link_JobRunModel_JobRunStatus"><path codeLine="87" d="M1025,301.1 C1025,352.92 1025,410.93 1025,462.82 " fill="none" id="JobRunModel-backto-JobRunStatus" style="stroke:#181818;stroke-width:1.0;"/><polygon fill="#181818" points="1025,289.1,1021,295.1,1025,301.1,1029,295.1,1025,289.1" style="stroke:#181818;stroke-width:1.0;"/></g><!--reverse link RemoteSourceModel to SourceType--><g id="link_RemoteSourceModel_SourceType"><path codeLine="88" d="M412,320.3 C412,376.63 412,435.17 412,482.25 " fill="none" id="RemoteSourceModel-backto-SourceType" style="stroke:#181818;stroke-width:1.0;"/><polygon fill="#181818" points="412,308.3,408,314.3,412,320.3,416,314.3,412,308.3" style="stroke:#181818;stroke-width:1.0;"/></g><!--reverse link JobModel to JobStatus--><g id="link_JobModel_JobStatus"><path codeLine="89" d="M145,367.82 C145,412.52 145,447.43 145,481.89 " fill="none" id="JobModel-backto-JobStatus" style="stroke:#181818;stroke-width:1.0;"/><polygon fill="#181818" points="145,355.82,141,361.82,145,367.82,149,361.82,145,355.82" style="stroke:#181818;stroke-width:1.0;"/></g><!--SRC=[hLHjRvim4FxEhx2qBtjH_aAaDA4LKqgpa4oRgWePk15lnaQsYHfj_U-pYS4ca6cLoXViktiUdv-xCx2cGfzvjcrOeh1g9FeT8FrjmdWLnNVdzVPX6IP9jxrTHEjmrIwNYtWPhhlTwY4EWvSW0Civ84psD_VHRcT3BoZjLZixUC8RaSFkL8F5H_7jUlzjTNEE_xvQ966QXDklqJ9iJRleIvHkrlkxA3OaGKwnb2QBZU3F9qlo2H6cq4-UfQImXYCd1LAyB2caDUNg_GSFdkIORR305IWGzxm0EY2IsftMdTznZWwHIg0Z5WHd-fJUgk-PWNXyElCSCMr0UWm2AguWbQqI1lNIfRLjFMU9nbcDS2u7fZFrjWSkbMSou9eBPRSuL-G8AEESUfW2P2v8hGXdrkgLofwfzDfb6pxN84W5J5tB6Fg8KTONRby5NTinrK3s0YjG6eXo0NhfSpRoic3_ICBricn_dXmbKMdEgqh_3bWUV2K5uOAeqw0ojSx7I2SlCwGynzJh9MFKXrMr3JHLGBXHFDLn91FOAq3hAo1hohJIWlWvO67kOqNfbTlBgMuUIdBHBYCf_JBensEw4g9X4zMG-G6AXaBHtl9QyGQFqaXtoak4tXc4HlxWeZeBOaQtxulPuu4K1R0dCPkFPoQO6EuUGL-Dc3jL0wUl8vpt_Jhb5dDVny3NzEDiDj0Y64-_2N5Jw0ImK8kpzTe8q4zY3b8ILkwm_7LzVYRBQDGVJgIp_q4nP_3_Gt6j_UKRzVzuu8PlhZjGTyvV]--></g></svg>