<?xml version="1.0" encoding="us-ascii" standalone="no"?><svg xmlns="http://www.w3.org/2000/svg" xmlns:xlink="http://www.w3.org/1999/xlink" contentStyleType="text/css" height="1271px" preserveAspectRatio="none" style="width:1091px;height:1271px;background:#FFFFFF;" version="1.1" viewBox="0 0 1091 1271" width="1091px" zoomAndPan="magnify"><defs/><g><rect fill="none" height="90.2717" id="_legend" rx="7.5" ry="7.5" style="stroke:#FFFFFF;stroke-width:1.0;" width="133" x="932" y="12"/><text fill="#000000" font-family="sans-serif" font-size="14" font-weight="bold" lengthAdjust="spacing" textLength="24" x="937" y="33.9659">&#160;&#160;&#160;&#160;&#160;&#160;</text><text fill="#000000" font-family="sans-serif" font-size="14" font-weight="bold" lengthAdjust="spacing" textLength="33.75" x="965" y="33.9659">Type</text><rect fill="#228B22" height="19.0679" style="stroke:none;stroke-width:1.0;" width="24" x="937" y="38.0679"/><text fill="#000000" font-family="sans-serif" font-size="14" lengthAdjust="spacing" textLength="4" x="937" y="53.0339">&#160;</text><text fill="#000000" font-family="sans-serif" font-size="14" lengthAdjust="spacing" textLength="51" x="965" y="53.0339">Process</text><rect fill="#778899" height="19.0679" style="stroke:none;stroke-width:1.0;" width="24" x="937" y="57.1358"/><text fill="#000000" font-family="sans-serif" font-size="14" lengthAdjust="spacing" textLength="4" x="937" y="72.1018">&#160;</text><text fill="#000000" font-family="sans-serif" font-size="14" lengthAdjust="spacing" textLength="95" x="965" y="72.1018">Shared queue</text><rect fill="#4682B4" height="19.0679" style="stroke:none;stroke-width:1.0;" width="24" x="937" y="76.2038"/><text fill="#000000" font-family="sans-serif" font-size="14" lengthAdjust="spacing" textLength="4" x="937" y="91.1697">&#160;</text><text fill="#000000" font-family="sans-serif" font-size="14" lengthAdjust="spacing" textLength="63" x="965" y="91.1697">Database</text><line style="stroke:#000000;stroke-width:1.0;" x1="937" x2="1060" y1="19" y2="19"/><line style="stroke:#000000;stroke-width:1.0;" x1="937" x2="1060" y1="38.0679" y2="38.0679"/><line style="stroke:#000000;stroke-width:1.0;" x1="937" x2="1060" y1="57.1358" y2="57.1358"/><line style="stroke:#000000;stroke-width:1.0;" x1="937" x2="1060" y1="76.2038" y2="76.2038"/><line style="stroke:#000000;stroke-width:1.0;" x1="937" x2="1060" y1="95.2717" y2="95.2717"/><line style="stroke:#000000;stroke-width:1.0;" x1="937" x2="937" y1="19" y2="95.2717"/><line style="stroke:#000000;stroke-width:1.0;" x1="961" x2="961" y1="19" y2="95.2717"/><line style="stroke:#000000;stroke-width:1.0;" x1="1060" x2="1060" y1="19" y2="95.2717"/><!--cluster GitLab--><g id="cluster_GitLab"><path d="M585.7164,133.6439 C589.3755,127.033 594.1354,124.7627 599.8194,131.5053 C604.449,125.943 609.3216,124.3401 613.6742,131.8 C617.7903,124.1508 622.5166,123.7168 627.702,130.7805 C631.4142,122.5971 637.1055,121.5863 642.5944,129.0943 C647.1099,121.5859 651.6,121.4893 656.8514,128.365 C661.0426,122.9465 666.1955,121.2717 670.2994,128.4581 C675.581,121.62 680.9979,123.0119 684.6931,130.0981 C689.7691,122.3999 694.5083,122.197 699.4655,130.2097 C703.139,124.3248 708.8311,124.2128 712.6697,130.0234 C718.1536,123.0174 723.6176,125.7751 726.8755,132.3515 C732.1475,124.7609 738.4441,125.1927 742.6338,133.429 C750.2211,126.7975 758.598,129.754 761.5,138.9972 C762.7608,138.3256 763.7125,138.872 763.7006,140.3191 C771.5058,142.2007 772.9773,148.4174 766.5953,153.4312 C773.336,155.5796 773.3469,160.1122 768.8131,164.5163 C776.6246,166.7446 778.6336,171.5438 772.9914,177.955 C777.4415,183.3716 776.1367,187.5591 769.253,189.2116 C774.6979,194.4073 772.1971,200.2015 765.3431,201.4764 C771.1738,213.3295 767.1514,218.6066 754.5,219.0672 C755.3547,219.3993 755.3798,220.2505 754.7429,220.7925 C751.6794,228.3892 744.7592,228.419 740.7738,221.6916 C737.3002,228.7572 731.6362,227.8066 727.7741,222.0866 C724.0709,228.4528 718.1766,229.0909 713.6809,222.9818 C709.7784,230.2705 704.8736,229.2365 700.1424,223.8682 C696.3335,230.6925 689.5561,232.8876 684.6368,225.0417 C682.025,232.1161 677.3894,233.3424 671.6978,228.342 C666.2361,234.1584 661.1745,234.9567 656.477,227.4678 C650.9489,232.895 646.905,232.8226 643.5486,225.2997 C638.9703,232.2796 632.5187,232.0815 629.0376,224.2264 C623.6715,231.5633 616.0091,230.3796 613.1056,221.7665 C609.1975,228.2965 603.1266,226.5306 600.4358,220.535 C589.7744,230.4407 579.1888,226.4648 577.5,212.0672 C578.8103,212.5258 579.0164,213.365 578.0807,214.386 C571.0438,212.2081 569.7241,207.8608 574.7799,202.363 C567.3951,200.203 565.8283,193.3935 571.0973,187.9911 C565.3317,186.1224 564.9382,181.0759 569.0688,177.3251 C563.0007,170.7215 565.9736,166.2831 573.0994,163.5362 C568.2986,159.7029 569.8185,155.2327 574.7488,152.9098 C568.3422,141.2169 569.8699,133.881 584.5,131.9972 C585.6836,131.9985 586.116,132.4731 585.7164,133.6439 " fill="none" style="stroke:#181818;stroke-width:1.0;"/><text fill="#000000" font-family="sans-serif" font-size="14" font-weight="bold" lengthAdjust="spacing" textLength="45.625" x="646.6875" y="151.9631">GitLab</text></g><!--cluster pre_process--><g id="cluster_pre_process"><path d="M384,803.2072 L550.1875,803.2072 A3.75,3.75 0 0 1 552.6875,805.7072 L559.6875,828.2751 L730,828.2751 A2.5,2.5 0 0 1 732.5,830.7751 L732.5,903.7672 A2.5,2.5 0 0 1 730,906.2672 L384,906.2672 A2.5,2.5 0 0 1 381.5,903.7672 L381.5,805.7072 A2.5,2.5 0 0 1 384,803.2072 " fill="none" style="stroke:#000000;stroke-width:1.5;"/><line style="stroke:#000000;stroke-width:1.5;" x1="381.5" x2="559.6875" y1="828.2751" y2="828.2751"/><text fill="#000000" font-family="sans-serif" font-size="14" font-weight="bold" lengthAdjust="spacing" textLength="165.1875" x="385.5" y="820.1731">Pre-processing Process</text></g><!--cluster hw_process--><g id="cluster_hw_process"><path d="M767,803.2072 L895.5625,803.2072 A3.75,3.75 0 0 1 898.0625,805.7072 L905.0625,828.2751 L1073,828.2751 A2.5,2.5 0 0 1 1075.5,830.7751 L1075.5,903.7672 A2.5,2.5 0 0 1 1073,906.2672 L767,906.2672 A2.5,2.5 0 0 1 764.5,903.7672 L764.5,805.7072 A2.5,2.5 0 0 1 767,803.2072 " fill="none" style="stroke:#000000;stroke-width:1.5;"/><line style="stroke:#000000;stroke-width:1.5;" x1="764.5" x2="905.0625" y1="828.2751" y2="828.2751"/><text fill="#000000" font-family="sans-serif" font-size="14" font-weight="bold" lengthAdjust="spacing" textLength="127.5625" x="768.5" y="820.1731">Hardware Process</text></g><!--cluster post_process--><g id="cluster_post_process"><path d="M237,1161.3372 L409.625,1161.3372 A3.75,3.75 0 0 1 412.125,1163.8372 L419.125,1186.4051 L589,1186.4051 A2.5,2.5 0 0 1 591.5,1188.9051 L591.5,1261.9072 A2.5,2.5 0 0 1 589,1264.4072 L237,1264.4072 A2.5,2.5 0 0 1 234.5,1261.9072 L234.5,1163.8372 A2.5,2.5 0 0 1 237,1161.3372 " fill="none" style="stroke:#000000;stroke-width:1.5;"/><line style="stroke:#000000;stroke-width:1.5;" x1="234.5" x2="419.125" y1="1186.4051" y2="1186.4051"/><text fill="#000000" font-family="sans-serif" font-size="14" font-weight="bold" lengthAdjust="spacing" textLength="171.625" x="238.5" y="1178.3031">Post-processing Process</text></g><!--entity exp_lib--><g id="elem_exp_lib"><rect fill="#F1F1F1" height="49.0679" rx="2.5" ry="2.5" style="stroke:#181818;stroke-width:0.5;" width="168" x="585.5" y="161.9972"/><rect fill="#F1F1F1" height="10" style="stroke:#181818;stroke-width:0.5;" width="15" x="733.5" y="166.9972"/><rect fill="#F1F1F1" height="2" style="stroke:#181818;stroke-width:0.5;" width="4" x="731.5" y="168.9972"/><rect fill="#F1F1F1" height="2" style="stroke:#181818;stroke-width:0.5;" width="4" x="731.5" y="172.9972"/><text fill="#000000" font-family="sans-serif" font-size="14" lengthAdjust="spacing" textLength="128" x="600.5" y="196.9631">Experiment Library</text></g><!--entity pre_queue--><g id="elem_pre_queue"><rect fill="#778899" height="49.0679" rx="2.5" ry="2.5" style="stroke:#181818;stroke-width:0.5;" width="190" x="397.5" y="841.2072"/><rect fill="#778899" height="10" style="stroke:#181818;stroke-width:0.5;" width="15" x="567.5" y="846.2072"/><rect fill="#778899" height="2" style="stroke:#181818;stroke-width:0.5;" width="4" x="565.5" y="848.2072"/><rect fill="#778899" height="2" style="stroke:#181818;stroke-width:0.5;" width="4" x="565.5" y="852.2072"/><text fill="#000000" font-family="sans-serif" font-size="14" lengthAdjust="spacing" textLength="150" x="412.5" y="876.1731">Pre-processing Queue</text></g><!--entity pre_worker--><g id="elem_pre_worker"><rect fill="#228B22" height="49.0679" rx="2.5" ry="2.5" style="stroke:#181818;stroke-width:0.5;" width="95" x="622" y="841.2072"/><rect fill="#228B22" height="10" style="stroke:#181818;stroke-width:0.5;" width="15" x="697" y="846.2072"/><rect fill="#228B22" height="2" style="stroke:#181818;stroke-width:0.5;" width="4" x="695" y="848.2072"/><rect fill="#228B22" height="2" style="stroke:#181818;stroke-width:0.5;" width="4" x="695" y="852.2072"/><text fill="#000000" font-family="sans-serif" font-size="14" lengthAdjust="spacing" textLength="55" x="637" y="876.1731">Workers</text></g><!--entity hw_queue--><g id="elem_hw_queue"><rect fill="#778899" height="49.0679" rx="2.5" ry="2.5" style="stroke:#181818;stroke-width:0.5;" width="155" x="781" y="841.2072"/><rect fill="#778899" height="10" style="stroke:#181818;stroke-width:0.5;" width="15" x="916" y="846.2072"/><rect fill="#778899" height="2" style="stroke:#181818;stroke-width:0.5;" width="4" x="914" y="848.2072"/><rect fill="#778899" height="2" style="stroke:#181818;stroke-width:0.5;" width="4" x="914" y="852.2072"/><text fill="#000000" font-family="sans-serif" font-size="14" lengthAdjust="spacing" textLength="115" x="796" y="876.1731">Hardware Queue</text></g><!--entity hw_worker--><g id="elem_hw_worker"><rect fill="#228B22" height="49.0679" rx="2.5" ry="2.5" style="stroke:#181818;stroke-width:0.5;" width="88" x="971.5" y="841.2072"/><rect fill="#228B22" height="10" style="stroke:#181818;stroke-width:0.5;" width="15" x="1039.5" y="846.2072"/><rect fill="#228B22" height="2" style="stroke:#181818;stroke-width:0.5;" width="4" x="1037.5" y="848.2072"/><rect fill="#228B22" height="2" style="stroke:#181818;stroke-width:0.5;" width="4" x="1037.5" y="852.2072"/><text fill="#000000" font-family="sans-serif" font-size="14" lengthAdjust="spacing" textLength="48" x="986.5" y="876.1731">Worker</text></g><!--entity post_queue--><g id="elem_post_queue"><rect fill="#778899" height="49.0679" rx="2.5" ry="2.5" style="stroke:#181818;stroke-width:0.5;" width="196" x="379.5" y="1199.3372"/><rect fill="#778899" height="10" style="stroke:#181818;stroke-width:0.5;" width="15" x="555.5" y="1204.3372"/><rect fill="#778899" height="2" style="stroke:#181818;stroke-width:0.5;" width="4" x="553.5" y="1206.3372"/><rect fill="#778899" height="2" style="stroke:#181818;stroke-width:0.5;" width="4" x="553.5" y="1210.3372"/><text fill="#000000" font-family="sans-serif" font-size="14" lengthAdjust="spacing" textLength="156" x="394.5" y="1234.3031">Post-processing Queue</text></g><!--entity post_worker--><g id="elem_post_worker"><rect fill="#228B22" height="49.0679" rx="2.5" ry="2.5" style="stroke:#181818;stroke-width:0.5;" width="95" x="250" y="1199.3372"/><rect fill="#228B22" height="10" style="stroke:#181818;stroke-width:0.5;" width="15" x="325" y="1204.3372"/><rect fill="#228B22" height="2" style="stroke:#181818;stroke-width:0.5;" width="4" x="323" y="1206.3372"/><rect fill="#228B22" height="2" style="stroke:#181818;stroke-width:0.5;" width="4" x="323" y="1210.3372"/><text fill="#000000" font-family="sans-serif" font-size="14" lengthAdjust="spacing" textLength="55" x="265" y="1234.3031">Workers</text></g><!--entity SQLite--><g id="elem_SQLite"><path d="M323,646.1372 C323,636.1372 354.5,636.1372 354.5,636.1372 C354.5,636.1372 386,636.1372 386,646.1372 L386,674.2051 C386,684.2051 354.5,684.2051 354.5,684.2051 C354.5,684.2051 323,684.2051 323,674.2051 L323,646.1372 " fill="#4682B4" style="stroke:#181818;stroke-width:0.5;"/><path d="M323,646.1372 C323,656.1372 354.5,656.1372 354.5,656.1372 C354.5,656.1372 386,656.1372 386,646.1372 " fill="none" style="stroke:#181818;stroke-width:0.5;"/><text fill="#000000" font-family="sans-serif" font-size="14" lengthAdjust="spacing" textLength="43" x="333" y="675.1031">SQLite</text></g><!--entity InfluxDB--><g id="elem_InfluxDB"><path d="M125.5,1037.7672 C125.5,1027.7672 164.5,1027.7672 164.5,1027.7672 C164.5,1027.7672 203.5,1027.7672 203.5,1037.7672 L203.5,1065.8351 C203.5,1075.8351 164.5,1075.8351 164.5,1075.8351 C164.5,1075.8351 125.5,1075.8351 125.5,1065.8351 L125.5,1037.7672 " fill="#4682B4" style="stroke:#181818;stroke-width:0.5;"/><path d="M125.5,1037.7672 C125.5,1047.7672 164.5,1047.7672 164.5,1047.7672 C164.5,1047.7672 203.5,1047.7672 203.5,1037.7672 " fill="none" style="stroke:#181818;stroke-width:0.5;"/><text fill="#000000" font-family="sans-serif" font-size="14" lengthAdjust="spacing" textLength="58" x="135.5" y="1066.7331">InfluxDB</text></g><!--entity Valkey--><g id="elem_Valkey"><path d="M287.5,1037.7672 C287.5,1027.7672 318.5,1027.7672 318.5,1027.7672 C318.5,1027.7672 349.5,1027.7672 349.5,1037.7672 L349.5,1065.8351 C349.5,1075.8351 318.5,1075.8351 318.5,1075.8351 C318.5,1075.8351 287.5,1075.8351 287.5,1065.8351 L287.5,1037.7672 " fill="#4682B4" style="stroke:#181818;stroke-width:0.5;"/><path d="M287.5,1037.7672 C287.5,1047.7672 318.5,1047.7672 318.5,1047.7672 C318.5,1047.7672 349.5,1047.7672 349.5,1037.7672 " fill="none" style="stroke:#181818;stroke-width:0.5;"/><text fill="#000000" font-family="sans-serif" font-size="14" lengthAdjust="spacing" textLength="42" x="297.5" y="1066.7331">Valkey</text></g><!--entity spacer_1--><g id="elem_spacer_1"><rect fill="none" height="49.0679" rx="2.5" ry="2.5" style="stroke:none;stroke-width:0.5;" width="97" x="454" y="161.9972"/><rect fill="none" height="10" style="stroke:none;stroke-width:0.5;" width="15" x="531" y="166.9972"/><rect fill="none" height="2" style="stroke:none;stroke-width:0.5;" width="4" x="529" y="168.9972"/><rect fill="none" height="2" style="stroke:none;stroke-width:0.5;" width="4" x="529" y="172.9972"/></g><!--entity api_server--><g id="elem_api_server"><rect fill="#228B22" height="49.0679" rx="2.5" ry="2.5" style="stroke:#181818;stroke-width:0.5;" width="109" x="310" y="161.9972"/><rect fill="#228B22" height="10" style="stroke:#181818;stroke-width:0.5;" width="15" x="399" y="166.9972"/><rect fill="#228B22" height="2" style="stroke:#181818;stroke-width:0.5;" width="4" x="397" y="168.9972"/><rect fill="#228B22" height="2" style="stroke:#181818;stroke-width:0.5;" width="4" x="397" y="172.9972"/><text fill="#000000" font-family="sans-serif" font-size="14" lengthAdjust="spacing" textLength="69" x="325" y="196.9631">API Server</text></g><!--entity sched--><g id="elem_sched"><rect fill="#228B22" height="49.0679" rx="2.5" ry="2.5" style="stroke:#181818;stroke-width:0.5;" width="163" x="7" y="450.0672"/><rect fill="#228B22" height="10" style="stroke:#181818;stroke-width:0.5;" width="15" x="150" y="455.0672"/><rect fill="#228B22" height="2" style="stroke:#181818;stroke-width:0.5;" width="4" x="148" y="457.0672"/><rect fill="#228B22" height="2" style="stroke:#181818;stroke-width:0.5;" width="4" x="148" y="461.0672"/><text fill="#000000" font-family="sans-serif" font-size="14" lengthAdjust="spacing" textLength="123" x="22" y="485.0331">Scheduler Process</text></g><!--entity spacer_2--><g id="elem_spacer_2"><rect fill="none" height="49.0679" rx="2.5" ry="2.5" style="stroke:none;stroke-width:0.5;" width="97" x="205" y="450.0672"/><rect fill="none" height="10" style="stroke:none;stroke-width:0.5;" width="15" x="282" y="455.0672"/><rect fill="none" height="2" style="stroke:none;stroke-width:0.5;" width="4" x="280" y="457.0672"/><rect fill="none" height="2" style="stroke:none;stroke-width:0.5;" width="4" x="280" y="461.0672"/></g><!--entity rem_dev--><g id="elem_rem_dev"><polygon fill="#F1F1F1" points="789,1037.2672,799,1027.2672,934,1027.2672,934,1066.3351,924,1076.3351,789,1076.3351,789,1037.2672" style="stroke:#181818;stroke-width:0.5;"/><line style="stroke:#181818;stroke-width:0.5;" x1="924" x2="934" y1="1037.2672" y2="1027.2672"/><line style="stroke:#181818;stroke-width:0.5;" x1="789" x2="924" y1="1037.2672" y2="1037.2672"/><line style="stroke:#181818;stroke-width:0.5;" x1="924" x2="924" y1="1037.2672" y2="1076.3351"/><text fill="#000000" font-family="sans-serif" font-size="14" lengthAdjust="spacing" textLength="105" x="804" y="1062.2331">Remote devices</text></g><!--entity Zedboard--><g id="elem_Zedboard"><polygon fill="#F1F1F1" points="969,1037.2672,979,1027.2672,1074,1027.2672,1074,1066.3351,1064,1076.3351,969,1076.3351,969,1037.2672" style="stroke:#181818;stroke-width:0.5;"/><line style="stroke:#181818;stroke-width:0.5;" x1="1064" x2="1074" y1="1037.2672" y2="1027.2672"/><line style="stroke:#181818;stroke-width:0.5;" x1="969" x2="1064" y1="1037.2672" y2="1037.2672"/><line style="stroke:#181818;stroke-width:0.5;" x1="1064" x2="1064" y1="1037.2672" y2="1076.3351"/><text fill="#000000" font-family="sans-serif" font-size="14" lengthAdjust="spacing" textLength="65" x="984" y="1062.2331">Zedboard</text></g><!--reverse link api_server to SQLite--><g id="link_api_server_SQLite"><path d="M361.6103,217.321 C358.4503,251.051 353.51,308.7072 351.5,363.0672 C347.75,464.5272 351.57,585.6772 353.51,635.7472 " fill="none" id="api_server-backto-SQLite" style="stroke:#4682B4;stroke-width:1.0;"/><polygon fill="#4682B4" points="362.17,211.3472,357.3479,219.9348,361.7036,216.3254,365.3131,220.6811,362.17,211.3472" style="stroke:#4682B4;stroke-width:1.0;"/><text fill="#000000" font-family="sans-serif" font-size="13" lengthAdjust="spacing" textLength="35" x="352.5" y="377.9642">query</text><text fill="#000000" font-family="sans-serif" font-size="13" lengthAdjust="spacing" textLength="25" x="357.5" y="395.6702">jobs</text></g><!--link api_server to SQLite--><g id="link_api_server_SQLite"><path d="M371.76,211.4972 C375.81,225.7672 380.62,244.3072 383.5,261.0672 C408.01,403.4772 403.68,444.2072 376.5,586.1372 C373.26,603.0472 369.5458,615.9279 364.7958,630.1079 " fill="none" id="api_server-to-SQLite" style="stroke:#4682B4;stroke-width:1.0;"/><polygon fill="#4682B4" points="362.89,635.7972,369.5415,628.5338,364.4782,631.0561,361.9558,625.9927,362.89,635.7972" style="stroke:#4682B4;stroke-width:1.0;"/><text fill="#000000" font-family="sans-serif" font-size="13" lengthAdjust="spacing" textLength="42" x="400.5" y="377.9642">submit</text><text fill="#000000" font-family="sans-serif" font-size="13" lengthAdjust="spacing" textLength="25" x="409" y="395.6702">jobs</text></g><!--link api_server to spacer_1--><!--link spacer_1 to SQLite--><!--link sched to SQLite--><g id="link_sched_SQLite"><path d="M120.69,499.5972 C151.41,522.3272 199.17,557.1872 241.5,586.1372 C268.5,604.5972 294.6907,621.4975 317.4807,635.9275 " fill="none" id="sched-to-SQLite" style="stroke:#4682B4;stroke-width:1.0;"/><polygon fill="#4682B4" points="322.55,639.1372,317.0859,630.9431,318.3256,636.4624,312.8063,637.7021,322.55,639.1372" style="stroke:#4682B4;stroke-width:1.0;"/><text fill="#000000" font-family="sans-serif" font-size="13" lengthAdjust="spacing" textLength="43" x="242.5" y="564.0342">update</text><text fill="#000000" font-family="sans-serif" font-size="13" lengthAdjust="spacing" textLength="41" x="243.5" y="581.7402">entries</text></g><!--reverse link sched to SQLite--><g id="link_sched_SQLite"><path d="M81.3384,505.4314 C76.6784,529.9214 75.03,561.8372 94.5,586.1372 C123.16,621.8972 259.68,645.6372 322.6,654.8572 " fill="none" id="sched-backto-SQLite" style="stroke:#4682B4;stroke-width:1.0;"/><polygon fill="#4682B4" points="82.46,499.5372,76.8482,507.6308,81.5254,504.4491,84.7071,509.1263,82.46,499.5372" style="stroke:#4682B4;stroke-width:1.0;"/><text fill="#000000" font-family="sans-serif" font-size="13" lengthAdjust="spacing" textLength="85" x="95.5" y="564.0342">get submitted</text><text fill="#000000" font-family="sans-serif" font-size="13" lengthAdjust="spacing" textLength="25" x="125.5" y="581.7402">jobs</text></g><!--link spacer_2 to SQLite--><!--link hw_queue to hw_worker--><!--link hw_worker to rem_dev--><g id="link_hw_worker_rem_dev"><path d="M987.82,890.6872 C972.54,904.4972 953.65,922.5872 938.5,940.2672 C914.46,968.3272 893.9697,998.7879 879.3497,1021.8779 " fill="none" id="hw_worker-to-rem_dev" style="stroke:#181818;stroke-width:1.0;"/><polygon fill="#181818" points="876.14,1026.9472,884.3341,1021.4831,878.8148,1022.7228,877.5751,1017.2034,876.14,1026.9472" style="stroke:#181818;stroke-width:1.0;"/><text fill="#000000" font-family="sans-serif" font-size="13" lengthAdjust="spacing" textLength="69" x="939.5" y="964.1642">scan param</text></g><!--link hw_worker to Zedboard--><g id="link_hw_worker_Zedboard"><path d="M1016.27,890.4272 C1017.42,925.6672 1019.375,985.5604 1020.525,1020.9204 " fill="none" id="hw_worker-to-Zedboard" style="stroke:#181818;stroke-width:1.0;"/><polygon fill="#181818" points="1020.72,1026.9172,1024.4253,1017.7919,1020.5575,1021.9198,1016.4296,1018.052,1020.72,1026.9172" style="stroke:#181818;stroke-width:1.0;"/><text fill="#000000" font-family="sans-serif" font-size="13" lengthAdjust="spacing" textLength="47" x="1019.5" y="964.1642">execute</text></g><!--link exp_lib to pre_worker--><g id="link_exp_lib_pre_worker"><path d="M669.5,211.4072 C669.5,236.4772 669.5,277.0472 669.5,312.0672 C669.5,312.0672 669.5,312.0672 669.5,661.1672 C669.5,726.1972 669.5,796.9072 669.5,834.9172 " fill="none" id="exp_lib-to-pre_worker" style="stroke:#181818;stroke-width:1.0;"/><polygon fill="#181818" points="669.5,840.9172,673.5,831.9172,669.5,835.9172,665.5,831.9172,669.5,840.9172" style="stroke:#181818;stroke-width:1.0;"/></g><!--link SQLite to pre_worker--><g id="link_SQLite_pre_worker"><path d="M361.13,684.4472 C369.97,710.6572 388.34,752.0672 420.5,771.2072 C455.86,792.2472 569.11,759.9872 605.5,779.2072 C630.59,792.4572 645.8227,815.0729 656.2127,835.4329 " fill="none" id="SQLite-to-pre_worker" style="stroke:#4682B4;stroke-width:1.0;"/><polygon fill="#4682B4" points="658.94,840.7772,658.412,830.9425,656.6673,836.3236,651.2862,834.5789,658.94,840.7772" style="stroke:#4682B4;stroke-width:1.0;"/><text fill="#000000" font-family="sans-serif" font-size="13" lengthAdjust="spacing" textLength="34" x="432" y="749.1042">check</text><text fill="#000000" font-family="sans-serif" font-size="13" lengthAdjust="spacing" textLength="55" x="421.5" y="766.8102">cancelled</text></g><!--link SQLite to hw_worker--><g id="link_SQLite_hw_worker"><path d="M386.36,664.3572 C496.09,675.7972 856.96,717.4472 953.5,779.2072 C976.83,794.1272 991.4236,815.8934 1001.7536,835.5934 " fill="none" id="SQLite-to-hw_worker" style="stroke:#4682B4;stroke-width:1.0;"/><polygon fill="#4682B4" points="1004.54,840.9072,1003.903,831.079,1002.218,836.479,996.8179,834.7941,1004.54,840.9072" style="stroke:#4682B4;stroke-width:1.0;"/><text fill="#000000" font-family="sans-serif" font-size="13" lengthAdjust="spacing" textLength="34" x="949" y="749.1042">check</text><text fill="#000000" font-family="sans-serif" font-size="13" lengthAdjust="spacing" textLength="55" x="938.5" y="766.8102">cancelled</text></g><!--reverse link pre_worker to InfluxDB--><g id="link_pre_worker_InfluxDB"><path d="M639.7631,894.3327 C628.6831,903.3827 619.63,908.9972 605.5,914.2672 C463.11,967.4572 400.98,873.3772 264.5,940.2672 C225.46,959.4072 194.6,1001.0272 177.99,1027.3872 " fill="none" id="pre_worker-backto-InfluxDB" style="stroke:#4682B4;stroke-width:1.0;"/><polygon fill="#4682B4" points="644.41,890.5372,634.9093,893.1326,640.5376,893.7001,639.97,899.3285,644.41,890.5372" style="stroke:#4682B4;stroke-width:1.0;"/><text fill="#000000" font-family="sans-serif" font-size="13" lengthAdjust="spacing" textLength="64" x="265.5" y="955.1642">cache local</text><text fill="#000000" font-family="sans-serif" font-size="13" lengthAdjust="spacing" textLength="45" x="275" y="972.8702">params</text></g><!--reverse link pre_worker to Valkey--><g id="link_pre_worker_Valkey"><path d="M639.3488,894.3352 C628.3188,903.2752 619.42,908.8172 605.5,914.2672 C555.97,933.6972 410.45,908.8772 367.5,940.2672 C339.2,960.9572 326.97,1001.6972 321.89,1027.5172 " fill="none" id="pre_worker-backto-Valkey" style="stroke:#4682B4;stroke-width:1.0;"/><polygon fill="#4682B4" points="644.01,890.5572,634.4995,893.1167,640.1257,893.7055,639.5368,899.3316,644.01,890.5572" style="stroke:#4682B4;stroke-width:1.0;"/><text fill="#000000" font-family="sans-serif" font-size="13" lengthAdjust="spacing" textLength="86" x="368.5" y="964.1642">access params</text></g><!--link sched to pre_queue--><g id="link_sched_pre_queue"><path d="M77.07,499.4872 C67.62,522.9072 57.92,558.9672 72.5,586.1372 C145.94,722.9872 313.8329,801.9149 413.3329,838.7349 " fill="none" id="sched-to-pre_queue" style="stroke:#778899;stroke-width:1.0;"/><polygon fill="#778899" points="418.96,840.8172,411.9076,833.9424,414.2708,839.0819,409.1312,841.4451,418.96,840.8172" style="stroke:#778899;stroke-width:1.0;"/><text fill="#000000" font-family="sans-serif" font-size="13" lengthAdjust="spacing" textLength="53" x="146.5" y="656.5642">schedule</text><text fill="#000000" font-family="sans-serif" font-size="13" lengthAdjust="spacing" textLength="19" x="163.5" y="674.2702">job</text></g><!--reverse link hw_worker to Valkey--><g id="link_hw_worker_Valkey"><path d="M986.741,894.4544 C976.041,903.5144 967.32,909.0372 953.5,914.2672 C799.76,972.5272 744.5,902.4572 584.5,940.2672 C495.68,961.2672 398.31,1008.4972 349.73,1033.8972 " fill="none" id="hw_worker-backto-Valkey" style="stroke:#4682B4;stroke-width:1.0;"/><polygon fill="#4682B4" points="991.32,890.5772,981.8667,893.3403,987.5042,893.8082,987.0363,899.4457,991.32,890.5772" style="stroke:#4682B4;stroke-width:1.0;"/><text fill="#000000" font-family="sans-serif" font-size="13" lengthAdjust="spacing" textLength="71" x="585.5" y="964.1642">timestamps</text></g><!--link pre_worker to post_queue--><g id="link_pre_worker_post_queue"><path d="M642.35,890.5672 C631.5,899.0772 618.5,908.0872 605.5,914.2672 C563.26,934.3772 533.87,904.6872 503.5,940.2672 C439.53,1015.2272 458.3388,1139.69 470.2088,1193.12 " fill="none" id="pre_worker-to-post_queue" style="stroke:#778899;stroke-width:1.0;"/><polygon fill="#778899" points="471.51,1198.9772,473.4629,1189.3239,470.4256,1194.0962,465.6533,1191.0589,471.51,1198.9772" style="stroke:#778899;stroke-width:1.0;"/><text fill="#000000" font-family="sans-serif" font-size="13" lengthAdjust="spacing" textLength="12" x="465.5" y="1057.2042">fit</text></g><!--link hw_worker to post_queue--><g id="link_hw_worker_post_queue"><path d="M987.53,890.5472 C977.23,898.6672 965.21,907.4172 953.5,914.2672 C902.38,944.1872 758.57,987.6272 708.5,1019.2672 C623.32,1073.1072 542.4671,1153.692 503.5671,1194.742 " fill="none" id="hw_worker-to-post_queue" style="stroke:#778899;stroke-width:1.0;"/><polygon fill="#778899" points="499.44,1199.0972,508.534,1195.3158,502.8792,1195.4679,502.7271,1189.8131,499.44,1199.0972" style="stroke:#778899;stroke-width:1.0;"/><text fill="#000000" font-family="sans-serif" font-size="13" lengthAdjust="spacing" textLength="62" x="709.5" y="1048.2042">data point</text><text fill="#000000" font-family="sans-serif" font-size="13" lengthAdjust="spacing" textLength="47" x="717" y="1065.9102">analysis</text></g><!--link SQLite to post_worker--><g id="link_SQLite_post_worker"><path d="M329.28,684.4872 C274.34,737.4272 145.85,873.4572 109.5,1019.2672 C100.78,1054.2272 92.33,1068.6572 109.5,1100.3372 C139.01,1154.8072 198.8145,1186.6605 244.1145,1204.6705 " fill="none" id="SQLite-to-post_worker" style="stroke:#4682B4;stroke-width:1.0;"/><polygon fill="#4682B4" points="249.69,1206.8872,242.8045,1199.8452,245.0437,1205.04,239.8489,1207.2792,249.69,1206.8872" style="stroke:#4682B4;stroke-width:1.0;"/><text fill="#000000" font-family="sans-serif" font-size="13" lengthAdjust="spacing" textLength="34" x="148" y="955.1642">check</text><text fill="#000000" font-family="sans-serif" font-size="13" lengthAdjust="spacing" textLength="55" x="137.5" y="972.8702">cancelled</text></g><!--reverse link InfluxDB to post_worker--><g id="link_InfluxDB_post_worker"><path d="M185.8033,1080.8721 C200.0933,1099.6521 217.14,1121.9072 235.5,1145.3372 C249.64,1163.3872 265.82,1183.6072 278.11,1198.8772 " fill="none" id="InfluxDB-backto-post_worker" style="stroke:#4682B4;stroke-width:1.0;"/><polygon fill="#4682B4" points="182.17,1076.0972,184.4367,1085.6817,185.1977,1080.0762,190.8032,1080.8373,182.17,1076.0972" style="stroke:#4682B4;stroke-width:1.0;"/><text fill="#000000" font-family="sans-serif" font-size="13" lengthAdjust="spacing" textLength="43" x="236.5" y="1141.2342">update</text></g><!--reverse link Valkey to post_worker--><g id="link_Valkey_post_worker"><path d="M305.2121,1081.5745 C299.1521,1095.7545 294.59,1108.9372 291.5,1126.3372 C287.15,1150.8072 289.83,1179.2472 292.87,1198.8872 " fill="none" id="Valkey-backto-post_worker" style="stroke:#4682B4;stroke-width:1.0;"/><polygon fill="#4682B4" points="307.57,1076.0572,300.355,1082.7612,305.6051,1080.6549,307.7114,1085.905,307.57,1076.0572" style="stroke:#4682B4;stroke-width:1.0;"/><text fill="#000000" font-family="sans-serif" font-size="13" lengthAdjust="spacing" textLength="43" x="292.5" y="1141.2342">update</text></g><!--link Valkey to post_worker--><g id="link_Valkey_post_worker"><path d="M330.38,1076.0672 C338.42,1094.8172 346.58,1121.8372 340.5,1145.3372 C335.49,1164.7072 327.7695,1179.3893 318.1395,1194.0793 " fill="none" id="Valkey-to-post_worker" style="stroke:#4682B4;stroke-width:1.0;"/><polygon fill="#4682B4" points="314.85,1199.0972,323.1295,1193.7633,317.5912,1194.9156,316.4389,1189.3774,314.85,1199.0972" style="stroke:#4682B4;stroke-width:1.0;"/><text fill="#000000" font-family="sans-serif" font-size="13" lengthAdjust="spacing" textLength="71" x="343.5" y="1141.2342">timestamps</text></g><!--link InfluxDB to Valkey--><g id="link_InfluxDB_Valkey"><path d="M203.76,1051.8072 C229.6,1051.8072 256.98,1051.8072 281.07,1051.8072 " fill="none" id="InfluxDB-to-Valkey" style="stroke:#4682B4;stroke-width:1.0;"/><polygon fill="#4682B4" points="287.07,1051.8072,278.07,1047.8072,282.07,1051.8072,278.07,1055.8072,287.07,1051.8072" style="stroke:#4682B4;stroke-width:1.0;"/><text fill="#000000" font-family="sans-serif" font-size="13" lengthAdjust="spacing" textLength="48" x="221.5" y="1044.7042">initialise</text></g><!--SRC=[bLPDRnit4Btlho2IWqy2aXu5LK3Tn4a07PmgQ85AXi3T7KkCLkIMv5eMQl_t3Z-Mv78b6UN1rdBU8sSUPuPKUyPRAkc1ICht2bhoySE7GeNP1hR0Q_9lGN3S40MwdzA2xEWJ44gEEwQ1bBJQRwNeU6snj-7pTz48ITxVsU7NaN0Go2t5Cw4Mv5TrL25ha5TeUWUaOHmKAK4V0RYRSNwXBmTbyP-vbgSbc41qijHh4bub3gtWmFLijg0dqUdvtCPQ9YxyG6KKmX5bB5bSG-kZuFhSlD8WGUXJ2tTd4Qz54MHjYMJRdROXlFnAYF__0ydanStEtjy92Kf_aHZy_8NSIr61Ki6wC0ii6we14IS4B7UuJqt-wQ23W5fgWAPiEa309wffIHKQqGb_5ebEjJVxHCX5S4lTub8OIS0klo_mC8f2YotW0Kd73UPl_B7fdZ_T3cV_fCqUJhZCa5Kregl95wONjFHEcB7w_Do2P0VKa2nOAQayFH2g23otcuQL5lTg_ww8DQ3W5SZDHqBYYJlxR_VVo1Ba4qWBf2tRAFj9IAfsOT69TJR1iOfYFlYufqPjULhpdw9KEIddp0D9TUM1wGkirOxLDN24zt5OI0Xg4X2JIR-aoQsXbgjbjOEwQt15dpXE6ZER1JjMxfU1ScvxIxmKKDVYsSBQ59bae1B6x89kwAkNGKETA14yY56U2zAd1uBtT0latRs4IUlYP7pRX_pEnDHAs7XJcbGPuxkfceSURsi8PHhMM2J_9UGUf0hue_q-ewlBo-7H31p_IcLznBeTkBmxdl7ORXpWqLy4l-5kudBFkEXmFyAgIJu6Na2-Xb_Z4CtWeiOO_y2EZfT73KyCOx8HOfFVuFSO_3VKfS0W1vQR7Z_8YX7qrKlkBvBaO307XzguQ6o4KzkNI2iOT_quocCApE-CHLjHJcodF8FgVPbYLuAgmsGr6D-XR2UO9_vOeqlgKKb5r9HW1LNxDSUDAsWQgA_nWZyNQ8aQUKtsJHgPj3ANhAXeitQtWdgBx7hvbD3Avcj2YYrZf7seiQb3OP-oFI1Jzj9U6Yy3fUcXLQOdn2OWbBxO1T2M5TKgnoSzmA2lLDMm0HZmsOBAjJklHTXhIXxPE0NVeCJaNNFAQNDIJ0tp94-mwEw5LEdpOQJ_WEfwlYMuS_c_yAkE3OyuU9HH-eHWd6b66wQWkEaV4F7UY5EX3lsfesbSez4MQNENfvk3g0aQWhOv8p749fxEJ-Q3L2nk1lUJCOSdqzZatqsPGUQRHRN6kmNjh_kHFZ4oN78vJTumozW_SsBIlelYFm00]--></g></svg>