<?xml version="1.0" encoding="us-ascii" standalone="no"?><svg xmlns="http://www.w3.org/2000/svg" xmlns:xlink="http://www.w3.org/1999/xlink" contentStyleType="text/css" height="934px" preserveAspectRatio="none" style="width:996px;height:934px;background:#FFFFFF;" version="1.1" viewBox="0 0 996 934" width="996px" zoomAndPan="magnify"><defs/><g><ellipse cx="290.125" cy="20" fill="#222222" rx="10" ry="10" style="stroke:#222222;stroke-width:1.0;"/><polygon fill="#F1F1F1" points="242.125,106.3441,338.125,106.3441,350.125,118.3441,338.125,130.3441,242.125,130.3441,230.125,118.3441,242.125,106.3441" style="stroke:#181818;stroke-width:0.5;"/><text fill="#000000" font-family="sans-serif" font-size="11" lengthAdjust="spacing" textLength="96" x="242.125" y="122.6121">Job was cancelled?</text><text fill="#000000" font-family="sans-serif" font-size="11" lengthAdjust="spacing" textLength="17" x="213.125" y="115.1211">yes</text><text fill="#000000" font-family="sans-serif" font-size="11" lengthAdjust="spacing" textLength="14" x="350.125" y="115.1211">no</text><rect fill="#F1F1F1" height="52.6882" rx="12.5" ry="12.5" style="stroke:#181818;stroke-width:0.5;" width="108" x="11" y="140.3441"/><text fill="#000000" font-family="sans-serif" font-size="12" lengthAdjust="spacing" textLength="88" x="21" y="163.1722">Mark data point</text><text fill="#000000" font-family="sans-serif" font-size="12" lengthAdjust="spacing" textLength="69" x="21" y="179.5163">as cancelled</text><polygon fill="#F1F1F1" points="490.75,140.3441,539.75,140.3441,551.75,152.3441,539.75,164.3441,490.75,164.3441,478.75,152.3441,490.75,140.3441" style="stroke:#181818;stroke-width:0.5;"/><text fill="#000000" font-family="sans-serif" font-size="11" lengthAdjust="spacing" textLength="49" x="490.75" y="156.6121">Task type</text><text fill="#000000" font-family="sans-serif" font-size="11" lengthAdjust="spacing" textLength="55" x="423.75" y="149.1211">Data Point</text><text fill="#000000" font-family="sans-serif" font-size="11" lengthAdjust="spacing" textLength="13" x="551.75" y="149.1211">Fit</text><rect fill="#F1F1F1" height="36.3441" rx="12.5" ry="12.5" style="stroke:#181818;stroke-width:0.5;" width="140" x="353" y="174.3441"/><text fill="#000000" font-family="sans-serif" font-size="12" lengthAdjust="spacing" textLength="120" x="363" y="197.1722">Experiment.analysis()</text><rect fill="#F1F1F1" height="36.3441" rx="12.5" ry="12.5" style="stroke:#181818;stroke-width:0.5;" width="118" x="364" y="230.6882"/><text fill="#000000" font-family="sans-serif" font-size="12" lengthAdjust="spacing" textLength="98" x="374" y="253.5163">Save to Database</text><rect fill="#F1F1F1" height="36.3441" rx="12.5" ry="12.5" style="stroke:#181818;stroke-width:0.5;" width="106" x="554.5" y="174.3441"/><text fill="#000000" font-family="sans-serif" font-size="12" lengthAdjust="spacing" textLength="86" x="564.5" y="197.1722">Experiment.fit()</text><rect fill="#F1F1F1" height="69.0323" rx="12.5" ry="12.5" style="stroke:#181818;stroke-width:0.5;" width="121" x="547" y="280.1792"/><text fill="#000000" font-family="sans-serif" font-size="12" lengthAdjust="spacing" textLength="74" x="557" y="303.0073">Update value</text><text fill="#000000" font-family="sans-serif" font-size="12" lengthAdjust="spacing" textLength="71" x="557" y="319.3514">in databases</text><text fill="#000000" font-family="sans-serif" font-size="12" lengthAdjust="spacing" textLength="101" x="557" y="335.6955">(Redis &amp; InfluxDB)</text><rect fill="#F1F1F1" height="52.6882" rx="12.5" ry="12.5" style="stroke:#181818;stroke-width:0.5;" width="169" x="523" y="378.5395"/><text fill="#000000" font-family="sans-serif" font-size="12" lengthAdjust="spacing" textLength="149" x="533" y="401.3675">Update globals_timestamp</text><text fill="#000000" font-family="sans-serif" font-size="12" lengthAdjust="spacing" textLength="87" x="533" y="417.7117">shared variable</text><polygon fill="#F1F1F1" points="548,230.6882,667,230.6882,679,242.6882,667,254.6882,548,254.6882,536,242.6882,548,230.6882" style="stroke:#181818;stroke-width:0.5;"/><text fill="#000000" font-family="sans-serif" font-size="11" lengthAdjust="spacing" textLength="17" x="611.5" y="266.4471">yes</text><text fill="#000000" font-family="sans-serif" font-size="11" lengthAdjust="spacing" textLength="119" x="548" y="246.9562">Automatic Calibration?</text><polygon fill="#F1F1F1" points="607.5,451.2277,619.5,463.2277,607.5,475.2277,595.5,463.2277,607.5,451.2277" style="stroke:#181818;stroke-width:0.5;"/><polygon fill="#F1F1F1" points="515.25,481.2277,527.25,493.2277,515.25,505.2277,503.25,493.2277,515.25,481.2277" style="stroke:#181818;stroke-width:0.5;"/><polygon fill="#F1F1F1" points="475.25,525.2277,555.25,525.2277,567.25,537.2277,555.25,549.2277,475.25,549.2277,463.25,537.2277,475.25,525.2277" style="stroke:#181818;stroke-width:0.5;"/><text fill="#000000" font-family="sans-serif" font-size="11" lengthAdjust="spacing" textLength="80" x="475.25" y="541.4957">Task succeeded</text><text fill="#000000" font-family="sans-serif" font-size="11" lengthAdjust="spacing" textLength="17" x="446.25" y="534.0047">yes</text><text fill="#000000" font-family="sans-serif" font-size="11" lengthAdjust="spacing" textLength="14" x="567.25" y="534.0047">no</text><rect fill="#F1F1F1" height="36.3441" rx="12.5" ry="12.5" style="stroke:#181818;stroke-width:0.5;" width="174" x="303" y="559.2277"/><text fill="#000000" font-family="sans-serif" font-size="12" lengthAdjust="spacing" textLength="154" x="313" y="582.0558">Push websocket notification</text><path d="M149,615.5718 L149,696.3959 A0,0 0 0 0 149,696.3959 L305,696.3959 A0,0 0 0 0 305,696.3959 L305,659.9838 L325,655.9838 L305,651.9838 L305,625.5718 L295,615.5718 L149,615.5718 A0,0 0 0 0 149,615.5718 " fill="#FEFFDD" style="stroke:#181818;stroke-width:0.5;"/><path d="M295,615.5718 L295,625.5718 L305,625.5718 L295,615.5718 " fill="#FEFFDD" style="stroke:#181818;stroke-width:0.5;"/><text fill="#000000" font-family="sans-serif" font-size="13" lengthAdjust="spacing" textLength="118" x="155" y="634.4688">Tells pre-processing</text><text fill="#000000" font-family="sans-serif" font-size="13" lengthAdjust="spacing" textLength="135" x="155" y="652.1748">worker that data point</text><text fill="#000000" font-family="sans-serif" font-size="13" lengthAdjust="spacing" textLength="134" x="155" y="669.8808">has been processed or</text><text fill="#000000" font-family="sans-serif" font-size="13" lengthAdjust="spacing" textLength="122" x="155" y="687.5869">data has been fitted.</text><rect fill="#F1F1F1" height="36.3441" rx="12.5" ry="12.5" style="stroke:#181818;stroke-width:0.5;" width="130" x="325" y="637.8118"/><text fill="#000000" font-family="sans-serif" font-size="12" lengthAdjust="spacing" textLength="110" x="335" y="660.6399">Mark task complete</text><rect fill="#F1F1F1" height="36.3441" rx="12.5" ry="12.5" style="stroke:#181818;stroke-width:0.5;" width="88" x="596.5" y="559.2277"/><text fill="#000000" font-family="sans-serif" font-size="12" lengthAdjust="spacing" textLength="68" x="606.5" y="582.0558">Log warning</text><rect fill="#F1F1F1" height="36.3441" rx="12.5" ry="12.5" style="stroke:#181818;stroke-width:0.5;" width="145" x="568" y="615.5718"/><text fill="#000000" font-family="sans-serif" font-size="12" lengthAdjust="spacing" textLength="125" x="578" y="638.3999">Increase retry counter</text><polygon fill="#F1F1F1" points="565,686.9159,716,686.9159,728,698.9159,716,710.9159,565,710.9159,553,698.9159,565,686.9159" style="stroke:#181818;stroke-width:0.5;"/><text fill="#000000" font-family="sans-serif" font-size="11" lengthAdjust="spacing" textLength="151" x="565" y="703.1839">Number of retries exceeded?</text><text fill="#000000" font-family="sans-serif" font-size="11" lengthAdjust="spacing" textLength="17" x="536" y="695.6929">yes</text><text fill="#000000" font-family="sans-serif" font-size="11" lengthAdjust="spacing" textLength="14" x="728" y="695.6929">no</text><rect fill="#F1F1F1" height="36.3441" rx="12.5" ry="12.5" style="stroke:#181818;stroke-width:0.5;" width="72" x="507" y="720.9159"/><text fill="#000000" font-family="sans-serif" font-size="12" lengthAdjust="spacing" textLength="52" x="517" y="743.744">Log error</text><path d="M805.5,720.9159 L805.5,748.4749 L785.5,752.4749 L805.5,756.4749 L805.5,784.034 A0,0 0 0 0 805.5,784.034 L956.5,784.034 A0,0 0 0 0 956.5,784.034 L956.5,730.9159 L946.5,720.9159 L805.5,720.9159 A0,0 0 0 0 805.5,720.9159 " fill="#FEFFDD" style="stroke:#181818;stroke-width:0.5;"/><path d="M946.5,720.9159 L946.5,730.9159 L956.5,730.9159 L946.5,720.9159 " fill="#FEFFDD" style="stroke:#181818;stroke-width:0.5;"/><text fill="#000000" font-family="sans-serif" font-size="13" lengthAdjust="spacing" textLength="125" x="811.5" y="739.8129">Can be more specific,</text><text fill="#000000" font-family="sans-serif" font-size="13" lengthAdjust="spacing" textLength="113" x="811.5" y="757.5189">e.g. to hardware or</text><text fill="#000000" font-family="sans-serif" font-size="13" lengthAdjust="spacing" textLength="130" x="811.5" y="775.225">pre-processing queue</text><rect fill="#F1F1F1" height="36.3441" rx="12.5" ry="12.5" style="stroke:#181818;stroke-width:0.5;" width="95" x="690.5" y="734.3029"/><text fill="#000000" font-family="sans-serif" font-size="12" lengthAdjust="spacing" textLength="75" x="700.5" y="757.131">Requeue task</text><polygon fill="#F1F1F1" points="640.5,790.034,652.5,802.034,640.5,814.034,628.5,802.034,640.5,790.034" style="stroke:#181818;stroke-width:0.5;"/><polygon fill="#F1F1F1" points="515.25,820.034,527.25,832.034,515.25,844.034,503.25,832.034,515.25,820.034" style="stroke:#181818;stroke-width:0.5;"/><polygon fill="#F1F1F1" points="290.125,850.034,302.125,862.034,290.125,874.034,278.125,862.034,290.125,850.034" style="stroke:#181818;stroke-width:0.5;"/><rect fill="#F1F1F1" height="36.3441" rx="12.5" ry="12.5" style="stroke:#181818;stroke-width:0.5;" width="329" x="125.625" y="50"/><text fill="#000000" font-family="sans-serif" font-size="12" lengthAdjust="spacing" textLength="309" x="135.625" y="72.8281">Get 'PostProcessingTask' from 'post_processing_queue'</text><line style="stroke:#181818;stroke-width:1.0;" x1="423" x2="423" y1="210.6882" y2="230.6882"/><polygon fill="#181818" points="419,220.6882,423,230.6882,427,220.6882,423,224.6882" style="stroke:#181818;stroke-width:1.0;"/><line style="stroke:#181818;stroke-width:1.0;" x1="607.5" x2="607.5" y1="349.2115" y2="378.5395"/><polygon fill="#181818" points="603.5,368.5395,607.5,378.5395,611.5,368.5395,607.5,372.5395" style="stroke:#181818;stroke-width:1.0;"/><line style="stroke:#181818;stroke-width:1.0;" x1="607.5" x2="607.5" y1="254.6882" y2="280.1792"/><polygon fill="#181818" points="603.5,270.1792,607.5,280.1792,611.5,270.1792,607.5,274.1792" style="stroke:#181818;stroke-width:1.0;"/><line style="stroke:#181818;stroke-width:1.0;" x1="679" x2="702" y1="242.6882" y2="242.6882"/><polygon fill="#181818" points="698,348.5395,702,358.5395,706,348.5395,702,352.5395" style="stroke:#181818;stroke-width:1.0;"/><line style="stroke:#181818;stroke-width:1.0;" x1="702" x2="702" y1="242.6882" y2="463.2277"/><line style="stroke:#181818;stroke-width:1.0;" x1="702" x2="619.5" y1="463.2277" y2="463.2277"/><polygon fill="#181818" points="629.5,459.2277,619.5,463.2277,629.5,467.2277,625.5,463.2277" style="stroke:#181818;stroke-width:1.0;"/><line style="stroke:#181818;stroke-width:1.0;" x1="607.5" x2="607.5" y1="431.2277" y2="451.2277"/><polygon fill="#181818" points="603.5,441.2277,607.5,451.2277,611.5,441.2277,607.5,445.2277" style="stroke:#181818;stroke-width:1.0;"/><line style="stroke:#181818;stroke-width:1.0;" x1="607.5" x2="607.5" y1="210.6882" y2="230.6882"/><polygon fill="#181818" points="603.5,220.6882,607.5,230.6882,611.5,220.6882,607.5,224.6882" style="stroke:#181818;stroke-width:1.0;"/><line style="stroke:#181818;stroke-width:1.0;" x1="478.75" x2="423" y1="152.3441" y2="152.3441"/><line style="stroke:#181818;stroke-width:1.0;" x1="423" x2="423" y1="152.3441" y2="174.3441"/><polygon fill="#181818" points="419,164.3441,423,174.3441,427,164.3441,423,168.3441" style="stroke:#181818;stroke-width:1.0;"/><line style="stroke:#181818;stroke-width:1.0;" x1="551.75" x2="607.5" y1="152.3441" y2="152.3441"/><line style="stroke:#181818;stroke-width:1.0;" x1="607.5" x2="607.5" y1="152.3441" y2="174.3441"/><polygon fill="#181818" points="603.5,164.3441,607.5,174.3441,611.5,164.3441,607.5,168.3441" style="stroke:#181818;stroke-width:1.0;"/><line style="stroke:#181818;stroke-width:1.0;" x1="423" x2="423" y1="267.0323" y2="493.2277"/><line style="stroke:#181818;stroke-width:1.0;" x1="423" x2="503.25" y1="493.2277" y2="493.2277"/><polygon fill="#181818" points="493.25,489.2277,503.25,493.2277,493.25,497.2277,497.25,493.2277" style="stroke:#181818;stroke-width:1.0;"/><line style="stroke:#181818;stroke-width:1.0;" x1="607.5" x2="607.5" y1="475.2277" y2="493.2277"/><line style="stroke:#181818;stroke-width:1.0;" x1="607.5" x2="527.25" y1="493.2277" y2="493.2277"/><polygon fill="#181818" points="537.25,489.2277,527.25,493.2277,537.25,497.2277,533.25,493.2277" style="stroke:#181818;stroke-width:1.0;"/><line style="stroke:#181818;stroke-width:1.0;" x1="390" x2="390" y1="595.5718" y2="637.8118"/><polygon fill="#181818" points="386,627.8118,390,637.8118,394,627.8118,390,631.8118" style="stroke:#181818;stroke-width:1.0;"/><line style="stroke:#181818;stroke-width:1.0;" x1="640.5" x2="640.5" y1="595.5718" y2="615.5718"/><polygon fill="#181818" points="636.5,605.5718,640.5,615.5718,644.5,605.5718,640.5,609.5718" style="stroke:#181818;stroke-width:1.0;"/><line style="stroke:#181818;stroke-width:1.0;" x1="553" x2="543" y1="698.9159" y2="698.9159"/><line style="stroke:#181818;stroke-width:1.0;" x1="543" x2="543" y1="698.9159" y2="720.9159"/><polygon fill="#181818" points="539,710.9159,543,720.9159,547,710.9159,543,714.9159" style="stroke:#181818;stroke-width:1.0;"/><line style="stroke:#181818;stroke-width:1.0;" x1="728" x2="738" y1="698.9159" y2="698.9159"/><line style="stroke:#181818;stroke-width:1.0;" x1="738" x2="738" y1="698.9159" y2="734.3029"/><polygon fill="#181818" points="734,724.3029,738,734.3029,742,724.3029,738,728.3029" style="stroke:#181818;stroke-width:1.0;"/><line style="stroke:#181818;stroke-width:1.0;" x1="543" x2="543" y1="757.26" y2="802.034"/><line style="stroke:#181818;stroke-width:1.0;" x1="543" x2="628.5" y1="802.034" y2="802.034"/><polygon fill="#181818" points="618.5,798.034,628.5,802.034,618.5,806.034,622.5,802.034" style="stroke:#181818;stroke-width:1.0;"/><line style="stroke:#181818;stroke-width:1.0;" x1="738" x2="738" y1="770.647" y2="802.034"/><line style="stroke:#181818;stroke-width:1.0;" x1="738" x2="652.5" y1="802.034" y2="802.034"/><polygon fill="#181818" points="662.5,798.034,652.5,802.034,662.5,806.034,658.5,802.034" style="stroke:#181818;stroke-width:1.0;"/><line style="stroke:#181818;stroke-width:1.0;" x1="640.5" x2="640.5" y1="651.9159" y2="686.9159"/><polygon fill="#181818" points="636.5,676.9159,640.5,686.9159,644.5,676.9159,640.5,680.9159" style="stroke:#181818;stroke-width:1.0;"/><line style="stroke:#181818;stroke-width:1.0;" x1="463.25" x2="390" y1="537.2277" y2="537.2277"/><line style="stroke:#181818;stroke-width:1.0;" x1="390" x2="390" y1="537.2277" y2="559.2277"/><polygon fill="#181818" points="386,549.2277,390,559.2277,394,549.2277,390,553.2277" style="stroke:#181818;stroke-width:1.0;"/><line style="stroke:#181818;stroke-width:1.0;" x1="567.25" x2="640.5" y1="537.2277" y2="537.2277"/><line style="stroke:#181818;stroke-width:1.0;" x1="640.5" x2="640.5" y1="537.2277" y2="559.2277"/><polygon fill="#181818" points="636.5,549.2277,640.5,559.2277,644.5,549.2277,640.5,553.2277" style="stroke:#181818;stroke-width:1.0;"/><line style="stroke:#181818;stroke-width:1.0;" x1="390" x2="390" y1="674.1559" y2="832.034"/><line style="stroke:#181818;stroke-width:1.0;" x1="390" x2="503.25" y1="832.034" y2="832.034"/><polygon fill="#181818" points="493.25,828.034,503.25,832.034,493.25,836.034,497.25,832.034" style="stroke:#181818;stroke-width:1.0;"/><line style="stroke:#181818;stroke-width:1.0;" x1="640.5" x2="640.5" y1="814.034" y2="832.034"/><line style="stroke:#181818;stroke-width:1.0;" x1="640.5" x2="527.25" y1="832.034" y2="832.034"/><polygon fill="#181818" points="537.25,828.034,527.25,832.034,537.25,836.034,533.25,832.034" style="stroke:#181818;stroke-width:1.0;"/><line style="stroke:#181818;stroke-width:1.0;" x1="515.25" x2="515.25" y1="505.2277" y2="525.2277"/><polygon fill="#181818" points="511.25,515.2277,515.25,525.2277,519.25,515.2277,515.25,519.2277" style="stroke:#181818;stroke-width:1.0;"/><line style="stroke:#181818;stroke-width:1.0;" x1="230.125" x2="65" y1="118.3441" y2="118.3441"/><line style="stroke:#181818;stroke-width:1.0;" x1="65" x2="65" y1="118.3441" y2="140.3441"/><polygon fill="#181818" points="61,130.3441,65,140.3441,69,130.3441,65,134.3441" style="stroke:#181818;stroke-width:1.0;"/><line style="stroke:#181818;stroke-width:1.0;" x1="350.125" x2="515.25" y1="118.3441" y2="118.3441"/><line style="stroke:#181818;stroke-width:1.0;" x1="515.25" x2="515.25" y1="118.3441" y2="140.3441"/><polygon fill="#181818" points="511.25,130.3441,515.25,140.3441,519.25,130.3441,515.25,134.3441" style="stroke:#181818;stroke-width:1.0;"/><line style="stroke:#181818;stroke-width:1.0;" x1="65" x2="65" y1="193.0323" y2="862.034"/><line style="stroke:#181818;stroke-width:1.0;" x1="65" x2="278.125" y1="862.034" y2="862.034"/><polygon fill="#181818" points="268.125,858.034,278.125,862.034,268.125,866.034,272.125,862.034" style="stroke:#181818;stroke-width:1.0;"/><line style="stroke:#181818;stroke-width:1.0;" x1="515.25" x2="515.25" y1="844.034" y2="862.034"/><line style="stroke:#181818;stroke-width:1.0;" x1="515.25" x2="302.125" y1="862.034" y2="862.034"/><polygon fill="#181818" points="312.125,858.034,302.125,862.034,312.125,866.034,308.125,862.034" style="stroke:#181818;stroke-width:1.0;"/><line style="stroke:#181818;stroke-width:1.0;" x1="290.125" x2="290.125" y1="86.3441" y2="106.3441"/><polygon fill="#181818" points="286.125,96.3441,290.125,106.3441,294.125,96.3441,290.125,100.3441" style="stroke:#181818;stroke-width:1.0;"/><line style="stroke:#181818;stroke-width:1.0;" x1="290.125" x2="290.125" y1="874.034" y2="922.034"/><line style="stroke:#181818;stroke-width:1.0;" x1="290.125" x2="970.5" y1="922.034" y2="922.034"/><polygon fill="#181818" points="966.5,493.0215,970.5,483.0215,974.5,493.0215,970.5,489.0215" style="stroke:#181818;stroke-width:1.0;"/><line style="stroke:#181818;stroke-width:1.0;" x1="970.5" x2="970.5" y1="68.1721" y2="922.034"/><line style="stroke:#181818;stroke-width:1.0;" x1="970.5" x2="454.625" y1="68.1721" y2="68.1721"/><polygon fill="#181818" points="464.625,64.1721,454.625,68.1721,464.625,72.1721,460.625,68.1721" style="stroke:#181818;stroke-width:1.0;"/><line style="stroke:#181818;stroke-width:1.0;" x1="290.125" x2="290.125" y1="30" y2="50"/><polygon fill="#181818" points="286.125,40,290.125,50,294.125,40,290.125,44" style="stroke:#181818;stroke-width:1.0;"/><!--SRC=[VLF1ZjCm4BttA-P4Mmdw0Tq3Wbr0Ym1LotAk7ESbjUhOmPvisxzdxB2jirtm9P5dvisRDy-HLU1PG0_5jFu2fld6Hzu4hn6ZSUsZYlivDS5tDEybiktFeUtl0GFcDpCYqz3Ygw_ee29fvJIiHVr-IRo3eyK9SIb9HEllAkofLgoezyPnlYnB4XPi12sS7qiISk90VEhn37YN43O9OKpAs9-EFOBfu7YbdBAdQE9YUNE9_rHF8FQKYYiLCOR6Rf_DFv0QmoL8OlDXODyfDffkbJLLa5_lhcSze_tgPM3Gax839X7ZiXI9Ivm45W-eJQGtTEyQEnplFXOCIiZM-ahPk6NX6bbr_IGhxbH0BNs3KPN51GAkDiri-dUMEGvQ0pNgLmTQRuQuemEgwFLUpE8ycyReB44XTLup9pZjkzw2Y-vI0h9ek23xACkFr0UykxYh21zys2C87_7e2_ECPoSUgY1i_vRBs3uKyLnqJfATCkfLgKTcLVZXsNrvcc- -5MC79wIA6U-T3f3LKG27ammwE4QOMkN7q5L2t3SvoI0IZgEw__5BQeSGV85rJIfdFY2_mApqr25Pv63Q7K-kqxbLJcIWpWTGxA7J_jvUPM7Lhj9Z4G_LCZkcUevdkY_AN2P94s5VTrx-_W40]--></g></svg>