<?xml version="1.0" encoding="us-ascii" standalone="no"?><svg xmlns="http://www.w3.org/2000/svg" xmlns:xlink="http://www.w3.org/1999/xlink" contentStyleType="text/css" height="1497px" preserveAspectRatio="none" style="width:1248px;height:1497px;background:#FFFFFF;" version="1.1" viewBox="0 0 1248 1497" width="1248px" zoomAndPan="magnify"><defs/><g><ellipse cx="476.5" cy="20" fill="#222222" rx="10" ry="10" style="stroke:#222222;stroke-width:1.0;"/><rect fill="#F1F1F1" height="36.3441" rx="12.5" ry="12.5" style="stroke:#181818;stroke-width:0.5;" width="178" x="387.5" y="50"/><text fill="#000000" font-family="sans-serif" font-size="12" lengthAdjust="spacing" textLength="158" x="397.5" y="72.8281">Create Temporary Directory</text><rect fill="#F1F1F1" height="52.6882" rx="12.5" ry="12.5" style="stroke:#181818;stroke-width:0.5;" width="242" x="355.5" y="150.3441"/><text fill="#000000" font-family="sans-serif" font-size="12" lengthAdjust="spacing" textLength="222" x="365.5" y="173.1722">Get highest priority 'PreProcessingTask'</text><text fill="#000000" font-family="sans-serif" font-size="12" lengthAdjust="spacing" textLength="152" x="365.5" y="189.5163">from pre-processing queue</text><rect fill="#F1F1F1" height="52.6882" rx="12.5" ry="12.5" style="stroke:#181818;stroke-width:0.5;" width="165" x="394" y="223.0323"/><text fill="#000000" font-family="sans-serif" font-size="12" lengthAdjust="spacing" textLength="133" x="404" y="245.8604">Change process priority</text><text fill="#000000" font-family="sans-serif" font-size="12" lengthAdjust="spacing" textLength="145" x="404" y="262.2045">depending on task priority</text><polygon fill="#F1F1F1" points="425.5,295.7206,527.5,295.7206,539.5,307.7206,527.5,319.7206,425.5,319.7206,413.5,307.7206,425.5,295.7206" style="stroke:#181818;stroke-width:0.5;"/><text fill="#000000" font-family="sans-serif" font-size="11" lengthAdjust="spacing" textLength="102" x="425.5" y="311.9885">debug_mode is on?</text><text fill="#000000" font-family="sans-serif" font-size="11" lengthAdjust="spacing" textLength="17" x="396.5" y="304.4976">yes</text><text fill="#000000" font-family="sans-serif" font-size="11" lengthAdjust="spacing" textLength="14" x="539.5" y="304.4976">no</text><rect fill="#F1F1F1" height="36.3441" rx="12.5" ry="12.5" style="stroke:#181818;stroke-width:0.5;" width="189" x="285.5" y="329.7206"/><text fill="#000000" font-family="sans-serif" font-size="12" lengthAdjust="spacing" textLength="169" x="295.5" y="352.5487">Use dev source code directory</text><rect fill="#F1F1F1" height="36.3441" rx="12.5" ry="12.5" style="stroke:#181818;stroke-width:0.5;" width="157" x="494.5" y="329.7206"/><text fill="#000000" font-family="sans-serif" font-size="12" lengthAdjust="spacing" textLength="137" x="504.5" y="352.5487">Use temporary directory</text><path d="M643.5,376.0647 L643.5,412.4767 L623.5,416.4767 L643.5,420.4767 L643.5,456.8888 A0,0 0 0 0 643.5,456.8888 L867.5,456.8888 A0,0 0 0 0 867.5,456.8888 L867.5,386.0647 L857.5,376.0647 L643.5,376.0647 A0,0 0 0 0 643.5,376.0647 " fill="#FEFFDD" style="stroke:#181818;stroke-width:0.5;"/><path d="M857.5,376.0647 L857.5,386.0647 L867.5,386.0647 L857.5,376.0647 " fill="#FEFFDD" style="stroke:#181818;stroke-width:0.5;"/><text fill="#000000" font-family="sans-serif" font-size="13" lengthAdjust="spacing" textLength="187" x="649.5" y="394.9617">Checks if local repository exists,</text><text fill="#000000" font-family="sans-serif" font-size="13" lengthAdjust="spacing" textLength="156" x="649.5" y="412.6677">clones if necessary, checks</text><text fill="#000000" font-family="sans-serif" font-size="13" lengthAdjust="spacing" textLength="177" x="649.5" y="430.3737">out the specified commit, and</text><text fill="#000000" font-family="sans-serif" font-size="13" lengthAdjust="spacing" textLength="203" x="649.5" y="448.0797">updates the python environment.</text><rect fill="#F1F1F1" height="36.3441" rx="12.5" ry="12.5" style="stroke:#181818;stroke-width:0.5;" width="101" x="522.5" y="398.3047"/><text fill="#000000" font-family="sans-serif" font-size="12" lengthAdjust="spacing" textLength="81" x="532.5" y="421.1328">Prepare folder</text><polygon fill="#F1F1F1" points="476.5,462.8888,488.5,474.8888,476.5,486.8888,464.5,474.8888,476.5,462.8888" style="stroke:#181818;stroke-width:0.5;"/><path d="M38,496.8888 L38,560.0068 A0,0 0 0 0 38,560.0068 L378,560.0068 A0,0 0 0 0 378,560.0068 L378,532.4478 L398,528.4478 L378,524.4478 L378,506.8888 L368,496.8888 L38,496.8888 A0,0 0 0 0 38,496.8888 " fill="#FEFFDD" style="stroke:#181818;stroke-width:0.5;"/><path d="M368,496.8888 L368,506.8888 L378,506.8888 L368,496.8888 " fill="#FEFFDD" style="stroke:#181818;stroke-width:0.5;"/><text fill="#000000" font-family="sans-serif" font-size="13" lengthAdjust="spacing" textLength="285" x="44" y="515.7858">Get current values for all parameters in InfluxDB</text><text fill="#000000" font-family="sans-serif" font-size="13" lengthAdjust="spacing" textLength="319" x="44" y="533.4918">and the experiment namespace parameters based on</text><text fill="#000000" font-family="sans-serif" font-size="13" lengthAdjust="spacing" textLength="175" x="44" y="551.1978">the local_params_timestamp.</text><rect fill="#F1F1F1" height="36.3441" rx="12.5" ry="12.5" style="stroke:#181818;stroke-width:0.5;" width="157" x="398" y="510.2757"/><text fill="#000000" font-family="sans-serif" font-size="12" lengthAdjust="spacing" textLength="137" x="408" y="533.1038">Cache parameter values</text><path d="M89.5,570.0068 L89.5,633.1249 A0,0 0 0 0 89.5,633.1249 L391.5,633.1249 A0,0 0 0 0 391.5,633.1249 L391.5,605.5658 L411.5,601.5658 L391.5,597.5658 L391.5,580.0068 L381.5,570.0068 L89.5,570.0068 A0,0 0 0 0 89.5,570.0068 " fill="#FEFFDD" style="stroke:#181818;stroke-width:0.5;"/><path d="M381.5,570.0068 L381.5,580.0068 L391.5,580.0068 L381.5,570.0068 " fill="#FEFFDD" style="stroke:#181818;stroke-width:0.5;"/><text fill="#000000" font-family="sans-serif" font-size="13" lengthAdjust="spacing" textLength="268" x="95.5" y="588.9038">Create queues for data points to process and</text><text fill="#000000" font-family="sans-serif" font-size="13" lengthAdjust="spacing" textLength="281" x="95.5" y="606.6098">already processed data points. Take repetitions</text><text fill="#000000" font-family="sans-serif" font-size="13" lengthAdjust="spacing" textLength="78" x="95.5" y="624.3158">into account.</text><rect fill="#F1F1F1" height="36.3441" rx="12.5" ry="12.5" style="stroke:#181818;stroke-width:0.5;" width="130" x="411.5" y="583.3938"/><text fill="#000000" font-family="sans-serif" font-size="12" lengthAdjust="spacing" textLength="110" x="421.5" y="606.2219">Prepare data points</text><path d="M85.5,700.3838 L85.5,781.2078 A0,0 0 0 0 85.5,781.2078 L383.5,781.2078 A0,0 0 0 0 383.5,781.2078 L383.5,744.7958 L403.5,740.7958 L383.5,736.7958 L383.5,710.3838 L373.5,700.3838 L85.5,700.3838 A0,0 0 0 0 85.5,700.3838 " fill="#FEFFDD" style="stroke:#181818;stroke-width:0.5;"/><path d="M373.5,700.3838 L373.5,710.3838 L383.5,710.3838 L373.5,700.3838 " fill="#FEFFDD" style="stroke:#181818;stroke-width:0.5;"/><text fill="#000000" font-family="sans-serif" font-size="13" lengthAdjust="spacing" textLength="277" x="91.5" y="719.2808">This queue contains events like "update_scan",</text><text fill="#000000" font-family="sans-serif" font-size="13" lengthAdjust="spacing" textLength="260" x="91.5" y="736.9868">where all parameters should be updated, or</text><text fill="#000000" font-family="sans-serif" font-size="13" lengthAdjust="spacing" textLength="228" x="91.5" y="754.6928">"calibration" containing a dictionary of</text><text fill="#000000" font-family="sans-serif" font-size="13" lengthAdjust="spacing" textLength="169" x="91.5" y="772.3988">calibrated parameter values.</text><rect fill="#F1F1F1" height="36.3441" rx="12.5" ry="12.5" style="stroke:#181818;stroke-width:0.5;" width="146" x="403.5" y="722.6237"/><text fill="#000000" font-family="sans-serif" font-size="12" lengthAdjust="spacing" textLength="126" x="413.5" y="745.4518">Process update_queue</text><rect fill="#F1F1F1" height="36.3441" rx="12.5" ry="12.5" style="stroke:#181818;stroke-width:0.5;" width="207" x="373" y="801.4268"/><text fill="#000000" font-family="sans-serif" font-size="12" lengthAdjust="spacing" textLength="187" x="383" y="824.2549">Attempt to get the next data point</text><polygon fill="#F1F1F1" points="404,857.7709,549,857.7709,561,869.7709,549,881.7709,404,881.7709,392,869.7709,404,857.7709" style="stroke:#181818;stroke-width:0.5;"/><text fill="#000000" font-family="sans-serif" font-size="11" lengthAdjust="spacing" textLength="145" x="404" y="874.0389">Data Point Queue is Empty?</text><text fill="#000000" font-family="sans-serif" font-size="11" lengthAdjust="spacing" textLength="17" x="375" y="866.5479">yes</text><text fill="#000000" font-family="sans-serif" font-size="11" lengthAdjust="spacing" textLength="14" x="561" y="866.5479">no</text><path d="M43.625,891.7709 L43.625,990.301 A0,0 0 0 0 43.625,990.301 L263.625,990.301 A0,0 0 0 0 263.625,990.301 L263.625,945.0359 L283.625,941.0359 L263.625,937.0359 L263.625,901.7709 L253.625,891.7709 L43.625,891.7709 A0,0 0 0 0 43.625,891.7709 " fill="#FEFFDD" style="stroke:#181818;stroke-width:0.5;"/><path d="M253.625,891.7709 L253.625,901.7709 L263.625,901.7709 L253.625,891.7709 " fill="#FEFFDD" style="stroke:#181818;stroke-width:0.5;"/><text fill="#000000" font-family="sans-serif" font-size="13" lengthAdjust="spacing" textLength="183" x="49.625" y="910.6679">The hardware/post-processing</text><text fill="#000000" font-family="sans-serif" font-size="13" lengthAdjust="spacing" textLength="157" x="49.625" y="928.3739">worker might still requeue</text><text fill="#000000" font-family="sans-serif" font-size="13" lengthAdjust="spacing" textLength="191" x="49.625" y="946.0799">data points if necessary. Manual</text><text fill="#000000" font-family="sans-serif" font-size="13" lengthAdjust="spacing" textLength="199" x="49.625" y="963.786">scans might still queue additional</text><text fill="#000000" font-family="sans-serif" font-size="13" lengthAdjust="spacing" textLength="71" x="49.625" y="981.492">data points.</text><rect fill="#F1F1F1" height="36.3441" rx="12.5" ry="12.5" style="stroke:#181818;stroke-width:0.5;" width="129" x="283.625" y="922.8639"/><text fill="#000000" font-family="sans-serif" font-size="12" lengthAdjust="spacing" textLength="109" x="293.625" y="945.692">Continue inner loop</text><rect fill="#000000" fill-opacity="0.06275" height="267.2361" style="stroke:#000000;stroke-width:1.5;" width="764" x="432.625" y="891.7709"/><path d="M594.625,891.7709 L594.625,903.8388 L584.625,913.8388 L432.625,913.8388 " fill="none" style="stroke:#000000;stroke-width:1.5;"/><text fill="#000000" font-family="sans-serif" font-size="14" lengthAdjust="spacing" textLength="152" x="435.625" y="907.7368">Pre-process data point</text><path d="M988.625,998.5109 L988.625,1079.3349 L1176.625,1079.3349 L1176.625,1008.5109 L1166.625,998.5109 L988.625,998.5109 " fill="#FEFFDD" style="stroke:#181818;stroke-width:0.5;"/><path d="M1166.625,998.5109 L1166.625,1008.5109 L1176.625,1008.5109 L1166.625,998.5109 " fill="#FEFFDD" style="stroke:#181818;stroke-width:0.5;"/><text fill="#000000" font-family="sans-serif" font-size="13" lengthAdjust="spacing" textLength="139" x="994.625" y="1017.4079">This could also be done</text><text fill="#000000" font-family="sans-serif" font-size="13" lengthAdjust="spacing" textLength="131" x="994.625" y="1035.1139">in separate processes.</text><text fill="#000000" font-family="sans-serif" font-size="13" lengthAdjust="spacing" textLength="167" x="994.625" y="1052.8199">The order of the data points</text><text fill="#000000" font-family="sans-serif" font-size="13" lengthAdjust="spacing" textLength="139" x="994.625" y="1070.5259">has to be kept, though.</text><polygon fill="#F1F1F1" points="556.875,930.8388,652.875,930.8388,664.875,942.8388,652.875,954.8388,556.875,954.8388,544.875,942.8388,556.875,930.8388" style="stroke:#181818;stroke-width:0.5;"/><text fill="#000000" font-family="sans-serif" font-size="11" lengthAdjust="spacing" textLength="96" x="556.875" y="947.1068">Job was cancelled?</text><text fill="#000000" font-family="sans-serif" font-size="11" lengthAdjust="spacing" textLength="17" x="527.875" y="939.6158">yes</text><text fill="#000000" font-family="sans-serif" font-size="11" lengthAdjust="spacing" textLength="14" x="664.875" y="939.6158">no</text><rect fill="#F1F1F1" height="52.6882" rx="12.5" ry="12.5" style="stroke:#181818;stroke-width:0.5;" width="108" x="452.625" y="964.8388"/><text fill="#000000" font-family="sans-serif" font-size="12" lengthAdjust="spacing" textLength="88" x="462.625" y="987.6669">Mark data point</text><text fill="#000000" font-family="sans-serif" font-size="12" lengthAdjust="spacing" textLength="69" x="462.625" y="1004.011">as cancelled</text><path d="M797.625,964.8388 L797.625,1001.2508 L777.625,1005.2508 L797.625,1009.2508 L797.625,1045.6629 A0,0 0 0 0 797.625,1045.6629 L968.625,1045.6629 A0,0 0 0 0 968.625,1045.6629 L968.625,974.8388 L958.625,964.8388 L797.625,964.8388 A0,0 0 0 0 797.625,964.8388 " fill="#FEFFDD" style="stroke:#181818;stroke-width:0.5;"/><path d="M958.625,964.8388 L958.625,974.8388 L968.625,974.8388 L958.625,964.8388 " fill="#FEFFDD" style="stroke:#181818;stroke-width:0.5;"/><text fill="#000000" font-family="sans-serif" font-size="13" lengthAdjust="spacing" textLength="150" x="803.625" y="983.7358">Generating the json file,...</text><text fill="#000000" font-family="sans-serif" font-size="13" lengthAdjust="spacing" textLength="138" x="803.625" y="1001.4418">Use locally cached local</text><text fill="#000000" font-family="sans-serif" font-size="13" lengthAdjust="spacing" textLength="129" x="803.625" y="1019.1479">parameters when not</text><text fill="#000000" font-family="sans-serif" font-size="13" lengthAdjust="spacing" textLength="113" x="803.625" y="1036.8539">scanning real-time.</text><rect fill="#F1F1F1" height="36.3441" rx="12.5" ry="12.5" style="stroke:#181818;stroke-width:0.5;" width="149" x="628.625" y="987.0788"/><text fill="#000000" font-family="sans-serif" font-size="12" lengthAdjust="spacing" textLength="129" x="638.625" y="1009.9069">Create 'HardwareTask'</text><rect fill="#F1F1F1" height="36.3441" rx="12.5" ry="12.5" style="stroke:#181818;stroke-width:0.5;" width="245" x="580.625" y="1080.6629"/><text fill="#000000" font-family="sans-serif" font-size="12" lengthAdjust="spacing" textLength="225" x="590.625" y="1103.491">Put 'HardwareTask' in 'hardware_queue'</text><polygon fill="#F1F1F1" points="604.875,1123.007,616.875,1135.007,604.875,1147.007,592.875,1135.007,604.875,1123.007" style="stroke:#181818;stroke-width:0.5;"/><polygon fill="#F1F1F1" points="476.5,1165.007,488.5,1177.007,476.5,1189.007,464.5,1177.007,476.5,1165.007" style="stroke:#181818;stroke-width:0.5;"/><polygon fill="#F1F1F1" points="408.5,653.1249,544.5,653.1249,556.5,665.1249,544.5,677.1249,408.5,677.1249,396.5,665.1249,408.5,653.1249" style="stroke:#181818;stroke-width:0.5;"/><text fill="#000000" font-family="sans-serif" font-size="11" lengthAdjust="spacing" textLength="14" x="480.5" y="688.8838">no</text><text fill="#000000" font-family="sans-serif" font-size="11" lengthAdjust="spacing" textLength="136" x="408.5" y="669.3928">All data points processed?</text><text fill="#000000" font-family="sans-serif" font-size="11" lengthAdjust="spacing" textLength="17" x="379.5" y="661.9019">yes</text><rect fill="#000000" fill-opacity="0.06275" height="143.7561" style="stroke:#000000;stroke-width:1.5;" width="341" x="306" y="1221.007"/><path d="M561,1221.007 L561,1233.0749 L551,1243.0749 L306,1243.0749 " fill="none" style="stroke:#000000;stroke-width:1.5;"/><text fill="#000000" font-family="sans-serif" font-size="14" lengthAdjust="spacing" textLength="245" x="309" y="1236.9729">Submit Fitting and Database Update</text><rect fill="#F1F1F1" height="36.3441" rx="12.5" ry="12.5" style="stroke:#181818;stroke-width:0.5;" width="178" x="387.5" y="1260.0749"/><text fill="#000000" font-family="sans-serif" font-size="12" lengthAdjust="spacing" textLength="158" x="397.5" y="1282.903">Create 'PostProcessingTask'</text><rect fill="#F1F1F1" height="36.3441" rx="12.5" ry="12.5" style="stroke:#181818;stroke-width:0.5;" width="321" x="316" y="1316.419"/><text fill="#000000" font-family="sans-serif" font-size="12" lengthAdjust="spacing" textLength="301" x="326" y="1339.2471">Put 'PostProcessingTask' into 'post_processing_queue'</text><path d="M556,1388.4012 L556,1407.1072 L536,1411.1072 L556,1415.1072 L556,1433.8133 A0,0 0 0 0 556,1433.8133 L761,1433.8133 A0,0 0 0 0 761,1433.8133 L761,1398.4012 L751,1388.4012 L556,1388.4012 A0,0 0 0 0 556,1388.4012 " fill="#FEFFDD" style="stroke:#181818;stroke-width:0.5;"/><path d="M751,1388.4012 L751,1398.4012 L761,1398.4012 L751,1388.4012 " fill="#FEFFDD" style="stroke:#181818;stroke-width:0.5;"/><text fill="#000000" font-family="sans-serif" font-size="13" lengthAdjust="spacing" textLength="180" x="562" y="1407.2982">Should I update the job status</text><text fill="#000000" font-family="sans-serif" font-size="13" lengthAdjust="spacing" textLength="184" x="562" y="1425.0043">in the post-processing worker?</text><rect fill="#F1F1F1" height="52.6882" rx="12.5" ry="12.5" style="stroke:#181818;stroke-width:0.5;" width="119" x="417" y="1384.7631"/><text fill="#000000" font-family="sans-serif" font-size="12" lengthAdjust="spacing" textLength="99" x="427" y="1407.5912">Update Job Status</text><text fill="#000000" font-family="sans-serif" font-size="12" lengthAdjust="spacing" textLength="58" x="427" y="1423.9353">to "DONE"</text><polygon fill="#F1F1F1" points="476.5,106.3441,488.5,118.3441,476.5,130.3441,464.5,118.3441,476.5,106.3441" style="stroke:#181818;stroke-width:0.5;"/><line style="stroke:#181818;stroke-width:1.0;" x1="476.5" x2="476.5" y1="30" y2="50"/><polygon fill="#181818" points="472.5,40,476.5,50,480.5,40,476.5,44" style="stroke:#181818;stroke-width:1.0;"/><line style="stroke:#181818;stroke-width:1.0;" x1="476.5" x2="476.5" y1="203.0323" y2="223.0323"/><polygon fill="#181818" points="472.5,213.0323,476.5,223.0323,480.5,213.0323,476.5,217.0323" style="stroke:#181818;stroke-width:1.0;"/><line style="stroke:#181818;stroke-width:1.0;" x1="573" x2="573" y1="366.0647" y2="398.3047"/><polygon fill="#181818" points="569,388.3047,573,398.3047,577,388.3047,573,392.3047" style="stroke:#181818;stroke-width:1.0;"/><line style="stroke:#181818;stroke-width:1.0;" x1="413.5" x2="380" y1="307.7206" y2="307.7206"/><line style="stroke:#181818;stroke-width:1.0;" x1="380" x2="380" y1="307.7206" y2="329.7206"/><polygon fill="#181818" points="376,319.7206,380,329.7206,384,319.7206,380,323.7206" style="stroke:#181818;stroke-width:1.0;"/><line style="stroke:#181818;stroke-width:1.0;" x1="539.5" x2="573" y1="307.7206" y2="307.7206"/><line style="stroke:#181818;stroke-width:1.0;" x1="573" x2="573" y1="307.7206" y2="329.7206"/><polygon fill="#181818" points="569,319.7206,573,329.7206,577,319.7206,573,323.7206" style="stroke:#181818;stroke-width:1.0;"/><line style="stroke:#181818;stroke-width:1.0;" x1="380" x2="380" y1="366.0647" y2="474.8888"/><line style="stroke:#181818;stroke-width:1.0;" x1="380" x2="464.5" y1="474.8888" y2="474.8888"/><polygon fill="#181818" points="454.5,470.8888,464.5,474.8888,454.5,478.8888,458.5,474.8888" style="stroke:#181818;stroke-width:1.0;"/><line style="stroke:#181818;stroke-width:1.0;" x1="573" x2="573" y1="434.6488" y2="474.8888"/><line style="stroke:#181818;stroke-width:1.0;" x1="573" x2="488.5" y1="474.8888" y2="474.8888"/><polygon fill="#181818" points="498.5,470.8888,488.5,474.8888,498.5,478.8888,494.5,474.8888" style="stroke:#181818;stroke-width:1.0;"/><line style="stroke:#181818;stroke-width:1.0;" x1="476.5" x2="476.5" y1="275.7206" y2="295.7206"/><polygon fill="#181818" points="472.5,285.7206,476.5,295.7206,480.5,285.7206,476.5,289.7206" style="stroke:#181818;stroke-width:1.0;"/><line style="stroke:#181818;stroke-width:1.0;" x1="476.5" x2="476.5" y1="486.8888" y2="510.2757"/><polygon fill="#181818" points="472.5,500.2757,476.5,510.2757,480.5,500.2757,476.5,504.2757" style="stroke:#181818;stroke-width:1.0;"/><line style="stroke:#181818;stroke-width:1.0;" x1="476.5" x2="476.5" y1="546.6198" y2="583.3938"/><polygon fill="#181818" points="472.5,573.3938,476.5,583.3938,480.5,573.3938,476.5,577.3938" style="stroke:#181818;stroke-width:1.0;"/><line style="stroke:#181818;stroke-width:1.0;" x1="476.5" x2="476.5" y1="758.9679" y2="801.4268"/><polygon fill="#181818" points="472.5,791.4268,476.5,801.4268,480.5,791.4268,476.5,795.4268" style="stroke:#181818;stroke-width:1.0;"/><line style="stroke:#181818;stroke-width:1.0;" x1="703.125" x2="703.125" y1="1023.4229" y2="1080.6629"/><polygon fill="#181818" points="699.125,1070.6629,703.125,1080.6629,707.125,1070.6629,703.125,1074.6629" style="stroke:#181818;stroke-width:1.0;"/><line style="stroke:#181818;stroke-width:1.0;" x1="544.875" x2="506.625" y1="942.8388" y2="942.8388"/><line style="stroke:#181818;stroke-width:1.0;" x1="506.625" x2="506.625" y1="942.8388" y2="964.8388"/><polygon fill="#181818" points="502.625,954.8388,506.625,964.8388,510.625,954.8388,506.625,958.8388" style="stroke:#181818;stroke-width:1.0;"/><line style="stroke:#181818;stroke-width:1.0;" x1="664.875" x2="703.125" y1="942.8388" y2="942.8388"/><line style="stroke:#181818;stroke-width:1.0;" x1="703.125" x2="703.125" y1="942.8388" y2="987.0788"/><polygon fill="#181818" points="699.125,977.0788,703.125,987.0788,707.125,977.0788,703.125,981.0788" style="stroke:#181818;stroke-width:1.0;"/><line style="stroke:#181818;stroke-width:1.0;" x1="506.625" x2="506.625" y1="1017.527" y2="1135.007"/><line style="stroke:#181818;stroke-width:1.0;" x1="506.625" x2="592.875" y1="1135.007" y2="1135.007"/><polygon fill="#181818" points="582.875,1131.007,592.875,1135.007,582.875,1139.007,586.875,1135.007" style="stroke:#181818;stroke-width:1.0;"/><line style="stroke:#181818;stroke-width:1.0;" x1="703.125" x2="703.125" y1="1117.007" y2="1135.007"/><line style="stroke:#181818;stroke-width:1.0;" x1="703.125" x2="616.875" y1="1135.007" y2="1135.007"/><polygon fill="#181818" points="626.875,1131.007,616.875,1135.007,626.875,1139.007,622.875,1135.007" style="stroke:#181818;stroke-width:1.0;"/><line style="stroke:#181818;stroke-width:1.0;" x1="392" x2="348.125" y1="869.7709" y2="869.7709"/><line style="stroke:#181818;stroke-width:1.0;" x1="348.125" x2="348.125" y1="869.7709" y2="922.8639"/><polygon fill="#181818" points="344.125,912.8639,348.125,922.8639,352.125,912.8639,348.125,916.8639" style="stroke:#181818;stroke-width:1.0;"/><line style="stroke:#181818;stroke-width:1.0;" x1="561" x2="604.875" y1="869.7709" y2="869.7709"/><line style="stroke:#181818;stroke-width:1.0;" x1="604.875" x2="604.875" y1="869.7709" y2="930.8388"/><polygon fill="#181818" points="600.875,920.8388,604.875,930.8388,608.875,920.8388,604.875,924.8388" style="stroke:#181818;stroke-width:1.0;"/><line style="stroke:#181818;stroke-width:1.0;" x1="348.125" x2="348.125" y1="959.208" y2="1177.007"/><line style="stroke:#181818;stroke-width:1.0;" x1="348.125" x2="464.5" y1="1177.007" y2="1177.007"/><polygon fill="#181818" points="454.5,1173.007,464.5,1177.007,454.5,1181.007,458.5,1177.007" style="stroke:#181818;stroke-width:1.0;"/><line style="stroke:#181818;stroke-width:1.0;" x1="604.875" x2="604.875" y1="1147.007" y2="1177.007"/><line style="stroke:#181818;stroke-width:1.0;" x1="604.875" x2="488.5" y1="1177.007" y2="1177.007"/><polygon fill="#181818" points="498.5,1173.007,488.5,1177.007,498.5,1181.007,494.5,1177.007" style="stroke:#181818;stroke-width:1.0;"/><line style="stroke:#181818;stroke-width:1.0;" x1="476.5" x2="476.5" y1="837.7709" y2="857.7709"/><polygon fill="#181818" points="472.5,847.7709,476.5,857.7709,480.5,847.7709,476.5,851.7709" style="stroke:#181818;stroke-width:1.0;"/><line style="stroke:#181818;stroke-width:1.0;" x1="476.5" x2="476.5" y1="677.1249" y2="722.6237"/><polygon fill="#181818" points="472.5,712.6237,476.5,722.6237,480.5,712.6237,476.5,716.6237" style="stroke:#181818;stroke-width:1.0;"/><line style="stroke:#181818;stroke-width:1.0;" x1="476.5" x2="476.5" y1="1189.007" y2="1199.007"/><line style="stroke:#181818;stroke-width:1.0;" x1="476.5" x2="1210.625" y1="1199.007" y2="1199.007"/><polygon fill="#181818" points="1206.625,924.3139,1210.625,914.3139,1214.625,924.3139,1210.625,920.3139" style="stroke:#181818;stroke-width:1.0;"/><line style="stroke:#181818;stroke-width:1.0;" x1="1210.625" x2="1210.625" y1="665.1249" y2="1199.007"/><line style="stroke:#181818;stroke-width:1.0;" x1="1210.625" x2="556.5" y1="665.1249" y2="665.1249"/><polygon fill="#181818" points="566.5,661.1249,556.5,665.1249,566.5,669.1249,562.5,665.1249" style="stroke:#181818;stroke-width:1.0;"/><line style="stroke:#181818;stroke-width:1.0;" x1="396.5" x2="24" y1="665.1249" y2="665.1249"/><polygon fill="#181818" points="20,910.3139,24,920.3139,28,910.3139,24,914.3139" style="stroke:#181818;stroke-width:1.0;"/><line style="stroke:#181818;stroke-width:1.0;" x1="24" x2="24" y1="665.1249" y2="1211.007"/><line style="stroke:#181818;stroke-width:1.0;" x1="24" x2="476.5" y1="1211.007" y2="1211.007"/><line style="stroke:#181818;stroke-width:1.0;" x1="476.5" x2="476.5" y1="1211.007" y2="1260.0749"/><polygon fill="#181818" points="472.5,1250.0749,476.5,1260.0749,480.5,1250.0749,476.5,1254.0749" style="stroke:#181818;stroke-width:1.0;"/><line style="stroke:#181818;stroke-width:1.0;" x1="476.5" x2="476.5" y1="619.7379" y2="653.1249"/><polygon fill="#181818" points="472.5,643.1249,476.5,653.1249,480.5,643.1249,476.5,647.1249" style="stroke:#181818;stroke-width:1.0;"/><line style="stroke:#181818;stroke-width:1.0;" x1="476.5" x2="476.5" y1="1296.419" y2="1316.419"/><polygon fill="#181818" points="472.5,1306.419,476.5,1316.419,480.5,1306.419,476.5,1310.419" style="stroke:#181818;stroke-width:1.0;"/><line style="stroke:#181818;stroke-width:1.0;" x1="476.5" x2="476.5" y1="1352.7631" y2="1384.7631"/><polygon fill="#181818" points="472.5,1374.7631,476.5,1384.7631,480.5,1374.7631,476.5,1378.7631" style="stroke:#181818;stroke-width:1.0;"/><line style="stroke:#181818;stroke-width:1.0;" x1="476.5" x2="476.5" y1="130.3441" y2="150.3441"/><polygon fill="#181818" points="472.5,140.3441,476.5,150.3441,480.5,140.3441,476.5,144.3441" style="stroke:#181818;stroke-width:1.0;"/><line style="stroke:#181818;stroke-width:1.0;" x1="476.5" x2="476.5" y1="1437.4514" y2="1485.4514"/><line style="stroke:#181818;stroke-width:1.0;" x1="476.5" x2="1222.625" y1="1485.4514" y2="1485.4514"/><polygon fill="#181818" points="1218.625,781.4268,1222.625,771.4268,1226.625,781.4268,1222.625,777.4268" style="stroke:#181818;stroke-width:1.0;"/><line style="stroke:#181818;stroke-width:1.0;" x1="1222.625" x2="1222.625" y1="118.3441" y2="1485.4514"/><line style="stroke:#181818;stroke-width:1.0;" x1="1222.625" x2="488.5" y1="118.3441" y2="118.3441"/><polygon fill="#181818" points="498.5,114.3441,488.5,118.3441,498.5,122.3441,494.5,118.3441" style="stroke:#181818;stroke-width:1.0;"/><line style="stroke:#181818;stroke-width:1.0;" x1="476.5" x2="476.5" y1="86.3441" y2="106.3441"/><polygon fill="#181818" points="472.5,96.3441,476.5,106.3441,480.5,96.3441,476.5,100.3441" style="stroke:#181818;stroke-width:1.0;"/><!--SRC=[XLPDZzis4BtxLmoSWpU0uwRNzI58TjCc1TAwsCtPeAcHnPec5P9Qhr7qltU6b2NAaX6TRF7DS3xUl94FmeNP_OD34H2UyLXR9zmP7fL36QmxhsSEQpgS0JttlsE0Ikqhz05gfwnJuGoBZSEDinAzLsR_BFnX4T6biqT2uRkwEuGV3JQuJiuUAc7s2ErfvoyU5dIfATZ26WZaiZjEngg4km9tpNvxj0M2yeJxy1P2XGRkpkZVHbIyvhj7SlS2tZPE8aZ65trwZ45Dc3jZhwn2LuuhV4HGrhLm2ANL1Rh-m5YgfACYXUuLFmyLoeFdmBMLGWDPMw_O9-2hyi4l1t2fhS48DyZbeIYM8AEF0SusWRC6NwDKfSA24ZmULLY2CCK0sTG5zTX7T7qE5HKMpOjorXpHX5M7fRh776Rj7rMsxHAIBOKJHmpeu4Ne1dtAkyFpmoIHZNFajGLHZHm8hNjhoip0LrFgvlNnKsT98SVmyBL6fpWiC8JtjP2Os-w4fqIjwGpPA9Pr6r5-6yZQ1t6iLxDHJbtdg1u2QgjCc4gZdOd8s9H1XeTWE-BcXHQQh8hpvOoYp8nMy2mEo9t7e8Aofcyb7LiGKjhcqef1oATAQMBeHofX7aHt2r6VHc38u7OasxvliydhMAgn79BqkI8t4KaqCa4eum5VaE_IYaAVjywy56O-9EofGYhfLPDzPHjTm0xRA8ebM3SmcrFJrCu9BiVySYdFlQ2Xa_oMvy-Mm-5eRQYyrtoymUDOaO-19pfmx_QOniRWQyXAsjU71UQHts_uFVmTQqB5-KmEpjDAawQ4Cb26iSPGKDhQUZr0J1S-5H-X4guu4JT_8N48cN2Em2Vh3kJ_o3e3FYZDYX8xDuBcZCdrP0NVX6c47XbmT_t0TQA4A8f8smcJdEM3mr4NnbhB3xKnZGIyUH-VNz_3fbyTcVz_HtVV4Dm1fsNaeT3UCXaBqjP9B8cIPstWmRyCrrL2URUi8-KdSaOgPIMODAX4L0sw_e0rwJCfSBElniv75Sif-OVTmOaSKOSaQXqd_mOLEqf-4-wGHJS9obskno5DzgpdV5BAnPUMlF4JO3s9_KclqlgWmI4z80tWilxZYHGboTzojLhTDE9r7HU0FbCYjAYAzFUcGIPI9wuV1NOJo_CGDOdorEzujKm7ShDpIOzfKmzBn7HRN2O-2VH4sVeLV7d-cutFw5Ux928HPhU6wgdPqTS1_AP2h31lN9OvtgZmFMeqz1FMTNP3QdJrYPT_2N5c4v2qrHOiPTjUoWQ9fbJksvkPtKz1X2PD41dF7__wy_EytyvNt7bA- -LhkruIOSY9xvsqOns_UeQQscheXy6w_Hy0]--></g></svg>