<?xml version="1.0" encoding="us-ascii" standalone="no"?><svg xmlns="http://www.w3.org/2000/svg" xmlns:xlink="http://www.w3.org/1999/xlink" contentStyleType="text/css" height="862px" preserveAspectRatio="none" style="width:623px;height:862px;background:#FFFFFF;" version="1.1" viewBox="0 0 623 862" width="623px" zoomAndPan="magnify"><defs/><g><ellipse cx="388" cy="20" fill="#222222" rx="10" ry="10" style="stroke:#222222;stroke-width:1.0;"/><rect fill="#000000" fill-opacity="0.06275" height="151.2901" style="stroke:#000000;stroke-width:1.5;" width="480" x="11" y="40"/><path d="M105,40 L105,52.0679 L95,62.0679 L11,62.0679 " fill="none" style="stroke:#000000;stroke-width:1.5;"/><text fill="#000000" font-family="sans-serif" font-size="14" lengthAdjust="spacing" textLength="84" x="14" y="55.9659">Initialization</text><path d="M112,77.534 L112,122.946 A0,0 0 0 0 112,122.946 L297,122.946 A0,0 0 0 0 297,122.946 L297,104.24 L317,100.24 L297,96.24 L297,87.534 L287,77.534 L112,77.534 A0,0 0 0 0 112,77.534 " fill="#FEFFDD" style="stroke:#181818;stroke-width:0.5;"/><path d="M287,77.534 L287,87.534 L297,87.534 L287,77.534 " fill="#FEFFDD" style="stroke:#181818;stroke-width:0.5;"/><text fill="#000000" font-family="sans-serif" font-size="13" lengthAdjust="spacing" textLength="159" x="118" y="96.431">Mark experiments that are</text><text fill="#000000" font-family="sans-serif" font-size="13" lengthAdjust="spacing" textLength="164" x="118" y="114.137">not finished as CANCELLED.</text><rect fill="#F1F1F1" height="36.3441" rx="12.5" ry="12.5" style="stroke:#181818;stroke-width:0.5;" width="142" x="317" y="82.0679"/><text fill="#000000" font-family="sans-serif" font-size="12" lengthAdjust="spacing" textLength="122" x="327" y="104.896">Update job_runs table</text><path d="M21,147.265 L21,174.9711 A0,0 0 0 0 21,174.9711 L275,174.9711 A0,0 0 0 0 275,174.9711 L275,165.265 L295,161.118 L275,157.265 L275,157.265 L265,147.265 L21,147.265 A0,0 0 0 0 21,147.265 " fill="#FEFFDD" style="stroke:#181818;stroke-width:0.5;"/><path d="M265,147.265 L265,157.265 L275,157.265 L265,147.265 " fill="#FEFFDD" style="stroke:#181818;stroke-width:0.5;"/><text fill="#000000" font-family="sans-serif" font-size="13" lengthAdjust="spacing" textLength="233" x="27" y="166.1621">Mark PROCESSING jobs as PROCESSED.</text><rect fill="#F1F1F1" height="36.3441" rx="12.5" ry="12.5" style="stroke:#181818;stroke-width:0.5;" width="186" x="295" y="142.946"/><text fill="#000000" font-family="sans-serif" font-size="12" lengthAdjust="spacing" textLength="166" x="305" y="165.7741">Update job_submissions table</text><polygon fill="#F1F1F1" points="277.5,255.2901,498.5,255.2901,510.5,267.2901,498.5,279.2901,277.5,279.2901,265.5,267.2901,277.5,255.2901" style="stroke:#181818;stroke-width:0.5;"/><text fill="#000000" font-family="sans-serif" font-size="11" lengthAdjust="spacing" textLength="221" x="277.5" y="271.5581">Jobs with status "SUBMITTED" in job table?</text><text fill="#000000" font-family="sans-serif" font-size="11" lengthAdjust="spacing" textLength="17" x="248.5" y="264.0671">yes</text><text fill="#000000" font-family="sans-serif" font-size="11" lengthAdjust="spacing" textLength="14" x="510.5" y="264.0671">no</text><rect fill="#000000" fill-opacity="0.06275" height="305.4767" style="stroke:#000000;stroke-width:1.5;" width="197" x="157" y="351.9783"/><path d="M265,351.9783 L265,364.0463 L255,374.0463 L157,374.0463 " fill="none" style="stroke:#000000;stroke-width:1.5;"/><text fill="#000000" font-family="sans-serif" font-size="14" lengthAdjust="spacing" textLength="98" x="160" y="367.9443">Job Processing</text><rect fill="#F1F1F1" height="52.6882" rx="12.5" ry="12.5" style="stroke:#181818;stroke-width:0.5;" width="119" x="196" y="391.0463"/><text fill="#000000" font-family="sans-serif" font-size="12" lengthAdjust="spacing" textLength="99" x="206" y="413.8743">Update Job Status</text><text fill="#000000" font-family="sans-serif" font-size="12" lengthAdjust="spacing" textLength="98" x="206" y="430.2185">to "PROCESSING"</text><rect fill="#F1F1F1" height="52.6882" rx="12.5" ry="12.5" style="stroke:#181818;stroke-width:0.5;" width="157" x="177" y="463.7345"/><text fill="#000000" font-family="sans-serif" font-size="12" lengthAdjust="spacing" textLength="104" x="187" y="486.5626">Create job run and</text><text fill="#000000" font-family="sans-serif" font-size="12" lengthAdjust="spacing" textLength="137" x="187" y="502.9067">insert into job_runs table</text><rect fill="#F1F1F1" height="36.3441" rx="12.5" ry="12.5" style="stroke:#181818;stroke-width:0.5;" width="177" x="167" y="536.4227"/><text fill="#000000" font-family="sans-serif" font-size="12" lengthAdjust="spacing" textLength="157" x="177" y="559.2508">Create "PreProcessingTask"</text><rect fill="#F1F1F1" height="52.6882" rx="12.5" ry="12.5" style="stroke:#181818;stroke-width:0.5;" width="160" x="175.5" y="592.7668"/><text fill="#000000" font-family="sans-serif" font-size="12" lengthAdjust="spacing" textLength="140" x="185.5" y="615.5949">Put PreProcessingTask in</text><text fill="#000000" font-family="sans-serif" font-size="12" lengthAdjust="spacing" textLength="122" x="185.5" y="631.939">pre-processing queue</text><polygon fill="#F1F1F1" points="213.5,289.2901,297.5,289.2901,309.5,301.2901,297.5,313.2901,213.5,313.2901,201.5,301.2901,213.5,289.2901" style="stroke:#181818;stroke-width:0.5;"/><text fill="#000000" font-family="sans-serif" font-size="11" lengthAdjust="spacing" textLength="17" x="259.5" y="325.049">yes</text><text fill="#000000" font-family="sans-serif" font-size="11" lengthAdjust="spacing" textLength="84" x="213.5" y="305.5581">Jobs to process?</text><text fill="#000000" font-family="sans-serif" font-size="11" lengthAdjust="spacing" textLength="14" x="187.5" y="298.0671">no</text><rect fill="#F1F1F1" height="52.6882" rx="12.5" ry="12.5" style="stroke:#181818;stroke-width:0.5;" width="126" x="457.5" y="289.2901"/><text fill="#000000" font-family="sans-serif" font-size="12" lengthAdjust="spacing" textLength="54" x="467.5" y="312.1182">Wait for a</text><text fill="#000000" font-family="sans-serif" font-size="12" lengthAdjust="spacing" textLength="106" x="467.5" y="328.4623">predefined interval</text><polygon fill="#F1F1F1" points="388,685.4551,400,697.4551,388,709.4551,376,697.4551,388,685.4551" style="stroke:#181818;stroke-width:0.5;"/><polygon fill="#F1F1F1" points="388,211.2901,400,223.2901,388,235.2901,376,223.2901,388,211.2901" style="stroke:#181818;stroke-width:0.5;"/><polygon fill="#F1F1F1" points="358.5,729.4551,417.5,729.4551,429.5,741.4551,417.5,753.4551,358.5,753.4551,346.5,741.4551,358.5,729.4551" style="stroke:#181818;stroke-width:0.5;"/><text fill="#000000" font-family="sans-serif" font-size="11" lengthAdjust="spacing" textLength="59" x="358.5" y="745.723">Should exit</text><text fill="#000000" font-family="sans-serif" font-size="11" lengthAdjust="spacing" textLength="14" x="429.5" y="738.2321">no</text><rect fill="#F1F1F1" height="36.3441" rx="12.5" ry="12.5" style="stroke:#181818;stroke-width:0.5;" width="134" x="321" y="773.4551"/><text fill="#000000" font-family="sans-serif" font-size="12" lengthAdjust="spacing" textLength="114" x="331" y="796.2831">Shutdown Scheduler</text><ellipse cx="388" cy="840.7992" fill="none" rx="11" ry="11" style="stroke:#222222;stroke-width:1.0;"/><ellipse cx="388" cy="840.7992" fill="#222222" rx="6" ry="6" style="stroke:#222222;stroke-width:1.0;"/><line style="stroke:#181818;stroke-width:1.0;" x1="388" x2="388" y1="118.412" y2="142.946"/><polygon fill="#181818" points="384,132.946,388,142.946,392,132.946,388,136.946" style="stroke:#181818;stroke-width:1.0;"/><line style="stroke:#181818;stroke-width:1.0;" x1="388" x2="388" y1="30" y2="82.0679"/><polygon fill="#181818" points="384,72.0679,388,82.0679,392,72.0679,388,76.0679" style="stroke:#181818;stroke-width:1.0;"/><line style="stroke:#181818;stroke-width:1.0;" x1="255.5" x2="255.5" y1="443.7345" y2="463.7345"/><polygon fill="#181818" points="251.5,453.7345,255.5,463.7345,259.5,453.7345,255.5,457.7345" style="stroke:#181818;stroke-width:1.0;"/><line style="stroke:#181818;stroke-width:1.0;" x1="255.5" x2="255.5" y1="516.4227" y2="536.4227"/><polygon fill="#181818" points="251.5,526.4227,255.5,536.4227,259.5,526.4227,255.5,530.4227" style="stroke:#181818;stroke-width:1.0;"/><line style="stroke:#181818;stroke-width:1.0;" x1="255.5" x2="255.5" y1="572.7668" y2="592.7668"/><polygon fill="#181818" points="251.5,582.7668,255.5,592.7668,259.5,582.7668,255.5,586.7668" style="stroke:#181818;stroke-width:1.0;"/><line style="stroke:#181818;stroke-width:1.0;" x1="255.5" x2="255.5" y1="313.2901" y2="391.0463"/><polygon fill="#181818" points="251.5,381.0463,255.5,391.0463,259.5,381.0463,255.5,385.0463" style="stroke:#181818;stroke-width:1.0;"/><line style="stroke:#181818;stroke-width:1.0;" x1="255.5" x2="255.5" y1="645.4551" y2="667.4551"/><line style="stroke:#181818;stroke-width:1.0;" x1="255.5" x2="366" y1="667.4551" y2="667.4551"/><polygon fill="#181818" points="362,506.7257,366,496.7257,370,506.7257,366,502.7257" style="stroke:#181818;stroke-width:1.0;"/><line style="stroke:#181818;stroke-width:1.0;" x1="366" x2="366" y1="301.2901" y2="667.4551"/><line style="stroke:#181818;stroke-width:1.0;" x1="366" x2="309.5" y1="301.2901" y2="301.2901"/><polygon fill="#181818" points="319.5,297.2901,309.5,301.2901,319.5,305.2901,315.5,301.2901" style="stroke:#181818;stroke-width:1.0;"/><line style="stroke:#181818;stroke-width:1.0;" x1="201.5" x2="145" y1="301.2901" y2="301.2901"/><polygon fill="#181818" points="141,501.7257,145,511.7257,149,501.7257,145,505.7257" style="stroke:#181818;stroke-width:1.0;"/><line style="stroke:#181818;stroke-width:1.0;" x1="145" x2="145" y1="301.2901" y2="697.4551"/><line style="stroke:#181818;stroke-width:1.0;" x1="145" x2="376" y1="697.4551" y2="697.4551"/><polygon fill="#181818" points="366,693.4551,376,697.4551,366,701.4551,370,697.4551" style="stroke:#181818;stroke-width:1.0;"/><line style="stroke:#181818;stroke-width:1.0;" x1="265.5" x2="255.5" y1="267.2901" y2="267.2901"/><line style="stroke:#181818;stroke-width:1.0;" x1="255.5" x2="255.5" y1="267.2901" y2="289.2901"/><polygon fill="#181818" points="251.5,279.2901,255.5,289.2901,259.5,279.2901,255.5,283.2901" style="stroke:#181818;stroke-width:1.0;"/><line style="stroke:#181818;stroke-width:1.0;" x1="510.5" x2="520.5" y1="267.2901" y2="267.2901"/><line style="stroke:#181818;stroke-width:1.0;" x1="520.5" x2="520.5" y1="267.2901" y2="289.2901"/><polygon fill="#181818" points="516.5,279.2901,520.5,289.2901,524.5,279.2901,520.5,283.2901" style="stroke:#181818;stroke-width:1.0;"/><line style="stroke:#181818;stroke-width:1.0;" x1="520.5" x2="520.5" y1="341.9783" y2="697.4551"/><line style="stroke:#181818;stroke-width:1.0;" x1="520.5" x2="400" y1="697.4551" y2="697.4551"/><polygon fill="#181818" points="410,693.4551,400,697.4551,410,701.4551,406,697.4551" style="stroke:#181818;stroke-width:1.0;"/><line style="stroke:#181818;stroke-width:1.0;" x1="388" x2="388" y1="235.2901" y2="255.2901"/><polygon fill="#181818" points="384,245.2901,388,255.2901,392,245.2901,388,249.2901" style="stroke:#181818;stroke-width:1.0;"/><line style="stroke:#181818;stroke-width:1.0;" x1="429.5" x2="597.5" y1="741.4551" y2="741.4551"/><polygon fill="#181818" points="593.5,504.7257,597.5,494.7257,601.5,504.7257,597.5,500.7257" style="stroke:#181818;stroke-width:1.0;"/><line style="stroke:#181818;stroke-width:1.0;" x1="597.5" x2="597.5" y1="223.2901" y2="741.4551"/><line style="stroke:#181818;stroke-width:1.0;" x1="597.5" x2="400" y1="223.2901" y2="223.2901"/><polygon fill="#181818" points="410,219.2901,400,223.2901,410,227.2901,406,223.2901" style="stroke:#181818;stroke-width:1.0;"/><line style="stroke:#181818;stroke-width:1.0;" x1="388" x2="388" y1="709.4551" y2="729.4551"/><polygon fill="#181818" points="384,719.4551,388,729.4551,392,719.4551,388,723.4551" style="stroke:#181818;stroke-width:1.0;"/><line style="stroke:#181818;stroke-width:1.0;" x1="388" x2="388" y1="179.2901" y2="211.2901"/><polygon fill="#181818" points="384,201.2901,388,211.2901,392,201.2901,388,205.2901" style="stroke:#181818;stroke-width:1.0;"/><line style="stroke:#181818;stroke-width:1.0;" x1="388" x2="388" y1="753.4551" y2="773.4551"/><polygon fill="#181818" points="384,763.4551,388,773.4551,392,763.4551,388,767.4551" style="stroke:#181818;stroke-width:1.0;"/><line style="stroke:#181818;stroke-width:1.0;" x1="388" x2="388" y1="809.7992" y2="829.7992"/><polygon fill="#181818" points="384,819.7992,388,829.7992,392,819.7992,388,823.7992" style="stroke:#181818;stroke-width:1.0;"/><!--SRC=[ZLF9JiCm4BtdAqRXqXv0vTeS4AGHAcfBHLfnH6up8KDJEtYXBEg_CrcwYEJ071BPVlFUUDuOF6E5jbx17xAa95mCghWUm5ZoZiZfMrG7Fnvm39T58Yp2crgzQ2SDMB7ACQZEfEA375DRhSgO2hq1_2nGqnQbPNGcB0YDHmJdG4gIJ8O920FXxIoC9fDeT5L1K2OLRKlRkDMMZE72_bF2_EanZE9uFBilaqqfr6orXFQUnW95JK0fz1xAX1tP3BXLrXdmu-NTTBnOH2CVI9Q4TGKtVRuUIkXzeUaVzNSPvTYmM0M5LciqXh5a_Y3BwFA1Ks5Ufv5yRNmuZqDVIc1SrTY2iB9_Qe8Vj3b2ZKrlWNq58PCMXgH1RVd7R5t-T_7vSusduXV2RBh4vyv22yX2BMIXyR8uzUBTeViZlZ-ksDAc-LBLNSRSdAqgvMT1F81AW_3ED1BacUI1vAkY_X1vS9WHIflnEFWQPyhb2SyusThIajqRnfcpYTf9YDSys2v77NZyr5Jn2m00]--></g></svg>