<?xml version="1.0" encoding="us-ascii" standalone="no"?><svg xmlns="http://www.w3.org/2000/svg" xmlns:xlink="http://www.w3.org/1999/xlink" contentStyleType="text/css" height="494px" preserveAspectRatio="none" style="width:1052px;height:494px;background:#FFFFFF;" version="1.1" viewBox="0 0 1052 494" width="1052px" zoomAndPan="magnify"><defs/><g><!--class experiment--><g id="elem_experiment"><rect codeLine="3" fill="#F1F1F1" height="86.1358" id="experiment" rx="2.5" ry="2.5" style="stroke:#181818;stroke-width:0.5;" width="323" x="7" y="102.33"/><ellipse cx="102.75" cy="118.33" fill="#ADD1B2" rx="11" ry="11" style="stroke:#181818;stroke-width:1.0;"/><path d="M106.2188,124.83 L98.9063,124.83 L98.9063,112.1581 L106.2188,112.1581 L106.2188,114.0331 L100.9531,114.0331 L100.9531,117.2987 L105.9063,117.2987 L105.9063,119.1581 L100.9531,119.1581 L100.9531,122.955 L106.2188,122.955 L106.2188,124.83 Z " fill="#000000"/><text fill="#000000" font-family="sans-serif" font-size="14" lengthAdjust="spacing" textLength="123" x="123.25" y="123.762">ExperimentSource</text><line style="stroke:#181818;stroke-width:0.5;" x1="8" x2="329" y1="134.33" y2="134.33"/><ellipse cx="18" cy="149.364" fill="#000000" rx="3" ry="3" style="stroke:#000000;stroke-width:1.0;"/><text fill="#000000" font-family="sans-serif" font-size="14" lengthAdjust="spacing" textLength="297" x="27" y="153.2959">experiment_source_id: number &#171;generated&#187;</text><line style="stroke:#181818;stroke-width:1.0;" x1="8" x2="329" y1="161.3979" y2="161.3979"/><ellipse cx="18" cy="176.4319" fill="#000000" rx="3" ry="3" style="stroke:#000000;stroke-width:1.0;"/><text fill="#000000" font-family="sans-serif" font-size="14" lengthAdjust="spacing" textLength="129" x="27" y="180.3639">experiment_id: text</text></g><!--class job--><g id="elem_job"><rect codeLine="9" fill="#F1F1F1" height="276.815" id="job" rx="2.5" ry="2.5" style="stroke:#181818;stroke-width:0.5;" width="329" x="365" y="7"/><ellipse cx="514.75" cy="23" fill="#ADD1B2" rx="11" ry="11" style="stroke:#181818;stroke-width:1.0;"/><path d="M518.2188,29.5 L510.9063,29.5 L510.9063,16.8281 L518.2188,16.8281 L518.2188,18.7031 L512.9531,18.7031 L512.9531,21.9688 L517.9063,21.9688 L517.9063,23.8281 L512.9531,23.8281 L512.9531,27.625 L518.2188,27.625 L518.2188,29.5 Z " fill="#000000"/><text fill="#000000" font-family="sans-serif" font-size="14" lengthAdjust="spacing" textLength="21" x="535.25" y="28.432">Job</text><line style="stroke:#181818;stroke-width:0.5;" x1="366" x2="693" y1="39" y2="39"/><ellipse cx="376" cy="54.034" fill="#000000" rx="3" ry="3" style="stroke:#000000;stroke-width:1.0;"/><text fill="#000000" font-family="sans-serif" font-size="14" lengthAdjust="spacing" textLength="190" x="385" y="57.9659">job_id: number &#171;generated&#187;</text><ellipse cx="376" cy="73.1019" fill="#000000" rx="3" ry="3" style="stroke:#000000;stroke-width:1.0;"/><text fill="#000000" font-family="sans-serif" font-size="14" lengthAdjust="spacing" textLength="131" x="385" y="77.0339">created: timestamp</text><line style="stroke:#181818;stroke-width:1.0;" x1="366" x2="693" y1="85.1358" y2="85.1358"/><ellipse cx="376" cy="100.1698" fill="#000000" rx="3" ry="3" style="stroke:#000000;stroke-width:1.0;"/><text fill="#000000" font-family="sans-serif" font-size="14" lengthAdjust="spacing" textLength="243" x="385" y="104.1018">experiment_source_id: number &#171;FK&#187;</text><ellipse cx="376" cy="119.2377" fill="#000000" rx="3" ry="3" style="stroke:#000000;stroke-width:1.0;"/><text fill="#000000" font-family="sans-serif" font-size="14" lengthAdjust="spacing" textLength="303" x="385" y="123.1697">status: Enum (submitted / processing / done)</text><ellipse cx="376" cy="138.3056" fill="#000000" rx="3" ry="3" style="stroke:#000000;stroke-width:1.0;"/><text fill="#000000" font-family="sans-serif" font-size="14" lengthAdjust="spacing" textLength="146" x="385" y="142.2376">git_commit_hash: text</text><ellipse cx="376" cy="157.3735" fill="#000000" rx="3" ry="3" style="stroke:#000000;stroke-width:1.0;"/><text fill="#000000" font-family="sans-serif" font-size="14" lengthAdjust="spacing" textLength="235" x="385" y="161.3055">priority: number between 0 and 20</text><ellipse cx="376" cy="176.4415" fill="#000000" rx="3" ry="3" style="stroke:#000000;stroke-width:1.0;"/><text fill="#000000" font-family="sans-serif" font-size="14" lengthAdjust="spacing" textLength="135" x="385" y="180.3734">repetitions: number</text><ellipse cx="376" cy="195.5094" fill="#000000" rx="3" ry="3" style="stroke:#000000;stroke-width:1.0;"/><text fill="#000000" font-family="sans-serif" font-size="14" lengthAdjust="spacing" textLength="177" x="385" y="199.4414">number_of_shots: number</text><ellipse cx="376" cy="214.5773" fill="#000000" rx="3" ry="3" style="stroke:#000000;stroke-width:1.0;"/><text fill="#000000" font-family="sans-serif" font-size="14" lengthAdjust="spacing" textLength="273" x="385" y="218.5093">local_parameters_timestamp: timestamp</text><ellipse cx="376" cy="233.6452" fill="#000000" rx="3" ry="3" style="stroke:#000000;stroke-width:1.0;"/><text fill="#000000" font-family="sans-serif" font-size="14" lengthAdjust="spacing" textLength="145" x="385" y="237.5772">auto_calibration: bool</text><ellipse cx="376" cy="252.7131" fill="#000000" rx="3" ry="3" style="stroke:#000000;stroke-width:1.0;"/><text fill="#000000" font-family="sans-serif" font-size="14" lengthAdjust="spacing" textLength="125" x="385" y="256.6451">debug_mode: bool</text><text fill="#000000" font-family="sans-serif" font-size="14" lengthAdjust="spacing" textLength="187" x="385" y="275.713">parent_job_id: number &#171;FK&#187;</text></g><!--class job_run--><g id="elem_job_run"><rect codeLine="26" fill="#F1F1F1" height="143.3396" id="job_run" rx="2.5" ry="2.5" style="stroke:#181818;stroke-width:0.5;" width="445" x="262" y="343.81"/><ellipse cx="456.25" cy="359.81" fill="#ADD1B2" rx="11" ry="11" style="stroke:#181818;stroke-width:1.0;"/><path d="M459.7188,366.31 L452.4063,366.31 L452.4063,353.6381 L459.7188,353.6381 L459.7188,355.5131 L454.4531,355.5131 L454.4531,358.7787 L459.4063,358.7787 L459.4063,360.6381 L454.4531,360.6381 L454.4531,364.435 L459.7188,364.435 L459.7188,366.31 Z " fill="#000000"/><text fill="#000000" font-family="sans-serif" font-size="14" lengthAdjust="spacing" textLength="48" x="476.75" y="365.242">JobRun</text><line style="stroke:#181818;stroke-width:0.5;" x1="263" x2="706" y1="375.81" y2="375.81"/><ellipse cx="273" cy="390.844" fill="#000000" rx="3" ry="3" style="stroke:#000000;stroke-width:1.0;"/><text fill="#000000" font-family="sans-serif" font-size="14" lengthAdjust="spacing" textLength="220" x="282" y="394.7759">job_run_id: number &#171;generated&#187;</text><ellipse cx="273" cy="409.9119" fill="#000000" rx="3" ry="3" style="stroke:#000000;stroke-width:1.0;"/><text fill="#000000" font-family="sans-serif" font-size="14" lengthAdjust="spacing" textLength="186" x="282" y="413.8439">scheduled_time: timestamp</text><line style="stroke:#181818;stroke-width:1.0;" x1="263" x2="706" y1="421.9458" y2="421.9458"/><ellipse cx="273" cy="436.9798" fill="#000000" rx="3" ry="3" style="stroke:#000000;stroke-width:1.0;"/><text fill="#000000" font-family="sans-serif" font-size="14" lengthAdjust="spacing" textLength="136" x="282" y="440.9118">job_id: number &#171;FK&#187;</text><ellipse cx="273" cy="456.0477" fill="#000000" rx="3" ry="3" style="stroke:#000000;stroke-width:1.0;"/><text fill="#000000" font-family="sans-serif" font-size="14" lengthAdjust="spacing" textLength="419" x="282" y="459.9797">status: Enum (pending / processing / failed / cancelled / done)</text><text fill="#000000" font-family="sans-serif" font-size="14" lengthAdjust="spacing" textLength="170" x="282" y="479.0476">log: text (job information)</text></g><!--class scan_param--><g id="elem_scan_param"><rect codeLine="43" fill="#F1F1F1" height="143.3396" id="scan_param" rx="2.5" ry="2.5" style="stroke:#181818;stroke-width:0.5;" width="303" x="742" y="343.81"/><ellipse cx="836.25" cy="359.81" fill="#ADD1B2" rx="11" ry="11" style="stroke:#181818;stroke-width:1.0;"/><path d="M839.7188,366.31 L832.4063,366.31 L832.4063,353.6381 L839.7188,353.6381 L839.7188,355.5131 L834.4531,355.5131 L834.4531,358.7787 L839.4063,358.7787 L839.4063,360.6381 L834.4531,360.6381 L834.4531,364.435 L839.7188,364.435 L839.7188,366.31 Z " fill="#000000"/><text fill="#000000" font-family="sans-serif" font-size="14" lengthAdjust="spacing" textLength="106" x="856.75" y="365.242">Scan Parameter</text><line style="stroke:#181818;stroke-width:0.5;" x1="743" x2="1044" y1="375.81" y2="375.81"/><ellipse cx="753" cy="390.844" fill="#000000" rx="3" ry="3" style="stroke:#000000;stroke-width:1.0;"/><text fill="#000000" font-family="sans-serif" font-size="14" lengthAdjust="spacing" textLength="277" x="762" y="394.7759">scan_parameter_id: number &#171;generated&#187;</text><line style="stroke:#181818;stroke-width:1.0;" x1="743" x2="1044" y1="402.8779" y2="402.8779"/><ellipse cx="753" cy="417.9119" fill="#000000" rx="3" ry="3" style="stroke:#000000;stroke-width:1.0;"/><text fill="#000000" font-family="sans-serif" font-size="14" lengthAdjust="spacing" textLength="136" x="762" y="421.8439">job_id: number &#171;FK&#187;</text><ellipse cx="753" cy="436.9798" fill="#000000" rx="3" ry="3" style="stroke:#000000;stroke-width:1.0;"/><text fill="#000000" font-family="sans-serif" font-size="14" lengthAdjust="spacing" textLength="106" x="762" y="440.9118">variable_id: text</text><ellipse cx="753" cy="456.0477" fill="#000000" rx="3" ry="3" style="stroke:#000000;stroke-width:1.0;"/><text fill="#000000" font-family="sans-serif" font-size="14" lengthAdjust="spacing" textLength="190" x="762" y="459.9797">scan_values: list of numbers</text><ellipse cx="753" cy="475.1156" fill="#000000" rx="3" ry="3" style="stroke:#000000;stroke-width:1.0;"/><text fill="#000000" font-family="sans-serif" font-size="14" lengthAdjust="spacing" textLength="200" x="762" y="479.0476">device_id: number &#171;FK&#187; | null</text></g><!--class devices--><g id="elem_devices"><rect codeLine="52" fill="#F1F1F1" height="162.4075" id="devices" rx="2.5" ry="2.5" style="stroke:#181818;stroke-width:0.5;" width="238" x="774.5" y="64.2"/><ellipse cx="863.75" cy="80.2" fill="#ADD1B2" rx="11" ry="11" style="stroke:#181818;stroke-width:1.0;"/><path d="M867.2188,86.7 L859.9063,86.7 L859.9063,74.0281 L867.2188,74.0281 L867.2188,75.9031 L861.9531,75.9031 L861.9531,79.1687 L866.9063,79.1687 L866.9063,81.0281 L861.9531,81.0281 L861.9531,84.825 L867.2188,84.825 L867.2188,86.7 Z " fill="#000000"/><text fill="#000000" font-family="sans-serif" font-size="14" lengthAdjust="spacing" textLength="51" x="884.25" y="85.632">Devices</text><line style="stroke:#181818;stroke-width:0.5;" x1="775.5" x2="1011.5" y1="96.2" y2="96.2"/><ellipse cx="785.5" cy="111.234" fill="#000000" rx="3" ry="3" style="stroke:#000000;stroke-width:1.0;"/><text fill="#000000" font-family="sans-serif" font-size="14" lengthAdjust="spacing" textLength="212" x="794.5" y="115.1659">device_id: number &#171;generated&#187;</text><ellipse cx="785.5" cy="130.3019" fill="#000000" rx="3" ry="3" style="stroke:#000000;stroke-width:1.0;"/><text fill="#000000" font-family="sans-serif" font-size="14" lengthAdjust="spacing" textLength="141" x="794.5" y="134.2339">name: text  &#171;unique&#187;</text><line style="stroke:#181818;stroke-width:1.0;" x1="775.5" x2="1011.5" y1="142.3358" y2="142.3358"/><ellipse cx="785.5" cy="157.3698" fill="#000000" rx="3" ry="3" style="stroke:#000000;stroke-width:1.0;"/><text fill="#000000" font-family="sans-serif" font-size="14" lengthAdjust="spacing" textLength="100" x="794.5" y="161.3018">hostname: text</text><ellipse cx="785.5" cy="176.4377" fill="#000000" rx="3" ry="3" style="stroke:#000000;stroke-width:1.0;"/><text fill="#000000" font-family="sans-serif" font-size="14" lengthAdjust="spacing" textLength="90" x="794.5" y="180.3697">port: number</text><ellipse cx="785.5" cy="195.5056" fill="#000000" rx="3" ry="3" style="stroke:#000000;stroke-width:1.0;"/><text fill="#000000" font-family="sans-serif" font-size="14" lengthAdjust="spacing" textLength="76" x="794.5" y="199.4376">active: bool</text><text fill="#000000" font-family="sans-serif" font-size="14" lengthAdjust="spacing" textLength="109" x="794.5" y="218.5055">description: text</text></g><!--link job to scan_param--><g id="link_job_scan_param"><path codeLine="64" d="M702.23,255.15 C738.45,255.15 758.25,255.15 758.25,255.15 C758.25,255.15 758.25,283.07 758.25,325.76 " fill="none" id="job-scan_param" style="stroke:#181818;stroke-width:1.0;stroke-dasharray:7.0,7.0;"/><line style="stroke:#181818;stroke-width:1.0;" x1="698.23" x2="698.23" y1="259.15" y2="251.15"/><line style="stroke:#181818;stroke-width:1.0;" x1="701.23" x2="701.23" y1="259.15" y2="251.15"/><line style="stroke:#181818;stroke-width:1.0;" x1="702.23" x2="694.23" y1="255.15" y2="255.15"/><line style="stroke:#181818;stroke-width:1.0;" x1="758.25" x2="764.25" y1="335.76" y2="343.76"/><line style="stroke:#181818;stroke-width:1.0;" x1="758.25" x2="752.25" y1="335.76" y2="343.76"/><line style="stroke:#181818;stroke-width:1.0;" x1="758.25" x2="758.25" y1="335.76" y2="343.76"/><ellipse cx="758.25" cy="329.76" fill="none" rx="4" ry="4" style="stroke:#181818;stroke-width:1.0;"/></g><!--link experiment to job--><g id="link_experiment_job"><path codeLine="65" d="M338.26,145.15 C349.7,145.15 335.24,145.15 346.7,145.15 " fill="none" id="experiment-job" style="stroke:#181818;stroke-width:1.0;stroke-dasharray:7.0,7.0;"/><line style="stroke:#181818;stroke-width:1.0;" x1="334.26" x2="334.26" y1="149.15" y2="141.15"/><line style="stroke:#181818;stroke-width:1.0;" x1="337.26" x2="337.26" y1="149.15" y2="141.15"/><line style="stroke:#181818;stroke-width:1.0;" x1="338.26" x2="330.26" y1="145.15" y2="145.15"/><line style="stroke:#181818;stroke-width:1.0;" x1="356.7" x2="364.7" y1="145.15" y2="139.15"/><line style="stroke:#181818;stroke-width:1.0;" x1="356.7" x2="364.7" y1="145.15" y2="151.15"/><line style="stroke:#181818;stroke-width:1.0;" x1="356.7" x2="364.7" y1="145.15" y2="145.15"/><ellipse cx="350.7" cy="145.15" fill="none" rx="4" ry="4" style="stroke:#181818;stroke-width:1.0;"/></g><!--link job to job_run--><g id="link_job_job_run"><path codeLine="66" d="M529.5,292 C529.5,312.59 529.5,307.08 529.5,325.53 " fill="none" id="job-job_run" style="stroke:#181818;stroke-width:1.0;stroke-dasharray:7.0,7.0;"/><line style="stroke:#181818;stroke-width:1.0;" x1="525.5" x2="533.5" y1="288" y2="288"/><line style="stroke:#181818;stroke-width:1.0;" x1="525.5" x2="533.5" y1="291" y2="291"/><line style="stroke:#181818;stroke-width:1.0;" x1="529.5" x2="529.5" y1="292" y2="284"/><line style="stroke:#181818;stroke-width:1.0;" x1="529.5" x2="535.5" y1="335.53" y2="343.53"/><line style="stroke:#181818;stroke-width:1.0;" x1="529.5" x2="523.5" y1="335.53" y2="343.53"/><line style="stroke:#181818;stroke-width:1.0;" x1="529.5" x2="529.5" y1="335.53" y2="343.53"/><ellipse cx="529.5" cy="329.53" fill="none" rx="4" ry="4" style="stroke:#181818;stroke-width:1.0;"/></g><!--link devices to scan_param--><g id="link_devices_scan_param"><path codeLine="67" d="M893.5,234.8 C893.5,271.92 893.5,289.5 893.5,325.42 " fill="none" id="devices-scan_param" style="stroke:#181818;stroke-width:1.0;stroke-dasharray:7.0,7.0;"/><line style="stroke:#181818;stroke-width:1.0;" x1="889.5" x2="897.5" y1="230.8" y2="230.8"/><line style="stroke:#181818;stroke-width:1.0;" x1="889.5" x2="897.5" y1="233.8" y2="233.8"/><line style="stroke:#181818;stroke-width:1.0;" x1="893.5" x2="893.5" y1="234.8" y2="226.8"/><line style="stroke:#181818;stroke-width:1.0;" x1="893.5" x2="899.5" y1="335.42" y2="343.42"/><line style="stroke:#181818;stroke-width:1.0;" x1="893.5" x2="887.5" y1="335.42" y2="343.42"/><line style="stroke:#181818;stroke-width:1.0;" x1="893.5" x2="893.5" y1="335.42" y2="343.42"/><ellipse cx="893.5" cy="329.42" fill="none" rx="4" ry="4" style="stroke:#181818;stroke-width:1.0;"/></g><!--SRC=[XLHDRzim3BtxLn2zf0sGhDWnADhBsiDs6LRiBCWs4skLHKyVMOkc_tsq5CLsaYq-cUGJgST7ohqeqqahMz3Ae7_h4CZwXee2ZLV-3QuUNpkqgcNpcOAjy0ga0pmuuRq0_kQ3HxY84wfUWGbjYHRkxZPeq4gFzVrzn2yMYvDp_G6Fhxxu6Af_fJ8M_4LbhiI__yyzhops9cVZnCxBjflKdC4yEBJJ94_VykaBJ0OWP_R1hU2HOt3jGjagpsNX4tIMAdHEcGqRDHcyIISsoekAMiQ9HhfcJpU6Egl8CkL3fHBz7qG3jo1D3Pzl4ynYXzmPHSPbP0gaVq5huHhoHq5DbTGYwemUhHE7nXptQ2w39y5eLN9BkSmAIYATOZMMOIDQgd7avQnzgqvKYNsQAlaZc2ociC6C1MNpWgYkQh0E6kju-NzfEpz_ZpDwTMZg9D14hRLKEcfOILEXJl-3X9esIJMuxaTIcJNPDZRgfYSxWqpt9qzO9DkF6ZETGRp3wU2DYIOGKzcZZOnC-o7PUywCTeha-NbWUzJrPwO1txFmyKAENMaMiW23fmTTMjoBVTvAgsIfSLZeeSfMwe2iWLRE0wttnrsUhwqwjswmOrlhyJHzYL0N2QLZBhCvb-LaceRE0eU3KRy37Z5ioFcH06bB-N6ShfQilDgEzw56LrdLfTt9pncBqe_B1osNkrqSYQAtTxlbajv7YXIZXvM376FO6BhVbI9pFitm5m00]--></g></svg>